<svg width="730" height="820" viewBox="0 0 730 820" fill="none" xmlns="http://www.w3.org/2000/svg">
<g filter="url(#filter0_b_2622_1688)">
<path d="M0.392597 0.11598L0.11547 586.162C0.854476 637.123 10.5308 688.085 64.5938 709.657L365 819.884L665.406 709.657C719.469 688.085 729.146 637.1 729.885 586.162L729.607 0.11598H0.392597ZM38.4053 40.6161H691.595V577.301C691.294 616.363 681.156 658.742 640.973 676.649L365 779.361L89.0272 676.649C48.8437 658.742 38.7055 616.363 38.4053 577.301V40.6161Z" fill="#CDA870" fill-opacity="0.05"/>
<path d="M365 820L364.954 819.977L64.5476 709.773C51.6381 704.623 40.5992 697.456 31.7311 688.502C23.6713 680.36 17.1126 670.433 12.2398 658.974C4.34166 640.371 0.461879 617.244 0 586.162L0.277127 0H729.723L730 586.162C729.538 617.244 725.658 640.371 717.737 658.974C712.864 670.433 706.306 680.36 698.246 688.502C689.378 697.456 678.339 704.6 665.429 709.773L365 820ZM0.508067 0.231959L0.23094 586.162C0.946852 634.757 9.14521 687.412 64.64 709.541L365 819.745L665.36 709.541C720.832 687.389 729.053 634.734 729.769 586.162L729.492 0.231959H0.508067ZM365 779.5L364.954 779.477L88.981 676.765C55.7488 661.943 38.6824 628.494 38.2898 577.301V40.5001H691.71V577.301C691.318 628.494 674.251 661.943 641.019 676.765L365 779.5ZM38.5207 40.7321V577.301C38.9133 628.378 55.9336 661.78 89.0734 676.556L365 779.245L640.927 676.533C674.066 661.757 691.064 628.378 691.479 577.278V40.7321H38.5207Z" fill="#CDA870" fill-opacity="0.05"/>
<path d="M130.943 664.161C126.994 664.161 123.53 662.862 120.851 660.38L109.558 649.872C106.74 647.251 105.17 643.586 105.008 639.318C104.754 632.22 108.565 623.754 115.17 616.679L441.303 266.458L456.872 249.739L530.196 170.649L564.414 202.502L153.413 652.261V652.285C146.854 659.429 138.725 663.882 131.682 664.161C131.428 664.138 131.174 664.161 130.943 664.161Z" fill="#CDA870" fill-opacity="0.05"/>
<path d="M519.781 158.431L477.26 126.85L468.877 119.056L507.282 77.4426L515.665 85.2364L550.223 125.438L519.781 158.431Z" fill="#CDA870" fill-opacity="0.05"/>
<path d="M642.174 260.644L586.263 201.379C586.24 201.402 586.194 201.425 586.171 201.471L575.617 212.93L518.529 159.788L551.553 123.997L603.307 172.152L603.768 172.801L656.146 245.52L642.174 260.644Z" fill="#CDA870" fill-opacity="0.05"/>
<path d="M125.522 228.903L122.729 232.259L319.19 397.589L321.981 394.593L125.522 228.903Z" fill="#CDA870" fill-opacity="0.05"/>
<path d="M351.259 463.145L391.627 414.619C392.343 413.761 393.613 413.645 394.445 414.364L624.045 607.076C624.899 607.795 625.015 609.07 624.299 609.906L583.931 658.432C583.215 659.29 581.945 659.406 581.113 658.687L351.513 465.998C350.659 465.279 350.543 464.003 351.259 463.145Z" fill="#CDA870" fill-opacity="0.05"/>
<path d="M387.175 419.971L356.384 456.984L342.383 445.459C342.129 445.251 342.176 445.691 342.383 445.459L374.314 410.518C374.083 410.309 374.521 410.262 374.314 410.518L387.175 419.971Z" fill="#CDA870" fill-opacity="0.05"/>
<path d="M456.872 249.739L441.303 266.458L261.262 115.322C238.514 96.2313 204.52 99.2699 185.491 122.141L120.705 200.824L103.779 186.615L168.055 107.481C195.121 74.9606 243.48 70.5997 275.857 97.7854L456.872 249.739Z" fill="#CDA870" fill-opacity="0.05"/>
<path d="M98.8618 182.487L71.7889 215.023L110.224 247.288L137.297 214.753L98.8618 182.487Z" fill="#CDA870" fill-opacity="0.05"/>
<path d="M339.25 646.81C343.938 647.437 347.818 649.524 350.89 653.12C353.961 656.715 355.508 660.913 355.508 665.738V706.934C355.508 712.13 353.661 716.607 349.966 720.388C346.271 724.169 341.767 726.048 336.479 726.048H264.795C261.354 726.048 258.167 725.189 255.281 723.45C252.394 721.71 250.084 719.39 248.352 716.491C246.62 713.591 245.766 710.39 245.766 706.934V603.388C245.766 598.447 247.521 594.202 251.031 590.676C254.542 587.15 258.768 585.387 263.687 585.387H321.329C326.387 585.387 330.659 587.15 334.17 590.676C337.68 594.202 339.435 598.447 339.435 603.388V644.955C339.435 645.581 339.389 646.207 339.25 646.81ZM321.699 644.955V603.388C321.699 603.132 321.583 603.016 321.329 603.016H263.687C263.571 603.016 263.502 603.132 263.502 603.388V644.955C263.502 645.21 263.571 645.326 263.687 645.326H321.329C321.583 645.326 321.699 645.21 321.699 644.955ZM337.957 665.738C337.957 664.741 337.472 664.254 336.479 664.254H264.795C263.941 664.254 263.502 664.741 263.502 665.738V706.934C263.502 707.792 263.941 708.233 264.795 708.233H336.479C337.472 708.233 337.957 707.792 337.957 706.934V665.738Z" fill="#CDA870" fill-opacity="0.05"/>
<path d="M477.26 624.542H459.708V608.769C459.708 607.656 459.454 606.658 458.969 605.8C458.484 604.942 457.792 604.246 456.937 603.759C456.083 603.271 455.159 603.016 454.166 603.016H390.796C389.202 603.016 387.863 603.573 386.824 604.686C385.785 605.8 385.253 607.168 385.253 608.769V702.666C385.253 704.151 385.785 705.45 386.824 706.563C387.863 707.677 389.202 708.233 390.796 708.233H454.166C455.644 708.233 456.937 707.677 458.046 706.563C459.154 705.45 459.708 704.151 459.708 702.666V686.707H477.26V706.006H477.075C476.336 711.689 473.772 716.468 469.408 720.295C465.043 724.122 459.962 726.048 454.166 726.048H390.796C384.399 726.048 378.903 723.751 374.353 719.182C369.804 714.612 367.517 709.091 367.517 702.666V608.769C367.517 602.344 369.804 596.823 374.353 592.253C378.903 587.684 384.399 585.387 390.796 585.387H454.166C460.563 585.387 466.013 587.684 470.516 592.253C475.02 596.823 477.26 602.344 477.26 608.769V624.542Z" fill="#CDA870" fill-opacity="0.05"/>
<path d="M543.332 352.106L557.927 334.57L493.299 280.318L477.895 297.175L543.332 352.106Z" fill="#CDA870" fill-opacity="0.05"/>
</g>
<defs>
<filter id="filter0_b_2622_1688" x="-25" y="-25" width="780" height="870" filterUnits="userSpaceOnUse" color-interpolation-filters="sRGB">
<feFlood flood-opacity="0" result="BackgroundImageFix"/>
<feGaussianBlur in="BackgroundImageFix" stdDeviation="12.5"/>
<feComposite in2="SourceAlpha" operator="in" result="effect1_backgroundBlur_2622_1688"/>
<feBlend mode="normal" in="SourceGraphic" in2="effect1_backgroundBlur_2622_1688" result="shape"/>
</filter>
</defs>
</svg>
