<svg width="1920" height="840" viewBox="0 0 1920 840" fill="none" xmlns="http://www.w3.org/2000/svg">
<path d="M54.6298 447.12L62.5098 449.56L54.6298 452L52.9998 449.56L54.6298 447.12Z" fill="#9799AC"/>
<path d="M-6.47345e-07 449.561H53" stroke="#9799AC" stroke-linecap="round" stroke-linejoin="round"/>
<path d="M87.3938 173.12C86.7778 173.12 86.2058 173.012 85.6778 172.796C85.1578 172.572 84.6978 172.264 84.2978 171.872C83.9058 171.48 83.5978 171.024 83.3738 170.504C83.1578 169.976 83.0498 169.408 83.0498 168.8C83.0498 168.184 83.1578 167.616 83.3738 167.096C83.5978 166.568 83.9058 166.108 84.2978 165.716C84.6978 165.324 85.1578 165.02 85.6778 164.804C86.2058 164.588 86.7778 164.48 87.3938 164.48C87.8018 164.48 88.1938 164.528 88.5698 164.624C88.9538 164.712 89.3018 164.852 89.6138 165.044C89.6938 165.084 89.7498 165.14 89.7818 165.212C89.8218 165.284 89.8418 165.36 89.8418 165.44C89.8418 165.576 89.7938 165.692 89.6978 165.788C89.6098 165.884 89.5058 165.932 89.3858 165.932C89.3378 165.932 89.2898 165.924 89.2418 165.908C89.2018 165.892 89.1578 165.876 89.1098 165.86C88.8618 165.732 88.5938 165.632 88.3058 165.56C88.0178 165.48 87.7138 165.44 87.3938 165.44C86.7618 165.44 86.1938 165.588 85.6898 165.884C85.1938 166.18 84.8018 166.58 84.5138 167.084C84.2258 167.588 84.0818 168.16 84.0818 168.8C84.0818 169.432 84.2258 170.004 84.5138 170.516C84.8018 171.02 85.1938 171.42 85.6898 171.716C86.1938 172.012 86.7618 172.16 87.3938 172.16C87.7138 172.16 88.0418 172.116 88.3778 172.028C88.7218 171.94 89.0138 171.828 89.2538 171.692L89.1698 171.98V169.448L89.3618 169.616H87.5258C87.3898 169.616 87.2738 169.572 87.1778 169.484C87.0898 169.388 87.0458 169.272 87.0458 169.136C87.0458 169 87.0898 168.888 87.1778 168.8C87.2738 168.704 87.3898 168.656 87.5258 168.656H89.7098C89.8538 168.656 89.9698 168.704 90.0578 168.8C90.1458 168.896 90.1898 169.012 90.1898 169.148V171.92C90.1898 172.016 90.1658 172.1 90.1178 172.172C90.0778 172.244 90.0218 172.304 89.9498 172.352C89.5898 172.584 89.1898 172.772 88.7498 172.916C88.3178 173.052 87.8658 173.12 87.3938 173.12ZM92.2215 173C92.0855 173 91.9695 172.952 91.8735 172.856C91.7855 172.76 91.7415 172.644 91.7415 172.508V167.276C91.7415 167.14 91.7855 167.028 91.8735 166.94C91.9695 166.844 92.0855 166.796 92.2215 166.796C92.3655 166.796 92.4815 166.844 92.5695 166.94C92.6575 167.028 92.7015 167.14 92.7015 167.276V168.86L92.5575 168.608C92.6055 168.36 92.6895 168.12 92.8095 167.888C92.9375 167.648 93.0975 167.436 93.2895 167.252C93.4815 167.06 93.7015 166.912 93.9495 166.808C94.1975 166.696 94.4695 166.64 94.7655 166.64C94.9415 166.64 95.1015 166.684 95.2455 166.772C95.3975 166.852 95.4735 166.968 95.4735 167.12C95.4735 167.288 95.4295 167.412 95.3415 167.492C95.2535 167.572 95.1535 167.612 95.0415 167.612C94.9375 167.612 94.8375 167.592 94.7415 167.552C94.6455 167.504 94.5255 167.48 94.3815 167.48C94.1815 167.48 93.9815 167.536 93.7815 167.648C93.5895 167.752 93.4095 167.904 93.2415 168.104C93.0815 168.304 92.9495 168.532 92.8455 168.788C92.7495 169.036 92.7015 169.304 92.7015 169.592V172.508C92.7015 172.644 92.6535 172.76 92.5575 172.856C92.4695 172.952 92.3575 173 92.2215 173ZM99.1564 173.12C98.5164 173.12 97.9564 172.984 97.4764 172.712C96.9964 172.44 96.6204 172.068 96.3484 171.596C96.0844 171.116 95.9524 170.564 95.9524 169.94C95.9524 169.244 96.0884 168.652 96.3604 168.164C96.6404 167.668 97.0004 167.292 97.4404 167.036C97.8884 166.772 98.3604 166.64 98.8564 166.64C99.2244 166.64 99.5804 166.708 99.9244 166.844C100.268 166.98 100.572 167.18 100.836 167.444C101.1 167.7 101.312 168.012 101.472 168.38C101.632 168.74 101.716 169.144 101.724 169.592C101.724 169.72 101.676 169.828 101.58 169.916C101.484 170.004 101.372 170.048 101.244 170.048H96.5044L96.2884 169.22H100.908L100.716 169.388V169.124C100.684 168.796 100.572 168.516 100.38 168.284C100.196 168.044 99.9684 167.86 99.6964 167.732C99.4324 167.604 99.1524 167.54 98.8564 167.54C98.6164 167.54 98.3764 167.584 98.1364 167.672C97.9044 167.752 97.6924 167.888 97.5004 168.08C97.3164 168.264 97.1644 168.504 97.0444 168.8C96.9324 169.096 96.8764 169.452 96.8764 169.868C96.8764 170.332 96.9684 170.74 97.1524 171.092C97.3444 171.444 97.6084 171.724 97.9444 171.932C98.2804 172.132 98.6724 172.232 99.1204 172.232C99.4004 172.232 99.6444 172.196 99.8524 172.124C100.06 172.052 100.24 171.964 100.392 171.86C100.544 171.748 100.672 171.636 100.776 171.524C100.88 171.452 100.98 171.416 101.076 171.416C101.196 171.416 101.292 171.456 101.364 171.536C101.444 171.616 101.484 171.712 101.484 171.824C101.484 171.96 101.42 172.08 101.292 172.184C101.068 172.432 100.764 172.652 100.38 172.844C99.9964 173.028 99.5884 173.12 99.1564 173.12ZM106.035 173.12C105.395 173.12 104.835 172.984 104.355 172.712C103.875 172.44 103.499 172.068 103.227 171.596C102.963 171.116 102.831 170.564 102.831 169.94C102.831 169.244 102.967 168.652 103.239 168.164C103.519 167.668 103.879 167.292 104.319 167.036C104.767 166.772 105.239 166.64 105.735 166.64C106.103 166.64 106.459 166.708 106.803 166.844C107.147 166.98 107.451 167.18 107.715 167.444C107.979 167.7 108.191 168.012 108.351 168.38C108.511 168.74 108.595 169.144 108.603 169.592C108.603 169.72 108.555 169.828 108.459 169.916C108.363 170.004 108.251 170.048 108.123 170.048H103.383L103.167 169.22H107.787L107.595 169.388V169.124C107.563 168.796 107.451 168.516 107.259 168.284C107.075 168.044 106.847 167.86 106.575 167.732C106.311 167.604 106.031 167.54 105.735 167.54C105.495 167.54 105.255 167.584 105.015 167.672C104.783 167.752 104.571 167.888 104.379 168.08C104.195 168.264 104.043 168.504 103.923 168.8C103.811 169.096 103.755 169.452 103.755 169.868C103.755 170.332 103.847 170.74 104.031 171.092C104.223 171.444 104.487 171.724 104.823 171.932C105.159 172.132 105.551 172.232 105.999 172.232C106.279 172.232 106.523 172.196 106.731 172.124C106.939 172.052 107.119 171.964 107.271 171.86C107.423 171.748 107.551 171.636 107.655 171.524C107.759 171.452 107.859 171.416 107.955 171.416C108.075 171.416 108.171 171.456 108.243 171.536C108.323 171.616 108.363 171.712 108.363 171.824C108.363 171.96 108.299 172.08 108.171 172.184C107.947 172.432 107.643 172.652 107.259 172.844C106.875 173.028 106.467 173.12 106.035 173.12ZM109.806 166.832H112.626C112.754 166.832 112.858 166.876 112.938 166.964C113.026 167.052 113.07 167.156 113.07 167.276C113.07 167.404 113.026 167.512 112.938 167.6C112.858 167.68 112.754 167.72 112.626 167.72H109.806C109.686 167.72 109.582 167.676 109.494 167.588C109.406 167.5 109.362 167.392 109.362 167.264C109.362 167.144 109.406 167.044 109.494 166.964C109.582 166.876 109.686 166.832 109.806 166.832ZM111.066 165.2C111.202 165.2 111.314 165.248 111.402 165.344C111.49 165.432 111.534 165.544 111.534 165.68V171.476C111.534 171.668 111.562 171.812 111.618 171.908C111.674 172.004 111.746 172.072 111.834 172.112C111.93 172.144 112.022 172.16 112.11 172.16C112.19 172.16 112.258 172.148 112.314 172.124C112.378 172.092 112.45 172.076 112.53 172.076C112.61 172.076 112.682 172.116 112.746 172.196C112.818 172.268 112.854 172.364 112.854 172.484C112.854 172.628 112.77 172.752 112.602 172.856C112.434 172.952 112.246 173 112.038 173C111.926 173 111.786 172.992 111.618 172.976C111.458 172.96 111.298 172.908 111.138 172.82C110.978 172.732 110.842 172.588 110.73 172.388C110.626 172.18 110.574 171.892 110.574 171.524V165.68C110.574 165.544 110.622 165.432 110.718 165.344C110.814 165.248 110.93 165.2 111.066 165.2ZM115.33 172.508C115.33 172.644 115.282 172.76 115.186 172.856C115.098 172.952 114.986 173 114.85 173C114.706 173 114.59 172.952 114.502 172.856C114.414 172.76 114.37 172.644 114.37 172.508V167.18C114.37 167.044 114.414 166.932 114.502 166.844C114.598 166.748 114.714 166.7 114.85 166.7C114.986 166.7 115.098 166.748 115.186 166.844C115.282 166.932 115.33 167.044 115.33 167.18V172.508ZM114.85 165.896C114.65 165.896 114.502 165.856 114.406 165.776C114.31 165.696 114.262 165.572 114.262 165.404V165.236C114.262 165.068 114.314 164.944 114.418 164.864C114.522 164.784 114.67 164.744 114.862 164.744C115.054 164.744 115.198 164.784 115.294 164.864C115.39 164.944 115.438 165.068 115.438 165.236V165.404C115.438 165.572 115.386 165.696 115.282 165.776C115.186 165.856 115.042 165.896 114.85 165.896ZM120.138 166.64C120.682 166.64 121.11 166.752 121.422 166.976C121.734 167.2 121.954 167.5 122.082 167.876C122.218 168.252 122.286 168.672 122.286 169.136V172.508C122.286 172.644 122.238 172.76 122.142 172.856C122.054 172.952 121.942 173 121.806 173C121.67 173 121.554 172.952 121.458 172.856C121.37 172.76 121.326 172.644 121.326 172.508V169.16C121.326 168.856 121.278 168.584 121.182 168.344C121.094 168.096 120.942 167.9 120.726 167.756C120.518 167.604 120.23 167.528 119.862 167.528C119.526 167.528 119.218 167.604 118.938 167.756C118.658 167.9 118.434 168.096 118.266 168.344C118.098 168.584 118.014 168.856 118.014 169.16V172.508C118.014 172.644 117.966 172.76 117.87 172.856C117.782 172.952 117.67 173 117.534 173C117.398 173 117.282 172.952 117.186 172.856C117.098 172.76 117.054 172.644 117.054 172.508V167.276C117.054 167.14 117.098 167.028 117.186 166.94C117.282 166.844 117.398 166.796 117.534 166.796C117.678 166.796 117.794 166.844 117.882 166.94C117.97 167.028 118.014 167.14 118.014 167.276V168.128L117.774 168.392C117.814 168.184 117.906 167.976 118.05 167.768C118.194 167.552 118.374 167.36 118.59 167.192C118.806 167.024 119.046 166.892 119.31 166.796C119.574 166.692 119.85 166.64 120.138 166.64ZM126.666 166.64C127.01 166.64 127.33 166.7 127.626 166.82C127.922 166.932 128.178 167.08 128.394 167.264C128.618 167.448 128.79 167.64 128.91 167.84C129.038 168.04 129.102 168.228 129.102 168.404L128.874 168.26V167.216C128.874 167.08 128.918 166.968 129.006 166.88C129.094 166.784 129.21 166.736 129.354 166.736C129.49 166.736 129.602 166.784 129.69 166.88C129.786 166.968 129.834 167.08 129.834 167.216V172.472C129.834 173.128 129.694 173.672 129.414 174.104C129.142 174.536 128.774 174.86 128.31 175.076C127.846 175.292 127.326 175.4 126.75 175.4C126.51 175.4 126.246 175.368 125.958 175.304C125.67 175.24 125.414 175.16 125.19 175.064C124.966 174.976 124.822 174.884 124.758 174.788C124.638 174.708 124.562 174.616 124.53 174.512C124.506 174.416 124.526 174.324 124.59 174.236C124.662 174.124 124.754 174.068 124.866 174.068C124.986 174.068 125.134 174.104 125.31 174.176C125.382 174.2 125.494 174.24 125.646 174.296C125.806 174.352 125.982 174.4 126.174 174.44C126.374 174.488 126.57 174.512 126.762 174.512C127.442 174.512 127.962 174.332 128.322 173.972C128.69 173.62 128.874 173.152 128.874 172.568V171.452L129.006 171.512C128.958 171.736 128.858 171.944 128.706 172.136C128.562 172.328 128.382 172.5 128.166 172.652C127.958 172.796 127.726 172.912 127.47 173C127.214 173.08 126.954 173.12 126.69 173.12C126.13 173.12 125.626 172.98 125.178 172.7C124.73 172.42 124.374 172.036 124.11 171.548C123.854 171.06 123.726 170.504 123.726 169.88C123.726 169.248 123.854 168.688 124.11 168.2C124.374 167.712 124.726 167.332 125.166 167.06C125.614 166.78 126.114 166.64 126.666 166.64ZM126.786 167.528C126.378 167.528 126.01 167.632 125.682 167.84C125.362 168.04 125.11 168.316 124.926 168.668C124.75 169.02 124.662 169.424 124.662 169.88C124.662 170.32 124.75 170.72 124.926 171.08C125.11 171.432 125.362 171.712 125.682 171.92C126.01 172.128 126.378 172.232 126.786 172.232C127.202 172.232 127.57 172.132 127.89 171.932C128.21 171.724 128.462 171.444 128.646 171.092C128.83 170.74 128.922 170.336 128.922 169.88C128.922 169.416 128.83 169.008 128.646 168.656C128.462 168.304 128.21 168.028 127.89 167.828C127.57 167.628 127.202 167.528 126.786 167.528Z" fill="#9799AC" fill-opacity="0.25"/>
<path d="M86.0138 229.12C85.4218 229.12 84.9018 229.032 84.4538 228.856C84.0058 228.68 83.5738 228.4 83.1578 228.016C83.1018 227.96 83.0538 227.9 83.0138 227.836C82.9818 227.764 82.9658 227.688 82.9658 227.608C82.9658 227.48 83.0098 227.368 83.0978 227.272C83.1938 227.168 83.3098 227.116 83.4458 227.116C83.5578 227.116 83.6578 227.16 83.7458 227.248C84.0578 227.552 84.3938 227.784 84.7538 227.944C85.1218 228.104 85.5338 228.184 85.9898 228.184C86.3418 228.184 86.6578 228.128 86.9378 228.016C87.2258 227.904 87.4538 227.748 87.6218 227.548C87.7898 227.348 87.8738 227.116 87.8738 226.852C87.8658 226.532 87.7698 226.268 87.5858 226.06C87.4098 225.852 87.1618 225.68 86.8418 225.544C86.5298 225.4 86.1658 225.28 85.7498 225.184C85.3818 225.096 85.0418 224.988 84.7298 224.86C84.4258 224.732 84.1618 224.576 83.9378 224.392C83.7138 224.2 83.5378 223.972 83.4098 223.708C83.2898 223.436 83.2298 223.12 83.2298 222.76C83.2298 222.304 83.3498 221.904 83.5898 221.56C83.8298 221.216 84.1618 220.952 84.5858 220.768C85.0098 220.576 85.4978 220.48 86.0498 220.48C86.5378 220.48 86.9978 220.56 87.4298 220.72C87.8698 220.88 88.2218 221.1 88.4858 221.38C88.6458 221.532 88.7258 221.68 88.7258 221.824C88.7258 221.944 88.6738 222.056 88.5698 222.16C88.4738 222.256 88.3618 222.304 88.2338 222.304C88.1458 222.304 88.0658 222.272 87.9938 222.208C87.8578 222.056 87.6858 221.92 87.4778 221.8C87.2698 221.68 87.0418 221.584 86.7938 221.512C86.5458 221.44 86.2978 221.404 86.0498 221.404C85.6818 221.404 85.3578 221.46 85.0778 221.572C84.7978 221.676 84.5778 221.828 84.4178 222.028C84.2658 222.22 84.1898 222.452 84.1898 222.724C84.1898 223.028 84.2778 223.28 84.4538 223.48C84.6298 223.672 84.8658 223.832 85.1618 223.96C85.4578 224.08 85.7858 224.188 86.1458 224.284C86.5378 224.38 86.8978 224.492 87.2258 224.62C87.5618 224.74 87.8498 224.892 88.0898 225.076C88.3298 225.26 88.5138 225.496 88.6418 225.784C88.7778 226.064 88.8458 226.412 88.8458 226.828C88.8458 227.268 88.7218 227.66 88.4738 228.004C88.2258 228.348 87.8858 228.62 87.4538 228.82C87.0298 229.012 86.5498 229.112 86.0138 229.12ZM93.1564 229.12C92.5164 229.12 91.9564 228.984 91.4764 228.712C90.9964 228.44 90.6204 228.068 90.3484 227.596C90.0844 227.116 89.9524 226.564 89.9524 225.94C89.9524 225.244 90.0884 224.652 90.3604 224.164C90.6404 223.668 91.0004 223.292 91.4404 223.036C91.8884 222.772 92.3604 222.64 92.8564 222.64C93.2244 222.64 93.5804 222.708 93.9244 222.844C94.2684 222.98 94.5724 223.18 94.8364 223.444C95.1004 223.7 95.3124 224.012 95.4724 224.38C95.6324 224.74 95.7164 225.144 95.7244 225.592C95.7244 225.72 95.6764 225.828 95.5804 225.916C95.4844 226.004 95.3724 226.048 95.2444 226.048H90.5044L90.2884 225.22H94.9084L94.7164 225.388V225.124C94.6844 224.796 94.5724 224.516 94.3804 224.284C94.1964 224.044 93.9684 223.86 93.6964 223.732C93.4324 223.604 93.1524 223.54 92.8564 223.54C92.6164 223.54 92.3764 223.584 92.1364 223.672C91.9044 223.752 91.6924 223.888 91.5004 224.08C91.3164 224.264 91.1644 224.504 91.0444 224.8C90.9324 225.096 90.8764 225.452 90.8764 225.868C90.8764 226.332 90.9684 226.74 91.1524 227.092C91.3444 227.444 91.6084 227.724 91.9444 227.932C92.2804 228.132 92.6724 228.232 93.1204 228.232C93.4004 228.232 93.6444 228.196 93.8524 228.124C94.0604 228.052 94.2404 227.964 94.3924 227.86C94.5444 227.748 94.6724 227.636 94.7764 227.524C94.8804 227.452 94.9804 227.416 95.0764 227.416C95.1964 227.416 95.2924 227.456 95.3644 227.536C95.4444 227.616 95.4844 227.712 95.4844 227.824C95.4844 227.96 95.4204 228.08 95.2924 228.184C95.0684 228.432 94.7644 228.652 94.3804 228.844C93.9964 229.028 93.5884 229.12 93.1564 229.12ZM97.6473 229C97.5113 229 97.3953 228.952 97.2993 228.856C97.2113 228.76 97.1673 228.644 97.1673 228.508V223.276C97.1673 223.14 97.2113 223.028 97.2993 222.94C97.3953 222.844 97.5113 222.796 97.6473 222.796C97.7913 222.796 97.9073 222.844 97.9953 222.94C98.0833 223.028 98.1273 223.14 98.1273 223.276V224.86L97.9833 224.608C98.0313 224.36 98.1153 224.12 98.2353 223.888C98.3633 223.648 98.5233 223.436 98.7153 223.252C98.9073 223.06 99.1273 222.912 99.3753 222.808C99.6233 222.696 99.8953 222.64 100.191 222.64C100.367 222.64 100.527 222.684 100.671 222.772C100.823 222.852 100.899 222.968 100.899 223.12C100.899 223.288 100.855 223.412 100.767 223.492C100.679 223.572 100.579 223.612 100.467 223.612C100.363 223.612 100.263 223.592 100.167 223.552C100.071 223.504 99.9513 223.48 99.8073 223.48C99.6073 223.48 99.4073 223.536 99.2073 223.648C99.0153 223.752 98.8353 223.904 98.6673 224.104C98.5073 224.304 98.3753 224.532 98.2713 224.788C98.1753 225.036 98.1273 225.304 98.1273 225.592V228.508C98.1273 228.644 98.0793 228.76 97.9833 228.856C97.8953 228.952 97.7833 229 97.6473 229ZM102.581 222.688C102.677 222.688 102.769 222.716 102.857 222.772C102.945 222.82 103.009 222.892 103.049 222.988L105.041 227.668L104.849 227.764L106.877 223C106.965 222.784 107.113 222.68 107.321 222.688C107.441 222.688 107.545 222.728 107.633 222.808C107.721 222.888 107.765 222.988 107.765 223.108C107.765 223.156 107.757 223.204 107.741 223.252C107.733 223.292 107.721 223.328 107.705 223.36L105.389 228.688C105.301 228.888 105.161 228.992 104.969 229C104.865 229.008 104.765 228.988 104.669 228.94C104.581 228.884 104.517 228.8 104.477 228.688L102.161 223.372C102.145 223.34 102.129 223.304 102.113 223.264C102.105 223.224 102.101 223.176 102.101 223.12C102.101 223.016 102.141 222.92 102.221 222.832C102.309 222.736 102.429 222.688 102.581 222.688ZM109.986 228.508C109.986 228.644 109.938 228.76 109.842 228.856C109.754 228.952 109.642 229 109.506 229C109.362 229 109.246 228.952 109.158 228.856C109.07 228.76 109.026 228.644 109.026 228.508V223.18C109.026 223.044 109.07 222.932 109.158 222.844C109.254 222.748 109.37 222.7 109.506 222.7C109.642 222.7 109.754 222.748 109.842 222.844C109.938 222.932 109.986 223.044 109.986 223.18V228.508ZM109.506 221.896C109.306 221.896 109.158 221.856 109.062 221.776C108.966 221.696 108.918 221.572 108.918 221.404V221.236C108.918 221.068 108.97 220.944 109.074 220.864C109.178 220.784 109.326 220.744 109.518 220.744C109.71 220.744 109.854 220.784 109.95 220.864C110.046 220.944 110.094 221.068 110.094 221.236V221.404C110.094 221.572 110.042 221.696 109.938 221.776C109.842 221.856 109.698 221.896 109.506 221.896ZM114.47 222.64C114.878 222.64 115.246 222.684 115.574 222.772C115.902 222.86 116.162 222.98 116.354 223.132C116.546 223.284 116.642 223.456 116.642 223.648C116.642 223.752 116.606 223.852 116.534 223.948C116.462 224.044 116.366 224.092 116.246 224.092C116.134 224.092 116.042 224.072 115.97 224.032C115.906 223.992 115.842 223.94 115.778 223.876C115.722 223.812 115.642 223.756 115.538 223.708C115.442 223.652 115.302 223.608 115.118 223.576C114.934 223.544 114.75 223.528 114.566 223.528C114.126 223.528 113.738 223.632 113.402 223.84C113.074 224.048 112.814 224.328 112.622 224.68C112.43 225.032 112.334 225.432 112.334 225.88C112.334 226.328 112.426 226.728 112.61 227.08C112.794 227.432 113.05 227.712 113.378 227.92C113.706 228.128 114.086 228.232 114.518 228.232C114.798 228.232 115.022 228.208 115.19 228.16C115.358 228.112 115.498 228.056 115.61 227.992C115.754 227.912 115.862 227.832 115.934 227.752C116.014 227.672 116.118 227.632 116.246 227.632C116.382 227.632 116.486 227.676 116.558 227.764C116.638 227.852 116.678 227.96 116.678 228.088C116.678 228.232 116.578 228.384 116.378 228.544C116.178 228.704 115.906 228.84 115.562 228.952C115.226 229.064 114.842 229.12 114.41 229.12C113.802 229.12 113.27 228.98 112.814 228.7C112.358 228.412 112.002 228.024 111.746 227.536C111.498 227.04 111.374 226.488 111.374 225.88C111.374 225.272 111.502 224.724 111.758 224.236C112.022 223.748 112.386 223.36 112.85 223.072C113.314 222.784 113.854 222.64 114.47 222.64ZM120.801 229.12C120.161 229.12 119.601 228.984 119.121 228.712C118.641 228.44 118.265 228.068 117.993 227.596C117.729 227.116 117.597 226.564 117.597 225.94C117.597 225.244 117.733 224.652 118.005 224.164C118.285 223.668 118.645 223.292 119.085 223.036C119.533 222.772 120.005 222.64 120.501 222.64C120.869 222.64 121.225 222.708 121.569 222.844C121.913 222.98 122.217 223.18 122.481 223.444C122.745 223.7 122.957 224.012 123.117 224.38C123.277 224.74 123.361 225.144 123.369 225.592C123.369 225.72 123.321 225.828 123.225 225.916C123.129 226.004 123.017 226.048 122.889 226.048H118.149L117.933 225.22H122.553L122.361 225.388V225.124C122.329 224.796 122.217 224.516 122.025 224.284C121.841 224.044 121.613 223.86 121.341 223.732C121.077 223.604 120.797 223.54 120.501 223.54C120.261 223.54 120.021 223.584 119.781 223.672C119.549 223.752 119.337 223.888 119.145 224.08C118.961 224.264 118.809 224.504 118.689 224.8C118.577 225.096 118.521 225.452 118.521 225.868C118.521 226.332 118.613 226.74 118.797 227.092C118.989 227.444 119.253 227.724 119.589 227.932C119.925 228.132 120.317 228.232 120.765 228.232C121.045 228.232 121.289 228.196 121.497 228.124C121.705 228.052 121.885 227.964 122.037 227.86C122.189 227.748 122.317 227.636 122.421 227.524C122.525 227.452 122.625 227.416 122.721 227.416C122.841 227.416 122.937 227.456 123.009 227.536C123.089 227.616 123.129 227.712 123.129 227.824C123.129 227.96 123.065 228.08 122.937 228.184C122.713 228.432 122.409 228.652 122.025 228.844C121.641 229.028 121.233 229.12 120.801 229.12ZM124.464 228.016C124.392 227.912 124.36 227.804 124.368 227.692C124.376 227.572 124.444 227.468 124.572 227.38C124.652 227.324 124.744 227.3 124.848 227.308C124.96 227.316 125.06 227.368 125.148 227.464C125.372 227.728 125.628 227.94 125.916 228.1C126.204 228.252 126.556 228.328 126.972 228.328C127.164 228.32 127.356 228.288 127.548 228.232C127.74 228.176 127.9 228.08 128.028 227.944C128.164 227.8 128.232 227.612 128.232 227.38C128.232 227.156 128.164 226.98 128.028 226.852C127.892 226.716 127.716 226.608 127.5 226.528C127.284 226.44 127.048 226.364 126.792 226.3C126.528 226.228 126.268 226.148 126.012 226.06C125.756 225.964 125.524 225.848 125.316 225.712C125.116 225.568 124.952 225.392 124.824 225.184C124.704 224.968 124.644 224.708 124.644 224.404C124.644 224.044 124.74 223.732 124.932 223.468C125.132 223.204 125.396 223 125.724 222.856C126.06 222.712 126.424 222.64 126.816 222.64C127.04 222.64 127.272 222.668 127.512 222.724C127.76 222.772 128 222.86 128.232 222.988C128.464 223.108 128.668 223.276 128.844 223.492C128.916 223.572 128.956 223.672 128.964 223.792C128.972 223.912 128.92 224.02 128.808 224.116C128.72 224.18 128.62 224.208 128.508 224.2C128.404 224.192 128.316 224.152 128.244 224.08C128.076 223.88 127.864 223.728 127.608 223.624C127.36 223.512 127.084 223.456 126.78 223.456C126.588 223.456 126.4 223.484 126.216 223.54C126.032 223.596 125.876 223.692 125.748 223.828C125.628 223.956 125.568 224.136 125.568 224.368C125.576 224.584 125.648 224.76 125.784 224.896C125.92 225.032 126.104 225.144 126.336 225.232C126.568 225.312 126.824 225.392 127.104 225.472C127.36 225.536 127.604 225.612 127.836 225.7C128.076 225.78 128.292 225.888 128.484 226.024C128.676 226.16 128.828 226.336 128.94 226.552C129.052 226.76 129.108 227.024 129.108 227.344C129.108 227.712 129.004 228.032 128.796 228.304C128.588 228.568 128.312 228.772 127.968 228.916C127.632 229.052 127.268 229.12 126.876 229.12C126.436 229.12 126 229.036 125.568 228.868C125.144 228.7 124.776 228.416 124.464 228.016Z" fill="#9799AC" fill-opacity="0.25"/>
<path d="M86.8538 276.6C87.2938 276.6 87.6898 276.708 88.0418 276.924C88.3938 277.14 88.6698 277.436 88.8698 277.812C89.0778 278.188 89.1818 278.616 89.1818 279.096C89.1818 279.568 89.0778 279.996 88.8698 280.38C88.6698 280.764 88.3938 281.068 88.0418 281.292C87.6898 281.516 87.2938 281.628 86.8538 281.628H84.4178L84.5018 281.484V284.508C84.5018 284.644 84.4578 284.76 84.3698 284.856C84.2818 284.952 84.1698 285 84.0338 285C83.8898 285 83.7738 284.952 83.6858 284.856C83.6058 284.76 83.5658 284.644 83.5658 284.508V277.08C83.5658 276.944 83.6098 276.832 83.6978 276.744C83.7938 276.648 83.9098 276.6 84.0458 276.6H86.8538ZM86.8538 280.704C87.1178 280.704 87.3498 280.632 87.5498 280.488C87.7498 280.344 87.9098 280.148 88.0298 279.9C88.1498 279.652 88.2098 279.384 88.2098 279.096C88.2098 278.792 88.1498 278.524 88.0298 278.292C87.9098 278.06 87.7498 277.876 87.5498 277.74C87.3498 277.596 87.1178 277.524 86.8538 277.524H84.4178L84.5018 277.392V280.824L84.4178 280.704H86.8538ZM96.3562 281.88C96.3562 282.504 96.2162 283.06 95.9362 283.548C95.6642 284.036 95.2922 284.42 94.8202 284.7C94.3562 284.98 93.8322 285.12 93.2482 285.12C92.6642 285.12 92.1362 284.98 91.6642 284.7C91.1922 284.42 90.8162 284.036 90.5362 283.548C90.2642 283.06 90.1282 282.504 90.1282 281.88C90.1282 281.256 90.2642 280.7 90.5362 280.212C90.8162 279.724 91.1922 279.34 91.6642 279.06C92.1362 278.78 92.6642 278.64 93.2482 278.64C93.8322 278.64 94.3562 278.78 94.8202 279.06C95.2922 279.34 95.6642 279.724 95.9362 280.212C96.2162 280.7 96.3562 281.256 96.3562 281.88ZM95.3962 281.88C95.3962 281.416 95.3002 281.008 95.1082 280.656C94.9242 280.304 94.6682 280.028 94.3402 279.828C94.0202 279.628 93.6562 279.528 93.2482 279.528C92.8402 279.528 92.4722 279.628 92.1442 279.828C91.8242 280.028 91.5682 280.304 91.3762 280.656C91.1842 281.008 91.0882 281.416 91.0882 281.88C91.0882 282.336 91.1842 282.74 91.3762 283.092C91.5682 283.444 91.8242 283.724 92.1442 283.932C92.4722 284.132 92.8402 284.232 93.2482 284.232C93.6562 284.232 94.0202 284.132 94.3402 283.932C94.6682 283.724 94.9242 283.444 95.1082 283.092C95.3002 282.74 95.3962 282.336 95.3962 281.88ZM98.2801 285C98.1441 285 98.0281 284.952 97.9321 284.856C97.8441 284.76 97.8001 284.644 97.8001 284.508V279.276C97.8001 279.14 97.8441 279.028 97.9321 278.94C98.0281 278.844 98.1441 278.796 98.2801 278.796C98.4241 278.796 98.5401 278.844 98.6281 278.94C98.7161 279.028 98.7601 279.14 98.7601 279.276V280.86L98.6161 280.608C98.6641 280.36 98.7481 280.12 98.8681 279.888C98.9961 279.648 99.1561 279.436 99.3481 279.252C99.5401 279.06 99.7601 278.912 100.008 278.808C100.256 278.696 100.528 278.64 100.824 278.64C101 278.64 101.16 278.684 101.304 278.772C101.456 278.852 101.532 278.968 101.532 279.12C101.532 279.288 101.488 279.412 101.4 279.492C101.312 279.572 101.212 279.612 101.1 279.612C100.996 279.612 100.896 279.592 100.8 279.552C100.704 279.504 100.584 279.48 100.44 279.48C100.24 279.48 100.04 279.536 99.8401 279.648C99.6481 279.752 99.4681 279.904 99.3001 280.104C99.1401 280.304 99.0081 280.532 98.9041 280.788C98.8081 281.036 98.7601 281.304 98.7601 281.592V284.508C98.7601 284.644 98.7121 284.76 98.6161 284.856C98.5281 284.952 98.4161 285 98.2801 285ZM102.377 278.832H105.197C105.325 278.832 105.429 278.876 105.509 278.964C105.597 279.052 105.641 279.156 105.641 279.276C105.641 279.404 105.597 279.512 105.509 279.6C105.429 279.68 105.325 279.72 105.197 279.72H102.377C102.257 279.72 102.153 279.676 102.065 279.588C101.977 279.5 101.933 279.392 101.933 279.264C101.933 279.144 101.977 279.044 102.065 278.964C102.153 278.876 102.257 278.832 102.377 278.832ZM103.637 277.2C103.773 277.2 103.885 277.248 103.973 277.344C104.061 277.432 104.105 277.544 104.105 277.68V283.476C104.105 283.668 104.133 283.812 104.189 283.908C104.245 284.004 104.317 284.072 104.405 284.112C104.501 284.144 104.593 284.16 104.681 284.16C104.761 284.16 104.829 284.148 104.885 284.124C104.949 284.092 105.021 284.076 105.101 284.076C105.181 284.076 105.253 284.116 105.317 284.196C105.389 284.268 105.425 284.364 105.425 284.484C105.425 284.628 105.341 284.752 105.173 284.856C105.005 284.952 104.817 285 104.609 285C104.497 285 104.357 284.992 104.189 284.976C104.029 284.96 103.869 284.908 103.709 284.82C103.549 284.732 103.413 284.588 103.301 284.388C103.197 284.18 103.145 283.892 103.145 283.524V277.68C103.145 277.544 103.193 277.432 103.289 277.344C103.385 277.248 103.501 277.2 103.637 277.2ZM112.088 278.736C112.224 278.736 112.336 278.784 112.424 278.88C112.52 278.968 112.568 279.08 112.568 279.216V284.508C112.568 284.644 112.52 284.76 112.424 284.856C112.336 284.952 112.224 285 112.088 285C111.944 285 111.828 284.952 111.74 284.856C111.652 284.76 111.608 284.644 111.608 284.508V283.368L111.836 283.344C111.836 283.52 111.776 283.712 111.656 283.92C111.536 284.128 111.372 284.324 111.164 284.508C110.956 284.684 110.708 284.832 110.42 284.952C110.14 285.064 109.836 285.12 109.508 285.12C108.964 285.12 108.476 284.98 108.044 284.7C107.612 284.412 107.268 284.024 107.012 283.536C106.764 283.048 106.64 282.492 106.64 281.868C106.64 281.236 106.764 280.68 107.012 280.2C107.268 279.712 107.612 279.332 108.044 279.06C108.476 278.78 108.956 278.64 109.484 278.64C109.828 278.64 110.148 278.696 110.444 278.808C110.74 278.92 110.996 279.072 111.212 279.264C111.436 279.456 111.608 279.668 111.728 279.9C111.856 280.132 111.92 280.364 111.92 280.596L111.608 280.524V279.216C111.608 279.08 111.652 278.968 111.74 278.88C111.828 278.784 111.944 278.736 112.088 278.736ZM109.616 284.232C110.016 284.232 110.368 284.128 110.672 283.92C110.984 283.712 111.224 283.432 111.392 283.08C111.568 282.72 111.656 282.316 111.656 281.868C111.656 281.428 111.568 281.032 111.392 280.68C111.224 280.32 110.984 280.04 110.672 279.84C110.368 279.632 110.016 279.528 109.616 279.528C109.224 279.528 108.872 279.628 108.56 279.828C108.256 280.028 108.016 280.304 107.84 280.656C107.664 281.008 107.576 281.412 107.576 281.868C107.576 282.316 107.66 282.72 107.828 283.08C108.004 283.432 108.244 283.712 108.548 283.92C108.86 284.128 109.216 284.232 109.616 284.232ZM115.403 284.508C115.403 284.644 115.355 284.76 115.259 284.856C115.163 284.952 115.047 285 114.911 285C114.775 285 114.663 284.952 114.575 284.856C114.487 284.76 114.443 284.644 114.443 284.508V276.6C114.443 276.464 114.487 276.352 114.575 276.264C114.671 276.168 114.787 276.12 114.923 276.12C115.067 276.12 115.183 276.168 115.271 276.264C115.359 276.352 115.403 276.464 115.403 276.6V284.508Z" fill="#9799AC" fill-opacity="0.35"/>
<path d="M86.1698 341C86.0258 341 85.9058 340.952 85.8098 340.856C85.7138 340.76 85.6658 340.644 85.6658 340.508V333.092H86.6858V340.508C86.6858 340.644 86.6378 340.76 86.5418 340.856C86.4458 340.952 86.3218 341 86.1698 341ZM83.3858 333.512C83.2498 333.512 83.1338 333.472 83.0378 333.392C82.9498 333.304 82.9058 333.192 82.9058 333.056C82.9058 332.92 82.9498 332.812 83.0378 332.732C83.1338 332.644 83.2498 332.6 83.3858 332.6H88.9658C89.1018 332.6 89.2178 332.644 89.3138 332.732C89.4098 332.812 89.4578 332.92 89.4578 333.056C89.4578 333.2 89.4098 333.312 89.3138 333.392C89.2178 333.472 89.1018 333.512 88.9658 333.512H83.3858ZM92.1603 341.12C91.5203 341.12 90.9603 340.984 90.4803 340.712C90.0003 340.44 89.6243 340.068 89.3523 339.596C89.0883 339.116 88.9563 338.564 88.9563 337.94C88.9563 337.244 89.0923 336.652 89.3643 336.164C89.6443 335.668 90.0043 335.292 90.4443 335.036C90.8923 334.772 91.3643 334.64 91.8603 334.64C92.2283 334.64 92.5843 334.708 92.9283 334.844C93.2723 334.98 93.5763 335.18 93.8403 335.444C94.1043 335.7 94.3163 336.012 94.4763 336.38C94.6363 336.74 94.7203 337.144 94.7283 337.592C94.7283 337.72 94.6803 337.828 94.5843 337.916C94.4883 338.004 94.3763 338.048 94.2483 338.048H89.5083L89.2923 337.22H93.9123L93.7203 337.388V337.124C93.6883 336.796 93.5763 336.516 93.3843 336.284C93.2003 336.044 92.9723 335.86 92.7003 335.732C92.4363 335.604 92.1563 335.54 91.8603 335.54C91.6203 335.54 91.3803 335.584 91.1403 335.672C90.9083 335.752 90.6963 335.888 90.5043 336.08C90.3203 336.264 90.1683 336.504 90.0483 336.8C89.9363 337.096 89.8803 337.452 89.8803 337.868C89.8803 338.332 89.9723 338.74 90.1563 339.092C90.3483 339.444 90.6123 339.724 90.9483 339.932C91.2843 340.132 91.6763 340.232 92.1243 340.232C92.4043 340.232 92.6483 340.196 92.8563 340.124C93.0643 340.052 93.2443 339.964 93.3963 339.86C93.5483 339.748 93.6763 339.636 93.7803 339.524C93.8843 339.452 93.9843 339.416 94.0803 339.416C94.2003 339.416 94.2963 339.456 94.3683 339.536C94.4483 339.616 94.4883 339.712 94.4883 339.824C94.4883 339.96 94.4243 340.08 94.2963 340.184C94.0723 340.432 93.7683 340.652 93.3843 340.844C93.0003 341.028 92.5923 341.12 92.1603 341.12ZM101.33 334.736C101.466 334.736 101.578 334.784 101.666 334.88C101.762 334.968 101.81 335.08 101.81 335.216V340.508C101.81 340.644 101.762 340.76 101.666 340.856C101.578 340.952 101.466 341 101.33 341C101.186 341 101.07 340.952 100.982 340.856C100.894 340.76 100.85 340.644 100.85 340.508V339.368L101.078 339.344C101.078 339.52 101.018 339.712 100.898 339.92C100.778 340.128 100.614 340.324 100.406 340.508C100.198 340.684 99.9501 340.832 99.6621 340.952C99.3821 341.064 99.0781 341.12 98.7501 341.12C98.2061 341.12 97.7181 340.98 97.2861 340.7C96.8541 340.412 96.5101 340.024 96.2541 339.536C96.0061 339.048 95.8821 338.492 95.8821 337.868C95.8821 337.236 96.0061 336.68 96.2541 336.2C96.5101 335.712 96.8541 335.332 97.2861 335.06C97.7181 334.78 98.1981 334.64 98.7261 334.64C99.0701 334.64 99.3901 334.696 99.6861 334.808C99.9821 334.92 100.238 335.072 100.454 335.264C100.678 335.456 100.85 335.668 100.97 335.9C101.098 336.132 101.162 336.364 101.162 336.596L100.85 336.524V335.216C100.85 335.08 100.894 334.968 100.982 334.88C101.07 334.784 101.186 334.736 101.33 334.736ZM98.8581 340.232C99.2581 340.232 99.6101 340.128 99.9141 339.92C100.226 339.712 100.466 339.432 100.634 339.08C100.81 338.72 100.898 338.316 100.898 337.868C100.898 337.428 100.81 337.032 100.634 336.68C100.466 336.32 100.226 336.04 99.9141 335.84C99.6101 335.632 99.2581 335.528 98.8581 335.528C98.4661 335.528 98.1141 335.628 97.8021 335.828C97.4981 336.028 97.2581 336.304 97.0821 336.656C96.9061 337.008 96.8181 337.412 96.8181 337.868C96.8181 338.316 96.9021 338.72 97.0701 339.08C97.2461 339.432 97.4861 339.712 97.7901 339.92C98.1021 340.128 98.4581 340.232 98.8581 340.232ZM106.553 334.7C107.097 334.7 107.537 334.84 107.873 335.12C108.217 335.392 108.445 335.78 108.557 336.284H108.377L108.461 336.068C108.557 335.844 108.721 335.628 108.953 335.42C109.185 335.212 109.453 335.04 109.757 334.904C110.061 334.768 110.377 334.7 110.705 334.7C111.233 334.7 111.649 334.816 111.953 335.048C112.257 335.272 112.473 335.576 112.601 335.96C112.737 336.336 112.805 336.76 112.805 337.232V340.508C112.805 340.644 112.757 340.76 112.661 340.856C112.573 340.952 112.461 341 112.325 341C112.181 341 112.065 340.952 111.977 340.856C111.889 340.76 111.845 340.644 111.845 340.508V337.256C111.845 336.944 111.797 336.664 111.701 336.416C111.613 336.16 111.465 335.96 111.257 335.816C111.057 335.664 110.781 335.588 110.429 335.588C110.101 335.588 109.801 335.664 109.529 335.816C109.257 335.96 109.041 336.16 108.881 336.416C108.721 336.664 108.641 336.944 108.641 337.256V340.508C108.641 340.644 108.597 340.76 108.509 340.856C108.421 340.952 108.305 341 108.161 341C108.025 341 107.909 340.952 107.813 340.856C107.725 340.76 107.681 340.644 107.681 340.508V337.22C107.681 336.916 107.637 336.644 107.549 336.404C107.469 336.156 107.329 335.96 107.129 335.816C106.929 335.664 106.653 335.588 106.301 335.588C105.981 335.588 105.689 335.664 105.425 335.816C105.161 335.96 104.949 336.156 104.789 336.404C104.629 336.644 104.549 336.916 104.549 337.22V340.508C104.549 340.644 104.501 340.76 104.405 340.856C104.317 340.952 104.205 341 104.069 341C103.933 341 103.817 340.952 103.721 340.856C103.633 340.76 103.589 340.644 103.589 340.508V335.276C103.589 335.14 103.633 335.028 103.721 334.94C103.817 334.844 103.933 334.796 104.069 334.796C104.213 334.796 104.329 334.844 104.417 334.94C104.505 335.028 104.549 335.14 104.549 335.276V336.188L104.285 336.476C104.317 336.268 104.397 336.06 104.525 335.852C104.661 335.644 104.833 335.452 105.041 335.276C105.249 335.1 105.481 334.96 105.737 334.856C105.993 334.752 106.265 334.7 106.553 334.7Z" fill="#9799AC" fill-opacity="0.45"/>
<path d="M86.1698 397C86.0258 397 85.9058 396.952 85.8098 396.856C85.7138 396.76 85.6658 396.644 85.6658 396.508V389.092H86.6858V396.508C86.6858 396.644 86.6378 396.76 86.5418 396.856C86.4458 396.952 86.3218 397 86.1698 397ZM83.3858 389.512C83.2498 389.512 83.1338 389.472 83.0378 389.392C82.9498 389.304 82.9058 389.192 82.9058 389.056C82.9058 388.92 82.9498 388.812 83.0378 388.732C83.1338 388.644 83.2498 388.6 83.3858 388.6H88.9658C89.1018 388.6 89.2178 388.644 89.3138 388.732C89.4098 388.812 89.4578 388.92 89.4578 389.056C89.4578 389.2 89.4098 389.312 89.3138 389.392C89.2178 389.472 89.1018 389.512 88.9658 389.512H83.3858ZM90.4989 397C90.3629 397 90.2469 396.952 90.1509 396.856C90.0629 396.76 90.0189 396.644 90.0189 396.508V391.276C90.0189 391.14 90.0629 391.028 90.1509 390.94C90.2469 390.844 90.3629 390.796 90.4989 390.796C90.6429 390.796 90.7589 390.844 90.8469 390.94C90.9349 391.028 90.9789 391.14 90.9789 391.276V392.86L90.8349 392.608C90.8829 392.36 90.9669 392.12 91.0869 391.888C91.2149 391.648 91.3749 391.436 91.5669 391.252C91.7589 391.06 91.9789 390.912 92.2269 390.808C92.4749 390.696 92.7469 390.64 93.0429 390.64C93.2189 390.64 93.3789 390.684 93.5229 390.772C93.6749 390.852 93.7509 390.968 93.7509 391.12C93.7509 391.288 93.7069 391.412 93.6189 391.492C93.5309 391.572 93.4309 391.612 93.3189 391.612C93.2149 391.612 93.1149 391.592 93.0189 391.552C92.9229 391.504 92.8029 391.48 92.6589 391.48C92.4589 391.48 92.2589 391.536 92.0589 391.648C91.8669 391.752 91.6869 391.904 91.5189 392.104C91.3589 392.304 91.2269 392.532 91.1229 392.788C91.0269 393.036 90.9789 393.304 90.9789 393.592V396.508C90.9789 396.644 90.9309 396.76 90.8349 396.856C90.7469 396.952 90.6349 397 90.4989 397ZM100.458 393.88C100.458 394.504 100.318 395.06 100.038 395.548C99.7657 396.036 99.3937 396.42 98.9217 396.7C98.4577 396.98 97.9337 397.12 97.3497 397.12C96.7657 397.12 96.2377 396.98 95.7657 396.7C95.2937 396.42 94.9177 396.036 94.6377 395.548C94.3657 395.06 94.2297 394.504 94.2297 393.88C94.2297 393.256 94.3657 392.7 94.6377 392.212C94.9177 391.724 95.2937 391.34 95.7657 391.06C96.2377 390.78 96.7657 390.64 97.3497 390.64C97.9337 390.64 98.4577 390.78 98.9217 391.06C99.3937 391.34 99.7657 391.724 100.038 392.212C100.318 392.7 100.458 393.256 100.458 393.88ZM99.4977 393.88C99.4977 393.416 99.4017 393.008 99.2097 392.656C99.0257 392.304 98.7697 392.028 98.4417 391.828C98.1217 391.628 97.7577 391.528 97.3497 391.528C96.9417 391.528 96.5737 391.628 96.2457 391.828C95.9257 392.028 95.6697 392.304 95.4777 392.656C95.2857 393.008 95.1897 393.416 95.1897 393.88C95.1897 394.336 95.2857 394.74 95.4777 395.092C95.6697 395.444 95.9257 395.724 96.2457 395.932C96.5737 396.132 96.9417 396.232 97.3497 396.232C97.7577 396.232 98.1217 396.132 98.4417 395.932C98.7697 395.724 99.0257 395.444 99.2097 395.092C99.4017 394.74 99.4977 394.336 99.4977 393.88ZM104.962 390.7C105.506 390.7 105.994 390.836 106.426 391.108C106.858 391.38 107.198 391.756 107.446 392.236C107.702 392.716 107.83 393.268 107.83 393.892C107.83 394.508 107.702 395.06 107.446 395.548C107.198 396.028 106.858 396.408 106.426 396.688C106.002 396.96 105.522 397.096 104.986 397.096C104.69 397.096 104.41 397.052 104.146 396.964C103.89 396.868 103.654 396.748 103.438 396.604C103.23 396.452 103.054 396.284 102.91 396.1C102.766 395.908 102.662 395.72 102.598 395.536L102.862 395.368V398.908C102.862 399.044 102.818 399.16 102.73 399.256C102.642 399.352 102.526 399.4 102.382 399.4C102.246 399.4 102.13 399.352 102.034 399.256C101.946 399.168 101.902 399.052 101.902 398.908V391.24C101.902 391.104 101.946 390.992 102.034 390.904C102.13 390.808 102.246 390.76 102.382 390.76C102.526 390.76 102.642 390.808 102.73 390.904C102.818 390.992 102.862 391.104 102.862 391.24V392.308L102.682 392.212C102.738 392.012 102.834 391.82 102.97 391.636C103.114 391.452 103.286 391.292 103.486 391.156C103.694 391.012 103.922 390.9 104.17 390.82C104.426 390.74 104.69 390.7 104.962 390.7ZM104.854 391.588C104.454 391.588 104.098 391.688 103.786 391.888C103.482 392.088 103.242 392.36 103.066 392.704C102.898 393.048 102.814 393.444 102.814 393.892C102.814 394.332 102.898 394.728 103.066 395.08C103.242 395.432 103.482 395.708 103.786 395.908C104.098 396.108 104.454 396.208 104.854 396.208C105.254 396.208 105.606 396.108 105.91 395.908C106.214 395.708 106.454 395.432 106.63 395.08C106.806 394.728 106.894 394.332 106.894 393.892C106.894 393.444 106.806 393.048 106.63 392.704C106.454 392.36 106.214 392.088 105.91 391.888C105.606 391.688 105.254 391.588 104.854 391.588ZM112.273 390.7C112.801 390.7 113.217 390.816 113.521 391.048C113.833 391.272 114.053 391.576 114.181 391.96C114.317 392.336 114.385 392.756 114.385 393.22V396.508C114.385 396.644 114.337 396.76 114.241 396.856C114.153 396.952 114.041 397 113.905 397C113.769 397 113.653 396.952 113.557 396.856C113.469 396.76 113.425 396.644 113.425 396.508V393.22C113.425 392.916 113.381 392.644 113.293 392.404C113.205 392.156 113.057 391.96 112.849 391.816C112.649 391.664 112.373 391.588 112.021 391.588C111.693 391.588 111.393 391.664 111.121 391.816C110.849 391.96 110.633 392.156 110.473 392.404C110.313 392.644 110.233 392.916 110.233 393.22V396.508C110.233 396.644 110.185 396.76 110.089 396.856C110.001 396.952 109.889 397 109.753 397C109.617 397 109.501 396.952 109.405 396.856C109.317 396.76 109.273 396.644 109.273 396.508V388.6C109.273 388.464 109.317 388.352 109.405 388.264C109.501 388.168 109.617 388.12 109.753 388.12C109.897 388.12 110.013 388.168 110.101 388.264C110.189 388.352 110.233 388.464 110.233 388.6V392.188L109.993 392.452C110.033 392.244 110.121 392.036 110.257 391.828C110.393 391.612 110.565 391.42 110.773 391.252C110.981 391.084 111.213 390.952 111.469 390.856C111.725 390.752 111.993 390.7 112.273 390.7ZM117.087 396.508C117.087 396.644 117.039 396.76 116.943 396.856C116.855 396.952 116.743 397 116.607 397C116.463 397 116.347 396.952 116.259 396.856C116.171 396.76 116.127 396.644 116.127 396.508V391.18C116.127 391.044 116.171 390.932 116.259 390.844C116.355 390.748 116.471 390.7 116.607 390.7C116.743 390.7 116.855 390.748 116.943 390.844C117.039 390.932 117.087 391.044 117.087 391.18V396.508ZM116.607 389.896C116.407 389.896 116.259 389.856 116.163 389.776C116.067 389.696 116.019 389.572 116.019 389.404V389.236C116.019 389.068 116.071 388.944 116.175 388.864C116.279 388.784 116.427 388.744 116.619 388.744C116.811 388.744 116.955 388.784 117.051 388.864C117.147 388.944 117.195 389.068 117.195 389.236V389.404C117.195 389.572 117.143 389.696 117.039 389.776C116.943 389.856 116.799 389.896 116.607 389.896ZM121.68 397.12C121.04 397.12 120.48 396.984 120 396.712C119.52 396.44 119.144 396.068 118.872 395.596C118.608 395.116 118.476 394.564 118.476 393.94C118.476 393.244 118.612 392.652 118.884 392.164C119.164 391.668 119.524 391.292 119.964 391.036C120.412 390.772 120.884 390.64 121.38 390.64C121.748 390.64 122.104 390.708 122.448 390.844C122.792 390.98 123.096 391.18 123.36 391.444C123.624 391.7 123.836 392.012 123.996 392.38C124.156 392.74 124.24 393.144 124.248 393.592C124.248 393.72 124.2 393.828 124.104 393.916C124.008 394.004 123.896 394.048 123.768 394.048H119.028L118.812 393.22H123.432L123.24 393.388V393.124C123.208 392.796 123.096 392.516 122.904 392.284C122.72 392.044 122.492 391.86 122.22 391.732C121.956 391.604 121.676 391.54 121.38 391.54C121.14 391.54 120.9 391.584 120.66 391.672C120.428 391.752 120.216 391.888 120.024 392.08C119.84 392.264 119.688 392.504 119.568 392.8C119.456 393.096 119.4 393.452 119.4 393.868C119.4 394.332 119.492 394.74 119.676 395.092C119.868 395.444 120.132 395.724 120.468 395.932C120.804 396.132 121.196 396.232 121.644 396.232C121.924 396.232 122.168 396.196 122.376 396.124C122.584 396.052 122.764 395.964 122.916 395.86C123.068 395.748 123.196 395.636 123.3 395.524C123.404 395.452 123.504 395.416 123.6 395.416C123.72 395.416 123.816 395.456 123.888 395.536C123.968 395.616 124.008 395.712 124.008 395.824C124.008 395.96 123.944 396.08 123.816 396.184C123.592 396.432 123.288 396.652 122.904 396.844C122.52 397.028 122.112 397.12 121.68 397.12ZM125.343 396.016C125.271 395.912 125.239 395.804 125.247 395.692C125.255 395.572 125.323 395.468 125.451 395.38C125.531 395.324 125.623 395.3 125.727 395.308C125.839 395.316 125.939 395.368 126.027 395.464C126.251 395.728 126.507 395.94 126.795 396.1C127.083 396.252 127.435 396.328 127.851 396.328C128.043 396.32 128.235 396.288 128.427 396.232C128.619 396.176 128.779 396.08 128.907 395.944C129.043 395.8 129.111 395.612 129.111 395.38C129.111 395.156 129.043 394.98 128.907 394.852C128.771 394.716 128.595 394.608 128.379 394.528C128.163 394.44 127.927 394.364 127.671 394.3C127.407 394.228 127.147 394.148 126.891 394.06C126.635 393.964 126.403 393.848 126.195 393.712C125.995 393.568 125.831 393.392 125.703 393.184C125.583 392.968 125.523 392.708 125.523 392.404C125.523 392.044 125.619 391.732 125.811 391.468C126.011 391.204 126.275 391 126.603 390.856C126.939 390.712 127.303 390.64 127.695 390.64C127.919 390.64 128.151 390.668 128.391 390.724C128.639 390.772 128.879 390.86 129.111 390.988C129.343 391.108 129.547 391.276 129.723 391.492C129.795 391.572 129.835 391.672 129.843 391.792C129.851 391.912 129.799 392.02 129.687 392.116C129.599 392.18 129.499 392.208 129.387 392.2C129.283 392.192 129.195 392.152 129.123 392.08C128.955 391.88 128.743 391.728 128.487 391.624C128.239 391.512 127.963 391.456 127.659 391.456C127.467 391.456 127.279 391.484 127.095 391.54C126.911 391.596 126.755 391.692 126.627 391.828C126.507 391.956 126.447 392.136 126.447 392.368C126.455 392.584 126.527 392.76 126.663 392.896C126.799 393.032 126.983 393.144 127.215 393.232C127.447 393.312 127.703 393.392 127.983 393.472C128.239 393.536 128.483 393.612 128.715 393.7C128.955 393.78 129.171 393.888 129.363 394.024C129.555 394.16 129.707 394.336 129.819 394.552C129.931 394.76 129.987 395.024 129.987 395.344C129.987 395.712 129.883 396.032 129.675 396.304C129.467 396.568 129.191 396.772 128.847 396.916C128.511 397.052 128.147 397.12 127.755 397.12C127.315 397.12 126.879 397.036 126.447 396.868C126.023 396.7 125.655 396.416 125.343 396.016Z" fill="#9799AC" fill-opacity="0.55"/>
<path d="M86.8538 444.6C87.2938 444.6 87.6898 444.708 88.0418 444.924C88.3938 445.14 88.6698 445.436 88.8698 445.812C89.0778 446.188 89.1818 446.616 89.1818 447.096C89.1818 447.568 89.0778 447.996 88.8698 448.38C88.6698 448.764 88.3938 449.068 88.0418 449.292C87.6898 449.516 87.2938 449.628 86.8538 449.628H84.4178L84.5018 449.484V452.508C84.5018 452.644 84.4578 452.76 84.3698 452.856C84.2818 452.952 84.1698 453 84.0338 453C83.8898 453 83.7738 452.952 83.6858 452.856C83.6058 452.76 83.5658 452.644 83.5658 452.508V445.08C83.5658 444.944 83.6098 444.832 83.6978 444.744C83.7938 444.648 83.9098 444.6 84.0458 444.6H86.8538ZM86.8538 448.704C87.1178 448.704 87.3498 448.632 87.5498 448.488C87.7498 448.344 87.9098 448.148 88.0298 447.9C88.1498 447.652 88.2098 447.384 88.2098 447.096C88.2098 446.792 88.1498 446.524 88.0298 446.292C87.9098 446.06 87.7498 445.876 87.5498 445.74C87.3498 445.596 87.1178 445.524 86.8538 445.524H84.4178L84.5018 445.392V448.824L84.4178 448.704H86.8538ZM91.0614 453C90.9254 453 90.8094 452.952 90.7134 452.856C90.6254 452.76 90.5814 452.644 90.5814 452.508V447.276C90.5814 447.14 90.6254 447.028 90.7134 446.94C90.8094 446.844 90.9254 446.796 91.0614 446.796C91.2054 446.796 91.3214 446.844 91.4094 446.94C91.4974 447.028 91.5414 447.14 91.5414 447.276V448.86L91.3974 448.608C91.4454 448.36 91.5294 448.12 91.6494 447.888C91.7774 447.648 91.9374 447.436 92.1294 447.252C92.3214 447.06 92.5414 446.912 92.7894 446.808C93.0374 446.696 93.3094 446.64 93.6054 446.64C93.7814 446.64 93.9414 446.684 94.0854 446.772C94.2374 446.852 94.3134 446.968 94.3134 447.12C94.3134 447.288 94.2694 447.412 94.1814 447.492C94.0934 447.572 93.9934 447.612 93.8814 447.612C93.7774 447.612 93.6774 447.592 93.5814 447.552C93.4854 447.504 93.3654 447.48 93.2214 447.48C93.0214 447.48 92.8214 447.536 92.6214 447.648C92.4294 447.752 92.2494 447.904 92.0814 448.104C91.9214 448.304 91.7894 448.532 91.6854 448.788C91.5894 449.036 91.5414 449.304 91.5414 449.592V452.508C91.5414 452.644 91.4934 452.76 91.3974 452.856C91.3094 452.952 91.1974 453 91.0614 453ZM96.3218 452.508C96.3218 452.644 96.2738 452.76 96.1778 452.856C96.0898 452.952 95.9778 453 95.8418 453C95.6978 453 95.5818 452.952 95.4938 452.856C95.4058 452.76 95.3618 452.644 95.3618 452.508V447.18C95.3618 447.044 95.4058 446.932 95.4938 446.844C95.5898 446.748 95.7058 446.7 95.8418 446.7C95.9778 446.7 96.0898 446.748 96.1778 446.844C96.2738 446.932 96.3218 447.044 96.3218 447.18V452.508ZM95.8418 445.896C95.6418 445.896 95.4938 445.856 95.3978 445.776C95.3018 445.696 95.2538 445.572 95.2538 445.404V445.236C95.2538 445.068 95.3058 444.944 95.4098 444.864C95.5138 444.784 95.6618 444.744 95.8538 444.744C96.0458 444.744 96.1898 444.784 96.2858 444.864C96.3818 444.944 96.4298 445.068 96.4298 445.236V445.404C96.4298 445.572 96.3778 445.696 96.2738 445.776C96.1778 445.856 96.0338 445.896 95.8418 445.896ZM100.806 446.64C101.214 446.64 101.582 446.684 101.91 446.772C102.238 446.86 102.498 446.98 102.69 447.132C102.882 447.284 102.978 447.456 102.978 447.648C102.978 447.752 102.942 447.852 102.87 447.948C102.798 448.044 102.702 448.092 102.582 448.092C102.47 448.092 102.378 448.072 102.306 448.032C102.242 447.992 102.178 447.94 102.114 447.876C102.058 447.812 101.978 447.756 101.874 447.708C101.778 447.652 101.638 447.608 101.454 447.576C101.27 447.544 101.086 447.528 100.902 447.528C100.462 447.528 100.074 447.632 99.7382 447.84C99.4102 448.048 99.1502 448.328 98.9582 448.68C98.7662 449.032 98.6702 449.432 98.6702 449.88C98.6702 450.328 98.7622 450.728 98.9462 451.08C99.1302 451.432 99.3862 451.712 99.7142 451.92C100.042 452.128 100.422 452.232 100.854 452.232C101.134 452.232 101.358 452.208 101.526 452.16C101.694 452.112 101.834 452.056 101.946 451.992C102.09 451.912 102.198 451.832 102.27 451.752C102.35 451.672 102.454 451.632 102.582 451.632C102.718 451.632 102.822 451.676 102.894 451.764C102.974 451.852 103.014 451.96 103.014 452.088C103.014 452.232 102.914 452.384 102.714 452.544C102.514 452.704 102.242 452.84 101.898 452.952C101.562 453.064 101.178 453.12 100.746 453.12C100.138 453.12 99.6062 452.98 99.1502 452.7C98.6942 452.412 98.3382 452.024 98.0822 451.536C97.8342 451.04 97.7102 450.488 97.7102 449.88C97.7102 449.272 97.8382 448.724 98.0942 448.236C98.3582 447.748 98.7222 447.36 99.1862 447.072C99.6502 446.784 100.19 446.64 100.806 446.64ZM105.193 452.508C105.193 452.644 105.145 452.76 105.049 452.856C104.961 452.952 104.849 453 104.713 453C104.569 453 104.453 452.952 104.365 452.856C104.277 452.76 104.233 452.644 104.233 452.508V447.18C104.233 447.044 104.277 446.932 104.365 446.844C104.461 446.748 104.577 446.7 104.713 446.7C104.849 446.7 104.961 446.748 105.049 446.844C105.145 446.932 105.193 447.044 105.193 447.18V452.508ZM104.713 445.896C104.513 445.896 104.365 445.856 104.269 445.776C104.173 445.696 104.125 445.572 104.125 445.404V445.236C104.125 445.068 104.177 444.944 104.281 444.864C104.385 444.784 104.533 444.744 104.725 444.744C104.917 444.744 105.061 444.784 105.157 444.864C105.253 444.944 105.301 445.068 105.301 445.236V445.404C105.301 445.572 105.249 445.696 105.145 445.776C105.049 445.856 104.905 445.896 104.713 445.896ZM110.001 446.64C110.545 446.64 110.973 446.752 111.285 446.976C111.597 447.2 111.817 447.5 111.945 447.876C112.081 448.252 112.149 448.672 112.149 449.136V452.508C112.149 452.644 112.101 452.76 112.005 452.856C111.917 452.952 111.805 453 111.669 453C111.533 453 111.417 452.952 111.321 452.856C111.233 452.76 111.189 452.644 111.189 452.508V449.16C111.189 448.856 111.141 448.584 111.045 448.344C110.957 448.096 110.805 447.9 110.589 447.756C110.381 447.604 110.093 447.528 109.725 447.528C109.389 447.528 109.081 447.604 108.801 447.756C108.521 447.9 108.297 448.096 108.129 448.344C107.961 448.584 107.877 448.856 107.877 449.16V452.508C107.877 452.644 107.829 452.76 107.733 452.856C107.645 452.952 107.533 453 107.397 453C107.261 453 107.145 452.952 107.049 452.856C106.961 452.76 106.917 452.644 106.917 452.508V447.276C106.917 447.14 106.961 447.028 107.049 446.94C107.145 446.844 107.261 446.796 107.397 446.796C107.541 446.796 107.657 446.844 107.745 446.94C107.833 447.028 107.877 447.14 107.877 447.276V448.128L107.637 448.392C107.677 448.184 107.769 447.976 107.913 447.768C108.057 447.552 108.237 447.36 108.453 447.192C108.669 447.024 108.909 446.892 109.173 446.796C109.437 446.692 109.713 446.64 110.001 446.64ZM116.529 446.64C116.873 446.64 117.193 446.7 117.489 446.82C117.785 446.932 118.041 447.08 118.257 447.264C118.481 447.448 118.653 447.64 118.773 447.84C118.901 448.04 118.965 448.228 118.965 448.404L118.737 448.26V447.216C118.737 447.08 118.781 446.968 118.869 446.88C118.957 446.784 119.073 446.736 119.217 446.736C119.353 446.736 119.465 446.784 119.553 446.88C119.649 446.968 119.697 447.08 119.697 447.216V452.472C119.697 453.128 119.557 453.672 119.277 454.104C119.005 454.536 118.637 454.86 118.173 455.076C117.709 455.292 117.189 455.4 116.613 455.4C116.373 455.4 116.109 455.368 115.821 455.304C115.533 455.24 115.277 455.16 115.053 455.064C114.829 454.976 114.685 454.884 114.621 454.788C114.501 454.708 114.425 454.616 114.393 454.512C114.369 454.416 114.389 454.324 114.453 454.236C114.525 454.124 114.617 454.068 114.729 454.068C114.849 454.068 114.997 454.104 115.173 454.176C115.245 454.2 115.357 454.24 115.509 454.296C115.669 454.352 115.845 454.4 116.037 454.44C116.237 454.488 116.433 454.512 116.625 454.512C117.305 454.512 117.825 454.332 118.185 453.972C118.553 453.62 118.737 453.152 118.737 452.568V451.452L118.869 451.512C118.821 451.736 118.721 451.944 118.569 452.136C118.425 452.328 118.245 452.5 118.029 452.652C117.821 452.796 117.589 452.912 117.333 453C117.077 453.08 116.817 453.12 116.553 453.12C115.993 453.12 115.489 452.98 115.041 452.7C114.593 452.42 114.237 452.036 113.973 451.548C113.717 451.06 113.589 450.504 113.589 449.88C113.589 449.248 113.717 448.688 113.973 448.2C114.237 447.712 114.589 447.332 115.029 447.06C115.477 446.78 115.977 446.64 116.529 446.64ZM116.649 447.528C116.241 447.528 115.873 447.632 115.545 447.84C115.225 448.04 114.973 448.316 114.789 448.668C114.613 449.02 114.525 449.424 114.525 449.88C114.525 450.32 114.613 450.72 114.789 451.08C114.973 451.432 115.225 451.712 115.545 451.92C115.873 452.128 116.241 452.232 116.649 452.232C117.065 452.232 117.433 452.132 117.753 451.932C118.073 451.724 118.325 451.444 118.509 451.092C118.693 450.74 118.785 450.336 118.785 449.88C118.785 449.416 118.693 449.008 118.509 448.656C118.325 448.304 118.073 448.028 117.753 447.828C117.433 447.628 117.065 447.528 116.649 447.528Z" fill="#9799AC"/>
<path d="M93.1898 500.564C93.3178 500.564 93.4338 500.608 93.5378 500.696C93.6498 500.784 93.7058 500.908 93.7058 501.068C93.7058 501.124 93.6978 501.184 93.6818 501.248L91.1258 508.688C91.0938 508.784 91.0338 508.86 90.9458 508.916C90.8658 508.964 90.7818 508.992 90.6938 509C90.5978 509 90.5058 508.976 90.4178 508.928C90.3298 508.872 90.2618 508.792 90.2138 508.688L88.2098 503.84L88.3058 503.876L86.3138 508.688C86.2658 508.792 86.1978 508.872 86.1098 508.928C86.0218 508.976 85.9298 509 85.8338 509C85.7458 508.992 85.6578 508.964 85.5698 508.916C85.4898 508.86 85.4338 508.784 85.4018 508.688L82.8458 501.248C82.8298 501.184 82.8218 501.128 82.8218 501.08C82.8218 500.92 82.8778 500.796 82.9898 500.708C83.1098 500.612 83.2298 500.564 83.3498 500.564C83.4458 500.564 83.5378 500.592 83.6258 500.648C83.7138 500.704 83.7738 500.78 83.8058 500.876L86.0498 507.5H85.8818L87.8378 502.664C87.8778 502.568 87.9378 502.492 88.0178 502.436C88.0978 502.38 88.1898 502.352 88.2938 502.352C88.3898 502.352 88.4778 502.38 88.5578 502.436C88.6458 502.492 88.7058 502.568 88.7378 502.664L90.6338 507.428L90.4898 507.488L92.7218 500.876C92.7538 500.78 92.8138 500.704 92.9018 500.648C92.9898 500.592 93.0858 500.564 93.1898 500.564ZM100.622 505.88C100.622 506.504 100.482 507.06 100.202 507.548C99.9298 508.036 99.5578 508.42 99.0858 508.7C98.6218 508.98 98.0978 509.12 97.5138 509.12C96.9298 509.12 96.4018 508.98 95.9298 508.7C95.4578 508.42 95.0818 508.036 94.8018 507.548C94.5298 507.06 94.3938 506.504 94.3938 505.88C94.3938 505.256 94.5298 504.7 94.8018 504.212C95.0818 503.724 95.4578 503.34 95.9298 503.06C96.4018 502.78 96.9298 502.64 97.5138 502.64C98.0978 502.64 98.6218 502.78 99.0858 503.06C99.5578 503.34 99.9298 503.724 100.202 504.212C100.482 504.7 100.622 505.256 100.622 505.88ZM99.6618 505.88C99.6618 505.416 99.5658 505.008 99.3738 504.656C99.1898 504.304 98.9338 504.028 98.6058 503.828C98.2858 503.628 97.9218 503.528 97.5138 503.528C97.1058 503.528 96.7378 503.628 96.4098 503.828C96.0898 504.028 95.8338 504.304 95.6418 504.656C95.4498 505.008 95.3538 505.416 95.3538 505.88C95.3538 506.336 95.4498 506.74 95.6418 507.092C95.8338 507.444 96.0898 507.724 96.4098 507.932C96.7378 508.132 97.1058 508.232 97.5138 508.232C97.9218 508.232 98.2858 508.132 98.6058 507.932C98.9338 507.724 99.1898 507.444 99.3738 507.092C99.5658 506.74 99.6618 506.336 99.6618 505.88ZM102.546 509C102.41 509 102.294 508.952 102.198 508.856C102.11 508.76 102.066 508.644 102.066 508.508V503.276C102.066 503.14 102.11 503.028 102.198 502.94C102.294 502.844 102.41 502.796 102.546 502.796C102.69 502.796 102.806 502.844 102.894 502.94C102.982 503.028 103.026 503.14 103.026 503.276V504.86L102.882 504.608C102.93 504.36 103.014 504.12 103.134 503.888C103.262 503.648 103.422 503.436 103.614 503.252C103.806 503.06 104.026 502.912 104.274 502.808C104.522 502.696 104.794 502.64 105.09 502.64C105.266 502.64 105.426 502.684 105.57 502.772C105.722 502.852 105.798 502.968 105.798 503.12C105.798 503.288 105.754 503.412 105.666 503.492C105.578 503.572 105.478 503.612 105.366 503.612C105.262 503.612 105.162 503.592 105.066 503.552C104.97 503.504 104.85 503.48 104.706 503.48C104.506 503.48 104.306 503.536 104.106 503.648C103.914 503.752 103.734 503.904 103.566 504.104C103.406 504.304 103.274 504.532 103.17 504.788C103.074 505.036 103.026 505.304 103.026 505.592V508.508C103.026 508.644 102.978 508.76 102.882 508.856C102.794 508.952 102.682 509 102.546 509ZM107.458 509C107.314 509 107.198 508.952 107.11 508.856C107.022 508.76 106.978 508.644 106.978 508.508V500.6C106.978 500.464 107.022 500.352 107.11 500.264C107.198 500.168 107.314 500.12 107.458 500.12C107.594 500.12 107.706 500.168 107.794 500.264C107.89 500.352 107.938 500.464 107.938 500.6V508.508C107.938 508.644 107.89 508.76 107.794 508.856C107.706 508.952 107.594 509 107.458 509ZM111.442 502.76C111.57 502.76 111.678 502.812 111.766 502.916C111.862 503.012 111.91 503.112 111.91 503.216C111.91 503.352 111.846 503.472 111.718 503.576L107.83 506.972L107.794 505.856L111.106 502.904C111.202 502.808 111.314 502.76 111.442 502.76ZM111.574 508.988C111.438 508.988 111.318 508.936 111.214 508.832L108.658 506.108L109.378 505.448L111.91 508.16C112.006 508.264 112.054 508.384 112.054 508.52C112.054 508.664 111.998 508.78 111.886 508.868C111.774 508.948 111.67 508.988 111.574 508.988ZM116.037 500.144C116.173 500.144 116.313 500.16 116.457 500.192C116.609 500.224 116.737 500.28 116.841 500.36C116.953 500.44 117.009 500.548 117.009 500.684C117.009 500.812 116.969 500.92 116.889 501.008C116.809 501.088 116.713 501.128 116.601 501.128C116.529 501.128 116.429 501.108 116.301 501.068C116.173 501.02 116.041 500.996 115.905 500.996C115.721 500.996 115.569 501.036 115.449 501.116C115.337 501.196 115.253 501.304 115.197 501.44C115.149 501.568 115.125 501.712 115.125 501.872V508.508C115.125 508.644 115.077 508.76 114.981 508.856C114.893 508.952 114.781 509 114.645 509C114.501 509 114.385 508.952 114.297 508.856C114.209 508.76 114.165 508.644 114.165 508.508V501.884C114.165 501.348 114.329 500.924 114.657 500.612C114.993 500.3 115.453 500.144 116.037 500.144ZM116.373 502.892C116.501 502.892 116.609 502.936 116.697 503.024C116.785 503.104 116.829 503.208 116.829 503.336C116.829 503.464 116.785 503.572 116.697 503.66C116.609 503.74 116.501 503.78 116.373 503.78H113.361C113.233 503.78 113.125 503.736 113.037 503.648C112.949 503.56 112.905 503.456 112.905 503.336C112.905 503.2 112.949 503.092 113.037 503.012C113.125 502.932 113.233 502.892 113.361 502.892H116.373ZM119.133 508.508C119.133 508.644 119.085 508.76 118.989 508.856C118.893 508.952 118.777 509 118.641 509C118.505 509 118.393 508.952 118.305 508.856C118.217 508.76 118.173 508.644 118.173 508.508V500.6C118.173 500.464 118.217 500.352 118.305 500.264C118.401 500.168 118.517 500.12 118.653 500.12C118.797 500.12 118.913 500.168 119.001 500.264C119.089 500.352 119.133 500.464 119.133 500.6V508.508ZM126.884 505.88C126.884 506.504 126.744 507.06 126.464 507.548C126.192 508.036 125.82 508.42 125.348 508.7C124.884 508.98 124.36 509.12 123.776 509.12C123.192 509.12 122.664 508.98 122.192 508.7C121.72 508.42 121.344 508.036 121.064 507.548C120.792 507.06 120.656 506.504 120.656 505.88C120.656 505.256 120.792 504.7 121.064 504.212C121.344 503.724 121.72 503.34 122.192 503.06C122.664 502.78 123.192 502.64 123.776 502.64C124.36 502.64 124.884 502.78 125.348 503.06C125.82 503.34 126.192 503.724 126.464 504.212C126.744 504.7 126.884 505.256 126.884 505.88ZM125.924 505.88C125.924 505.416 125.828 505.008 125.636 504.656C125.452 504.304 125.196 504.028 124.868 503.828C124.548 503.628 124.184 503.528 123.776 503.528C123.368 503.528 123 503.628 122.672 503.828C122.352 504.028 122.096 504.304 121.904 504.656C121.712 505.008 121.616 505.416 121.616 505.88C121.616 506.336 121.712 506.74 121.904 507.092C122.096 507.444 122.352 507.724 122.672 507.932C123 508.132 123.368 508.232 123.776 508.232C124.184 508.232 124.548 508.132 124.868 507.932C125.196 507.724 125.452 507.444 125.636 507.092C125.828 506.74 125.924 506.336 125.924 505.88ZM135.647 502.688C135.775 502.688 135.883 502.732 135.971 502.82C136.067 502.908 136.115 503.024 136.115 503.168C136.115 503.2 136.111 503.236 136.103 503.276C136.103 503.308 136.095 503.34 136.079 503.372L134.231 508.688C134.191 508.792 134.123 508.872 134.027 508.928C133.939 508.984 133.843 509.008 133.739 509C133.555 508.992 133.415 508.888 133.319 508.688L131.807 504.896L132.047 504.932L130.679 508.688C130.591 508.888 130.451 508.992 130.259 509C130.155 509.008 130.055 508.984 129.959 508.928C129.863 508.872 129.799 508.792 129.767 508.688L127.883 503.372C127.859 503.3 127.847 503.232 127.847 503.168C127.847 503.04 127.891 502.928 127.979 502.832C128.067 502.736 128.187 502.688 128.339 502.688C128.435 502.688 128.523 502.712 128.603 502.76C128.683 502.808 128.739 502.884 128.771 502.988L130.391 507.716L130.139 507.704L131.543 504.104C131.623 503.904 131.771 503.804 131.987 503.804C132.099 503.804 132.187 503.832 132.251 503.888C132.323 503.936 132.375 504.008 132.407 504.104L133.871 507.704L133.571 507.728L135.191 502.988C135.263 502.788 135.415 502.688 135.647 502.688Z" fill="#9799AC" fill-opacity="0.55"/>
<path d="M84.1178 565C83.9658 565 83.8338 564.952 83.7218 564.856C83.6178 564.76 83.5658 564.644 83.5658 564.508V557.08C83.5658 556.944 83.6098 556.832 83.6978 556.744C83.7938 556.648 83.9098 556.6 84.0458 556.6H87.3578C87.8058 556.6 88.2098 556.704 88.5698 556.912C88.9298 557.112 89.2138 557.392 89.4218 557.752C89.6378 558.104 89.7458 558.512 89.7458 558.976C89.7458 559.312 89.6818 559.628 89.5538 559.924C89.4258 560.212 89.2498 560.464 89.0258 560.68C88.8018 560.888 88.5458 561.048 88.2578 561.16L87.9938 560.968C88.2658 561.032 88.5098 561.148 88.7258 561.316C88.9418 561.476 89.1178 561.684 89.2538 561.94C89.3898 562.188 89.4618 562.48 89.4698 562.816C89.4858 563.112 89.5058 563.348 89.5298 563.524C89.5538 563.7 89.5898 563.84 89.6378 563.944C89.6858 564.04 89.7538 564.116 89.8418 564.172C89.9538 564.244 90.0258 564.34 90.0578 564.46C90.0978 564.58 90.0778 564.696 89.9978 564.808C89.9498 564.88 89.8818 564.932 89.7938 564.964C89.7058 564.988 89.6178 564.996 89.5298 564.988C89.4418 564.98 89.3658 564.956 89.3018 564.916C89.1738 564.844 89.0498 564.74 88.9298 564.604C88.8098 564.46 88.7098 564.256 88.6298 563.992C88.5498 563.728 88.5098 563.368 88.5098 562.912C88.5098 562.656 88.4698 562.444 88.3898 562.276C88.3098 562.108 88.2018 561.972 88.0658 561.868C87.9298 561.764 87.7778 561.692 87.6098 561.652C87.4418 561.612 87.2698 561.592 87.0938 561.592H84.4178L84.5618 561.376V564.508C84.5618 564.644 84.5218 564.76 84.4418 564.856C84.3618 564.952 84.2538 565 84.1178 565ZM84.4178 560.728H87.3578C87.5898 560.712 87.8058 560.632 88.0058 560.488C88.2138 560.344 88.3818 560.144 88.5098 559.888C88.6458 559.624 88.7138 559.328 88.7138 559C88.7138 558.576 88.5778 558.224 88.3058 557.944C88.0418 557.664 87.7058 557.524 87.2978 557.524H84.4658L84.5618 557.296V560.944L84.4178 560.728ZM94.3165 565.12C93.6765 565.12 93.1165 564.984 92.6365 564.712C92.1565 564.44 91.7805 564.068 91.5085 563.596C91.2445 563.116 91.1125 562.564 91.1125 561.94C91.1125 561.244 91.2485 560.652 91.5205 560.164C91.8005 559.668 92.1605 559.292 92.6005 559.036C93.0485 558.772 93.5205 558.64 94.0165 558.64C94.3845 558.64 94.7405 558.708 95.0845 558.844C95.4285 558.98 95.7325 559.18 95.9965 559.444C96.2605 559.7 96.4725 560.012 96.6325 560.38C96.7925 560.74 96.8765 561.144 96.8845 561.592C96.8845 561.72 96.8365 561.828 96.7405 561.916C96.6445 562.004 96.5325 562.048 96.4045 562.048H91.6645L91.4485 561.22H96.0685L95.8765 561.388V561.124C95.8445 560.796 95.7325 560.516 95.5405 560.284C95.3565 560.044 95.1285 559.86 94.8565 559.732C94.5925 559.604 94.3125 559.54 94.0165 559.54C93.7765 559.54 93.5365 559.584 93.2965 559.672C93.0645 559.752 92.8525 559.888 92.6605 560.08C92.4765 560.264 92.3245 560.504 92.2045 560.8C92.0925 561.096 92.0365 561.452 92.0365 561.868C92.0365 562.332 92.1285 562.74 92.3125 563.092C92.5045 563.444 92.7685 563.724 93.1045 563.932C93.4405 564.132 93.8325 564.232 94.2805 564.232C94.5605 564.232 94.8045 564.196 95.0125 564.124C95.2205 564.052 95.4005 563.964 95.5525 563.86C95.7045 563.748 95.8325 563.636 95.9365 563.524C96.0405 563.452 96.1405 563.416 96.2365 563.416C96.3565 563.416 96.4525 563.456 96.5245 563.536C96.6045 563.616 96.6445 563.712 96.6445 563.824C96.6445 563.96 96.5805 564.08 96.4525 564.184C96.2285 564.432 95.9245 564.652 95.5405 564.844C95.1565 565.028 94.7485 565.12 94.3165 565.12ZM98.2689 558.688C98.3649 558.688 98.4569 558.716 98.5449 558.772C98.6329 558.82 98.6969 558.892 98.7369 558.988L100.729 563.668L100.537 563.764L102.565 559C102.653 558.784 102.801 558.68 103.009 558.688C103.129 558.688 103.233 558.728 103.321 558.808C103.409 558.888 103.453 558.988 103.453 559.108C103.453 559.156 103.445 559.204 103.429 559.252C103.421 559.292 103.409 559.328 103.393 559.36L101.077 564.688C100.989 564.888 100.849 564.992 100.657 565C100.553 565.008 100.453 564.988 100.357 564.94C100.269 564.884 100.205 564.8 100.165 564.688L97.8489 559.372C97.8329 559.34 97.8169 559.304 97.8009 559.264C97.7929 559.224 97.7889 559.176 97.7889 559.12C97.7889 559.016 97.8289 558.92 97.9089 558.832C97.9969 558.736 98.1169 558.688 98.2689 558.688ZM105.673 564.508C105.673 564.644 105.625 564.76 105.529 564.856C105.441 564.952 105.329 565 105.193 565C105.049 565 104.933 564.952 104.845 564.856C104.757 564.76 104.713 564.644 104.713 564.508V559.18C104.713 559.044 104.757 558.932 104.845 558.844C104.941 558.748 105.057 558.7 105.193 558.7C105.329 558.7 105.441 558.748 105.529 558.844C105.625 558.932 105.673 559.044 105.673 559.18V564.508ZM105.193 557.896C104.993 557.896 104.845 557.856 104.749 557.776C104.653 557.696 104.605 557.572 104.605 557.404V557.236C104.605 557.068 104.657 556.944 104.761 556.864C104.865 556.784 105.013 556.744 105.205 556.744C105.397 556.744 105.541 556.784 105.637 556.864C105.733 556.944 105.781 557.068 105.781 557.236V557.404C105.781 557.572 105.729 557.696 105.625 557.776C105.529 557.856 105.385 557.896 105.193 557.896ZM110.266 565.12C109.626 565.12 109.066 564.984 108.586 564.712C108.106 564.44 107.73 564.068 107.458 563.596C107.194 563.116 107.062 562.564 107.062 561.94C107.062 561.244 107.198 560.652 107.47 560.164C107.75 559.668 108.11 559.292 108.55 559.036C108.998 558.772 109.47 558.64 109.966 558.64C110.334 558.64 110.69 558.708 111.034 558.844C111.378 558.98 111.682 559.18 111.946 559.444C112.21 559.7 112.422 560.012 112.582 560.38C112.742 560.74 112.826 561.144 112.834 561.592C112.834 561.72 112.786 561.828 112.69 561.916C112.594 562.004 112.482 562.048 112.354 562.048H107.614L107.398 561.22H112.018L111.826 561.388V561.124C111.794 560.796 111.682 560.516 111.49 560.284C111.306 560.044 111.078 559.86 110.806 559.732C110.542 559.604 110.262 559.54 109.966 559.54C109.726 559.54 109.486 559.584 109.246 559.672C109.014 559.752 108.802 559.888 108.61 560.08C108.426 560.264 108.274 560.504 108.154 560.8C108.042 561.096 107.986 561.452 107.986 561.868C107.986 562.332 108.078 562.74 108.262 563.092C108.454 563.444 108.718 563.724 109.054 563.932C109.39 564.132 109.782 564.232 110.23 564.232C110.51 564.232 110.754 564.196 110.962 564.124C111.17 564.052 111.35 563.964 111.502 563.86C111.654 563.748 111.782 563.636 111.886 563.524C111.99 563.452 112.09 563.416 112.186 563.416C112.306 563.416 112.402 563.456 112.474 563.536C112.554 563.616 112.594 563.712 112.594 563.824C112.594 563.96 112.53 564.08 112.402 564.184C112.178 564.432 111.874 564.652 111.49 564.844C111.106 565.028 110.698 565.12 110.266 565.12ZM121.597 558.688C121.725 558.688 121.833 558.732 121.921 558.82C122.017 558.908 122.065 559.024 122.065 559.168C122.065 559.2 122.061 559.236 122.053 559.276C122.053 559.308 122.045 559.34 122.029 559.372L120.181 564.688C120.141 564.792 120.073 564.872 119.977 564.928C119.889 564.984 119.793 565.008 119.689 565C119.505 564.992 119.365 564.888 119.269 564.688L117.757 560.896L117.997 560.932L116.629 564.688C116.541 564.888 116.401 564.992 116.209 565C116.105 565.008 116.005 564.984 115.909 564.928C115.813 564.872 115.749 564.792 115.717 564.688L113.833 559.372C113.809 559.3 113.797 559.232 113.797 559.168C113.797 559.04 113.841 558.928 113.929 558.832C114.017 558.736 114.137 558.688 114.289 558.688C114.385 558.688 114.473 558.712 114.553 558.76C114.633 558.808 114.689 558.884 114.721 558.988L116.341 563.716L116.089 563.704L117.493 560.104C117.573 559.904 117.721 559.804 117.937 559.804C118.049 559.804 118.137 559.832 118.201 559.888C118.273 559.936 118.325 560.008 118.357 560.104L119.821 563.704L119.521 563.728L121.141 558.988C121.213 558.788 121.365 558.688 121.597 558.688ZM122.952 564.016C122.88 563.912 122.848 563.804 122.856 563.692C122.864 563.572 122.932 563.468 123.06 563.38C123.14 563.324 123.232 563.3 123.336 563.308C123.448 563.316 123.548 563.368 123.636 563.464C123.86 563.728 124.116 563.94 124.404 564.1C124.692 564.252 125.044 564.328 125.46 564.328C125.652 564.32 125.844 564.288 126.036 564.232C126.228 564.176 126.388 564.08 126.516 563.944C126.652 563.8 126.72 563.612 126.72 563.38C126.72 563.156 126.652 562.98 126.516 562.852C126.38 562.716 126.204 562.608 125.988 562.528C125.772 562.44 125.536 562.364 125.28 562.3C125.016 562.228 124.756 562.148 124.5 562.06C124.244 561.964 124.012 561.848 123.804 561.712C123.604 561.568 123.44 561.392 123.312 561.184C123.192 560.968 123.132 560.708 123.132 560.404C123.132 560.044 123.228 559.732 123.42 559.468C123.62 559.204 123.884 559 124.212 558.856C124.548 558.712 124.912 558.64 125.304 558.64C125.528 558.64 125.76 558.668 126 558.724C126.248 558.772 126.488 558.86 126.72 558.988C126.952 559.108 127.156 559.276 127.332 559.492C127.404 559.572 127.444 559.672 127.452 559.792C127.46 559.912 127.408 560.02 127.296 560.116C127.208 560.18 127.108 560.208 126.996 560.2C126.892 560.192 126.804 560.152 126.732 560.08C126.564 559.88 126.352 559.728 126.096 559.624C125.848 559.512 125.572 559.456 125.268 559.456C125.076 559.456 124.888 559.484 124.704 559.54C124.52 559.596 124.364 559.692 124.236 559.828C124.116 559.956 124.056 560.136 124.056 560.368C124.064 560.584 124.136 560.76 124.272 560.896C124.408 561.032 124.592 561.144 124.824 561.232C125.056 561.312 125.312 561.392 125.592 561.472C125.848 561.536 126.092 561.612 126.324 561.7C126.564 561.78 126.78 561.888 126.972 562.024C127.164 562.16 127.316 562.336 127.428 562.552C127.54 562.76 127.596 563.024 127.596 563.344C127.596 563.712 127.492 564.032 127.284 564.304C127.076 564.568 126.8 564.772 126.456 564.916C126.12 565.052 125.756 565.12 125.364 565.12C124.924 565.12 124.488 565.036 124.056 564.868C123.632 564.7 123.264 564.416 122.952 564.016Z" fill="#9799AC" fill-opacity="0.45"/>
<path d="M84.0578 621C83.9138 621 83.7938 620.952 83.6978 620.856C83.6098 620.76 83.5658 620.644 83.5658 620.508V613.08C83.5658 612.944 83.6098 612.832 83.6978 612.744C83.7938 612.648 83.9098 612.6 84.0458 612.6H88.2578C88.3938 612.6 88.5098 612.644 88.6058 612.732C88.7018 612.82 88.7498 612.932 88.7498 613.068C88.7498 613.196 88.7018 613.304 88.6058 613.392C88.5098 613.48 88.3938 613.524 88.2578 613.524H84.4778L84.5498 613.428V616.368L84.4898 616.236H87.7178C87.8538 616.236 87.9698 616.284 88.0658 616.38C88.1618 616.468 88.2098 616.58 88.2098 616.716C88.2098 616.836 88.1618 616.944 88.0658 617.04C87.9698 617.128 87.8538 617.172 87.7178 617.172H84.4658L84.5498 617.064V620.508C84.5498 620.644 84.5018 620.76 84.4058 620.856C84.3098 620.952 84.1938 621 84.0578 621ZM92.8682 613.848L90.0482 620.712C90.0162 620.808 89.9602 620.884 89.8802 620.94C89.8002 620.996 89.7162 621.024 89.6282 621.024C89.4762 621.024 89.3642 620.984 89.2922 620.904C89.2202 620.824 89.1842 620.728 89.1842 620.616C89.1762 620.56 89.1842 620.5 89.2082 620.436L92.3162 612.876C92.3562 612.764 92.4162 612.684 92.4962 612.636C92.5842 612.58 92.6802 612.556 92.7842 612.564C92.8882 612.564 92.9802 612.592 93.0602 612.648C93.1482 612.704 93.2082 612.78 93.2402 612.876L96.3362 620.364C96.3602 620.428 96.3722 620.492 96.3722 620.556C96.3722 620.7 96.3242 620.816 96.2282 620.904C96.1322 620.984 96.0242 621.024 95.9042 621.024C95.8082 621.024 95.7202 620.996 95.6402 620.94C95.5602 620.884 95.5002 620.804 95.4602 620.7L92.6042 613.836L92.8682 613.848ZM90.6482 618.756L91.0562 617.82H94.6202L94.8002 618.756H90.6482ZM105.596 621.552C105.708 621.552 105.808 621.596 105.896 621.684C105.992 621.772 106.04 621.88 106.04 622.008C106.04 622.16 105.964 622.304 105.812 622.44C105.668 622.584 105.476 622.712 105.236 622.824C105.004 622.936 104.756 623.024 104.492 623.088C104.236 623.152 103.996 623.184 103.772 623.184C103.284 623.184 102.884 623.132 102.572 623.028C102.268 622.932 102 622.82 101.768 622.692C101.544 622.564 101.32 622.448 101.096 622.344C100.88 622.248 100.62 622.2 100.316 622.2C100.164 622.2 100.036 622.224 99.9323 622.272C99.8283 622.32 99.7283 622.368 99.6323 622.416C99.5363 622.464 99.4243 622.488 99.2963 622.488C99.1603 622.488 99.0443 622.436 98.9483 622.332C98.8603 622.236 98.8163 622.128 98.8163 622.008C98.8163 621.8 98.9083 621.66 99.0923 621.588L101.3 620.796L102.392 620.904L100.352 621.624L100.688 621.372C101 621.372 101.28 621.42 101.528 621.516C101.776 621.612 102.012 621.72 102.236 621.84C102.46 621.96 102.696 622.068 102.944 622.164C103.2 622.26 103.488 622.308 103.808 622.308C104.088 622.308 104.32 622.264 104.504 622.176C104.696 622.096 104.852 622.016 104.972 621.936C105.092 621.848 105.196 621.76 105.284 621.672C105.38 621.592 105.484 621.552 105.596 621.552ZM105.2 616.8C105.2 617.416 105.1 617.988 104.9 618.516C104.7 619.036 104.42 619.492 104.06 619.884C103.7 620.276 103.272 620.58 102.776 620.796C102.28 621.012 101.74 621.12 101.156 621.12C100.564 621.12 100.02 621.012 99.5243 620.796C99.0363 620.58 98.6123 620.276 98.2523 619.884C97.8923 619.492 97.6123 619.036 97.4123 618.516C97.2123 617.988 97.1123 617.416 97.1123 616.8C97.1123 616.176 97.2123 615.604 97.4123 615.084C97.6123 614.556 97.8923 614.1 98.2523 613.716C98.6123 613.324 99.0363 613.02 99.5243 612.804C100.02 612.588 100.564 612.48 101.156 612.48C101.74 612.48 102.28 612.588 102.776 612.804C103.272 613.02 103.7 613.324 104.06 613.716C104.42 614.1 104.7 614.556 104.9 615.084C105.1 615.604 105.2 616.176 105.2 616.8ZM104.168 616.8C104.168 616.144 104.036 615.564 103.772 615.06C103.516 614.556 103.164 614.16 102.716 613.872C102.268 613.584 101.748 613.44 101.156 613.44C100.564 613.44 100.04 613.584 99.5843 613.872C99.1363 614.16 98.7843 614.556 98.5283 615.06C98.2723 615.564 98.1443 616.144 98.1443 616.8C98.1443 617.448 98.2723 618.028 98.5283 618.54C98.7843 619.044 99.1363 619.44 99.5843 619.728C100.04 620.016 100.564 620.16 101.156 620.16C101.748 620.16 102.268 620.016 102.716 619.728C103.164 619.44 103.516 619.044 103.772 618.54C104.036 618.028 104.168 617.448 104.168 616.8Z" fill="#9799AC" fill-opacity="0.35"/>
<path d="M89.6138 669.152C89.7498 669.224 89.8258 669.332 89.8418 669.476C89.8658 669.62 89.8298 669.752 89.7338 669.872C89.6618 669.976 89.5698 670.032 89.4578 670.04C89.3458 670.048 89.2338 670.024 89.1218 669.968C88.8578 669.808 88.5738 669.684 88.2698 669.596C87.9658 669.5 87.6458 669.452 87.3098 669.452C86.8378 669.452 86.4058 669.536 86.0138 669.704C85.6218 669.864 85.2818 670.092 84.9938 670.388C84.7058 670.684 84.4818 671.036 84.3218 671.444C84.1618 671.852 84.0818 672.304 84.0818 672.8C84.0818 673.328 84.1658 673.8 84.3338 674.216C84.5018 674.632 84.7298 674.988 85.0178 675.284C85.3138 675.572 85.6538 675.792 86.0378 675.944C86.4298 676.096 86.8538 676.172 87.3098 676.172C87.6378 676.172 87.9538 676.128 88.2578 676.04C88.5618 675.952 88.8498 675.824 89.1218 675.656C89.2338 675.6 89.3458 675.58 89.4578 675.596C89.5698 675.612 89.6658 675.668 89.7458 675.764C89.8418 675.892 89.8778 676.028 89.8538 676.172C89.8298 676.308 89.7538 676.408 89.6258 676.472C89.4258 676.592 89.1978 676.704 88.9418 676.808C88.6858 676.904 88.4178 676.98 88.1378 677.036C87.8658 677.092 87.5898 677.12 87.3098 677.12C86.7338 677.12 86.1898 677.02 85.6778 676.82C85.1658 676.62 84.7138 676.332 84.3218 675.956C83.9298 675.58 83.6178 675.128 83.3858 674.6C83.1618 674.064 83.0498 673.464 83.0498 672.8C83.0498 672.176 83.1578 671.604 83.3738 671.084C83.5898 670.564 83.8898 670.112 84.2738 669.728C84.6658 669.344 85.1178 669.044 85.6298 668.828C86.1498 668.612 86.7098 668.504 87.3098 668.504C87.7258 668.504 88.1298 668.56 88.5218 668.672C88.9218 668.784 89.2858 668.944 89.6138 669.152ZM97.0241 673.88C97.0241 674.504 96.8841 675.06 96.6041 675.548C96.3321 676.036 95.9601 676.42 95.4881 676.7C95.0241 676.98 94.5001 677.12 93.9161 677.12C93.3321 677.12 92.8041 676.98 92.3321 676.7C91.8601 676.42 91.4841 676.036 91.2041 675.548C90.9321 675.06 90.7961 674.504 90.7961 673.88C90.7961 673.256 90.9321 672.7 91.2041 672.212C91.4841 671.724 91.8601 671.34 92.3321 671.06C92.8041 670.78 93.3321 670.64 93.9161 670.64C94.5001 670.64 95.0241 670.78 95.4881 671.06C95.9601 671.34 96.3321 671.724 96.6041 672.212C96.8841 672.7 97.0241 673.256 97.0241 673.88ZM96.0641 673.88C96.0641 673.416 95.9681 673.008 95.7761 672.656C95.5921 672.304 95.3361 672.028 95.0081 671.828C94.6881 671.628 94.3241 671.528 93.9161 671.528C93.5081 671.528 93.1401 671.628 92.8121 671.828C92.4921 672.028 92.2361 672.304 92.0441 672.656C91.8521 673.008 91.7561 673.416 91.7561 673.88C91.7561 674.336 91.8521 674.74 92.0441 675.092C92.2361 675.444 92.4921 675.724 92.8121 675.932C93.1401 676.132 93.5081 676.232 93.9161 676.232C94.3241 676.232 94.6881 676.132 95.0081 675.932C95.3361 675.724 95.5921 675.444 95.7761 675.092C95.9681 674.74 96.0641 674.336 96.0641 673.88ZM101.552 670.64C102.096 670.64 102.524 670.752 102.836 670.976C103.148 671.2 103.368 671.5 103.496 671.876C103.632 672.252 103.7 672.672 103.7 673.136V676.508C103.7 676.644 103.652 676.76 103.556 676.856C103.468 676.952 103.356 677 103.22 677C103.084 677 102.968 676.952 102.872 676.856C102.784 676.76 102.74 676.644 102.74 676.508V673.16C102.74 672.856 102.692 672.584 102.596 672.344C102.508 672.096 102.356 671.9 102.14 671.756C101.932 671.604 101.644 671.528 101.276 671.528C100.94 671.528 100.632 671.604 100.352 671.756C100.072 671.9 99.8481 672.096 99.6801 672.344C99.5121 672.584 99.4281 672.856 99.4281 673.16V676.508C99.4281 676.644 99.3801 676.76 99.2841 676.856C99.1961 676.952 99.0841 677 98.9481 677C98.8121 677 98.6961 676.952 98.6001 676.856C98.5121 676.76 98.4681 676.644 98.4681 676.508V671.276C98.4681 671.14 98.5121 671.028 98.6001 670.94C98.6961 670.844 98.8121 670.796 98.9481 670.796C99.0921 670.796 99.2081 670.844 99.2961 670.94C99.3841 671.028 99.4281 671.14 99.4281 671.276V672.128L99.1881 672.392C99.2281 672.184 99.3201 671.976 99.4641 671.768C99.6081 671.552 99.7881 671.36 100.004 671.192C100.22 671.024 100.46 670.892 100.724 670.796C100.988 670.692 101.264 670.64 101.552 670.64ZM105.236 670.832H108.056C108.184 670.832 108.288 670.876 108.368 670.964C108.456 671.052 108.5 671.156 108.5 671.276C108.5 671.404 108.456 671.512 108.368 671.6C108.288 671.68 108.184 671.72 108.056 671.72H105.236C105.116 671.72 105.012 671.676 104.924 671.588C104.836 671.5 104.792 671.392 104.792 671.264C104.792 671.144 104.836 671.044 104.924 670.964C105.012 670.876 105.116 670.832 105.236 670.832ZM106.496 669.2C106.632 669.2 106.744 669.248 106.832 669.344C106.92 669.432 106.964 669.544 106.964 669.68V675.476C106.964 675.668 106.992 675.812 107.048 675.908C107.104 676.004 107.176 676.072 107.264 676.112C107.36 676.144 107.452 676.16 107.54 676.16C107.62 676.16 107.688 676.148 107.744 676.124C107.808 676.092 107.88 676.076 107.96 676.076C108.04 676.076 108.112 676.116 108.176 676.196C108.248 676.268 108.284 676.364 108.284 676.484C108.284 676.628 108.2 676.752 108.032 676.856C107.864 676.952 107.676 677 107.468 677C107.356 677 107.216 676.992 107.048 676.976C106.888 676.96 106.728 676.908 106.568 676.82C106.408 676.732 106.272 676.588 106.16 676.388C106.056 676.18 106.004 675.892 106.004 675.524V669.68C106.004 669.544 106.052 669.432 106.148 669.344C106.244 669.248 106.36 669.2 106.496 669.2ZM114.947 670.736C115.083 670.736 115.195 670.784 115.283 670.88C115.379 670.968 115.427 671.08 115.427 671.216V676.508C115.427 676.644 115.379 676.76 115.283 676.856C115.195 676.952 115.083 677 114.947 677C114.803 677 114.687 676.952 114.599 676.856C114.511 676.76 114.467 676.644 114.467 676.508V675.368L114.695 675.344C114.695 675.52 114.635 675.712 114.515 675.92C114.395 676.128 114.231 676.324 114.023 676.508C113.815 676.684 113.567 676.832 113.279 676.952C112.999 677.064 112.695 677.12 112.367 677.12C111.823 677.12 111.335 676.98 110.903 676.7C110.471 676.412 110.127 676.024 109.871 675.536C109.623 675.048 109.499 674.492 109.499 673.868C109.499 673.236 109.623 672.68 109.871 672.2C110.127 671.712 110.471 671.332 110.903 671.06C111.335 670.78 111.815 670.64 112.343 670.64C112.687 670.64 113.007 670.696 113.303 670.808C113.599 670.92 113.855 671.072 114.071 671.264C114.295 671.456 114.467 671.668 114.587 671.9C114.715 672.132 114.779 672.364 114.779 672.596L114.467 672.524V671.216C114.467 671.08 114.511 670.968 114.599 670.88C114.687 670.784 114.803 670.736 114.947 670.736ZM112.475 676.232C112.875 676.232 113.227 676.128 113.531 675.92C113.843 675.712 114.083 675.432 114.251 675.08C114.427 674.72 114.515 674.316 114.515 673.868C114.515 673.428 114.427 673.032 114.251 672.68C114.083 672.32 113.843 672.04 113.531 671.84C113.227 671.632 112.875 671.528 112.475 671.528C112.083 671.528 111.731 671.628 111.419 671.828C111.115 672.028 110.875 672.304 110.699 672.656C110.523 673.008 110.435 673.412 110.435 673.868C110.435 674.316 110.519 674.72 110.687 675.08C110.863 675.432 111.103 675.712 111.407 675.92C111.719 676.128 112.075 676.232 112.475 676.232ZM119.966 670.64C120.374 670.64 120.742 670.684 121.07 670.772C121.398 670.86 121.658 670.98 121.85 671.132C122.042 671.284 122.138 671.456 122.138 671.648C122.138 671.752 122.102 671.852 122.03 671.948C121.958 672.044 121.862 672.092 121.742 672.092C121.63 672.092 121.538 672.072 121.466 672.032C121.402 671.992 121.338 671.94 121.274 671.876C121.218 671.812 121.138 671.756 121.034 671.708C120.938 671.652 120.798 671.608 120.614 671.576C120.43 671.544 120.246 671.528 120.062 671.528C119.622 671.528 119.234 671.632 118.898 671.84C118.57 672.048 118.31 672.328 118.118 672.68C117.926 673.032 117.83 673.432 117.83 673.88C117.83 674.328 117.922 674.728 118.106 675.08C118.29 675.432 118.546 675.712 118.874 675.92C119.202 676.128 119.582 676.232 120.014 676.232C120.294 676.232 120.518 676.208 120.686 676.16C120.854 676.112 120.994 676.056 121.106 675.992C121.25 675.912 121.358 675.832 121.43 675.752C121.51 675.672 121.614 675.632 121.742 675.632C121.878 675.632 121.982 675.676 122.054 675.764C122.134 675.852 122.174 675.96 122.174 676.088C122.174 676.232 122.074 676.384 121.874 676.544C121.674 676.704 121.402 676.84 121.058 676.952C120.722 677.064 120.338 677.12 119.906 677.12C119.298 677.12 118.766 676.98 118.31 676.7C117.854 676.412 117.498 676.024 117.242 675.536C116.994 675.04 116.87 674.488 116.87 673.88C116.87 673.272 116.998 672.724 117.254 672.236C117.518 671.748 117.882 671.36 118.346 671.072C118.81 670.784 119.35 670.64 119.966 670.64ZM123.189 670.832H126.009C126.137 670.832 126.241 670.876 126.321 670.964C126.409 671.052 126.453 671.156 126.453 671.276C126.453 671.404 126.409 671.512 126.321 671.6C126.241 671.68 126.137 671.72 126.009 671.72H123.189C123.069 671.72 122.965 671.676 122.877 671.588C122.789 671.5 122.745 671.392 122.745 671.264C122.745 671.144 122.789 671.044 122.877 670.964C122.965 670.876 123.069 670.832 123.189 670.832ZM124.449 669.2C124.585 669.2 124.697 669.248 124.785 669.344C124.873 669.432 124.917 669.544 124.917 669.68V675.476C124.917 675.668 124.945 675.812 125.001 675.908C125.057 676.004 125.129 676.072 125.217 676.112C125.313 676.144 125.405 676.16 125.493 676.16C125.573 676.16 125.641 676.148 125.697 676.124C125.761 676.092 125.833 676.076 125.913 676.076C125.993 676.076 126.065 676.116 126.129 676.196C126.201 676.268 126.237 676.364 126.237 676.484C126.237 676.628 126.153 676.752 125.985 676.856C125.817 676.952 125.629 677 125.421 677C125.309 677 125.169 676.992 125.001 676.976C124.841 676.96 124.681 676.908 124.521 676.82C124.361 676.732 124.225 676.588 124.113 676.388C124.009 676.18 123.957 675.892 123.957 675.524V669.68C123.957 669.544 124.005 669.432 124.101 669.344C124.197 669.248 124.313 669.2 124.449 669.2ZM137.213 668.588C137.349 668.588 137.461 668.636 137.549 668.732C137.637 668.828 137.681 668.944 137.681 669.08V673.844C137.681 674.46 137.537 675.012 137.249 675.5C136.969 675.988 136.589 676.376 136.109 676.664C135.629 676.944 135.085 677.084 134.477 677.084C133.861 677.084 133.309 676.944 132.821 676.664C132.341 676.376 131.961 675.988 131.681 675.5C131.401 675.012 131.261 674.46 131.261 673.844V669.08C131.261 668.944 131.305 668.828 131.393 668.732C131.489 668.636 131.613 668.588 131.765 668.588C131.893 668.588 132.005 668.636 132.101 668.732C132.205 668.828 132.257 668.944 132.257 669.08V673.844C132.257 674.284 132.357 674.676 132.557 675.02C132.757 675.364 133.025 675.636 133.361 675.836C133.705 676.028 134.077 676.124 134.477 676.124C134.885 676.124 135.261 676.028 135.605 675.836C135.949 675.636 136.225 675.364 136.433 675.02C136.649 674.676 136.757 674.284 136.757 673.844V669.08C136.757 668.944 136.797 668.828 136.877 668.732C136.957 668.636 137.069 668.588 137.213 668.588ZM139.265 676.016C139.193 675.912 139.161 675.804 139.169 675.692C139.177 675.572 139.245 675.468 139.373 675.38C139.453 675.324 139.545 675.3 139.649 675.308C139.761 675.316 139.861 675.368 139.949 675.464C140.173 675.728 140.429 675.94 140.717 676.1C141.005 676.252 141.357 676.328 141.773 676.328C141.965 676.32 142.157 676.288 142.349 676.232C142.541 676.176 142.701 676.08 142.829 675.944C142.965 675.8 143.033 675.612 143.033 675.38C143.033 675.156 142.965 674.98 142.829 674.852C142.693 674.716 142.517 674.608 142.301 674.528C142.085 674.44 141.849 674.364 141.593 674.3C141.329 674.228 141.069 674.148 140.813 674.06C140.557 673.964 140.325 673.848 140.117 673.712C139.917 673.568 139.753 673.392 139.625 673.184C139.505 672.968 139.445 672.708 139.445 672.404C139.445 672.044 139.541 671.732 139.733 671.468C139.933 671.204 140.197 671 140.525 670.856C140.861 670.712 141.225 670.64 141.617 670.64C141.841 670.64 142.073 670.668 142.313 670.724C142.561 670.772 142.801 670.86 143.033 670.988C143.265 671.108 143.469 671.276 143.645 671.492C143.717 671.572 143.757 671.672 143.765 671.792C143.773 671.912 143.721 672.02 143.609 672.116C143.521 672.18 143.421 672.208 143.309 672.2C143.205 672.192 143.117 672.152 143.045 672.08C142.877 671.88 142.665 671.728 142.409 671.624C142.161 671.512 141.885 671.456 141.581 671.456C141.389 671.456 141.201 671.484 141.017 671.54C140.833 671.596 140.677 671.692 140.549 671.828C140.429 671.956 140.369 672.136 140.369 672.368C140.377 672.584 140.449 672.76 140.585 672.896C140.721 673.032 140.905 673.144 141.137 673.232C141.369 673.312 141.625 673.392 141.905 673.472C142.161 673.536 142.405 673.612 142.637 673.7C142.877 673.78 143.093 673.888 143.285 674.024C143.477 674.16 143.629 674.336 143.741 674.552C143.853 674.76 143.909 675.024 143.909 675.344C143.909 675.712 143.805 676.032 143.597 676.304C143.389 676.568 143.113 676.772 142.769 676.916C142.433 677.052 142.069 677.12 141.677 677.12C141.237 677.12 140.801 677.036 140.369 676.868C139.945 676.7 139.577 676.416 139.265 676.016Z" fill="#9799AC" fill-opacity="0.25"/>
<path d="M253.607 417.739L256.812 414.452C257.055 414.255 257.255 414.01 257.401 413.733C257.547 413.456 257.635 413.152 257.66 412.84C257.685 412.528 257.646 412.214 257.546 411.917C257.446 411.621 257.287 411.347 257.078 411.114C256.777 410.761 256.347 410.542 255.885 410.506C255.422 410.469 254.964 410.618 254.61 410.919C254.352 411.143 254.191 411.46 254.164 411.801C254.138 412.143 254.246 412.481 254.467 412.742C254.632 412.935 254.867 413.056 255.12 413.077C255.373 413.098 255.624 413.018 255.819 412.855" stroke="#9799AC" stroke-opacity="0.5" stroke-linecap="round" stroke-linejoin="round"/>
<path d="M253.607 422.255L256.812 425.542C257.055 425.74 257.255 425.984 257.401 426.261C257.547 426.539 257.635 426.842 257.66 427.154C257.685 427.466 257.646 427.78 257.546 428.077C257.446 428.374 257.287 428.647 257.078 428.88C256.778 429.235 256.35 429.456 255.887 429.494C255.424 429.532 254.965 429.385 254.61 429.085C254.351 428.86 254.19 428.541 254.163 428.198C254.137 427.855 254.246 427.516 254.467 427.252C254.549 427.156 254.648 427.077 254.761 427.02C254.873 426.963 254.996 426.928 255.122 426.919C255.247 426.909 255.374 426.925 255.493 426.964C255.613 427.004 255.724 427.067 255.819 427.15" stroke="#9799AC" stroke-opacity="0.5" stroke-linecap="round" stroke-linejoin="round"/>
<path d="M252.859 419.982L249.685 422.654L246.511 419.982L249.685 417.309L252.859 419.982Z" stroke="#9799AC" stroke-opacity="0.5" stroke-linecap="round" stroke-linejoin="round"/>
<path d="M251.456 423.965L256.187 419.981L251.456 415.988" stroke="#9799AC" stroke-opacity="0.5" stroke-linecap="round" stroke-linejoin="round"/>
<path d="M261.297 418L262.927 420L261.297 422L259.667 420L261.297 418Z" fill="#9799AC" fill-opacity="0.5"/>
<path d="M264.927 420H279.927" stroke="#9799AC" stroke-opacity="0.5" stroke-linecap="round" stroke-linejoin="round"/>
<path d="M1669.9 422.261L1666.7 425.548C1666.45 425.745 1666.25 425.99 1666.11 426.267C1665.96 426.544 1665.87 426.848 1665.85 427.16C1665.83 427.472 1665.86 427.786 1665.96 428.083C1666.06 428.379 1666.22 428.653 1666.43 428.886C1666.73 429.239 1667.16 429.458 1667.63 429.494C1668.09 429.531 1668.55 429.382 1668.9 429.081C1669.16 428.857 1669.32 428.54 1669.35 428.199C1669.37 427.857 1669.26 427.519 1669.04 427.258C1668.88 427.065 1668.64 426.944 1668.39 426.923C1668.14 426.902 1667.89 426.982 1667.69 427.145" stroke="#9799AC" stroke-opacity="0.5" stroke-linecap="round" stroke-linejoin="round"/>
<path d="M1669.9 417.745L1666.7 414.458C1666.45 414.26 1666.25 414.016 1666.11 413.739C1665.96 413.461 1665.87 413.158 1665.85 412.846C1665.83 412.534 1665.86 412.22 1665.96 411.923C1666.06 411.626 1666.22 411.353 1666.43 411.12C1666.73 410.765 1667.16 410.544 1667.62 410.506C1668.09 410.468 1668.54 410.615 1668.9 410.915C1669.16 411.14 1669.32 411.459 1669.35 411.802C1669.37 412.145 1669.26 412.484 1669.04 412.748C1668.96 412.844 1668.86 412.923 1668.75 412.98C1668.64 413.037 1668.51 413.072 1668.39 413.081C1668.26 413.091 1668.14 413.075 1668.02 413.036C1667.9 412.996 1667.79 412.933 1667.69 412.85" stroke="#9799AC" stroke-opacity="0.5" stroke-linecap="round" stroke-linejoin="round"/>
<path d="M1670.65 420.018L1673.82 417.346L1677 420.018L1673.82 422.691L1670.65 420.018Z" stroke="#9799AC" stroke-opacity="0.5" stroke-linecap="round" stroke-linejoin="round"/>
<path d="M1672.05 416.035L1667.32 420.019L1672.05 424.012" stroke="#9799AC" stroke-opacity="0.5" stroke-linecap="round" stroke-linejoin="round"/>
<path d="M1662.21 422L1660.58 420L1662.21 418L1663.84 420L1662.21 422Z" fill="#9799AC" fill-opacity="0.5"/>
<path d="M1658.58 420L1643.58 420" stroke="#9799AC" stroke-opacity="0.5" stroke-linecap="round" stroke-linejoin="round"/>
</svg>
