<svg width="401" height="36" viewBox="0 0 401 36" fill="none" xmlns="http://www.w3.org/2000/svg">
<path d="M21.475 2.875C21.2917 5.15833 20.15 8.525 18.05 12.975C16.3167 16.675 15.0333 19.0333 14.2 20.05C13.5 20.9333 12.8 21.825 12.1 22.725C11.1333 23.775 10.2583 24.25 9.475 24.15C8.74167 24.0667 8.10833 23.625 7.575 22.825C7.125 22.1417 6.875 21.45 6.825 20.75C6.75833 19.5667 6.875 17.95 7.175 15.9C7.475 13.9833 7.76667 12.6667 8.05 11.95C7.81667 12.2333 6.64167 13.9917 4.525 17.225C2.75833 19.925 1.68333 21.275 1.3 21.275C1.06667 21.275 0.791667 21.1917 0.475 21.025C0.158333 20.8583 7.07805e-08 20.6667 7.07805e-08 20.45C7.07805e-08 20.35 0.141667 19.85 0.425 18.95C0.708333 18.05 0.933333 17.4083 1.1 17.025L5.025 7.975C5.225 7.20833 5.60833 6.10833 6.175 4.675C6.24167 4.54167 6.375 4.39167 6.575 4.225C6.79167 4.04167 6.95833 3.95 7.075 3.95C7.325 3.95 7.55833 4.075 7.775 4.325C8.00833 4.55833 8.125 4.76667 8.125 4.95C8.125 5.48333 7.93333 6.10833 7.55 6.825C6.73333 8.325 6.26667 9.2 6.15 9.45C5.66667 10.6167 4.90833 12.3333 3.875 14.6C3.89167 14.6667 3.95 14.7667 4.05 14.9C4.83333 13.65 5.825 12.2167 7.025 10.6C8.90833 8.05 10.1417 6.775 10.725 6.775C10.975 6.775 11.1833 6.94167 11.35 7.275C11.4833 7.525 11.55 7.73333 11.55 7.9C11.55 7.96667 11.3667 8.39167 11 9.175C10.5667 10.0417 10.2917 10.6833 10.175 11.1C9.80833 12.2167 9.45833 13.5333 9.125 15.05C8.69167 16.9833 8.475 18.4667 8.475 19.5C8.475 20.9833 8.98333 21.7917 10 21.925C10.35 21.975 10.8917 21.575 11.625 20.725C12.025 20.2083 12.425 19.6917 12.825 19.175C13.925 17.775 14.975 16 15.975 13.85C16.775 12.05 17.5667 10.25 18.35 8.45C18.9333 7.18333 19.325 5.975 19.525 4.825C19.5583 4.30833 19.5833 3.8 19.6 3.3C19.6667 2.63333 19.8417 2.24167 20.125 2.125C20.2583 2.075 20.4083 2.05 20.575 2.05C20.7417 2.05 20.9333 2.15 21.15 2.35C21.3667 2.53333 21.475 2.70833 21.475 2.875ZM30.1127 21.075C29.9794 21.5083 29.4877 22.0583 28.6377 22.725C27.7877 23.4083 27.2127 23.75 26.9127 23.75C25.196 23.75 24.3377 22.6417 24.3377 20.425C24.3377 20.0583 24.496 19.3333 24.8127 18.25C25.1794 17.0333 25.396 16.2167 25.4627 15.8C24.9794 16.1833 24.0544 17.2167 22.6877 18.9C21.4877 20.4 20.796 21.15 20.6127 21.15C20.546 21.15 20.471 21.1667 20.3877 21.2C20.3044 21.2333 20.221 21.25 20.1377 21.25C19.621 21.25 19.3627 20.9417 19.3627 20.325C19.3627 20.275 19.7044 19.35 20.3877 17.55C21.2044 15.35 21.746 13.8917 22.0127 13.175C22.4794 11.825 23.0627 10.1333 23.7627 8.1C23.8627 7.56667 23.971 7.025 24.0877 6.475C24.271 5.825 24.6794 5.5 25.3127 5.5C25.7127 5.5 25.9127 5.80833 25.9127 6.425C25.9127 6.59167 25.346 8.225 24.2127 11.325C23.0127 14.6083 22.3377 16.5667 22.1877 17.2C22.8544 16.4333 23.521 15.6583 24.1877 14.875C25.5877 13.3583 26.5127 12.6 26.9627 12.6C27.4794 12.6 27.7377 12.9833 27.7377 13.75C27.7377 13.8833 27.4294 14.925 26.8127 16.875C26.1794 18.875 25.846 20.1 25.8127 20.55C25.7794 21 25.8627 21.3833 26.0627 21.7C26.2794 22.0167 26.5294 22.175 26.8127 22.175C27.2794 22.175 27.8544 21.925 28.5377 21.425C29.2377 20.925 29.6627 20.675 29.8127 20.675C30.096 20.675 30.196 20.8083 30.1127 21.075ZM38.6693 14.7C38.6693 15.65 37.8777 16.8 36.2943 18.15C34.711 19.5 33.286 20.2167 32.0193 20.3C32.0693 20.85 32.3443 21.3167 32.8443 21.7C33.2443 22 33.6527 22.15 34.0693 22.15C34.536 22.15 35.261 21.95 36.2443 21.55C37.361 21.0833 37.9193 20.8417 37.9193 20.825C38.1527 20.775 38.361 20.8417 38.5443 21.025C38.261 21.425 37.536 21.9417 36.3693 22.575C35.2027 23.225 34.336 23.55 33.7693 23.55C32.786 23.55 31.986 23.1833 31.3693 22.45C30.836 21.8 30.561 21.0417 30.5443 20.175C30.511 18.8417 31.2443 17.3167 32.7443 15.6C34.2443 13.8833 35.6693 13.025 37.0193 13.025C37.386 13.025 37.7527 13.2083 38.1193 13.575C38.486 13.9417 38.6693 14.3167 38.6693 14.7ZM36.9943 15.075C36.861 14.9417 36.7443 14.875 36.6443 14.875C35.9277 14.875 35.0943 15.3333 34.1443 16.25C33.3443 17.05 32.811 17.7833 32.5443 18.45C33.0443 18.45 33.5193 18.325 33.9693 18.075C34.186 17.9583 34.636 17.65 35.3193 17.15C36.0193 16.6333 36.5777 15.9417 36.9943 15.075ZM48.1611 15.625C48.1611 15.9583 48.0778 16.325 47.9111 16.725C47.7111 17.175 47.4778 17.4583 47.2111 17.575C47.0111 17.3583 46.9028 17.1583 46.8861 16.975C46.8695 16.7917 46.8528 16.6083 46.8361 16.425C46.8028 16.2917 46.8195 16.0833 46.8861 15.8C46.9528 15.5 46.9861 15.3 46.9861 15.2C46.9861 14.8333 46.8278 14.65 46.5111 14.65C45.9945 14.65 45.2945 15.2917 44.4111 16.575C43.5278 17.8417 42.8611 19.1917 42.4111 20.625C42.3278 21.0917 42.2445 21.5583 42.1611 22.025C42.0278 22.6083 41.8195 23.0167 41.5361 23.25C41.3361 23.15 41.1111 22.9917 40.8611 22.775C40.4945 22.4417 40.3111 22.1583 40.3111 21.925C40.3111 21.825 40.4195 21.3667 40.6361 20.55C40.9861 19.4833 41.4028 18.1667 41.8861 16.6C42.0861 15.7333 42.2361 15.175 42.3361 14.925C42.5195 14.425 42.7778 14.0333 43.1111 13.75C43.3111 13.75 43.4611 13.875 43.5611 14.125C43.6778 14.475 43.7611 14.675 43.8111 14.725C44.2945 14.2917 44.7861 13.8583 45.2861 13.425C45.9361 12.925 46.5361 12.675 47.0861 12.675C47.4528 12.675 47.7195 12.8583 47.8861 13.225C48.0695 13.675 48.1611 14.475 48.1611 15.625ZM57.4926 14.7C57.4926 15.65 56.7009 16.8 55.1176 18.15C53.5342 19.5 52.1092 20.2167 50.8426 20.3C50.8926 20.85 51.1676 21.3167 51.6676 21.7C52.0676 22 52.4759 22.15 52.8926 22.15C53.3592 22.15 54.0842 21.95 55.0676 21.55C56.1842 21.0833 56.7426 20.8417 56.7426 20.825C56.9759 20.775 57.1842 20.8417 57.3676 21.025C57.0842 21.425 56.3592 21.9417 55.1926 22.575C54.0259 23.225 53.1592 23.55 52.5926 23.55C51.6092 23.55 50.8092 23.1833 50.1926 22.45C49.6592 21.8 49.3842 21.0417 49.3676 20.175C49.3342 18.8417 50.0676 17.3167 51.5676 15.6C53.0676 13.8833 54.4926 13.025 55.8426 13.025C56.2092 13.025 56.5759 13.2083 56.9426 13.575C57.3092 13.9417 57.4926 14.3167 57.4926 14.7ZM55.8176 15.075C55.6842 14.9417 55.5676 14.875 55.4676 14.875C54.7509 14.875 53.9176 15.3333 52.9676 16.25C52.1676 17.05 51.6342 17.7833 51.3676 18.45C51.8676 18.45 52.3426 18.325 52.7926 18.075C53.0092 17.9583 53.4592 17.65 54.1426 17.15C54.8426 16.6333 55.4009 15.9417 55.8176 15.075ZM67.184 19.625C67.184 16.3417 68.984 12.4917 72.584 8.075C73.6007 6.84167 74.934 5.64167 76.584 4.475C78.3173 3.24167 79.609 2.625 80.459 2.625C81.609 2.625 82.184 3.35 82.184 4.8C82.184 5.25 82.0257 5.85 81.709 6.6C81.309 7.58333 80.834 8.075 80.284 8.075C79.834 8.075 79.609 7.725 79.609 7.025C79.609 6.925 79.7173 6.63333 79.934 6.15C80.1673 5.66667 80.284 5.38333 80.284 5.3C80.284 5 80.1173 4.85 79.784 4.85C78.6507 4.85 77.2673 5.59167 75.634 7.075C74.5007 8.125 73.5257 9.21667 72.709 10.35C71.6423 11.85 70.859 13.1 70.359 14.1C69.509 15.75 69.0173 17.3167 68.884 18.8C68.8507 19.3667 69.034 20.05 69.434 20.85C69.934 21.8167 70.534 22.3 71.234 22.3C71.3173 22.3 71.534 22.3167 71.884 22.35C72.2507 22.3833 72.4757 22.4 72.559 22.4C72.7423 22.4 73.034 22.35 73.434 22.25C73.834 22.1333 74.134 22.075 74.334 22.075C74.4173 22.075 74.6507 21.95 75.034 21.7C75.434 21.45 75.7173 21.2917 75.884 21.225C76.4173 21.025 77.2173 20.5667 78.284 19.85C79.3007 19.1667 80.109 18.725 80.709 18.525V18.925C79.659 20.0583 78.2007 21.1417 76.334 22.175C74.3673 23.2917 72.7923 23.85 71.609 23.85C70.5257 23.85 69.5173 23.4083 68.584 22.525C67.6507 21.6583 67.184 20.6917 67.184 19.625ZM89.3232 15.625C89.3232 15.9583 89.2399 16.325 89.0732 16.725C88.8732 17.175 88.6399 17.4583 88.3732 17.575C88.1732 17.3583 88.0649 17.1583 88.0482 16.975C88.0316 16.7917 88.0149 16.6083 87.9982 16.425C87.9649 16.2917 87.9816 16.0833 88.0482 15.8C88.1149 15.5 88.1482 15.3 88.1482 15.2C88.1482 14.8333 87.9899 14.65 87.6732 14.65C87.1566 14.65 86.4566 15.2917 85.5732 16.575C84.6899 17.8417 84.0232 19.1917 83.5732 20.625C83.4899 21.0917 83.4066 21.5583 83.3232 22.025C83.1899 22.6083 82.9816 23.0167 82.6982 23.25C82.4982 23.15 82.2732 22.9917 82.0232 22.775C81.6566 22.4417 81.4732 22.1583 81.4732 21.925C81.4732 21.825 81.5816 21.3667 81.7982 20.55C82.1482 19.4833 82.5649 18.1667 83.0482 16.6C83.2482 15.7333 83.3982 15.175 83.4982 14.925C83.6816 14.425 83.9399 14.0333 84.2732 13.75C84.4732 13.75 84.6232 13.875 84.7232 14.125C84.8399 14.475 84.9232 14.675 84.9732 14.725C85.4566 14.2917 85.9482 13.8583 86.4482 13.425C87.0982 12.925 87.6982 12.675 88.2482 12.675C88.6149 12.675 88.8816 12.8583 89.0482 13.225C89.2316 13.675 89.3232 14.475 89.3232 15.625ZM103.536 19.9C103.436 20.5833 102.794 21.35 101.611 22.2C100.444 23.05 99.5439 23.475 98.9105 23.475C98.8272 23.475 98.7439 23.4583 98.6605 23.425C98.5939 23.4083 98.5189 23.4 98.4355 23.4C98.1355 23.4 97.7689 23.2167 97.3355 22.85C96.9689 22.5333 96.7355 22.2667 96.6355 22.05C96.3022 21.3667 96.1355 20.7 96.1355 20.05C96.1355 19.8167 96.1605 19.5833 96.2105 19.35C95.4605 20.0167 94.7105 20.6917 93.9605 21.375C93.0272 22.1083 92.1605 22.475 91.3605 22.475C91.0772 22.475 90.8022 22.225 90.5355 21.725C90.2855 21.2917 90.1605 20.925 90.1605 20.625C90.1605 19.5917 90.9939 18.1667 92.6605 16.35C94.3439 14.5333 95.6605 13.6333 96.6105 13.65C96.8939 13.65 97.0939 13.75 97.2105 13.95C97.3272 14.15 97.4355 14.35 97.5355 14.55C97.6522 14.3 97.7772 14.0417 97.9105 13.775C98.1439 13.325 98.3689 13.1 98.5855 13.1C98.8022 13.1 99.0772 13.2583 99.4105 13.575C99.5272 13.775 99.4855 14.1667 99.2855 14.75C98.9355 15.25 98.6772 15.7 98.5105 16.1C98.3272 16.55 98.1355 17.2 97.9355 18.05C97.7522 18.8 97.6605 19.2583 97.6605 19.425C97.6605 19.9917 97.7855 20.5167 98.0355 21C98.3522 21.6167 98.7939 21.925 99.3605 21.925C99.8272 21.925 100.452 21.675 101.236 21.175C101.902 20.7417 102.561 20.3167 103.211 19.9H103.536ZM96.7355 16.05C96.6689 16.05 96.5439 16.0083 96.3605 15.925C96.1939 15.8417 96.0689 15.8 95.9855 15.8C95.7022 15.8 95.2855 16.0417 94.7355 16.525C94.4022 16.825 94.0689 17.1333 93.7355 17.45C93.3355 17.8 92.9272 18.2917 92.5105 18.925C92.1105 19.5583 91.8772 20.0833 91.8105 20.5C91.8439 20.5 91.8939 20.5417 91.9605 20.625C92.0272 20.6917 92.1022 20.725 92.1855 20.725C92.4522 20.725 93.1689 20.2083 94.3355 19.175C95.3855 18.225 95.9855 17.6333 96.1355 17.4C96.4189 16.9667 96.6189 16.5167 96.7355 16.05ZM113.429 14.725C113.429 14.9583 113.229 15.1917 112.829 15.425C110.896 15.875 109.737 16.1167 109.354 16.15C108.521 16.25 107.662 16.4333 106.779 16.7C106.229 18.15 105.504 20.3583 104.604 23.325C103.671 26.4083 102.954 28.6417 102.454 30.025C102.337 30.325 102.146 30.475 101.879 30.475C101.529 30.475 101.237 30.325 101.004 30.025C100.837 29.8083 100.754 29.6167 100.754 29.45C100.754 29.5 101.396 27.8167 102.679 24.4C103.979 20.9833 104.629 18.9333 104.629 18.25C104.629 18.1667 104.404 17.9 103.954 17.45C103.654 17.0833 103.504 16.775 103.504 16.525C103.504 16.1583 103.804 15.85 104.404 15.6C104.787 15.4833 105.179 15.3583 105.579 15.225C106.262 13.6083 107.254 11.1667 108.554 7.9C108.904 6.95 109.346 6.075 109.879 5.275C110.079 4.99167 110.421 4.66667 110.904 4.3C111.454 3.88333 111.887 3.675 112.204 3.675C112.604 3.675 112.954 3.98333 113.254 4.6C113.521 5.11667 113.646 5.55833 113.629 5.925C113.629 6.45833 113.487 7.05 113.204 7.7C112.887 8.43333 112.554 8.8 112.204 8.8C112.121 8.8 111.929 8.725 111.629 8.575C111.796 7.425 111.879 6.88333 111.879 6.95C111.879 6.51667 111.771 6.31667 111.554 6.35C111.354 6.36667 110.921 6.95 110.254 8.1C109.654 9.11667 109.237 9.91667 109.004 10.5C108.621 11.3667 108.087 12.7833 107.404 14.75C108.121 14.7 109.054 14.6083 110.204 14.475C111.271 14.325 111.812 14.25 111.829 14.25C111.879 14.25 112.087 14.275 112.454 14.325C112.821 14.3583 113.104 14.375 113.304 14.375C113.304 14.3917 113.321 14.4333 113.354 14.5C113.404 14.55 113.429 14.625 113.429 14.725ZM122.431 13.825C122.397 13.875 122.406 13.9417 122.456 14.025C122.506 14.1083 122.531 14.1667 122.531 14.2C122.531 14.3167 122.431 14.4583 122.231 14.625C120.614 14.9417 119.406 15.2667 118.606 15.6C118.006 15.85 117.397 16.175 116.781 16.575C116.797 16.8083 116.714 17.1833 116.531 17.7C116.347 18.2 116.256 18.5667 116.256 18.8C116.256 18.9 116.264 19.0667 116.281 19.3C116.314 19.5167 116.339 19.6667 116.356 19.75C116.356 19.9833 116.214 20.6167 115.931 21.65C115.597 22.85 115.289 23.45 115.006 23.45C114.706 23.45 114.406 23.1583 114.106 22.575C113.872 22.0917 113.756 21.725 113.756 21.475C113.756 21.3917 113.931 20.8 114.281 19.7C114.647 18.5833 114.831 17.975 114.831 17.875C114.831 17.7917 114.772 17.6583 114.656 17.475C114.539 17.2917 114.472 17.1667 114.456 17.1C114.306 16.6 114.231 16.1667 114.231 15.8C114.231 15.6833 114.364 15.4667 114.631 15.15C114.914 14.8333 115.097 14.675 115.181 14.675C115.281 14.675 115.364 14.6667 115.431 14.65C115.497 14.6333 115.572 14.625 115.656 14.625C115.822 14.625 116.156 13.9417 116.656 12.575C116.906 11.8583 117.156 11.15 117.406 10.45C117.872 9.38333 118.464 7.81667 119.181 5.75C119.347 5.5 119.497 5.35 119.631 5.3C119.781 5.25 119.881 5.18333 119.931 5.1H120.381C120.381 5.18333 120.447 5.39167 120.581 5.725C120.714 6.05833 120.781 6.35 120.781 6.6C120.781 7.05 120.331 8.2 119.431 10.05C118.431 12.15 117.839 13.525 117.656 14.175L117.806 14.35C118.406 14.2 119.047 14.1 119.731 14.05C120.631 13.9833 121.531 13.9083 122.431 13.825ZM129.474 13.975C129.474 14.0583 129.415 14.1833 129.299 14.35C129.199 14.5 129.14 14.625 129.124 14.725C129.04 14.6917 128.849 14.575 128.549 14.375C128.415 14.2917 128.249 13.9583 128.049 13.375C127.982 13.2583 127.849 13.1917 127.649 13.175C127.165 13.125 126.849 13.3167 126.699 13.75C126.682 13.8 126.64 14.1417 126.574 14.775C126.557 14.9417 126.699 15.8083 126.999 17.375C127.299 18.9417 127.415 20.075 127.349 20.775C127.265 21.575 126.94 22.3 126.374 22.95C125.657 23.75 124.765 24.15 123.699 24.15C123.099 24.15 122.607 23.9917 122.224 23.675C121.84 23.3583 121.649 22.925 121.649 22.375C121.649 22.1583 121.682 21.9333 121.749 21.7C121.965 20.95 122.282 20.4083 122.699 20.075C122.965 19.9083 123.232 19.75 123.499 19.6C123.665 19.6 123.865 19.6083 124.099 19.625C123.932 19.9583 123.765 20.2917 123.599 20.625C123.315 21.2083 123.174 21.65 123.174 21.95C123.174 22.3333 123.415 22.525 123.899 22.525C124.399 22.525 124.857 22.2333 125.274 21.65C125.707 21.0667 125.94 20.4583 125.974 19.825C125.99 19.725 125.84 18.9083 125.524 17.375C125.19 15.7583 125.024 14.9417 125.024 14.925C125.007 14.775 124.999 14.6167 124.999 14.45C124.999 13.6167 125.232 12.8583 125.699 12.175C126.165 11.475 126.74 11.1333 127.424 11.15C128.107 11.15 128.649 11.5 129.049 12.2C129.399 12.7833 129.54 13.375 129.474 13.975ZM145.101 20.675C144.751 21.1583 144.31 21.6083 143.776 22.025C143.26 22.4417 142.876 22.65 142.626 22.65C142.193 22.65 141.976 22.65 141.976 22.65C141.326 22.6 140.776 22.275 140.326 21.675C139.893 21.075 139.676 20.4333 139.676 19.75C139.676 19.6 139.685 19.45 139.701 19.3C139.701 19.3 139.26 19.8 138.376 20.8C137.61 21.6667 137.051 22.1 136.701 22.1C136.085 22.1 135.776 21.6333 135.776 20.7C135.776 20.1 135.901 19.4917 136.151 18.875C136.401 18.2583 136.526 17.9167 136.526 17.85V17.5C136.276 17.45 135.518 18.3167 134.251 20.1C132.968 21.9333 132.11 22.85 131.676 22.85C131.426 22.85 131.21 22.7083 131.026 22.425C130.893 22.2083 130.826 21.9917 130.826 21.775C131.193 20.7583 131.51 19.85 131.776 19.05C132.41 17.1 132.751 15.8333 132.801 15.25C132.835 14.9833 132.943 14.725 133.126 14.475C133.31 14.2083 133.535 14.075 133.801 14.075C134.368 14.075 134.651 14.325 134.651 14.825C134.651 15.4083 134.468 16.2583 134.101 17.375C134.118 17.4083 134.135 17.45 134.151 17.5C134.168 17.55 134.193 17.5917 134.226 17.625C134.343 17.5083 134.951 16.8 136.051 15.5C136.685 14.7333 137.26 14.35 137.776 14.35C137.993 14.35 138.16 14.4583 138.276 14.675C138.41 14.875 138.476 15.0667 138.476 15.25C138.476 15.0333 138.276 16.2 137.876 18.75C138.093 18.5 138.776 17.625 139.926 16.125C140.643 15.175 141.193 14.5917 141.576 14.375L141.776 14.175C142.31 14.525 142.576 14.7417 142.576 14.825C142.576 15.3083 142.36 16.05 141.926 17.05C141.493 18.05 141.276 18.9833 141.276 19.85C141.276 20.9333 141.76 21.475 142.726 21.475C142.926 21.475 143.643 21.1 144.876 20.35C145.06 20.5167 145.151 20.5917 145.151 20.575C145.135 20.6083 145.118 20.6417 145.101 20.675ZM158.589 19.9C158.489 20.5833 157.848 21.35 156.664 22.2C155.498 23.05 154.598 23.475 153.964 23.475C153.881 23.475 153.798 23.4583 153.714 23.425C153.648 23.4083 153.573 23.4 153.489 23.4C153.189 23.4 152.823 23.2167 152.389 22.85C152.023 22.5333 151.789 22.2667 151.689 22.05C151.356 21.3667 151.189 20.7 151.189 20.05C151.189 19.8167 151.214 19.5833 151.264 19.35C150.514 20.0167 149.764 20.6917 149.014 21.375C148.081 22.1083 147.214 22.475 146.414 22.475C146.131 22.475 145.856 22.225 145.589 21.725C145.339 21.2917 145.214 20.925 145.214 20.625C145.214 19.5917 146.048 18.1667 147.714 16.35C149.398 14.5333 150.714 13.6333 151.664 13.65C151.948 13.65 152.148 13.75 152.264 13.95C152.381 14.15 152.489 14.35 152.589 14.55C152.706 14.3 152.831 14.0417 152.964 13.775C153.198 13.325 153.423 13.1 153.639 13.1C153.856 13.1 154.131 13.2583 154.464 13.575C154.581 13.775 154.539 14.1667 154.339 14.75C153.989 15.25 153.731 15.7 153.564 16.1C153.381 16.55 153.189 17.2 152.989 18.05C152.806 18.8 152.714 19.2583 152.714 19.425C152.714 19.9917 152.839 20.5167 153.089 21C153.406 21.6167 153.848 21.925 154.414 21.925C154.881 21.925 155.506 21.675 156.289 21.175C156.956 20.7417 157.614 20.3167 158.264 19.9H158.589ZM151.789 16.05C151.723 16.05 151.598 16.0083 151.414 15.925C151.248 15.8417 151.123 15.8 151.039 15.8C150.756 15.8 150.339 16.0417 149.789 16.525C149.456 16.825 149.123 17.1333 148.789 17.45C148.389 17.8 147.981 18.2917 147.564 18.925C147.164 19.5583 146.931 20.0833 146.864 20.5C146.898 20.5 146.948 20.5417 147.014 20.625C147.081 20.6917 147.156 20.725 147.239 20.725C147.506 20.725 148.223 20.2083 149.389 19.175C150.439 18.225 151.039 17.6333 151.189 17.4C151.473 16.9667 151.673 16.5167 151.789 16.05ZM162.708 20.525C162.674 20.1583 162.783 19.5 163.033 18.55C163.283 17.5833 163.408 17.1167 163.408 17.15C162.624 17.9667 161.999 18.65 161.533 19.2C160.666 20.2333 160.066 21.0667 159.733 21.7C159.649 21.7 159.499 21.75 159.283 21.85C159.083 21.95 158.941 22 158.858 22C158.674 22 158.474 21.875 158.258 21.625C158.058 21.375 157.958 21.2167 157.958 21.15C157.958 21.0333 158.158 20.1667 158.558 18.55C158.974 16.9167 159.324 15.6333 159.608 14.7C159.658 14.5333 159.799 14.3917 160.033 14.275C160.266 14.1583 160.466 14.1 160.633 14.1C160.716 14.1 160.841 14.15 161.008 14.25C161.241 14.4 161.366 14.475 161.383 14.475C161.433 14.7917 161.308 15.3667 161.008 16.2C160.674 17.0833 160.508 17.6167 160.508 17.8C160.508 17.8833 160.533 17.95 160.583 18C160.949 17.65 161.474 17.05 162.158 16.2C162.841 15.3333 163.358 14.7333 163.708 14.4C164.291 13.8833 164.833 13.625 165.333 13.625C165.683 13.625 165.858 13.925 165.858 14.525C165.858 15.125 165.583 16.125 165.033 17.525C164.499 18.925 164.233 19.875 164.233 20.375C164.233 21.2583 164.566 21.7 165.233 21.7C165.499 21.7 166.308 21.3 167.658 20.5C167.708 20.5333 167.766 20.575 167.833 20.625C167.899 20.6583 167.916 20.7167 167.883 20.8C167.649 21.2833 167.191 21.8083 166.508 22.375C165.841 22.925 165.308 23.2 164.908 23.2C163.591 23.2 162.858 22.3083 162.708 20.525ZM175.641 13.975C175.641 14.0583 175.582 14.1833 175.466 14.35C175.366 14.5 175.307 14.625 175.291 14.725C175.207 14.6917 175.016 14.575 174.716 14.375C174.582 14.2917 174.416 13.9583 174.216 13.375C174.149 13.2583 174.016 13.1917 173.816 13.175C173.332 13.125 173.016 13.3167 172.866 13.75C172.849 13.8 172.807 14.1417 172.741 14.775C172.724 14.9417 172.866 15.8083 173.166 17.375C173.466 18.9417 173.582 20.075 173.516 20.775C173.432 21.575 173.107 22.3 172.541 22.95C171.824 23.75 170.932 24.15 169.866 24.15C169.266 24.15 168.774 23.9917 168.391 23.675C168.007 23.3583 167.816 22.925 167.816 22.375C167.816 22.1583 167.849 21.9333 167.916 21.7C168.132 20.95 168.449 20.4083 168.866 20.075C169.132 19.9083 169.399 19.75 169.666 19.6C169.832 19.6 170.032 19.6083 170.266 19.625C170.099 19.9583 169.932 20.2917 169.766 20.625C169.482 21.2083 169.341 21.65 169.341 21.95C169.341 22.3333 169.582 22.525 170.066 22.525C170.566 22.525 171.024 22.2333 171.441 21.65C171.874 21.0667 172.107 20.4583 172.141 19.825C172.157 19.725 172.007 18.9083 171.691 17.375C171.357 15.7583 171.191 14.9417 171.191 14.925C171.174 14.775 171.166 14.6167 171.166 14.45C171.166 13.6167 171.399 12.8583 171.866 12.175C172.332 11.475 172.907 11.1333 173.591 11.15C174.274 11.15 174.816 11.5 175.216 12.2C175.566 12.7833 175.707 13.375 175.641 13.975ZM187.95 21.075C187.816 21.5083 187.325 22.0583 186.475 22.725C185.625 23.4083 185.05 23.75 184.75 23.75C183.033 23.75 182.175 22.6417 182.175 20.425C182.175 20.0583 182.333 19.3333 182.65 18.25C183.016 17.0333 183.233 16.2167 183.3 15.8C182.816 16.1833 181.891 17.2167 180.525 18.9C179.325 20.4 178.633 21.15 178.45 21.15C178.383 21.15 178.308 21.1667 178.225 21.2C178.141 21.2333 178.058 21.25 177.975 21.25C177.458 21.25 177.2 20.9417 177.2 20.325C177.2 20.275 177.541 19.35 178.225 17.55C179.041 15.35 179.583 13.8917 179.85 13.175C180.316 11.825 180.9 10.1333 181.6 8.1C181.7 7.56667 181.808 7.025 181.925 6.475C182.108 5.825 182.516 5.5 183.15 5.5C183.55 5.5 183.75 5.80833 183.75 6.425C183.75 6.59167 183.183 8.225 182.05 11.325C180.85 14.6083 180.175 16.5667 180.025 17.2C180.691 16.4333 181.358 15.6583 182.025 14.875C183.425 13.3583 184.35 12.6 184.8 12.6C185.316 12.6 185.575 12.9833 185.575 13.75C185.575 13.8833 185.266 14.925 184.65 16.875C184.016 18.875 183.683 20.1 183.65 20.55C183.616 21 183.7 21.3833 183.9 21.7C184.116 22.0167 184.366 22.175 184.65 22.175C185.116 22.175 185.691 21.925 186.375 21.425C187.075 20.925 187.5 20.675 187.65 20.675C187.933 20.675 188.033 20.8083 187.95 21.075ZM196.975 8.7C196.708 9.05 196.175 9.525 195.375 10.125C194.575 10.725 194.075 11.025 193.875 11.025C193.608 11.025 193.358 10.8833 193.125 10.6C192.908 10.3 192.8 10.025 192.8 9.775C192.8 9.675 192.816 9.6 192.85 9.55C193.183 9.36667 193.508 9.18333 193.825 9C194.491 8.65 195.1 8.43333 195.65 8.35C196.216 8.25 196.508 8.2 196.525 8.2C196.658 8.2 196.808 8.36667 196.975 8.7ZM196.2 18.65C196.2 19.1167 195.575 19.9167 194.325 21.05C193.091 22.1833 192.3 22.75 191.95 22.75C191.883 22.75 191.691 22.7583 191.375 22.775C191.075 22.8083 190.883 22.825 190.8 22.825C190.283 22.825 189.808 22.5417 189.375 21.975C188.941 21.4083 188.725 20.8583 188.725 20.325C188.725 19.7083 189.1 18.5333 189.85 16.8C190.616 15 191.183 14.1 191.55 14.1C192.083 14.1 192.483 14.4167 192.75 15.05C192.666 15.2333 192.175 16.1417 191.275 17.775C190.691 18.825 190.4 19.7 190.4 20.4C190.4 20.55 190.408 20.6917 190.425 20.825C190.558 21.0583 190.85 21.175 191.3 21.175C191.916 21.175 192.766 20.75 193.85 19.9C195.116 18.9167 195.858 18.3833 196.075 18.3C196.075 18.3167 196.091 18.3583 196.125 18.425C196.175 18.4917 196.2 18.5667 196.2 18.65ZM204.892 15.675C204.942 16.925 204.242 18.4 202.792 20.1C201.358 21.7833 200.125 22.6667 199.092 22.75C198.258 22.8 197.817 22.4417 197.767 21.675C197.75 21.425 197.842 21.1167 198.042 20.75C198.258 20.3833 198.517 20.1917 198.817 20.175C199.017 20.1583 199.15 20.2667 199.217 20.5C199.217 20.65 199.225 20.7917 199.242 20.925C199.292 20.975 199.358 21 199.442 21C200.175 20.9333 201.025 20.1833 201.992 18.75C202.908 17.35 203.342 16.275 203.292 15.525C203.258 15.0917 203.117 14.7583 202.867 14.525C202.617 14.275 202.308 14.1583 201.942 14.175C200.892 14.2417 199.792 15.2833 198.642 17.3C197.792 18.7833 196.967 20.6833 196.167 23C195.567 24.7667 195.225 25.95 195.142 26.55C195.092 26.9167 194.95 27.4667 194.717 28.2C194.417 29.1667 194.258 29.6917 194.242 29.775C194.108 29.8583 193.908 29.95 193.642 30.05C193.425 30.0667 193.1 29.8 192.667 29.25C192.65 28.7333 192.892 27.775 193.392 26.375C193.858 25.0583 194.325 23.7417 194.792 22.425C195.325 20.7583 195.85 19.0833 196.367 17.4C197.083 15.1833 197.617 14.0667 197.967 14.05C198.333 14.0167 198.475 14 198.392 14C198.758 14 198.958 14.35 198.992 15.05C199.342 14.3667 199.867 13.8083 200.567 13.375C201.267 12.925 202 12.6917 202.767 12.675C203.367 12.6583 203.875 12.9917 204.292 13.675C204.642 14.2583 204.842 14.925 204.892 15.675ZM227.754 19.9C227.654 20.5833 227.013 21.35 225.829 22.2C224.663 23.05 223.763 23.475 223.129 23.475C223.046 23.475 222.963 23.4583 222.879 23.425C222.813 23.4083 222.738 23.4 222.654 23.4C222.354 23.4 221.988 23.2167 221.554 22.85C221.188 22.5333 220.954 22.2667 220.854 22.05C220.521 21.3667 220.354 20.7 220.354 20.05C220.354 19.8167 220.379 19.5833 220.429 19.35C219.679 20.0167 218.929 20.6917 218.179 21.375C217.246 22.1083 216.379 22.475 215.579 22.475C215.296 22.475 215.021 22.225 214.754 21.725C214.504 21.2917 214.379 20.925 214.379 20.625C214.379 19.5917 215.213 18.1667 216.879 16.35C218.563 14.5333 219.879 13.6333 220.829 13.65C221.113 13.65 221.313 13.75 221.429 13.95C221.546 14.15 221.654 14.35 221.754 14.55C221.871 14.3 221.996 14.0417 222.129 13.775C222.363 13.325 222.588 13.1 222.804 13.1C223.021 13.1 223.296 13.2583 223.629 13.575C223.746 13.775 223.704 14.1667 223.504 14.75C223.154 15.25 222.896 15.7 222.729 16.1C222.546 16.55 222.354 17.2 222.154 18.05C221.971 18.8 221.879 19.2583 221.879 19.425C221.879 19.9917 222.004 20.5167 222.254 21C222.571 21.6167 223.013 21.925 223.579 21.925C224.046 21.925 224.671 21.675 225.454 21.175C226.121 20.7417 226.779 20.3167 227.429 19.9H227.754ZM220.954 16.05C220.888 16.05 220.763 16.0083 220.579 15.925C220.413 15.8417 220.288 15.8 220.204 15.8C219.921 15.8 219.504 16.0417 218.954 16.525C218.621 16.825 218.288 17.1333 217.954 17.45C217.554 17.8 217.146 18.2917 216.729 18.925C216.329 19.5583 216.096 20.0833 216.029 20.5C216.063 20.5 216.113 20.5417 216.179 20.625C216.246 20.6917 216.321 20.725 216.404 20.725C216.671 20.725 217.388 20.2083 218.554 19.175C219.604 18.225 220.204 17.6333 220.354 17.4C220.638 16.9667 220.838 16.5167 220.954 16.05ZM231.873 20.525C231.84 20.1583 231.948 19.5 232.198 18.55C232.448 17.5833 232.573 17.1167 232.573 17.15C231.79 17.9667 231.165 18.65 230.698 19.2C229.831 20.2333 229.231 21.0667 228.898 21.7C228.815 21.7 228.665 21.75 228.448 21.85C228.248 21.95 228.106 22 228.023 22C227.84 22 227.64 21.875 227.423 21.625C227.223 21.375 227.123 21.2167 227.123 21.15C227.123 21.0333 227.323 20.1667 227.723 18.55C228.14 16.9167 228.49 15.6333 228.773 14.7C228.823 14.5333 228.965 14.3917 229.198 14.275C229.431 14.1583 229.631 14.1 229.798 14.1C229.881 14.1 230.006 14.15 230.173 14.25C230.406 14.4 230.531 14.475 230.548 14.475C230.598 14.7917 230.473 15.3667 230.173 16.2C229.84 17.0833 229.673 17.6167 229.673 17.8C229.673 17.8833 229.698 17.95 229.748 18C230.115 17.65 230.64 17.05 231.323 16.2C232.006 15.3333 232.523 14.7333 232.873 14.4C233.456 13.8833 233.998 13.625 234.498 13.625C234.848 13.625 235.023 13.925 235.023 14.525C235.023 15.125 234.748 16.125 234.198 17.525C233.665 18.925 233.398 19.875 233.398 20.375C233.398 21.2583 233.731 21.7 234.398 21.7C234.665 21.7 235.473 21.3 236.823 20.5C236.873 20.5333 236.931 20.575 236.998 20.625C237.065 20.6583 237.081 20.7167 237.048 20.8C236.815 21.2833 236.356 21.8083 235.673 22.375C235.006 22.925 234.473 23.2 234.073 23.2C232.756 23.2 232.023 22.3083 231.873 20.525ZM252.275 19.675C252.292 19.7417 252.3 19.8 252.3 19.85C252.3 20.0167 252.05 20.4583 251.55 21.175C251.317 21.5083 250.883 21.925 250.25 22.425C249.55 22.9417 248.942 23.2833 248.425 23.45C248.208 23.5167 247.858 23.5083 247.375 23.425C246.892 23.3417 246.542 23.2333 246.325 23.1C245.258 22.4167 244.725 21.1083 244.725 19.175C244.725 18.575 244.783 18.025 244.9 17.525C244.467 18.4083 243.708 19.45 242.625 20.65C241.192 22.2 239.975 23.0083 238.975 23.075C238.758 23.075 238.442 22.875 238.025 22.475C237.625 22.0583 237.417 21.7833 237.4 21.65C237.333 20.5 238.15 18.8083 239.85 16.575C241.633 14.2583 243.175 13.0667 244.475 13C244.742 13 244.892 13.0167 244.925 13.05C244.975 13.0667 245.167 13.2833 245.5 13.7C246.117 12.5 246.725 11.3083 247.325 10.125C248.342 8.19167 249.25 6.95 250.05 6.4C250.3 6.51667 250.492 6.60833 250.625 6.675C250.625 6.74167 250.675 6.85833 250.775 7.025C250.875 7.19167 250.925 7.30833 250.925 7.375C250.925 7.40833 250.917 7.44167 250.9 7.475C250.35 8.14167 249.458 9.725 248.225 12.225C247.758 13.1583 247.317 14.3083 246.9 15.675C246.4 17.2917 246.167 18.5 246.2 19.3C246.233 19.8667 246.317 20.3417 246.45 20.725C246.7 21.4917 247.133 21.9 247.75 21.95C248.333 22 249.05 21.7083 249.9 21.075C250.567 20.575 251.242 20.075 251.925 19.575C251.992 19.4917 252.108 19.525 252.275 19.675ZM244.425 15.375C244.408 15.2583 244.358 15.1583 244.275 15.075C243.975 15.025 243.625 15.1417 243.225 15.425C242.925 15.6583 242.633 15.9 242.35 16.15C241.933 16.45 241.3 17.1833 240.45 18.35C239.483 19.65 239.017 20.5417 239.05 21.025C239.05 21.125 239.092 21.2083 239.175 21.275C239.692 21.1917 240.317 20.7917 241.05 20.075C241.633 19.5083 242.125 18.9167 242.525 18.3C242.875 17.85 243.217 17.4083 243.55 16.975C244.15 16.1417 244.442 15.6083 244.425 15.375ZM277.529 5.875C277.596 8.675 276.671 11.7917 274.754 15.225C273.571 17.325 272.263 19.0083 270.829 20.275C270.179 20.8417 268.813 21.7917 266.729 23.125C266.546 23.2417 266.479 23.5 266.529 23.9C266.596 24.4833 266.688 24.975 266.804 25.375C266.988 25.925 267.171 26.4667 267.354 27C267.438 27.3 267.654 27.7667 268.004 28.4C268.304 28.9667 268.454 29.2917 268.454 29.375C268.454 29.4917 268.404 29.6417 268.304 29.825C268.154 30.075 268.079 30.2083 268.079 30.225C267.746 30.0417 267.354 29.625 266.904 28.975C266.271 28.0417 265.771 26.925 265.404 25.625C265.054 24.3417 264.904 23.7 264.954 23.7C263.471 23.7 262.313 23.0833 261.479 21.85C260.763 20.8 260.404 19.575 260.404 18.175C260.404 17.275 260.629 16.15 261.079 14.8C261.513 13.55 262.021 12.4333 262.604 11.45C263.004 10.7833 263.688 9.81667 264.654 8.55C265.904 6.91667 267.038 5.625 268.054 4.675C268.788 3.99167 269.571 3.475 270.404 3.125C270.854 2.94167 271.304 2.75833 271.754 2.575C273.271 1.375 274.079 0.775 274.179 0.775C275.079 0.775 275.888 1.475 276.604 2.875C277.188 4.025 277.496 5.025 277.529 5.875ZM276.154 6.55C276.154 6.01667 276.038 5.38333 275.804 4.65C275.471 3.58333 275.004 3.05 274.404 3.05C274.288 3.05 274.121 3.11667 273.904 3.25C273.754 3.33333 273.604 3.425 273.454 3.525C273.754 3.925 273.904 4.48333 273.904 5.2C273.904 5.4 273.854 5.63333 273.754 5.9C273.604 6.33333 273.371 6.55 273.054 6.55C272.871 6.55 272.679 6.275 272.479 5.725C272.296 5.15833 272.138 4.9 272.004 4.95C268.054 9.16667 266.079 13.9667 266.079 19.35C266.079 20.3167 266.129 21.0333 266.229 21.5C268.796 20.5833 271.121 18.4583 273.204 15.125C275.171 11.9917 276.154 9.13333 276.154 6.55ZM269.004 6C267.588 7.06667 266.104 8.75833 264.554 11.075C262.771 13.7417 261.879 15.9333 261.879 17.65C261.879 18.35 262.054 19.1333 262.404 20C262.888 21.2333 263.563 21.85 264.429 21.85C264.613 21.85 264.704 21.8 264.704 21.7C264.621 21.0333 264.579 20.35 264.579 19.65C264.579 15.05 266.054 10.5 269.004 6ZM288.895 20.975C288.628 21.4083 288.178 21.875 287.545 22.375C286.728 23.0083 285.987 23.325 285.32 23.325C284.57 23.325 283.928 23 283.395 22.35C282.878 21.6833 282.62 20.9417 282.62 20.125C282.62 19.8917 282.645 19.675 282.695 19.475C282.045 20.1583 281.395 20.85 280.745 21.55C279.945 22.3333 279.312 22.725 278.845 22.725C277.712 22.725 277.145 22.0083 277.145 20.575C277.145 20.0083 277.595 18.7083 278.495 16.675C279.412 14.575 280.045 13.525 280.395 13.525C280.578 13.525 280.762 13.725 280.945 14.125C281.145 14.5083 281.245 14.8 281.245 15C281.245 14.9667 280.837 15.725 280.02 17.275C279.187 18.875 278.728 20.0833 278.645 20.9C278.612 20.95 278.628 21 278.695 21.05C279.445 20.7667 280.587 19.6667 282.12 17.75C282.403 17.4333 282.837 16.8833 283.42 16.1C283.62 15.75 283.828 15.4083 284.045 15.075C284.362 14.6417 284.687 14.3917 285.02 14.325C285.087 14.4083 285.262 14.625 285.545 14.975C285.712 15.1583 285.795 15.3417 285.795 15.525C285.795 15.4083 285.528 15.975 284.995 17.225C284.478 18.4583 284.195 19.4417 284.145 20.175C284.128 20.4417 284.212 20.775 284.395 21.175C284.628 21.6917 284.937 21.95 285.32 21.95C285.753 21.95 286.345 21.75 287.095 21.35C287.945 20.9 288.52 20.6417 288.82 20.575L288.895 20.975ZM301.9 19.9C301.8 20.5833 301.158 21.35 299.975 22.2C298.808 23.05 297.908 23.475 297.275 23.475C297.191 23.475 297.108 23.4583 297.025 23.425C296.958 23.4083 296.883 23.4 296.8 23.4C296.5 23.4 296.133 23.2167 295.7 22.85C295.333 22.5333 295.1 22.2667 295 22.05C294.666 21.3667 294.5 20.7 294.5 20.05C294.5 19.8167 294.525 19.5833 294.575 19.35C293.825 20.0167 293.075 20.6917 292.325 21.375C291.391 22.1083 290.525 22.475 289.725 22.475C289.441 22.475 289.166 22.225 288.9 21.725C288.65 21.2917 288.525 20.925 288.525 20.625C288.525 19.5917 289.358 18.1667 291.025 16.35C292.708 14.5333 294.025 13.6333 294.975 13.65C295.258 13.65 295.458 13.75 295.575 13.95C295.691 14.15 295.8 14.35 295.9 14.55C296.016 14.3 296.141 14.0417 296.275 13.775C296.508 13.325 296.733 13.1 296.95 13.1C297.166 13.1 297.441 13.2583 297.775 13.575C297.891 13.775 297.85 14.1667 297.65 14.75C297.3 15.25 297.041 15.7 296.875 16.1C296.691 16.55 296.5 17.2 296.3 18.05C296.116 18.8 296.025 19.2583 296.025 19.425C296.025 19.9917 296.15 20.5167 296.4 21C296.716 21.6167 297.158 21.925 297.725 21.925C298.191 21.925 298.816 21.675 299.6 21.175C300.266 20.7417 300.925 20.3167 301.575 19.9H301.9ZM295.1 16.05C295.033 16.05 294.908 16.0083 294.725 15.925C294.558 15.8417 294.433 15.8 294.35 15.8C294.066 15.8 293.65 16.0417 293.1 16.525C292.766 16.825 292.433 17.1333 292.1 17.45C291.7 17.8 291.291 18.2917 290.875 18.925C290.475 19.5583 290.241 20.0833 290.175 20.5C290.208 20.5 290.258 20.5417 290.325 20.625C290.391 20.6917 290.466 20.725 290.55 20.725C290.816 20.725 291.533 20.2083 292.7 19.175C293.75 18.225 294.35 17.6333 294.5 17.4C294.783 16.9667 294.983 16.5167 295.1 16.05ZM307.88 5.6C307.33 6.9 306.43 9.3 305.18 12.8C303.68 16.9333 302.905 19.6 302.855 20.8C302.838 21.15 302.93 21.5583 303.13 22.025C303.347 22.4917 303.447 22.7333 303.43 22.75C303.43 23.0333 303.288 23.1667 303.005 23.15H302.555C302.155 23.15 301.822 22.8167 301.555 22.15C301.355 21.6667 301.263 21.3083 301.28 21.075C301.297 20.275 301.455 19.3333 301.755 18.25C302.388 16.1 303.222 13.6 304.255 10.75C304.938 8.93333 305.422 7.15 305.705 5.4C305.738 5.21667 305.905 4.975 306.205 4.675C306.522 4.375 306.738 4.225 306.855 4.225C307.072 4.24167 307.322 4.41667 307.605 4.75L307.88 5.6ZM315.31 8.7C315.043 9.05 314.51 9.525 313.71 10.125C312.91 10.725 312.41 11.025 312.21 11.025C311.943 11.025 311.693 10.8833 311.46 10.6C311.243 10.3 311.135 10.025 311.135 9.775C311.135 9.675 311.151 9.6 311.185 9.55C311.518 9.36667 311.843 9.18333 312.16 9C312.826 8.65 313.435 8.43333 313.985 8.35C314.551 8.25 314.843 8.2 314.86 8.2C314.993 8.2 315.143 8.36667 315.31 8.7ZM314.535 18.65C314.535 19.1167 313.91 19.9167 312.66 21.05C311.426 22.1833 310.635 22.75 310.285 22.75C310.218 22.75 310.026 22.7583 309.71 22.775C309.41 22.8083 309.218 22.825 309.135 22.825C308.618 22.825 308.143 22.5417 307.71 21.975C307.276 21.4083 307.06 20.8583 307.06 20.325C307.06 19.7083 307.435 18.5333 308.185 16.8C308.951 15 309.518 14.1 309.885 14.1C310.418 14.1 310.818 14.4167 311.085 15.05C311.001 15.2333 310.51 16.1417 309.61 17.775C309.026 18.825 308.735 19.7 308.735 20.4C308.735 20.55 308.743 20.6917 308.76 20.825C308.893 21.0583 309.185 21.175 309.635 21.175C310.251 21.175 311.101 20.75 312.185 19.9C313.451 18.9167 314.193 18.3833 314.41 18.3C314.41 18.3167 314.426 18.3583 314.46 18.425C314.51 18.4917 314.535 18.5667 314.535 18.65ZM323.139 13.825C323.105 13.875 323.114 13.9417 323.164 14.025C323.214 14.1083 323.239 14.1667 323.239 14.2C323.239 14.3167 323.139 14.4583 322.939 14.625C321.322 14.9417 320.114 15.2667 319.314 15.6C318.714 15.85 318.105 16.175 317.489 16.575C317.505 16.8083 317.422 17.1833 317.239 17.7C317.055 18.2 316.964 18.5667 316.964 18.8C316.964 18.9 316.972 19.0667 316.989 19.3C317.022 19.5167 317.047 19.6667 317.064 19.75C317.064 19.9833 316.922 20.6167 316.639 21.65C316.305 22.85 315.997 23.45 315.714 23.45C315.414 23.45 315.114 23.1583 314.814 22.575C314.58 22.0917 314.464 21.725 314.464 21.475C314.464 21.3917 314.639 20.8 314.989 19.7C315.355 18.5833 315.539 17.975 315.539 17.875C315.539 17.7917 315.48 17.6583 315.364 17.475C315.247 17.2917 315.18 17.1667 315.164 17.1C315.014 16.6 314.939 16.1667 314.939 15.8C314.939 15.6833 315.072 15.4667 315.339 15.15C315.622 14.8333 315.805 14.675 315.889 14.675C315.989 14.675 316.072 14.6667 316.139 14.65C316.205 14.6333 316.28 14.625 316.364 14.625C316.53 14.625 316.864 13.9417 317.364 12.575C317.614 11.8583 317.864 11.15 318.114 10.45C318.58 9.38333 319.172 7.81667 319.889 5.75C320.055 5.5 320.205 5.35 320.339 5.3C320.489 5.25 320.589 5.18333 320.639 5.1H321.089C321.089 5.18333 321.155 5.39167 321.289 5.725C321.422 6.05833 321.489 6.35 321.489 6.6C321.489 7.05 321.039 8.2 320.139 10.05C319.139 12.15 318.547 13.525 318.364 14.175L318.514 14.35C319.114 14.2 319.755 14.1 320.439 14.05C321.339 13.9833 322.239 13.9083 323.139 13.825ZM333.65 12.875C333.65 13.2583 333.083 14.0917 331.95 15.375C331.367 16.025 330.783 16.6667 330.2 17.3C329.833 18.15 329.217 20.1333 328.35 23.25C327.283 27.0667 325.958 30.0333 324.375 32.15C323.142 33.8167 321.758 34.9167 320.225 35.45C319.425 35.7333 318.658 35.875 317.925 35.875C316.158 35.875 314.683 35.225 313.5 33.925C312.367 32.7083 311.8 31.275 311.8 29.625C311.8 27.125 312.508 25.275 313.925 24.075C314.242 23.7583 314.425 23.5917 314.475 23.575C314.425 23.5917 314.567 23.6 314.9 23.6C314.733 24.3667 314.317 25.1083 313.65 25.825C313.667 26.1417 313.6 26.65 313.45 27.35C313.3 28.1 313.225 28.6417 313.225 28.975C313.225 30.4917 313.517 31.7083 314.1 32.625C314.833 33.7917 315.992 34.375 317.575 34.375C320.508 34.375 322.992 32.3583 325.025 28.325C326.175 26.0583 327.133 23.2417 327.9 19.875C327.95 19.8417 327.9 19.825 327.75 19.825C327.717 19.825 327.05 20.4167 325.75 21.6C324.45 22.7833 323.658 23.375 323.375 23.375C323.142 23.375 322.858 23.1917 322.525 22.825C322.208 22.475 322.05 22.2 322.05 22C322.05 21.1 322.475 19.825 323.325 18.175C324.225 16.4417 324.692 15.4083 324.725 15.075C324.875 14.9917 325.092 14.95 325.375 14.95C325.625 14.95 325.85 15.125 326.05 15.475C326.217 15.7583 326.3 16 326.3 16.2C326.3 16.1667 325.925 16.7333 325.175 17.9C324.425 19.05 324.033 20.0167 324 20.8C324.45 20.5833 324.95 20.2333 325.5 19.75C325.917 19.35 326.342 18.9583 326.775 18.575C327.225 18.175 327.917 17.5333 328.85 16.65C329.267 15.7667 329.683 14.875 330.1 13.975C331.05 12.2583 331.95 11.4 332.8 11.4C333.017 11.4 333.225 11.6333 333.425 12.1C333.575 12.4833 333.65 12.7417 333.65 12.875ZM357.545 15.425C357.545 14.3417 356.77 13.5417 355.22 13.025C354.17 12.6583 353.053 12.475 351.87 12.475C351.086 12.475 350.186 12.675 349.17 13.075C348.17 13.475 347.57 13.675 347.37 13.675C347.186 13.675 346.97 13.475 346.72 13.075C345.736 14.475 344.886 16.1417 344.17 18.075C344.103 18.525 343.961 19.1583 343.745 19.975C343.695 20.125 343.553 20.3167 343.32 20.55C343.103 20.7833 342.97 20.9667 342.92 21.1H342.545C342.311 21.1 342.111 20.925 341.945 20.575C341.828 20.325 341.77 20.1167 341.77 19.95C341.77 19.9167 341.953 19.5 342.32 18.7C342.703 17.8833 342.986 17.3333 343.17 17.05C343.486 16.5333 344.036 15.4583 344.82 13.825C345.503 12.375 346.178 10.925 346.845 9.475C347.728 7.625 348.545 6.09167 349.295 4.875V4.55C349.228 4.46667 348.97 4.425 348.52 4.425C348.036 4.425 347.52 4.51667 346.97 4.7C346.286 4.93333 345.92 5.25 345.87 5.65C345.836 6.03333 345.811 6.425 345.795 6.825C345.711 7.325 345.42 7.575 344.92 7.575C344.67 7.575 344.32 7.33333 343.87 6.85C343.42 6.36667 343.195 6.03333 343.195 5.85C343.195 3.86667 346.153 2.875 352.07 2.875C352.17 2.875 352.378 2.91667 352.695 3C353.028 3.08333 353.228 3.125 353.295 3.125C354.145 3.15833 355.045 3.45833 355.995 4.025C357.111 4.69167 357.67 5.45833 357.67 6.325C357.67 7.04167 357.095 7.9 355.945 8.9C355.211 9.48333 354.47 10.0583 353.72 10.625C354.453 10.8583 355.186 11.0833 355.92 11.3C356.936 11.6667 357.72 12.0667 358.27 12.5C358.986 13.1 359.345 13.8083 359.345 14.625C359.345 16.1583 358.411 17.7583 356.545 19.425C355.011 20.8083 353.103 22.0333 350.82 23.1C348.736 24.0833 347.17 24.575 346.12 24.575C345.47 24.575 344.92 24.3167 344.47 23.8C344.02 23.3333 343.795 22.7917 343.795 22.175C343.795 21.1417 344.203 20.1667 345.02 19.25C345.553 18.65 346.395 17.95 347.545 17.15H348.095C348.045 17.3833 347.986 17.65 347.92 17.95C346.286 19.2333 345.47 20.5417 345.47 21.875C345.47 22.3917 346.036 22.65 347.17 22.65C347.836 22.65 349.011 22.25 350.695 21.45C352.495 20.5833 354.02 19.6417 355.27 18.625C356.786 17.4083 357.545 16.3417 357.545 15.425ZM355.87 6.675C355.903 5.94167 355.253 5.34167 353.92 4.875C352.936 4.525 352.095 4.35 351.395 4.35C351.345 4.35 350.703 5.44167 349.47 7.625C348.236 9.80833 347.545 11.1 347.395 11.5H347.82C348.22 11.2833 348.778 11.0833 349.495 10.9C349.545 10.8833 349.703 10.825 349.97 10.725C350.186 10.6417 350.353 10.6 350.47 10.6C350.92 10.6 351.911 10.0833 353.445 9.05C355.045 7.96667 355.853 7.175 355.87 6.675ZM369.089 14.7C369.089 15.65 368.298 16.8 366.714 18.15C365.131 19.5 363.706 20.2167 362.439 20.3C362.489 20.85 362.764 21.3167 363.264 21.7C363.664 22 364.073 22.15 364.489 22.15C364.956 22.15 365.681 21.95 366.664 21.55C367.781 21.0833 368.339 20.8417 368.339 20.825C368.573 20.775 368.781 20.8417 368.964 21.025C368.681 21.425 367.956 21.9417 366.789 22.575C365.623 23.225 364.756 23.55 364.189 23.55C363.206 23.55 362.406 23.1833 361.789 22.45C361.256 21.8 360.981 21.0417 360.964 20.175C360.931 18.8417 361.664 17.3167 363.164 15.6C364.664 13.8833 366.089 13.025 367.439 13.025C367.806 13.025 368.173 13.2083 368.539 13.575C368.906 13.9417 369.089 14.3167 369.089 14.7ZM367.414 15.075C367.281 14.9417 367.164 14.875 367.064 14.875C366.348 14.875 365.514 15.3333 364.564 16.25C363.764 17.05 363.231 17.7833 362.964 18.45C363.464 18.45 363.939 18.325 364.389 18.075C364.606 17.9583 365.056 17.65 365.739 17.15C366.439 16.6333 366.998 15.9417 367.414 15.075ZM380.975 14.25C380.991 14.4 381.008 14.5333 381.025 14.65C381.058 14.75 381.075 14.8167 381.075 14.85C381.075 15 380.891 15.4083 380.525 16.075C380.141 16.7917 379.858 17.5333 379.675 18.3C379.508 19.0667 379.35 19.8167 379.2 20.55C378.283 24.8667 377.158 28.0333 375.825 30.05C373.858 33 371.016 34.5417 367.3 34.675C366.3 34.7083 365.283 34.1583 364.25 33.025C363.283 31.9583 362.783 30.9583 362.75 30.025C362.716 29.1583 362.875 28.2583 363.225 27.325C363.608 26.225 364.125 25.5 364.775 25.15L364.8 25.675C364.783 25.6417 364.658 26.0083 364.425 26.775C364.175 27.5917 364.05 28.25 364.05 28.75C364.05 28.9 364.058 29.0333 364.075 29.15C364.325 30.5333 364.733 31.4583 365.3 31.925C365.933 32.475 367.1 32.775 368.8 32.825C369.733 32.825 370.883 32.3417 372.25 31.375C373.766 30.3083 374.841 29.075 375.475 27.675C376.175 26.175 376.708 24.7417 377.075 23.375C377.391 22.0417 377.7 20.7083 378 19.375C375.733 21.3917 374.05 22.425 372.95 22.475C371.533 22.525 370.808 22.0333 370.775 21C370.741 20.1167 371.091 19.1 371.825 17.95C372.375 17.1 373.45 16.075 375.05 14.875C376.583 13.725 377.683 13.1 378.35 13C378.45 12.9833 378.55 12.975 378.65 12.975C378.85 12.975 379.033 13.025 379.2 13.125C379.366 13.2083 379.466 13.25 379.5 13.25C379.566 13.25 379.683 13.2 379.85 13.1C380.016 13 380.141 12.95 380.225 12.95C380.708 12.9333 380.958 13.3667 380.975 14.25ZM378.725 15.625C378.291 15.425 378.075 15.325 378.075 15.325C377.375 15.3417 376.275 15.9833 374.775 17.25C373.225 18.5667 372.458 19.6083 372.475 20.375C372.475 20.4917 372.533 20.6 372.65 20.7C372.783 20.8 372.908 20.8417 373.025 20.825C373.825 20.8083 374.95 20.1583 376.4 18.875C377.85 17.5917 378.625 16.5083 378.725 15.625ZM391.628 8.7C391.361 9.05 390.828 9.525 390.028 10.125C389.228 10.725 388.728 11.025 388.528 11.025C388.261 11.025 388.011 10.8833 387.778 10.6C387.561 10.3 387.453 10.025 387.453 9.775C387.453 9.675 387.47 9.6 387.503 9.55C387.836 9.36667 388.161 9.18333 388.478 9C389.145 8.65 389.753 8.43333 390.303 8.35C390.87 8.25 391.161 8.2 391.178 8.2C391.311 8.2 391.461 8.36667 391.628 8.7ZM390.853 18.65C390.853 19.1167 390.228 19.9167 388.978 21.05C387.745 22.1833 386.953 22.75 386.603 22.75C386.536 22.75 386.345 22.7583 386.028 22.775C385.728 22.8083 385.536 22.825 385.453 22.825C384.936 22.825 384.461 22.5417 384.028 21.975C383.595 21.4083 383.378 20.8583 383.378 20.325C383.378 19.7083 383.753 18.5333 384.503 16.8C385.27 15 385.836 14.1 386.203 14.1C386.736 14.1 387.136 14.4167 387.403 15.05C387.32 15.2333 386.828 16.1417 385.928 17.775C385.345 18.825 385.053 19.7 385.053 20.4C385.053 20.55 385.061 20.6917 385.078 20.825C385.211 21.0583 385.503 21.175 385.953 21.175C386.57 21.175 387.42 20.75 388.503 19.9C389.77 18.9167 390.511 18.3833 390.728 18.3C390.728 18.3167 390.745 18.3583 390.778 18.425C390.828 18.4917 390.853 18.5667 390.853 18.65ZM395.545 20.525C395.511 20.1583 395.62 19.5 395.87 18.55C396.12 17.5833 396.245 17.1167 396.245 17.15C395.461 17.9667 394.836 18.65 394.37 19.2C393.503 20.2333 392.903 21.0667 392.57 21.7C392.486 21.7 392.336 21.75 392.12 21.85C391.92 21.95 391.778 22 391.695 22C391.511 22 391.311 21.875 391.095 21.625C390.895 21.375 390.795 21.2167 390.795 21.15C390.795 21.0333 390.995 20.1667 391.395 18.55C391.811 16.9167 392.161 15.6333 392.445 14.7C392.495 14.5333 392.636 14.3917 392.87 14.275C393.103 14.1583 393.303 14.1 393.47 14.1C393.553 14.1 393.678 14.15 393.845 14.25C394.078 14.4 394.203 14.475 394.22 14.475C394.27 14.7917 394.145 15.3667 393.845 16.2C393.511 17.0833 393.345 17.6167 393.345 17.8C393.345 17.8833 393.37 17.95 393.42 18C393.786 17.65 394.311 17.05 394.995 16.2C395.678 15.3333 396.195 14.7333 396.545 14.4C397.128 13.8833 397.67 13.625 398.17 13.625C398.52 13.625 398.695 13.925 398.695 14.525C398.695 15.125 398.42 16.125 397.87 17.525C397.336 18.925 397.07 19.875 397.07 20.375C397.07 21.2583 397.403 21.7 398.07 21.7C398.336 21.7 399.145 21.3 400.495 20.5C400.545 20.5333 400.603 20.575 400.67 20.625C400.736 20.6583 400.753 20.7167 400.72 20.8C400.486 21.2833 400.028 21.8083 399.345 22.375C398.678 22.925 398.145 23.2 397.745 23.2C396.428 23.2 395.695 22.3083 395.545 20.525Z" fill="#9799AC"/>
</svg>
