<svg xmlns="http://www.w3.org/2000/svg" width="154" height="45" viewBox="0 0 154 45" fill="none">
  <g filter="url(#filter0_b_891_1587)">
    <path d="M152.986 39.6751C152.987 40.2443 152.874 40.8082 152.653 41.3341C152.432 41.8601 152.108 42.3377 151.699 42.7397C151.29 43.1417 150.804 43.4601 150.27 43.6765C149.736 43.8929 149.163 44.0031 148.586 44.0007H5.41411C4.83658 44.0031 4.26428 43.8929 3.73011 43.6765C3.19593 43.4601 2.71042 43.1417 2.30149 42.7397C1.89255 42.3377 1.56826 41.8601 1.34725 41.3341C1.12624 40.8082 1.01288 40.2443 1.01368 39.6751V5.33655C1.01606 4.18689 1.48044 3.08499 2.30517 2.27205C3.12989 1.45912 4.24777 1.00137 5.41411 0.999023H148.586C149.752 1.00137 150.87 1.45912 151.695 2.27205C152.52 3.08499 152.984 4.18689 152.986 5.33655V39.6751Z" fill="white" fill-opacity="0.1"/>
  </g>
  <path d="M34.3858 22.2511C34.3437 18.6311 37.3936 16.8433 37.55 16.7603C36.9563 15.9063 36.1643 15.2043 35.2399 14.7129C34.3154 14.2214 33.2853 13.9547 32.2352 13.9348C29.9974 13.6858 27.8047 15.266 26.6647 15.266C25.5248 15.266 23.7532 13.9763 21.8522 14.0178C20.6263 14.0556 19.431 14.4046 18.3819 15.031C17.3329 15.6574 16.4655 16.5399 15.8637 17.5934C13.292 21.9991 15.1899 28.4891 17.6684 32.0647C18.8925 33.811 20.3754 35.7677 22.2673 35.6847C24.1592 35.6017 24.7999 34.5196 27.0377 34.5196C29.2755 34.5196 29.9042 35.6847 31.8502 35.6403C33.7963 35.5958 35.0986 33.894 36.2807 32.1062C37.1798 30.8672 37.8639 29.4895 38.305 28.0296C37.1378 27.5668 36.1394 26.7677 35.4402 25.7368C34.741 24.7059 34.3736 23.4911 34.3858 22.2511Z" fill="white" fill-opacity="0.75"/>
  <path d="M30.7153 11.6045C31.729 10.3563 32.4027 8.69305 32.1922 6.98828C30.7575 7.0713 28.9437 7.98446 27.888 9.19114C26.9616 10.2318 26.1585 11.9781 26.3841 13.6384C28.0143 13.7243 29.7017 12.8082 30.7153 11.6045Z" fill="white" fill-opacity="0.75"/>
  <path d="M61.2631 35.4323H58.6884L57.2537 31.0236H52.3179L50.9674 35.4323H48.4258L53.3315 20.457H56.3694L61.2631 35.4323ZM56.7905 29.2062L55.5242 25.2867C55.3979 24.8687 55.1452 23.9555 54.7663 22.4583H54.7241C54.5527 23.0809 54.3421 24.0385 54.0053 25.2867L52.739 29.1944L56.7905 29.2062Z" fill="white" fill-opacity="0.75"/>
  <path d="M73.7935 29.903C73.7935 31.7332 73.2872 33.189 72.2746 34.2701C71.849 34.7319 71.3269 35.0972 70.7443 35.3409C70.1617 35.5845 69.5324 35.7007 68.8998 35.6814C67.4651 35.6814 66.4093 35.1833 65.7777 34.1426V39.7995H63.3293V28.1656C63.3293 27.0004 63.2872 25.8352 63.2451 24.6285H65.3957L65.525 26.3333H65.5702C66.3702 25.0436 67.5944 24.3795 69.2818 24.3795C69.9016 24.369 70.5158 24.4969 71.0784 24.7537C71.641 25.0104 72.1373 25.3893 72.5302 25.8619C73.3724 26.95 73.7935 28.2812 73.7935 29.903ZM71.303 29.986C71.3285 29.0623 71.0797 28.1513 70.5872 27.3651C70.3562 27.0254 70.0423 26.7483 69.6745 26.5593C69.3066 26.3702 68.8965 26.2752 68.4817 26.2829C67.8818 26.2954 67.303 26.5039 66.8364 26.8759C66.347 27.2624 66.0063 27.8022 65.8709 28.4057C65.7946 28.6479 65.7521 28.8993 65.7446 29.1529V30.9317C65.7295 31.6614 65.9839 32.3715 66.4605 32.93C66.6979 33.1945 66.9902 33.4056 67.3177 33.5488C67.6452 33.6921 68.0001 33.7642 68.3584 33.7602C68.7773 33.782 69.1949 33.6982 69.5717 33.5166C69.9485 33.335 70.2722 33.0617 70.512 32.7225C71.0504 32.0643 71.303 31.1511 71.303 29.986Z" fill="white" fill-opacity="0.75"/>
  <path d="M86.4088 29.903C86.4088 31.7332 85.9075 33.189 84.9049 34.2701C84.4749 34.7311 83.9494 35.0957 83.3641 35.3391C82.7787 35.5826 82.1472 35.6993 81.5121 35.6814C80.0774 35.6814 79.0216 35.1833 78.39 34.1426V39.7995H75.9416V28.1656C75.9416 27.0004 75.8995 25.8352 75.8574 24.6285H78.011L78.1373 26.3333H78.1795C78.9795 25.0436 80.2037 24.3795 81.8911 24.3795C82.5109 24.369 83.1251 24.4969 83.6877 24.7537C84.2503 25.0104 84.7466 25.3893 85.1395 25.8619C85.9877 26.95 86.4088 28.2812 86.4088 29.903ZM83.9184 29.986C83.9438 29.0623 83.695 28.1513 83.2025 27.3651C82.9715 27.0254 82.6577 26.7483 82.2898 26.5593C81.9219 26.3702 81.5118 26.2752 81.097 26.2829C80.4971 26.2954 79.9183 26.5039 79.4518 26.8759C78.9578 27.2632 78.6146 27.8067 78.4802 28.4146C78.4039 28.6568 78.3614 28.9082 78.3539 29.1618V30.9406C78.3388 31.6703 78.5932 32.3804 79.0698 32.9389C79.3077 33.2035 79.6007 33.4146 79.9286 33.5578C80.2566 33.701 80.612 33.7731 80.9707 33.7691C81.3891 33.7907 81.8062 33.7067 82.1825 33.5251C82.5588 33.3435 82.8819 33.0704 83.1213 32.7314C83.6657 32.0643 83.9184 31.1511 83.9184 29.986Z" fill="white" fill-opacity="0.75"/>
  <path d="M100.5 31.234C100.519 31.8194 100.408 32.4018 100.174 32.9406C99.941 33.4793 99.5912 33.9613 99.1493 34.353C98.1808 35.2246 96.7882 35.6842 95.0166 35.6842C93.3713 35.6842 92.0629 35.3877 91.1064 34.768L91.6569 32.7727C92.7167 33.3883 93.928 33.7043 95.158 33.6859C96.0844 33.6859 96.8032 33.4783 97.3086 33.0633C97.5538 32.8692 97.7502 32.6218 97.8822 32.3405C98.0142 32.0591 98.0784 31.7514 98.0695 31.4415C98.078 31.1556 98.026 30.8711 97.9167 30.6062C97.8075 30.3413 97.6434 30.1017 97.4349 29.9028C97.0138 29.4847 96.34 29.1112 95.3294 28.7376C92.6705 27.7384 91.32 26.3242 91.32 24.4534C91.3043 23.8766 91.4215 23.3037 91.6627 22.7778C91.9039 22.252 92.2628 21.7869 92.7126 21.4175C93.642 20.6288 94.9083 20.2523 96.4273 20.2523C97.6114 20.2236 98.7862 20.4661 99.8592 20.9609L99.2576 22.9147C98.365 22.4389 97.3637 22.196 96.3491 22.2091C95.6197 22.1727 94.9011 22.3934 94.3218 22.8317C94.1243 23.002 93.9679 23.2136 93.8638 23.4511C93.7598 23.6886 93.7107 23.9459 93.7202 24.2044C93.7188 24.4848 93.7826 24.7618 93.9067 25.0142C94.0308 25.2665 94.2119 25.4875 94.4361 25.6601C94.8602 26.0337 95.5761 26.4072 96.6318 26.8253C97.9402 27.3234 98.9087 27.946 99.5013 28.6546C100.15 29.3608 100.506 30.2812 100.5 31.234Z" fill="white" fill-opacity="0.75"/>
  <path d="M108.558 26.4492H105.851V31.691C105.851 33.0222 106.314 33.6863 107.286 33.6863C107.655 33.6934 108.023 33.6515 108.381 33.5618L108.465 35.3911C107.851 35.5787 107.209 35.6629 106.567 35.6402C105.598 35.6402 104.837 35.3437 104.332 34.7685C103.827 34.1933 103.529 33.2298 103.529 31.857V26.4077H101.884V24.6081H103.487V22.6246L105.893 21.916V24.6081H108.6V26.4374L108.558 26.4492Z" fill="white" fill-opacity="0.75"/>
  <path d="M120.613 29.9441C120.613 31.6073 120.15 32.98 119.179 34.0177C118.673 34.558 118.057 34.9858 117.371 35.2727C116.685 35.5595 115.944 35.6987 115.199 35.681C114.478 35.7086 113.76 35.581 113.094 35.3071C112.428 35.0332 111.83 34.6195 111.343 34.0948C110.375 33.0571 109.908 31.7229 109.908 30.1042C109.859 28.5974 110.386 27.1276 111.385 25.986C112.357 24.9039 113.707 24.4058 115.353 24.4058C116.076 24.3793 116.798 24.5067 117.467 24.7794C118.137 25.052 118.739 25.4636 119.233 25.986C120.178 27.0892 120.67 28.5011 120.613 29.9441ZM118.084 30.0271C118.111 29.1399 117.891 28.2623 117.449 27.4892C117.247 27.0901 116.933 26.7565 116.544 26.5279C116.156 26.2993 115.709 26.1854 115.256 26.1995C114.798 26.1847 114.345 26.298 113.949 26.5262C113.553 26.7543 113.23 27.0882 113.019 27.4892C112.578 28.2779 112.36 29.1686 112.387 30.0686C112.36 30.9544 112.578 31.8307 113.019 32.6035C113.225 33.0001 113.54 33.3314 113.928 33.5595C114.317 33.7876 114.762 33.9032 115.214 33.8932C116.141 33.8932 116.859 33.4366 117.407 32.6035C117.881 31.8272 118.121 30.9331 118.096 30.0271H118.084Z" fill="white" fill-opacity="0.75"/>
  <path d="M128.557 26.7422C128.307 26.694 128.053 26.6663 127.799 26.6591C127.414 26.6456 127.032 26.7256 126.686 26.8921C126.341 27.0586 126.042 27.3065 125.816 27.6138C125.391 28.2398 125.18 28.9838 125.215 29.7366V35.3905H122.779V27.9785C122.779 26.7333 122.736 25.6066 122.694 24.5689H124.8L124.884 26.6443H124.968C125.2 25.9702 125.625 25.3769 126.192 24.9366C126.706 24.5626 127.325 24.3554 127.964 24.3436C128.165 24.3343 128.367 24.3482 128.566 24.3851L128.557 26.7422Z" fill="white" fill-opacity="0.75"/>
  <path d="M139.445 29.5261C139.444 29.8885 139.415 30.2503 139.358 30.6083H132.061C132.103 31.6904 132.44 32.4791 133.114 33.0632C133.801 33.5854 134.654 33.8502 135.52 33.8103C136.527 33.8244 137.529 33.6556 138.474 33.3122L138.853 34.9755C137.69 35.4454 136.44 35.6716 135.183 35.6396C133.496 35.6396 132.145 35.1415 131.174 34.1868C130.205 33.1877 129.739 31.898 129.739 30.2347C129.694 28.7623 130.172 27.3207 131.09 26.1581C131.544 25.5886 132.13 25.1334 132.797 24.8299C133.465 24.5263 134.196 24.3831 134.931 24.4118C136.492 24.4118 137.713 25.0048 138.516 26.1581C139.148 27.1695 139.47 28.3388 139.445 29.5261ZM137.123 28.9035C137.156 28.262 136.995 27.6253 136.66 27.0742C136.459 26.7506 136.171 26.4878 135.828 26.3142C135.486 26.1407 135.101 26.0631 134.717 26.0899C134.335 26.0853 133.958 26.1742 133.619 26.3486C133.281 26.523 132.991 26.7774 132.777 27.089C132.354 27.6282 132.105 28.2798 132.061 28.9598L137.123 28.9035Z" fill="white" fill-opacity="0.75"/>
  <path d="M55.6447 15.138H54.3784L53.6626 12.9767H51.2563L50.5826 15.138H49.3584L51.7646 7.77637H53.2385L55.6447 15.138ZM53.452 12.0605L52.8174 10.1482C52.7332 9.94068 52.6489 9.48114 52.4384 8.77551H52.3963C52.3121 9.10757 52.2279 9.56415 52.0594 10.1482L51.4338 12.0605H53.452Z" fill="white" fill-opacity="0.75"/>
  <path d="M61.6426 9.81348L59.6183 15.1501H58.4362L56.4541 9.81348H57.7174L58.6528 12.6004C58.8103 13.0355 58.9349 13.4814 59.0258 13.9346H59.0679C59.1715 13.4846 59.299 13.0402 59.4499 12.6034L60.3763 9.81644L61.6426 9.81348Z" fill="white" fill-opacity="0.75"/>
  <path d="M65.9883 15.1385L65.9041 14.5159H65.871C65.6939 14.7581 65.4586 14.9532 65.1861 15.0836C64.9137 15.214 64.6126 15.2757 64.31 15.263C64.0944 15.2746 63.8787 15.242 63.6766 15.1672C63.4745 15.0924 63.2903 14.9771 63.1357 14.8286C62.9811 14.6801 62.8594 14.5016 62.7783 14.3044C62.6972 14.1072 62.6586 13.8955 62.6647 13.6828C62.6647 12.3931 63.8016 11.6875 65.8289 11.6875V11.6044C65.8289 10.8959 65.4469 10.5638 64.689 10.5638C64.1973 10.5483 63.7122 10.6784 63.2963 10.9374L63.0437 10.1487C63.6097 9.83525 64.2504 9.67659 64.8995 9.68917C66.2921 9.68917 67.005 10.4393 67.005 11.895V13.8488C67.003 14.2663 67.0312 14.6834 67.0892 15.097L65.9883 15.1385ZM65.8199 12.4702C64.4694 12.4702 63.8347 12.8022 63.8347 13.5523C63.8237 13.6607 63.8367 13.7702 63.8726 13.8732C63.9085 13.9762 63.9666 14.0704 64.0429 14.1492C64.1191 14.228 64.2118 14.2897 64.3145 14.33C64.4172 14.3702 64.5275 14.3881 64.6378 14.3825C64.938 14.3876 65.2286 14.2782 65.4489 14.0771C65.6692 13.8759 65.8021 13.5987 65.8199 13.3033V12.4702Z" fill="white" fill-opacity="0.75"/>
  <path d="M69.6577 8.94152C69.4755 8.92988 69.3046 8.85032 69.1797 8.719C69.0548 8.58767 68.9854 8.41441 68.9854 8.23441C68.9854 8.05441 69.0548 7.88116 69.1797 7.74983C69.3046 7.6185 69.4755 7.53894 69.6577 7.5273C69.7544 7.51832 69.8519 7.53033 69.9434 7.56249C70.0349 7.59465 70.1181 7.64617 70.1872 7.71343C70.2563 7.78069 70.3096 7.86206 70.3434 7.95182C70.3771 8.04157 70.3905 8.13752 70.3826 8.23293C70.391 8.32857 70.3779 8.42486 70.3444 8.51498C70.3108 8.6051 70.2576 8.68685 70.1884 8.75445C70.1193 8.82205 70.0359 8.87384 69.9442 8.90617C69.8525 8.9385 69.7547 8.95056 69.6577 8.94152ZM70.2924 15.138H69.1103V9.80132H70.2924V15.138Z" fill="white" fill-opacity="0.75"/>
  <path d="M73.5834 7.36133H72.4014V15.0965H73.5834V7.36133Z" fill="white" fill-opacity="0.75"/>
  <path d="M78.6878 15.1387L78.6036 14.5161H78.5615C78.3844 14.7583 78.149 14.9534 77.8766 15.0838C77.6041 15.2142 77.303 15.2759 77.0004 15.2632C76.7848 15.2748 76.5692 15.2422 76.367 15.1674C76.1649 15.0926 75.9807 14.9773 75.8261 14.8288C75.6715 14.6803 75.5498 14.5018 75.4687 14.3046C75.3877 14.1073 75.349 13.8957 75.3551 13.683C75.3551 12.3933 76.4951 11.6876 78.5193 11.6876V11.6046C78.5193 10.896 78.1404 10.564 77.3794 10.564C76.8878 10.5488 76.4028 10.6789 75.9868 10.9375L75.7341 10.1489C76.3038 9.83379 76.9488 9.67509 77.602 9.68936C78.9946 9.68936 79.7074 10.4395 79.7074 11.8952V13.849C79.7055 14.2665 79.7336 14.6836 79.7916 15.0972H78.6938L78.6878 15.1387ZM78.5193 12.4704C77.1688 12.4704 76.5372 12.8024 76.5372 13.5525C76.5257 13.6608 76.5382 13.7702 76.5738 13.8732C76.6093 13.9762 76.6671 14.0704 76.7432 14.1493C76.8192 14.2282 76.9117 14.2899 77.0143 14.3302C77.1168 14.3705 77.227 14.3884 77.3373 14.3827C77.6377 14.3885 77.9287 14.2793 78.1491 14.0781C78.3696 13.8768 78.5023 13.5992 78.5193 13.3035V12.4704Z" fill="white" fill-opacity="0.75"/>
  <path d="M84.5197 15.2211C84.1758 15.2325 83.8355 15.1489 83.5373 14.9797C83.2391 14.8105 82.9949 14.5623 82.8323 14.2634H82.7902L82.706 15.0965H81.6924C81.7345 14.6815 81.7345 14.1804 81.7345 13.6823V7.36133H82.9166V10.5633H82.9587C83.2955 9.97037 83.8851 9.67389 84.6882 9.67389C85.9966 9.67389 86.8809 10.756 86.8809 12.3778C86.8809 13.9996 85.9033 15.2211 84.5197 15.2211ZM84.2671 10.6463C84.0869 10.6543 83.9101 10.6973 83.7468 10.7727C83.5834 10.8481 83.4368 10.9546 83.3153 11.0859C83.1937 11.2173 83.0997 11.371 83.0385 11.5382C82.9773 11.7055 82.9502 11.883 82.9587 12.0606V12.9767C82.9517 13.1497 82.9805 13.3223 83.0433 13.484C83.1061 13.6457 83.2016 13.7931 83.324 13.9173C83.4463 14.0415 83.593 14.14 83.7551 14.2066C83.9173 14.2732 84.0914 14.3067 84.2671 14.3049C85.1514 14.3049 85.7018 13.5993 85.7018 12.4341C85.6928 11.352 85.1423 10.6463 84.258 10.6463H84.2671Z" fill="white" fill-opacity="0.75"/>
  <path d="M89.8706 7.36133H88.6885V15.0965H89.8706V7.36133Z" fill="white" fill-opacity="0.75"/>
  <path d="M96.3671 12.7665H92.7788C92.774 12.9825 92.8151 13.197 92.8993 13.3964C92.9836 13.5958 93.1091 13.7756 93.268 13.9244C93.4269 14.0732 93.6155 14.1876 93.8218 14.2603C94.0282 14.3331 94.2476 14.3625 94.4662 14.3468C94.9563 14.3561 95.4435 14.2716 95.9009 14.0977L96.0693 14.9308C95.4963 15.159 94.8827 15.2719 94.2646 15.2629C92.5773 15.2629 91.5576 14.2222 91.5576 12.5946C91.5576 10.9669 92.5713 9.72461 94.0902 9.72461C95.4828 9.72461 96.328 10.7238 96.328 12.2625C96.4049 12.4197 96.4188 12.5996 96.3671 12.7665ZM95.2693 11.8949C95.2693 11.0617 94.8482 10.4806 94.0872 10.4806C93.4134 10.4806 92.863 11.0736 92.7788 11.8949H95.2693Z" fill="white" fill-opacity="0.75"/>
  <path d="M103.622 15.2208C102.061 15.2208 101.051 14.0557 101.051 12.4754C101.051 10.8952 102.104 9.68848 103.758 9.68848C105.319 9.68848 106.332 10.8121 106.332 12.3924C106.323 14.0972 105.226 15.2208 103.622 15.2208ZM103.665 10.5631C102.822 10.5631 102.23 11.3517 102.23 12.4754C102.23 13.5991 102.78 14.3462 103.622 14.3462C104.465 14.3462 105.015 13.5161 105.015 12.4339C105.015 11.3517 104.51 10.5631 103.665 10.5631Z" fill="white" fill-opacity="0.75"/>
  <path d="M112.736 15.1386H111.554V12.1026C111.554 11.145 111.175 10.6884 110.459 10.6884C109.743 10.6884 109.277 11.2814 109.277 11.9781V15.1386H108.095V11.3525C108.095 10.8959 108.095 10.3979 108.053 9.87012H109.108L109.151 10.7032H109.184C109.357 10.4143 109.606 10.1766 109.904 10.0149C110.203 9.85322 110.54 9.77352 110.88 9.78414C112.02 9.78414 112.736 10.6173 112.736 12.0315V15.1386Z" fill="white" fill-opacity="0.75"/>
  <path d="M120.583 10.6883H119.275V13.2677C119.275 13.9318 119.489 14.2638 119.994 14.2638C120.204 14.2638 120.373 14.2223 120.541 14.2223L120.583 15.1385C120.283 15.2292 119.971 15.2713 119.657 15.263C118.728 15.263 118.138 14.7649 118.138 13.3922V10.7239H117.335V9.85516H118.138V8.89456L119.317 8.5625V9.8937H120.613V10.6823L120.583 10.6883Z" fill="white" fill-opacity="0.75"/>
  <path d="M126.912 15.1384H125.727V12.1025C125.727 11.1448 125.345 10.6882 124.629 10.6882C124.465 10.6837 124.302 10.7135 124.151 10.7758C124 10.8381 123.864 10.9313 123.752 11.0494C123.64 11.1674 123.555 11.3076 123.503 11.4605C123.45 11.6135 123.431 11.7757 123.447 11.9364V15.1384H122.265V7.41211H123.447V10.6141H123.489C123.652 10.339 123.887 10.1117 124.168 9.9554C124.45 9.7991 124.769 9.71947 125.092 9.72467C126.232 9.72467 126.948 10.6141 126.948 11.972V15.1384H126.912Z" fill="white" fill-opacity="0.75"/>
  <path d="M133.03 12.7665H129.445C129.44 12.9833 129.481 13.1986 129.566 13.3987C129.651 13.5987 129.777 13.779 129.937 13.9279C130.097 14.0769 130.286 14.1911 130.494 14.2632C130.701 14.3353 130.922 14.3638 131.141 14.3468C131.631 14.3561 132.118 14.2716 132.576 14.0977L132.744 14.9308C132.171 15.1587 131.557 15.2716 130.939 15.2629C129.252 15.2629 128.232 14.2222 128.232 12.5946C128.232 10.9669 129.246 9.72461 130.765 9.72461C132.158 9.72461 133 10.7238 133 12.2625C133.052 12.4254 133.063 12.5987 133.03 12.7665ZM131.935 11.8949C131.935 11.0617 131.511 10.4806 130.753 10.4806C130.076 10.4806 129.529 11.0736 129.445 11.8949H131.935Z" fill="white" fill-opacity="0.75"/>
  <defs>
    <filter id="filter0_b_891_1587" x="-23.9863" y="-24.001" width="201.973" height="93.002" filterUnits="userSpaceOnUse" color-interpolation-filters="sRGB">
      <feFlood flood-opacity="0" result="BackgroundImageFix"/>
      <feGaussianBlur in="BackgroundImageFix" stdDeviation="12.5"/>
      <feComposite in2="SourceAlpha" operator="in" result="effect1_backgroundBlur_891_1587"/>
      <feBlend mode="normal" in="SourceGraphic" in2="effect1_backgroundBlur_891_1587" result="shape"/>
    </filter>
  </defs>
</svg>