<svg width="28" height="22" viewBox="0 0 28 22" fill="none" xmlns="http://www.w3.org/2000/svg">
<path d="M20.6118 14.2607L17.4067 17.5478C17.1637 17.7452 16.9633 17.9899 16.8176 18.267C16.6719 18.5441 16.584 18.8479 16.5591 19.16C16.5342 19.472 16.5729 19.7859 16.6728 20.0826C16.7727 20.3793 16.9318 20.6526 17.1404 20.8861C17.442 21.239 17.8713 21.4577 18.3341 21.4942C18.7969 21.5307 19.2552 21.3819 19.6083 21.0806C19.8672 20.8568 20.0275 20.5399 20.0544 20.1987C20.0812 19.8575 19.9724 19.5195 19.7517 19.2579C19.5868 19.0645 19.3522 18.9442 19.099 18.9231C18.8458 18.902 18.5945 18.9818 18.4 19.1453" stroke="#CDA870" stroke-opacity="0.75" stroke-linecap="round" stroke-linejoin="round"/>
<path d="M20.6118 7.74484L17.4067 4.45777C17.1637 4.26035 16.9633 4.01569 16.8176 3.73858C16.6719 3.46148 16.584 3.1577 16.5591 2.84562C16.5342 2.53355 16.5729 2.21966 16.6728 1.92297C16.7727 1.62627 16.9318 1.35294 17.1404 1.11951C17.4405 0.765095 17.8691 0.544411 18.3319 0.506003C18.7948 0.467596 19.2539 0.614605 19.6083 0.914702C19.8679 1.14032 20.0284 1.45894 20.0553 1.80184C20.0821 2.14474 19.973 2.48444 19.7517 2.74768C19.6701 2.84387 19.5703 2.9229 19.4579 2.98019C19.3456 3.03748 19.223 3.07189 19.0972 3.08141C18.9715 3.09094 18.8451 3.0754 18.7254 3.03569C18.6057 2.99598 18.4951 2.93288 18.4 2.85008" stroke="#CDA870" stroke-opacity="0.75" stroke-linecap="round" stroke-linejoin="round"/>
<path d="M20.3594 11.0184L23.5338 8.3457L26.7082 11.0184L23.5338 13.691L20.3594 11.0184Z" stroke="#CDA870" stroke-opacity="0.75" stroke-linecap="round" stroke-linejoin="round"/>
<path d="M16.922 13L15.292 11L16.922 9L18.552 11L16.922 13Z" fill="#CDA870" fill-opacity="0.75"/>
<path d="M13.292 11L1.29199 11" stroke="#CDA870" stroke-opacity="0.75" stroke-linecap="round" stroke-linejoin="round"/>
</svg>
