<svg width="27" height="22" viewBox="0 0 27 22" fill="none" xmlns="http://www.w3.org/2000/svg">
<path d="M6.89794 7.73926L10.1031 4.45219C10.3461 4.25477 10.5465 4.01011 10.6922 3.73301C10.8378 3.4559 10.9258 3.15212 10.9507 2.84004C10.9756 2.52796 10.9369 2.21408 10.837 1.91738C10.737 1.62069 10.5779 1.34736 10.3693 1.11392C10.0678 0.761003 9.63844 0.54226 9.17568 0.505777C8.71291 0.469293 8.2546 0.618052 7.90147 0.919358C7.64252 1.14318 7.48225 1.46007 7.45541 1.80129C7.42858 2.14251 7.53734 2.48055 7.75811 2.7421C7.92293 2.93548 8.15753 3.05584 8.41075 3.07694C8.66396 3.09804 8.91524 3.01817 9.1098 2.85474" stroke="#CDA870" stroke-opacity="0.25" stroke-linecap="round" stroke-linejoin="round"/>
<path d="M6.89794 14.2552L10.1031 17.5422C10.3461 17.7396 10.5465 17.9843 10.6922 18.2614C10.8378 18.5385 10.9258 18.8423 10.9507 19.1544C10.9756 19.4665 10.9369 19.7803 10.837 20.077C10.737 20.3737 10.5779 20.6471 10.3693 20.8805C10.0692 21.2349 9.64063 21.4556 9.17782 21.494C8.715 21.5324 8.25589 21.3854 7.90147 21.0853C7.64186 20.8597 7.48133 20.5411 7.45451 20.1982C7.42769 19.8553 7.53673 19.5156 7.75811 19.2523C7.83966 19.1561 7.93951 19.0771 8.05186 19.0198C8.1642 18.9625 8.2868 18.9281 8.41255 18.9186C8.5383 18.9091 8.66469 18.9246 8.78438 18.9643C8.90407 19.004 9.01469 19.0671 9.1098 19.1499" stroke="#CDA870" stroke-opacity="0.25" stroke-linecap="round" stroke-linejoin="round"/>
<path d="M7.15039 10.9816L3.97596 13.6543L0.801539 10.9816L3.97596 8.30897L7.15039 10.9816Z" stroke="#CDA870" stroke-opacity="0.25" stroke-linecap="round" stroke-linejoin="round"/>
<path d="M10.5878 9L12.2178 11L10.5878 13L8.95777 11L10.5878 9Z" fill="#CDA870" fill-opacity="0.25"/>
<path d="M14.2178 11H26.2178" stroke="#CDA870" stroke-opacity="0.25" stroke-linecap="round" stroke-linejoin="round"/>
</svg>
