<svg width="35" height="20" viewBox="0 0 35 20" fill="none" xmlns="http://www.w3.org/2000/svg">
<path d="M7.60693 7.73926L10.8121 4.45219C11.0551 4.25477 11.2554 4.01011 11.4011 3.73301C11.5468 3.4559 11.6348 3.15212 11.6597 2.84004C11.6846 2.52796 11.6459 2.21408 11.5459 1.91738C11.446 1.62069 11.2869 1.34736 11.0783 1.11392C10.7768 0.761003 10.3474 0.54226 9.88466 0.505777C9.4219 0.469293 8.96358 0.618052 8.61046 0.919358C8.35151 1.14318 8.19124 1.46007 8.1644 1.80129C8.13756 2.14251 8.24632 2.48055 8.46709 2.7421C8.63192 2.93548 8.86652 3.05584 9.11973 3.07694C9.37294 3.09804 9.62423 3.01817 9.81879 2.85474" stroke="#9799AC" stroke-opacity="0.5" stroke-linecap="round" stroke-linejoin="round"/>
<path d="M7.60693 12.2552L10.8121 15.5422C11.0551 15.7396 11.2554 15.9843 11.4011 16.2614C11.5468 16.5385 11.6348 16.8423 11.6597 17.1544C11.6846 17.4665 11.6459 17.7803 11.5459 18.077C11.446 18.3737 11.2869 18.6471 11.0783 18.8805C10.7782 19.2349 10.3496 19.4556 9.8868 19.494C9.42399 19.5324 8.96487 19.3854 8.61046 19.0853C8.35084 18.8597 8.19032 18.5411 8.1635 18.1982C8.13668 17.8553 8.24572 17.5156 8.46709 17.2523C8.54865 17.1561 8.6485 17.0771 8.76084 17.0198C8.87318 16.9625 8.99579 16.9281 9.12154 16.9186C9.24728 16.9091 9.37367 16.9246 9.49336 16.9643C9.61306 17.004 9.72367 17.0671 9.81879 17.1499" stroke="#9799AC" stroke-opacity="0.5" stroke-linecap="round" stroke-linejoin="round"/>
<path d="M6.85937 9.98163L3.68495 12.6543L0.510523 9.98163L3.68495 7.30897L6.85937 9.98163Z" stroke="#9799AC" stroke-opacity="0.5" stroke-linecap="round" stroke-linejoin="round"/>
<path d="M5.4556 13.9648L10.1865 9.98145L5.4556 5.98782" stroke="#9799AC" stroke-opacity="0.5" stroke-linecap="round" stroke-linejoin="round"/>
<path d="M15.2968 8L16.9268 10L15.2968 12L13.6668 10L15.2968 8Z" fill="#9799AC" fill-opacity="0.5"/>
<path d="M18.9268 10H33.9268" stroke="#9799AC" stroke-opacity="0.5" stroke-linecap="round" stroke-linejoin="round"/>
</svg>
