<svg width="24" height="25" viewBox="0 0 24 25" fill="none" xmlns="http://www.w3.org/2000/svg">
<g id="school/gift">
<path id="Vector" d="M19.9698 10.5H3.96973V18.5C3.96973 21.5 4.96973 22.5 7.96973 22.5H15.9698C18.9698 22.5 19.9698 21.5 19.9698 18.5V10.5Z" stroke="#272727" stroke-width="1.7" stroke-miterlimit="10" stroke-linecap="round" stroke-linejoin="round"/>
<path id="Vector_2" d="M21.5 7.5V8.5C21.5 9.6 20.97 10.5 19.5 10.5H4.5C2.97 10.5 2.5 9.6 2.5 8.5V7.5C2.5 6.4 2.97 5.5 4.5 5.5H19.5C20.97 5.5 21.5 6.4 21.5 7.5Z" stroke="#272727" stroke-width="1.7" stroke-miterlimit="10" stroke-linecap="round" stroke-linejoin="round"/>
<path id="Vector_3" d="M11.6407 5.49994H6.12076C5.78076 5.12994 5.79076 4.55994 6.15076 4.19994L7.57076 2.77994C7.94076 2.40994 8.55076 2.40994 8.92076 2.77994L11.6407 5.49994Z" stroke="#272727" stroke-width="1.7" stroke-miterlimit="10" stroke-linecap="round" stroke-linejoin="round"/>
<path id="Vector_4" d="M17.8696 5.49994H12.3496L15.0696 2.77994C15.4396 2.40994 16.0496 2.40994 16.4196 2.77994L17.8396 4.19994C18.1996 4.55994 18.2096 5.12994 17.8696 5.49994Z" stroke="#272727" stroke-width="1.7" stroke-miterlimit="10" stroke-linecap="round" stroke-linejoin="round"/>
<path id="Vector_5" d="M8.93945 10.5V15.64C8.93945 16.44 9.81945 16.91 10.4894 16.48L11.4294 15.86C11.7694 15.64 12.1994 15.64 12.5294 15.86L13.4194 16.46C14.0794 16.9 14.9694 16.43 14.9694 15.63V10.5H8.93945Z" stroke="#272727" stroke-width="1.7" stroke-miterlimit="10" stroke-linecap="round" stroke-linejoin="round"/>
</g>
</svg>
