<svg width="48" height="54" viewBox="0 0 48 54" fill="none" xmlns="http://www.w3.org/2000/svg">
<path d="M0.0258146 0.00763769L0.00759253 38.6009C0.0561847 41.9569 0.692439 45.3129 4.24726 46.7335L24 53.9924L43.7527 46.7335C47.3075 45.3129 47.9438 41.9554 47.9924 38.6009L47.9741 0.00763769H0.0258146ZM2.52527 2.67472H45.4747V38.0174C45.4549 40.5897 44.7883 43.3806 42.1461 44.5598L24 51.3238L5.85384 44.5598C3.21164 43.3806 2.54502 40.5897 2.52527 38.0174V2.67472Z" fill="#CDA870"/>
<path d="M24 54L23.9969 53.9985L4.24422 46.7411C3.39538 46.402 2.66953 45.93 2.08643 45.3404C1.55647 44.8042 1.12521 44.1504 0.804808 43.3958C0.285479 42.1707 0.0303701 40.6478 0 38.6009L0.0182221 0H47.9817L48 38.6009C47.9696 40.6478 47.7145 42.1707 47.1936 43.3958C46.8732 44.1504 46.442 44.8042 45.912 45.3404C45.3289 45.93 44.6031 46.4005 43.7542 46.7411L24 54ZM0.0334071 0.0152754L0.0151851 38.6009C0.0622587 41.8011 0.601328 45.2686 4.2503 46.7259L24 53.9832L43.7497 46.7259C47.3971 45.2671 47.9377 41.7996 47.9848 38.6009L47.9666 0.0152754H0.0334071ZM24 51.3329L23.9969 51.3314L5.8508 44.5675C3.66567 43.5914 2.5435 41.3886 2.51768 38.0174V2.66708H45.4823V38.0174C45.4565 41.3886 44.3343 43.5914 42.1492 44.5675L24 51.3329ZM2.53287 2.68236V38.0174C2.55868 41.381 3.67782 43.5807 5.85688 44.5537L24 51.3161L42.1431 44.5522C44.3221 43.5791 45.4398 41.381 45.4671 38.0158V2.68236H2.53287Z" fill="#CDA870"/>
<path d="M9.69566 42.5918C9.2067 43.1249 8.58411 43.354 8.30774 43.0959L7.5652 42.4039C7.29035 42.1473 7.46801 41.5057 7.96152 40.9756L35.6257 11.2238L37.0804 12.5802L9.69566 42.5918Z" fill="#CDA870"/>
<path d="M8.60993 43.7374C8.35026 43.7374 8.12249 43.6519 7.94634 43.4884L7.20379 42.7965C7.01853 42.6238 6.91527 42.3825 6.90465 42.1014C6.88794 41.634 7.13849 41.0765 7.57279 40.6106L35.5983 10.4692L37.829 12.5482L10.0874 42.9538V42.9553C9.65618 43.4258 9.12166 43.7191 8.65852 43.7374C8.64182 43.7359 8.62511 43.7374 8.60993 43.7374ZM7.9676 42.0495L8.62967 42.6666C8.73141 42.6559 9.00929 42.5521 9.30388 42.2297L36.3318 12.6093L35.653 11.9769L8.35026 41.3407C8.05264 41.66 7.97064 41.9471 7.9676 42.0495Z" fill="#CDA870"/>
<path d="M9.69566 42.5918C9.2067 43.1249 8.58411 43.354 8.30774 43.0959L7.93723 42.7491L36.353 11.9005L37.0819 12.5787L9.69566 42.5918Z" fill="#CDA870"/>
<path d="M8.60993 43.7374C8.35026 43.7374 8.12249 43.6519 7.94634 43.4884L7.18557 42.7797L36.3242 11.1443L37.8305 12.5482L10.0859 42.9538C9.65466 43.4243 9.12014 43.7176 8.657 43.7359C8.64182 43.7359 8.62511 43.7374 8.60993 43.7374ZM26.5708 23.3066L8.77848 42.6223C8.91363 42.5658 9.10496 42.4467 9.30388 42.2297L26.5708 23.3066Z" fill="#CDA870"/>
<path d="M33.3851 5.85714L31.583 7.81345L31.7222 7.94323L33.5243 5.98692L33.3851 5.85714Z" fill="#CDA870"/>
<path d="M33.3572 5.10004L30.8326 7.84066L31.7515 8.69723L34.2761 5.95661L33.3572 5.10004Z" fill="#CDA870"/>
<path d="M36.2665 9.18298L35.1033 10.4463L31.7216 7.9411L33.524 5.98432L36.2665 9.18298Z" fill="#CDA870"/>
<path d="M35.1701 11.1596L30.9259 8.01747L33.5362 5.18389L36.9771 9.19826L35.1701 11.1596ZM32.5158 7.86625L35.0365 9.7329L35.5543 9.17076L33.5104 6.78628L32.5158 7.86625Z" fill="#CDA870"/>
<path d="M36.2665 9.18298L35.1033 10.4463L31.7216 7.9411L31.5819 7.81125L33.3843 5.85601L33.524 5.98432L36.2665 9.18298Z" fill="#CDA870"/>
<path d="M35.1701 11.1596L31.3814 8.35353L30.8302 7.84028L33.3555 5.09987L33.9067 5.61313L36.9786 9.19673L35.1701 11.1596ZM32.3624 7.75168L35.0365 9.73137L35.5543 9.16924L33.3859 6.63963L32.3624 7.75168Z" fill="#CDA870"/>
<path d="M35.7137 9.78331L35.1033 10.4463L31.7216 7.9411L31.5819 7.81125L32.5142 6.80003L35.7137 9.78331Z" fill="#CDA870"/>
<path d="M35.1701 11.1596L31.3814 8.35353L30.8302 7.84028L32.4839 6.04389L36.4639 9.75276L35.1701 11.1596ZM32.3624 7.75168L34.2681 9.16313L32.5431 7.55616L32.3624 7.75168Z" fill="#CDA870"/>
<path d="M39.267 11.6927L36.2923 8.92025L34.8436 10.4936L37.8184 13.2661L38.1509 12.9041C38.3635 12.6734 38.7173 12.6642 38.9239 12.8842L42.2205 16.3823L42.4559 16.1272L39.267 11.6927Z" fill="#CDA870"/>
<path d="M42.2251 17.1644L38.5488 13.2615C38.5473 13.263 38.5442 13.2646 38.5427 13.2676L37.8488 14.0222L34.095 10.5226L36.2665 8.16564L39.6694 11.3368L39.6998 11.3796L43.1438 16.1684L42.2251 17.1644ZM35.5953 10.4661L37.791 12.5115C37.9915 12.3099 38.2663 12.1922 38.5488 12.1907C38.5503 12.1907 38.5533 12.1907 38.5549 12.1907C38.7356 12.1907 38.9132 12.2381 39.0681 12.3267L38.8692 12.0486L36.3227 9.67638L35.5953 10.4661Z" fill="#CDA870"/>
<path d="M7.93673 14.8713L7.76826 15.0741L21.524 26.6394L21.6925 26.4366L7.93673 14.8713Z" fill="#CDA870"/>
<path d="M23.0965 30.4998L25.7508 27.3042C25.7979 27.2477 25.8814 27.24 25.9361 27.2874L41.0331 39.9781C41.0892 40.0255 41.0968 40.1095 41.0498 40.1645L38.3954 43.3601C38.3483 43.4166 38.2648 43.4243 38.2102 43.3769L23.1132 30.6877C23.057 30.6403 23.0494 30.5563 23.0965 30.4998Z" fill="#CDA870"/>
<path d="M25.8176 28.0175L23.8041 30.4417L22.6728 29.4916C22.6561 29.4779 22.6546 29.4534 22.6683 29.4381L24.6332 27.0735C24.6469 27.0567 24.6712 27.0552 24.6863 27.0689L25.8176 28.0175Z" fill="#CDA870"/>
<path d="M31.2711 16.7392L21.8436 28.0861L22.9912 29.051L32.4188 17.7041L31.2711 16.7392Z" fill="#CDA870"/>
<path d="M31.2711 16.7392L21.8436 28.0861L22.9912 29.051L32.4188 17.7041L31.2711 16.7392Z" fill="#CDA870"/>
<path d="M36.6856 22.0326L35.7259 23.1875L17.1789 7.59435C15.6831 6.33718 13.4479 6.53729 12.1966 8.04344L6.36102 15.0686L5.21303 14.1032L11.0502 7.07804C12.8299 4.93643 16.0096 4.64925 18.1385 6.43953L36.6856 22.0326Z" fill="#CDA870"/>
<path d="M36.6856 22.0326L35.7259 23.1875L17.1789 7.59435C15.6831 6.33718 13.4479 6.53729 12.1966 8.04344L6.36102 15.0686L5.21303 14.1032L11.0502 7.07804C12.8299 4.93643 16.0096 4.64925 18.1385 6.43953L36.6856 22.0326Z" fill="#CDA870"/>
<path d="M30.7001 16.1819L28.92 18.3244L31.4472 20.4492L33.2274 18.3066L30.7001 16.1819Z" fill="#CDA870"/>
<path d="M6.5005 12.0175L4.72036 14.16L7.24757 16.2848L9.02771 14.1422L6.5005 12.0175Z" fill="#CDA870"/>
<path d="M24.5421 27.182L22.7761 29.3068C22.7685 29.3175 22.7533 29.3175 22.7427 29.3098L20.2326 27.2003L22.0123 25.0572L24.5421 27.182Z" fill="#CDA870"/>
<path d="M7.58303 14.7472C7.91003 14.3536 7.85794 13.7679 7.4667 13.439C7.07546 13.11 6.49321 13.1624 6.16621 13.556C5.83921 13.9496 5.89129 14.5353 6.28254 14.8642C6.67378 15.1932 7.25603 15.1408 7.58303 14.7472Z" fill="#CDA870"/>
<path d="M23.0959 27.7889C23.4229 27.3953 23.3708 26.8096 22.9796 26.4807C22.5883 26.1517 22.0061 26.2041 21.6791 26.5977C21.3521 26.9913 21.4042 27.577 21.7954 27.9059C22.1867 28.2348 22.7689 28.1825 23.0959 27.7889Z" fill="#CDA870"/>
<path d="M31.7827 18.9116C32.1097 18.5181 32.0576 17.9324 31.6663 17.6034C31.2751 17.2745 30.6928 17.3269 30.3658 17.7204C30.0389 18.114 30.0909 18.6997 30.4822 19.0287C30.8734 19.3576 31.4557 19.3052 31.7827 18.9116Z" fill="#CDA870"/>
<path d="M25.7964 27.9992L25.072 27.3897C24.8428 27.1972 24.5026 27.2278 24.3113 27.4585L23.6507 28.2543L39.7211 41.7638L39.9337 41.5087C40.5957 40.7114 40.491 39.5245 39.6983 38.8585L27.2693 28.4101C26.8441 28.0511 26.3066 27.9228 25.7964 27.9992Z" fill="#CDA870"/>
<path d="M22.3068 42.5948C22.6151 42.6361 22.8702 42.7735 23.0722 43.0103C23.2741 43.2471 23.3759 43.5236 23.3759 43.8413V46.5542C23.3759 46.8964 23.2544 47.1912 23.0114 47.4402C22.7685 47.6892 22.4724 47.8129 22.1246 47.8129H17.4112C17.1849 47.8129 16.9754 47.7564 16.7856 47.6418C16.5957 47.5272 16.4439 47.3745 16.33 47.1835C16.2161 46.9926 16.1599 46.7818 16.1599 46.5542V39.7353C16.1599 39.4099 16.2753 39.1304 16.5062 38.8982C16.737 38.666 17.0149 38.5499 17.3383 38.5499H21.1285C21.461 38.5499 21.742 38.666 21.9728 38.8982C22.2036 39.1304 22.319 39.4099 22.319 39.7353V42.4726C22.319 42.5139 22.316 42.5551 22.3068 42.5948ZM21.1528 42.4726V39.7353C21.1528 39.7185 21.1452 39.7108 21.1285 39.7108H17.3383C17.3307 39.7108 17.3261 39.7185 17.3261 39.7353V42.4726C17.3261 42.4894 17.3307 42.4971 17.3383 42.4971H21.1285C21.1452 42.4971 21.1528 42.4894 21.1528 42.4726ZM22.2218 43.8413C22.2218 43.7756 22.1899 43.7435 22.1246 43.7435H17.4112C17.355 43.7435 17.3261 43.7756 17.3261 43.8413V46.5542C17.3261 46.6107 17.355 46.6397 17.4112 46.6397H22.1246C22.1899 46.6397 22.2218 46.6107 22.2218 46.5542V43.8413Z" fill="#CDA870"/>
<path d="M31.3814 41.1284H30.2274V40.0897C30.2274 40.0163 30.2107 39.9507 30.1788 39.8941C30.1469 39.8376 30.1013 39.7918 30.0452 39.7597C29.989 39.7276 29.9282 39.7108 29.8629 39.7108H25.6962C25.5914 39.7108 25.5033 39.7475 25.435 39.8208C25.3666 39.8941 25.3317 39.9843 25.3317 40.0897V46.2731C25.3317 46.3709 25.3666 46.4564 25.435 46.5298C25.5033 46.6031 25.5914 46.6397 25.6962 46.6397H29.8629C29.9601 46.6397 30.0452 46.6031 30.118 46.5298C30.1909 46.4564 30.2274 46.3709 30.2274 46.2731V45.2222H31.3814V46.4931H31.3693C31.3207 46.8673 31.1521 47.182 30.8651 47.4341C30.5781 47.6861 30.2441 47.8129 29.8629 47.8129H25.6962C25.2755 47.8129 24.9141 47.6617 24.615 47.3607C24.3158 47.0598 24.1655 46.6963 24.1655 46.2731V40.0897C24.1655 39.6665 24.3158 39.303 24.615 39.0021C24.9141 38.7011 25.2755 38.5499 25.6962 38.5499H29.8629C30.2836 38.5499 30.6419 38.7011 30.938 39.0021C31.2341 39.303 31.3814 39.6665 31.3814 40.0897V41.1284Z" fill="#CDA870"/>
</svg>
