<svg xmlns="http://www.w3.org/2000/svg" width="300" height="338" viewBox="0 0 300 338" fill="none">
  <path d="M0.161341 0.547665L0.0474533 241.398C0.351155 262.342 4.32774 283.286 26.5454 292.152L150 337.452L273.455 292.152C295.672 283.286 299.649 262.333 299.953 241.398L299.839 0.547665H0.161341ZM15.783 17.1922H284.217V237.757C284.094 253.81 279.927 271.227 263.413 278.586L150 320.798L36.5865 278.586C20.0728 271.227 15.9064 253.81 15.783 237.757V17.1922Z" fill="#CDA870"/>
  <path d="M150 337.5L149.981 337.49L26.5264 292.199C21.2211 290.083 16.6846 287.137 13.0402 283.458C9.72793 280.112 7.03258 276.031 5.03005 271.322C1.78425 263.677 0.189813 254.172 0 241.398L0.113888 0.5H299.886L300 241.398C299.81 254.172 298.216 263.677 294.96 271.322C292.958 276.031 290.263 280.112 286.95 283.458C283.306 287.137 278.769 290.073 273.464 292.199L150 337.5ZM0.208795 0.59533L0.0949067 241.398C0.389117 261.37 3.7583 283.01 26.5644 292.104L150 337.395L273.436 292.104C296.232 283 299.611 261.36 299.905 241.398L299.791 0.59533H0.208795ZM150 320.855L149.981 320.846L36.5675 278.634C22.9105 272.542 15.8969 258.796 15.7355 237.757V17.1446H284.264V237.757C284.103 258.796 277.09 272.542 263.432 278.634L150 320.855ZM15.8304 17.2399V237.757C15.9918 258.748 22.9864 272.476 36.6055 278.548L150 320.751L263.395 278.539C277.014 272.466 283.999 258.748 284.17 237.747V17.2399H15.8304Z" fill="#CDA870"/>
  <path d="M60.5979 266.304C57.5419 269.631 53.6507 271.061 51.9234 269.45L47.2825 265.132C45.5647 263.53 46.6751 259.526 49.7596 256.218L222.661 70.5447L231.753 79.0099L60.5979 266.304Z" fill="#CDA870"/>
  <path d="M53.8121 273.454C52.1892 273.454 50.7656 272.92 49.6647 271.9L45.0237 267.582C43.8659 266.504 43.2205 264.998 43.1541 263.244C43.0497 260.327 44.6156 256.848 47.33 253.94L222.49 65.8354L236.432 78.8098L63.0465 268.564V268.573C60.3512 271.509 57.0104 273.34 54.1158 273.454C54.0114 273.444 53.907 273.454 53.8121 273.454ZM49.7975 262.92L53.9355 266.771C54.5713 266.705 56.3081 266.056 58.1493 264.045L227.074 79.1911L222.831 75.2444L52.1892 258.497C50.329 260.489 49.8165 262.281 49.7975 262.92Z" fill="#CDA870"/>
  <path d="M60.5979 266.304C57.5419 269.631 53.6507 271.061 51.9234 269.45L49.6077 267.286L227.207 74.7678L231.762 79.0004L60.5979 266.304Z" fill="#CDA870"/>
  <path d="M53.8121 273.454C52.1892 273.454 50.7656 272.92 49.6647 271.9L44.9098 267.477L227.026 70.049L236.441 78.8098L63.037 268.564C60.3417 271.5 57.0009 273.33 54.1063 273.444C54.0114 273.444 53.907 273.454 53.8121 273.454ZM166.068 145.95L54.8655 266.495C55.7102 266.142 56.906 265.399 58.1493 264.045L166.068 145.95Z" fill="#CDA870"/>
  <path d="M208.657 37.0529L197.394 49.2617L198.264 50.0716L209.527 37.8628L208.657 37.0529Z" fill="#CDA870"/>
  <path d="M208.483 32.328L192.704 49.4315L198.447 54.7771L214.226 37.6736L208.483 32.328Z" fill="#CDA870"/>
  <path d="M226.666 57.8086L219.396 65.6924L198.26 50.0583L209.525 37.8466L226.666 57.8086Z" fill="#CDA870"/>
  <path d="M219.813 70.1443L193.287 50.535L209.601 32.8513L231.107 57.904L219.813 70.1443ZM203.224 49.5912L218.978 61.2405L222.214 57.7324L209.44 42.8514L203.224 49.5912Z" fill="#CDA870"/>
  <path d="M226.666 57.8086L219.396 65.6924L198.26 50.0583L197.387 49.248L208.652 37.0458L209.525 37.8466L226.666 57.8086Z" fill="#CDA870"/>
  <path d="M219.813 70.1443L196.134 52.6322L192.689 49.4291L208.472 32.327L211.917 35.5301L231.117 57.8944L219.813 70.1443ZM202.265 48.8762L218.978 61.231L222.214 57.7228L208.662 41.9362L202.265 48.8762Z" fill="#CDA870"/>
  <path d="M223.211 61.5551L219.396 65.6924L198.26 50.0583L197.387 49.248L203.214 42.9372L223.211 61.5551Z" fill="#CDA870"/>
  <path d="M219.813 70.1443L196.134 52.6322L192.689 49.4291L203.024 38.2184L227.899 61.3644L219.813 70.1443ZM202.265 48.8762L214.176 57.6847L203.395 47.656L202.265 48.8762Z" fill="#CDA870"/>
  <path d="M245.419 73.4713L226.827 56.169L217.773 65.9879L236.365 83.2903L238.444 81.0309C239.772 79.5915 241.984 79.5343 243.274 80.907L263.879 102.738L265.35 101.146L245.419 73.4713Z" fill="#CDA870"/>
  <path d="M263.907 107.618L240.93 83.2617C240.921 83.2712 240.902 83.2807 240.892 83.2998L236.555 88.0091L213.094 66.169L226.666 51.4597L247.934 71.2501L248.124 71.517L269.649 101.403L263.907 107.618ZM222.471 65.8163L236.194 78.581C237.447 77.3226 239.165 76.5886 240.93 76.579C240.94 76.579 240.959 76.579 240.968 76.579C242.097 76.579 243.208 76.8746 244.176 77.4275L242.933 75.6925L227.017 60.8878L222.471 65.8163Z" fill="#CDA870"/>
  <path d="M49.6046 93.308L48.5517 94.5734L134.525 166.749L135.578 165.484L49.6046 93.308Z" fill="#CDA870"/>
  <path d="M144.353 190.841L160.943 170.898C161.237 170.546 161.759 170.498 162.101 170.793L256.457 249.993C256.808 250.289 256.855 250.813 256.561 251.156L239.972 271.099C239.677 271.452 239.155 271.5 238.814 271.204L144.457 192.014C144.106 191.718 144.059 191.194 144.353 190.841Z" fill="#CDA870"/>
  <path d="M161.36 175.35L148.776 190.479L141.705 184.549C141.601 184.464 141.591 184.311 141.677 184.216L153.958 169.459C154.043 169.354 154.195 169.344 154.29 169.43L161.36 175.35Z" fill="#CDA870"/>
  <path d="M195.444 104.965L136.522 175.778L143.695 181.8L202.617 110.987L195.444 104.965Z" fill="#CDA870"/>
  <path d="M195.444 104.965L136.522 175.778L143.695 181.8L202.617 110.987L195.444 104.965Z" fill="#CDA870"/>
  <path d="M229.285 138L223.287 145.207L107.368 47.8943C98.0196 40.0487 84.0494 41.2975 76.229 50.697L39.7564 94.5392L32.5815 88.5143L69.0636 44.6722C80.1866 31.307 100.06 29.5148 113.366 40.6874L229.285 138Z" fill="#CDA870"/>
  <path d="M229.285 138L223.287 145.207L107.368 47.8943C98.0196 40.0487 84.0494 41.2975 76.229 50.697L39.7564 94.5392L32.5815 88.5143L69.0636 44.6722C80.1866 31.307 100.06 29.5148 113.366 40.6874L229.285 138Z" fill="#CDA870"/>
  <path d="M191.876 101.487L180.75 114.858L196.545 128.118L207.671 114.747L191.876 101.487Z" fill="#CDA870"/>
  <path d="M40.6282 75.4979L29.5023 88.8691L45.2973 102.129L56.4232 88.7581L40.6282 75.4979Z" fill="#CDA870"/>
  <path d="M153.388 170.136L142.351 183.396C142.303 183.463 142.208 183.463 142.142 183.415L126.454 170.25L137.577 156.875L153.388 170.136Z" fill="#CDA870"/>
  <path d="M47.394 92.5335C49.4377 90.0773 49.1122 86.4221 46.6669 84.3692C44.2216 82.3164 40.5826 82.6433 38.5388 85.0995C36.4951 87.5557 36.8206 91.211 39.2659 93.2638C41.7112 95.3167 45.3502 94.9897 47.394 92.5335Z" fill="#CDA870"/>
  <path d="M144.35 173.923C146.393 171.467 146.068 167.812 143.622 165.759C141.177 163.706 137.538 164.033 135.494 166.489C133.451 168.945 133.776 172.601 136.221 174.654C138.667 176.706 142.306 176.379 144.35 173.923Z" fill="#CDA870"/>
  <path d="M198.642 118.523C200.686 116.067 200.36 112.411 197.915 110.358C195.469 108.306 191.83 108.632 189.787 111.089C187.743 113.545 188.068 117.2 190.514 119.253C192.959 121.306 196.598 120.979 198.642 118.523Z" fill="#CDA870"/>
  <path d="M161.227 175.236L156.7 171.432C155.267 170.231 153.141 170.422 151.946 171.861L147.817 176.828L248.257 261.137L249.586 259.545C253.724 254.569 253.069 247.162 248.115 243.006L170.433 177.8C167.776 175.56 164.416 174.759 161.227 175.236Z" fill="#CDA870"/>
  <path d="M139.418 266.323C141.345 266.581 142.939 267.439 144.201 268.916C145.463 270.394 146.099 272.119 146.099 274.102V291.033C146.099 293.168 145.34 295.008 143.822 296.562C142.303 298.116 140.452 298.888 138.279 298.888H108.82C107.406 298.888 106.096 298.535 104.91 297.82C103.724 297.105 102.774 296.152 102.063 294.96C101.351 293.769 101 292.453 101 291.033V248.478C101 246.447 101.721 244.702 103.164 243.253C104.606 241.804 106.343 241.08 108.364 241.08H132.053C134.132 241.08 135.887 241.804 137.33 243.253C138.773 244.702 139.494 246.447 139.494 248.478V265.561C139.494 265.818 139.475 266.075 139.418 266.323ZM132.205 265.561V248.478C132.205 248.373 132.158 248.325 132.053 248.325H108.364C108.317 248.325 108.289 248.373 108.289 248.478V265.561C108.289 265.665 108.317 265.713 108.364 265.713H132.053C132.158 265.713 132.205 265.665 132.205 265.561ZM138.886 274.102C138.886 273.692 138.687 273.492 138.279 273.492H108.82C108.469 273.492 108.289 273.692 108.289 274.102V291.033C108.289 291.385 108.469 291.567 108.82 291.567H138.279C138.687 291.567 138.886 291.385 138.886 291.033V274.102Z" fill="#CDA870"/>
  <path d="M196.134 257.172H188.921V250.689C188.921 250.232 188.817 249.822 188.618 249.469C188.418 249.116 188.133 248.83 187.782 248.63C187.431 248.43 187.052 248.325 186.643 248.325H160.601C159.946 248.325 159.396 248.554 158.969 249.011C158.542 249.469 158.323 250.031 158.323 250.689V289.279C158.323 289.889 158.542 290.423 158.969 290.88C159.396 291.338 159.946 291.567 160.601 291.567H186.643C187.251 291.567 187.782 291.338 188.238 290.88C188.693 290.423 188.921 289.889 188.921 289.279V282.72H196.134V290.651H196.058C195.755 292.987 194.701 294.951 192.907 296.524C191.114 298.097 189.026 298.888 186.643 298.888H160.601C157.972 298.888 155.713 297.944 153.844 296.066C151.974 294.188 151.034 291.919 151.034 289.279V250.689C151.034 248.049 151.974 245.78 153.844 243.902C155.713 242.024 157.972 241.08 160.601 241.08H186.643C189.272 241.08 191.512 242.024 193.363 243.902C195.214 245.78 196.134 248.049 196.134 250.689V257.172Z" fill="#CDA870"/>
</svg>