<svg xmlns="http://www.w3.org/2000/svg"  width="100%" height="100%" viewBox="0 0 719 808" fill="none">
  <g filter="url(#filter0_b_976_1018)">
    <path d="M0.386681 0.114282L0.11373 577.584C0.841601 627.799 10.3722 678.015 63.6205 699.272L359.5 807.886L655.38 699.272C708.628 678.015 718.158 627.777 718.886 577.584L718.613 0.114282H0.386681ZM37.8265 40.0217H681.173V568.852C680.878 607.343 670.892 649.102 631.314 666.747L359.5 767.955L87.6857 666.747C48.1077 649.102 38.1222 607.343 37.8265 568.852V40.0217Z" fill="#CDA870" fill-opacity="0.05"/>
    <path d="M359.5 808L359.454 807.977L63.575 699.386C50.86 694.312 39.9874 687.249 31.253 678.427C23.3146 670.404 16.8548 660.621 12.0554 649.33C4.27624 630.999 0.454919 608.211 0 577.584L0.272952 0H718.727L719 577.584C718.545 608.211 714.724 630.999 706.922 649.33C702.122 660.621 695.663 670.404 687.724 678.427C678.99 687.249 668.117 694.289 655.402 699.386L359.5 808ZM0.500411 0.228565L0.22746 577.584C0.932585 625.468 9.0074 677.352 63.666 699.157L359.5 807.749L655.334 699.157C709.97 677.329 718.067 625.445 718.773 577.584L718.5 0.228565H0.500411ZM359.5 768.093L359.454 768.07L87.6402 666.861C54.9088 652.256 38.0995 619.297 37.7128 568.852V39.9075H681.287V568.852C680.9 619.297 664.091 652.256 631.36 666.861L359.5 768.093ZM37.9403 40.136V568.852C38.327 619.182 55.0907 652.096 87.7312 666.655L359.5 767.841L631.269 666.633C663.909 652.073 680.65 619.183 681.06 568.83V40.136H37.9403Z" fill="#CDA870" fill-opacity="0.05"/>
    <path d="M128.97 654.441C125.08 654.441 121.668 653.161 119.03 650.716L107.907 640.362C105.132 637.779 103.585 634.168 103.426 629.962C103.176 622.968 106.929 614.625 113.434 607.654L434.653 262.558L449.988 246.084L522.206 168.151L555.909 199.538L151.101 642.716V642.739C144.642 649.779 136.635 654.167 129.698 654.441C129.447 654.419 129.197 654.441 128.97 654.441Z" fill="#CDA870" fill-opacity="0.05"/>
    <path d="M511.949 156.112L470.068 124.994L461.811 117.314L499.638 76.3092L507.895 83.989L541.932 123.602L511.949 156.112Z" fill="#CDA870" fill-opacity="0.05"/>
    <path d="M632.497 256.83L577.429 198.432C577.406 198.454 577.361 198.477 577.338 198.523L566.943 209.814L510.715 157.45L543.242 122.182L594.216 169.632L594.671 170.272L646.258 241.927L632.497 256.83Z" fill="#CDA870" fill-opacity="0.05"/>
    <path d="M123.631 225.553L120.88 228.861L314.381 391.771L317.129 388.818L123.631 225.553Z" fill="#CDA870" fill-opacity="0.05"/>
    <path d="M345.966 456.367L385.726 408.551C386.431 407.706 387.682 407.591 388.501 408.3L614.641 598.192C615.483 598.9 615.597 600.157 614.892 600.98L575.132 648.796C574.427 649.642 573.176 649.756 572.357 649.047L346.216 459.178C345.375 458.47 345.261 457.213 345.966 456.367Z" fill="#CDA870" fill-opacity="0.05"/>
    <path d="M381.341 413.825L351.014 450.296L337.224 438.941C336.974 438.735 337.019 439.169 337.224 438.941L368.673 404.51C368.446 404.304 368.878 404.259 368.673 404.51L381.341 413.825Z" fill="#CDA870" fill-opacity="0.05"/>
    <path d="M449.988 246.084L434.653 262.558L257.325 113.634C234.92 94.823 201.438 97.8172 182.696 120.354L118.886 197.885L102.215 183.884L165.522 105.908C192.181 73.8636 239.811 69.5666 271.701 96.3544L449.988 246.084Z" fill="#CDA870" fill-opacity="0.05"/>
    <path d="M449.988 246.084L434.653 262.558L257.325 113.634C234.92 94.823 201.438 97.8172 182.696 120.354L118.886 197.885L102.215 183.884L165.522 105.908C192.181 73.8636 239.811 69.5666 271.701 96.3544L449.988 246.084Z" fill="#CDA870" fill-opacity="0.05"/>
    <path d="M97.3721 179.817L70.7071 211.876L108.563 243.669L135.228 211.61L97.3721 179.817Z" fill="#CDA870" fill-opacity="0.05"/>
    <path d="M334.138 637.345C338.756 637.962 342.577 640.019 345.602 643.562C348.627 647.105 350.151 651.242 350.151 655.996V696.589C350.151 701.709 348.332 706.12 344.692 709.846C341.053 713.571 336.618 715.423 331.409 715.423H260.805C257.416 715.423 254.277 714.577 251.434 712.863C248.591 711.148 246.316 708.863 244.61 706.006C242.904 703.149 242.063 699.994 242.063 696.589V594.557C242.063 589.689 243.791 585.506 247.249 582.032C250.706 578.558 254.869 576.821 259.713 576.821H316.487C321.469 576.821 325.677 578.558 329.134 582.032C332.592 585.506 334.32 589.689 334.32 594.557V635.516C334.32 636.133 334.275 636.751 334.138 637.345ZM316.851 635.516V594.557C316.851 594.306 316.738 594.192 316.487 594.192H259.713C259.6 594.192 259.531 594.306 259.531 594.557V635.516C259.531 635.768 259.6 635.882 259.713 635.882H316.487C316.738 635.882 316.851 635.768 316.851 635.516ZM332.864 655.996C332.864 655.013 332.387 654.533 331.409 654.533H260.805C259.964 654.533 259.531 655.013 259.531 655.996V696.589C259.531 697.435 259.964 697.869 260.805 697.869H331.409C332.387 697.869 332.864 697.435 332.864 696.589V655.996Z" fill="#CDA870" fill-opacity="0.05"/>
    <path d="M470.068 615.403H452.781V599.86C452.781 598.763 452.531 597.78 452.053 596.935C451.576 596.089 450.893 595.403 450.052 594.923C449.21 594.443 448.3 594.192 447.322 594.192H384.907C383.338 594.192 382.018 594.74 380.995 595.837C379.971 596.934 379.448 598.283 379.448 599.86V692.383C379.448 693.846 379.971 695.126 380.995 696.223C382.018 697.32 383.338 697.869 384.907 697.869H447.322C448.778 697.869 450.052 697.32 451.143 696.223C452.235 695.126 452.781 693.846 452.781 692.383V676.658H470.068V695.675H469.886C469.158 701.274 466.633 705.983 462.334 709.754C458.035 713.526 453.031 715.423 447.322 715.423H384.907C378.607 715.423 373.193 713.16 368.712 708.657C364.231 704.154 361.979 698.715 361.979 692.383V599.86C361.979 593.529 364.231 588.089 368.712 583.586C373.193 579.084 378.607 576.821 384.907 576.821H447.322C453.623 576.821 458.991 579.084 463.426 583.586C467.862 588.089 470.068 593.529 470.068 599.86V615.403Z" fill="#CDA870" fill-opacity="0.05"/>
    <path d="M535.145 346.953L549.52 329.674L485.866 276.216L470.693 292.826L535.145 346.953Z" fill="#CDA870" fill-opacity="0.05"/>
  </g>
  <defs>
    <filter id="filter0_b_976_1018" x="-25" y="-25"  width="100%" height="100%" filterUnits="userSpaceOnUse" color-interpolation-filters="sRGB">
      <feFlood flood-opacity="0" result="BackgroundImageFix"/>
      <feGaussianBlur in="BackgroundImageFix" stdDeviation="12.5"/>
      <feComposite in2="SourceAlpha" operator="in" result="effect1_backgroundBlur_976_1018"/>
      <feBlend mode="normal" in="SourceGraphic" in2="effect1_backgroundBlur_976_1018" result="shape"/>
    </filter>
  </defs>
</svg>