<svg xmlns="http://www.w3.org/2000/svg" width="154" height="45" viewBox="0 0 154 45" fill="none">
  <g clip-path="url(#clip0_891_1551)">
    <g filter="url(#filter0_b_891_1551)">
      <path d="M154.014 40.4723C154.014 41.068 153.9 41.6581 153.676 42.2084C153.452 42.7588 153.123 43.2587 152.709 43.6794C152.294 44.1 151.802 44.4332 151.261 44.6597C150.72 44.8861 150.14 45.0014 149.555 44.999H4.47281C3.88758 45.0014 3.30764 44.8861 2.76634 44.6597C2.22504 44.4332 1.73306 44.1 1.31867 43.6794C0.904276 43.2587 0.575657 42.7588 0.3517 42.2084C0.127744 41.6581 0.0128678 41.068 0.0136761 40.4723V4.53811C0.0160923 3.33503 0.486668 2.18192 1.32239 1.33121C2.15812 0.480497 3.29091 0.0014829 4.47281 -0.000976562H149.555C150.736 0.0014829 151.869 0.480497 152.705 1.33121C153.541 2.18192 154.011 3.33503 154.014 4.53811V40.4723Z" fill="white" fill-opacity="0.1"/>
    </g>
    <path d="M53.6985 11.3515C53.6985 12.3077 53.4038 13.0538 52.8533 13.5926C52.2217 14.2558 51.3765 14.5903 50.3207 14.5903C49.3492 14.5903 48.507 14.2587 47.7882 13.5926C47.1144 12.9294 46.7324 12.0975 46.7324 11.0998C46.7324 10.1021 47.0693 9.27319 47.7882 8.60707C48.4619 7.94391 49.3071 7.60938 50.3207 7.60938C50.8261 7.60938 51.2923 7.69227 51.7134 7.89951C52.1766 8.10674 52.5164 8.35543 52.7691 8.64556L52.1796 9.22582C51.7164 8.687 51.0817 8.43536 50.3238 8.43536C49.6079 8.43536 48.9732 8.68405 48.4679 9.18141C47.9626 9.67878 47.6648 10.3449 47.6648 11.1324C47.6648 11.9199 47.9175 12.586 48.4679 13.0834C48.9732 13.5808 49.6079 13.8294 50.3238 13.8294C51.0817 13.8294 51.7164 13.5808 52.2217 13.0834C52.5586 12.7518 52.727 12.2929 52.8112 11.7127H50.3207V10.9222H53.6534C53.6985 11.0199 53.6985 11.1857 53.6985 11.3515Z" fill="white" fill-opacity="0.75"/>
    <path d="M53.6983 11.3516C53.6562 12.2664 53.3614 13.0125 52.811 13.5513C52.1794 14.2145 51.3342 14.549 50.3205 14.549C49.349 14.549 48.5068 14.2174 47.8301 13.5513C47.1563 12.8882 46.8164 12.0562 46.8164 11.0585C46.8164 10.0609 47.1533 9.23191 47.8301 8.56579C48.5038 7.90263 49.349 7.56809 50.3205 7.56809C50.7837 7.56809 51.25 7.65098 51.7132 7.85822C52.1343 8.02401 52.5162 8.2727 52.7689 8.60428L52.811 8.56283L52.7689 8.52138L52.1794 9.10164L52.2215 9.14309L52.2636 9.10164C51.8004 8.56283 51.1657 8.26973 50.3657 8.26973C49.6498 8.26973 49.0152 8.51842 48.4677 9.01579C47.9203 9.51316 47.6646 10.1793 47.6646 11.0082C47.6646 11.7987 47.9173 12.4618 48.4677 13.0007C49.0152 13.498 49.6498 13.7467 50.3657 13.7467C51.1236 13.7467 51.8004 13.498 52.3057 13.0007C52.6426 12.6691 52.8531 12.2102 52.8952 11.6299V11.5885H50.4048V10.8839H53.6953V10.8424H53.6532C53.6562 11.0201 53.6562 11.1859 53.6983 11.3516H53.7404C53.7404 11.1859 53.7404 11.0201 53.6983 10.8543V10.8128H50.3236V11.6862H52.8561V11.6447H52.814C52.7719 12.225 52.5614 12.6839 52.2666 12.974C51.7613 13.4714 51.1266 13.7201 50.3687 13.7201C49.6528 13.7201 49.0603 13.4714 48.5128 12.974C48.0075 12.4766 47.7549 11.852 47.7549 11.0645C47.7549 10.274 48.0075 9.6523 48.5128 9.15493C49.0182 8.65756 49.6528 8.40888 50.3687 8.40888C51.1718 8.40888 51.7613 8.65756 52.2245 9.19934L52.2666 9.24079L52.9403 8.57763L52.8982 8.53618C52.6456 8.20461 52.2666 7.95592 51.8004 7.79013C51.3372 7.58289 50.871 7.5 50.3657 7.5C49.352 7.5 48.5098 7.83158 47.8331 8.53914C47.1172 9.2023 46.7773 10.0757 46.7773 11.0734C46.7773 12.0711 47.1142 12.9414 47.8331 13.6076C48.5489 14.2707 49.3941 14.6467 50.3657 14.6467C51.4214 14.6467 52.2636 14.3151 52.8982 13.649C53.4878 13.0539 53.7404 12.3049 53.6983 11.3516Z" fill="white" fill-opacity="0.75"/>
    <path d="M58.9743 8.52776H55.8522V10.686H58.6344V11.4765H55.8522V13.6347H58.9743V14.4666H54.9648V7.7373H58.9743V8.52776Z" fill="white" fill-opacity="0.75"/>
    <path d="M58.9744 8.52722V8.48577H55.8071V10.7269H58.5924V11.4345H55.8071V13.6756H58.9323V14.4246H55.0071V7.77821H58.9323V8.52722H58.9744V8.48577V8.52722H59.0165V7.69531H54.9229V14.5075H59.0165V13.5927H55.8944V11.5174H58.6766V10.644H55.8944V8.56867H59.0165V8.52722H58.9744Z" fill="white" fill-opacity="0.75"/>
    <path d="M62.6857 14.4666H61.7984V8.52776H59.8584V7.7373H64.5837V8.52776H62.6857V14.4666Z" fill="white" fill-opacity="0.75"/>
    <path d="M62.6859 14.466V14.4246H61.8407V8.48577H59.9006V7.77821H64.5417V8.48577H62.6438V14.466H62.6859V14.4246V14.466H62.728V8.56867H64.6259V7.69531H59.8164V8.56867H61.7564V14.5075H62.728V14.466H62.6859Z" fill="white" fill-opacity="0.75"/>
    <path d="M68.8873 7.7373H68V14.4636H68.8873V7.7373Z" fill="white" fill-opacity="0.75"/>
    <path d="M68.0001 14.466H68.0422V7.77821H68.8032V14.4246H68.0001V14.466H68.0422H68.0001V14.5075H68.8874V7.69531H67.958V14.5075H68.0001V14.466Z" fill="white" fill-opacity="0.75"/>
    <path d="M72.7706 14.4666H71.8833V8.52776H69.9854V7.7373H74.6685V8.52776H72.7706V14.4666Z" fill="white" fill-opacity="0.75"/>
    <path d="M72.7707 14.466V14.4246H71.9255V8.48577H70.0276V7.77821H74.6265V8.48577H72.7256V14.466H72.7707V14.4246V14.466H72.8128V8.56867H74.7107V7.69531H69.9434V8.56867H71.8413V14.5075H72.8128V14.466H72.7707Z" fill="white" fill-opacity="0.75"/>
    <path d="M83.5717 13.593C82.898 14.2562 82.0528 14.6322 81.0812 14.6322C80.0676 14.6322 79.2254 14.3006 78.5908 13.593C77.917 12.9299 77.5771 12.098 77.5771 11.1003C77.5771 10.1026 77.914 9.27362 78.5908 8.6075C79.2645 7.94434 80.1097 7.56836 81.0812 7.56836C82.0949 7.56836 82.895 7.89994 83.5717 8.6075C84.2455 9.27066 84.5853 10.1026 84.5853 11.1003C84.5823 12.0565 84.2455 12.8884 83.5717 13.593ZM79.2254 13.0128C79.7307 13.5101 80.3654 13.7588 81.0812 13.7588C81.7971 13.7588 82.4318 13.5101 82.9371 13.0128C83.4424 12.5154 83.695 11.8493 83.695 11.0618C83.695 10.2713 83.4424 9.64961 82.9371 9.11079C82.4318 8.61342 81.7971 8.36474 81.0812 8.36474C80.3654 8.36474 79.7307 8.61342 79.2254 9.11079C78.7201 9.60816 78.4675 10.2743 78.4675 11.0618C78.4645 11.8493 78.7171 12.5154 79.2254 13.0128Z" fill="white" fill-opacity="0.75"/>
    <path d="M83.5718 13.5925C82.8981 14.2556 82.0529 14.5902 81.0814 14.5902C80.1098 14.5902 79.2677 14.2586 78.5909 13.5925C77.9172 12.9293 77.5773 12.0974 77.5773 11.1412C77.5773 10.1849 77.9141 9.35597 78.5909 8.68985C79.2647 8.02669 80.0677 7.69216 81.0814 7.69216C82.0529 7.69216 82.8951 8.02373 83.5718 8.68985C84.2456 9.35301 84.5855 10.1849 84.5855 11.1412C84.5404 12.056 84.2035 12.8879 83.5718 13.5925C84.2877 12.9293 84.6276 12.0974 84.6276 11.0997C84.6276 10.102 84.2907 9.27308 83.614 8.56551C82.9402 7.86091 82.095 7.52637 81.0814 7.52637C80.0677 7.52637 79.2256 7.85794 78.5488 8.56551C77.872 9.27308 77.5352 10.102 77.5352 11.0997C77.5352 12.0974 77.872 12.9264 78.5488 13.6339C79.2225 14.3385 80.0677 14.6731 81.0814 14.6731C82.095 14.6316 82.9372 14.3 83.5718 13.5925ZM79.2256 13.0122C79.6888 13.551 80.3234 13.8027 81.0814 13.8027C81.8393 13.8027 82.474 13.554 82.9793 13.0122C83.4846 12.5149 83.7373 11.8487 83.7373 11.0612C83.7373 10.2708 83.4846 9.60761 82.9793 9.11025C82.474 8.61288 81.8393 8.31979 81.0814 8.31979C80.3234 8.31979 79.6888 8.56847 79.1834 9.11025C78.6781 9.60761 78.4255 10.2737 78.4255 11.0612C78.4225 11.8902 78.6751 12.5563 79.2256 13.0122C78.7624 12.4734 78.5097 11.8487 78.5097 11.0612C78.5097 10.2708 78.7623 9.64906 79.2677 9.15169C79.773 8.65433 80.3655 8.40564 81.0814 8.40564C81.7972 8.40564 82.4319 8.65433 82.8951 9.15169C83.4004 9.64906 83.6531 10.2737 83.6531 11.0612C83.6531 11.8517 83.4004 12.4734 82.8951 12.9708C82.3898 13.4681 81.7972 13.7168 81.0814 13.7168C80.3625 13.7168 79.7309 13.4681 79.2256 13.0122Z" fill="white" fill-opacity="0.75"/>
    <path d="M85.8057 14.4666V7.7373H86.9035L90.2362 12.9715V11.6422V7.7373H91.0784V14.4666H90.1941L86.693 8.94224H86.6509L86.693 10.2715V14.4666H85.8057Z" fill="white" fill-opacity="0.75"/>
    <path d="M85.8058 14.466H85.8479V7.77821H86.8615L90.1942 13.0124H90.2363H90.2784V11.6417V7.77821H91.0364V14.4246H90.1942L86.7352 8.90025H86.651H86.6059L86.651 10.271V14.4246H85.8058V14.466H85.8479H85.8058V14.5075H86.7352V10.271L86.6931 8.9417H86.651V8.98314H86.6931L90.1521 14.5075H91.1206V7.69531H90.1942V11.6417V12.971H90.2363V12.9295L86.9036 7.69531H85.7637V14.5075H85.8058V14.466Z" fill="white" fill-opacity="0.75"/>
    <path d="M77.324 24.2655C74.6231 24.2655 72.4725 26.2579 72.4725 29.0408C72.4725 31.7822 74.6652 33.8161 77.324 33.8161C80.025 33.8161 82.1756 31.7822 82.1756 29.0408C82.2207 26.3023 80.025 24.2655 77.324 24.2655ZM77.324 31.948C75.8472 31.948 74.581 30.7431 74.581 29.0408C74.581 27.3385 75.8472 26.1335 77.324 26.1335C78.8009 26.1335 80.0671 27.297 80.0671 29.0408C80.0671 30.7461 78.8009 31.948 77.324 31.948ZM66.6946 24.2655C63.9937 24.2655 61.8431 26.2579 61.8431 29.0408C61.8431 31.7822 64.0358 33.8161 66.6946 33.8161C69.3956 33.8161 71.5461 31.7822 71.5461 29.0408C71.5883 26.3023 69.3926 24.2655 66.6946 24.2655ZM66.6946 31.948C65.2178 31.948 63.9516 30.7431 63.9516 29.0408C63.9516 27.3385 65.2178 26.1335 66.6946 26.1335C68.1714 26.1335 69.4377 27.297 69.4377 29.0408C69.4347 30.7461 68.1714 31.948 66.6946 31.948ZM54.0771 25.7605V27.7944H59.0128C58.8865 28.9164 58.4654 29.7454 57.8729 30.3286C57.1571 31.0332 56.0171 31.8237 54.0771 31.8237C51.0393 31.8237 48.6752 29.4138 48.6752 26.4237C48.6752 23.4336 51.0393 21.0237 54.0771 21.0237C55.7224 21.0237 56.9044 21.6454 57.7887 22.4773L59.2234 21.0651C57.9992 19.9016 56.354 19.0312 54.0771 19.0312C49.9415 19.0312 46.4404 22.353 46.4404 26.4651C46.4404 30.5359 49.9415 33.899 54.0771 33.899C56.3119 33.899 58.0022 33.1944 59.3497 31.8237C60.7002 30.4944 61.1213 28.5849 61.1213 27.0898C61.1213 26.6339 61.0792 26.175 60.9949 25.8434H54.0771V25.7605ZM105.762 27.3385C105.341 26.2579 104.117 24.3069 101.627 24.3069C99.1363 24.3069 97.0699 26.2579 97.0699 29.0822C97.0699 31.7408 99.1363 33.8576 101.879 33.8576C104.114 33.8576 105.38 32.5283 105.931 31.7408L104.286 30.6602C103.738 31.4507 102.977 31.9895 101.879 31.9895C100.782 31.9895 100.024 31.4921 99.5153 30.5359L106.012 27.8773L105.762 27.3385ZM99.1393 28.9164C99.0972 27.0898 100.574 26.1335 101.672 26.1335C102.517 26.1335 103.233 26.548 103.485 27.1312L99.1393 28.9164ZM93.8637 33.526H96.0142V19.4901H93.8637V33.526ZM90.3627 25.346H90.2784C89.8152 24.7658 88.8859 24.2655 87.7038 24.2655C85.2976 24.2655 83.0628 26.3822 83.0628 29.0408C83.0628 31.6993 85.2976 33.8161 87.7038 33.8161C88.8437 33.8161 89.7701 33.3188 90.2784 32.7355H90.3627V33.4401C90.3627 35.2668 89.349 36.2645 87.788 36.2645C86.4796 36.2645 85.6796 35.3497 85.3397 34.5622L83.4839 35.3082C84.0313 36.5546 85.4239 38.1326 87.788 38.1326C90.2784 38.1326 92.3869 36.6789 92.3869 33.15V24.5941H90.3627V25.346ZM87.9143 31.948C86.4375 31.948 85.2134 30.7431 85.2134 29.0822C85.2134 27.3799 86.4375 26.175 87.9143 26.175C89.349 26.175 90.489 27.4214 90.489 29.0822C90.5311 30.746 89.3911 31.948 87.9143 31.948ZM115.76 19.4901H110.656V33.526H112.764V28.2089H115.718C118.082 28.2089 120.401 26.548 120.401 23.848C120.401 21.1924 118.082 19.4901 115.76 19.4901ZM115.802 26.2609H112.764V21.4441H115.802C117.405 21.4441 118.293 22.7319 118.293 23.854C118.293 24.973 117.405 26.2609 115.802 26.2609ZM128.967 24.2655C127.406 24.2655 125.845 24.9286 125.171 26.4237L127.069 27.2141C127.49 26.4237 128.209 26.175 129.009 26.175C130.107 26.175 131.244 26.8382 131.244 27.9602V28.0845C130.865 27.8773 130.02 27.5457 129.009 27.5457C126.985 27.5457 124.916 28.6678 124.916 30.7016C124.916 32.5697 126.603 33.7747 128.459 33.7747C129.894 33.7747 130.694 33.153 131.16 32.4039H131.244V33.4845H133.31V28.0875C133.271 25.6362 131.373 24.2655 128.967 24.2655ZM128.715 31.948C127.999 31.948 127.027 31.6164 127.027 30.7431C127.027 29.6625 128.251 29.248 129.262 29.248C130.191 29.248 130.655 29.4553 131.202 29.7039C131.076 31.0362 129.939 31.948 128.715 31.948ZM140.782 24.5556L138.333 30.6602H138.249L135.717 24.5556H133.44L137.235 33.0701L135.085 37.8039H137.32L143.185 24.5556H140.782ZM121.583 33.526H123.692V19.4901H121.583V33.526Z" fill="white" fill-opacity="0.75"/>
    <path d="M11.5925 8.40332C11.2135 8.7349 11.0029 9.31812 11.0029 10.0642V9.89839V34.7313V34.5655C11.0029 35.2701 11.2135 35.8119 11.5504 36.1434L11.6346 36.2263L25.7683 22.3148L11.5925 8.40332Z" fill="white" fill-opacity="0.75"/>
    <path d="M37.1969 22.7637C37.0285 23.1367 36.6364 23.6166 36.1702 23.8683C36.6364 23.5781 37.0285 23.0982 37.1969 22.7637ZM30.5774 17.7637L25.5557 22.347L30.5774 27.0656L36.2742 23.8683C36.9901 23.4538 37.2309 22.8858 37.2731 22.347C37.1888 21.8082 36.9931 21.3755 36.2742 20.961L30.5774 17.7637Z" fill="white" fill-opacity="0.95"/>
    <path d="M11.593 36.3918C11.8457 36.6404 12.2246 36.7648 12.6066 36.7648C12.2246 36.7677 11.8878 36.6404 11.593 36.3918ZM25.7264 22.3145L11.593 36.226C11.8457 36.4746 12.2246 36.599 12.6066 36.599C12.9856 36.599 13.4097 36.4746 13.8729 36.226L30.5773 26.9303L25.7264 22.3145Z" fill="white" fill-opacity="0.85"/>
    <path d="M12.6035 8.03008C12.2245 8.03008 11.8455 8.15442 11.5898 8.4031L25.7263 22.3146L30.5775 17.7637L13.9118 8.4031C13.4065 8.15442 12.9854 8.03008 12.6035 8.03008ZM12.6035 7.86133C12.9824 7.86133 13.4065 7.98567 13.8697 8.23436C13.4065 7.98863 12.9854 7.86133 12.6035 7.86133Z" fill="white" fill-opacity="0.85"/>
    <path d="M13.8693 36.3916C13.4904 36.5988 13.1114 36.7232 12.7715 36.7646C13.1535 36.7261 13.4904 36.5988 13.8693 36.3916Z" fill="#272727"/>
    <path d="M30.5776 26.9307L13.9119 36.2262C13.4488 36.4749 13.0247 36.5992 12.6457 36.5992C12.2667 36.5992 11.8877 36.4749 11.6321 36.2262L11.5479 36.3091L11.6321 36.392C11.8847 36.6407 12.2637 36.765 12.6457 36.765C12.7299 36.765 12.772 36.765 12.8562 36.765C13.1931 36.7236 13.5721 36.5992 13.9541 36.392L30.746 27.055L30.5776 26.9307Z" fill="white" fill-opacity="0.75"/>
    <path d="M11 34.7305C11 35.4351 11.2105 35.9768 11.5474 36.3084C11.1714 35.9768 11 35.438 11 34.7305Z" fill="#272727"/>
    <path d="M11 34.5645V34.7302C11 35.4348 11.2105 35.9766 11.5474 36.3082L11.6316 36.2253L11.5474 36.1424C11.1714 35.8108 11 35.272 11 34.5645Z" fill="white" fill-opacity="0.75"/>
    <path d="M11.5935 36.2256L11.5088 36.3085L11.5935 36.2256Z" fill="white" fill-opacity="0.75"/>
    <path d="M37.2728 22.3467C37.1886 22.8855 36.8641 23.3533 36.1452 23.7677L30.5771 26.93L30.7035 27.0544L36.1452 23.975C36.6505 23.6848 36.9904 23.3533 37.1588 23.0187C37.2852 22.7701 37.2728 22.5539 37.2728 22.3467Z" fill="white" fill-opacity="0.75"/>
    <path d="M12.6031 7.86133C11.7158 7.86133 11.0842 8.52449 11 9.68798C11.0421 9.10771 11.2105 8.64883 11.5053 8.31725L11.5895 8.23436C11.8452 7.98863 12.2242 7.86133 12.6031 7.86133Z" fill="white" fill-opacity="0.75"/>
    <path d="M11.5082 8.32031C11.2135 8.61044 11.045 9.11077 11.0029 9.69104C11.0029 9.77393 11.0029 9.81538 11.0029 9.89827V10.0641C11.0029 9.31801 11.2135 8.73479 11.5925 8.40321L11.5082 8.32031Z" fill="white" fill-opacity="0.75"/>
    <path d="M30.7035 17.6396L30.5771 17.764L36.106 20.9024C36.8218 21.3169 37.2307 21.8087 37.2728 22.3475C37.2728 21.7672 36.9091 21.1926 36.106 20.7366L30.7035 17.6396Z" fill="white" fill-opacity="0.75"/>
    <path d="M12.6037 7.86133C12.2247 7.86133 11.8457 7.98567 11.5901 8.23436L11.5059 8.31725L11.5901 8.40015C11.8427 8.15146 12.2217 8.02712 12.6037 8.02712C12.9827 8.02712 13.4068 8.15146 13.87 8.40015L30.5777 17.7637L30.704 17.6393L13.87 8.23436C13.4068 7.98863 12.9857 7.86133 12.6037 7.86133Z" fill="white" fill-opacity="0.75"/>
  </g>
  <defs>
    <filter id="filter0_b_891_1551" x="-24.9863" y="-25.001" width="204" height="95" filterUnits="userSpaceOnUse" color-interpolation-filters="sRGB">
      <feFlood flood-opacity="0" result="BackgroundImageFix"/>
      <feGaussianBlur in="BackgroundImageFix" stdDeviation="12.5"/>
      <feComposite in2="SourceAlpha" operator="in" result="effect1_backgroundBlur_891_1551"/>
      <feBlend mode="normal" in="SourceGraphic" in2="effect1_backgroundBlur_891_1551" result="shape"/>
    </filter>
    <clipPath id="clip0_891_1551">
      <rect width="154" height="45" rx="6" fill="white"/>
    </clipPath>
  </defs>
</svg>