<svg width="86" height="72" viewBox="0 0 86 72" fill="none" xmlns="http://www.w3.org/2000/svg">
<mask id="mask0_1863_23044" style="mask-type:alpha" maskUnits="userSpaceOnUse" x="0" y="0" width="40" height="35">
<rect width="40" height="35" fill="#D9D9D9"/>
</mask>
<g mask="url(#mask0_1863_23044)">
<mask id="path-2-inside-1_1863_23044" fill="white">
<path d="M0 10C0 4.47715 4.47715 0 10 0H30C35.5228 0 40 4.47715 40 10V35H0V10Z"/>
</mask>
<path d="M0 10C0 4.47715 4.47715 0 10 0H30C35.5228 0 40 4.47715 40 10V35H0V10Z" fill="#CDA870" fill-opacity="0.1"/>
<path d="M-1 10C-1 3.92487 3.92487 -1 10 -1H30C36.0751 -1 41 3.92487 41 10H39C39 5.02944 34.9706 1 30 1H10C5.02944 1 1 5.02944 1 10H-1ZM40 35H0H40ZM-1 35V10C-1 3.92487 3.92487 -1 10 -1V1C5.02944 1 1 5.02944 1 10V35H-1ZM30 -1C36.0751 -1 41 3.92487 41 10V35H39V10C39 5.02944 34.9706 1 30 1V-1Z" fill="#CDA870" fill-opacity="0.1" mask="url(#path-2-inside-1_1863_23044)"/>
<path d="M19.2481 55.148C12.2821 55.148 6.07214 50.774 6.07214 36.086C6.07214 21.992 12.3361 15.89 19.6801 15.89C26.6461 15.89 32.9101 20.426 32.9101 35.06C32.9101 49.154 26.5921 55.148 19.2481 55.148ZM19.5181 54.446C23.9461 54.446 26.6461 49.37 26.6461 35.816C26.6461 21.452 23.6761 16.646 19.4101 16.646C15.0361 16.646 12.3361 21.776 12.3361 35.33C12.3361 49.64 15.2521 54.446 19.5181 54.446Z" fill="white" fill-opacity="0.25"/>
</g>
<mask id="mask1_1863_23044" style="mask-type:alpha" maskUnits="userSpaceOnUse" x="0" y="37" width="40" height="35">
<path d="M0 37H40V72H0V37Z" fill="#D9D9D9"/>
</mask>
<g mask="url(#mask1_1863_23044)">
<mask id="path-6-inside-2_1863_23044" fill="white">
<path d="M0 37H40V62C40 67.5228 35.5228 72 30 72H10C4.47715 72 0 67.5228 0 62V37Z"/>
</mask>
<path d="M0 37H40V62C40 67.5228 35.5228 72 30 72H10C4.47715 72 0 67.5228 0 62V37Z" fill="#CDA870" fill-opacity="0.1"/>
<path d="M0 37H40H0ZM41 62C41 68.0751 36.0751 73 30 73H10C3.92487 73 -1 68.0751 -1 62H1C1 66.9706 5.02944 71 10 71H30C34.9706 71 39 66.9706 39 62H41ZM10 73C3.92487 73 -1 68.0751 -1 62V37H1V62C1 66.9706 5.02944 71 10 71V73ZM41 37V62C41 68.0751 36.0751 73 30 73V71C34.9706 71 39 66.9706 39 62V37H41Z" fill="#CDA870" fill-opacity="0.1" mask="url(#path-6-inside-2_1863_23044)"/>
<path d="M19.2481 56.148C12.2821 56.148 6.07214 51.774 6.07214 37.086C6.07214 22.992 12.3361 16.89 19.6801 16.89C26.6461 16.89 32.9101 21.426 32.9101 36.06C32.9101 50.154 26.5921 56.148 19.2481 56.148ZM19.5181 55.446C23.9461 55.446 26.6461 50.37 26.6461 36.816C26.6461 22.452 23.6761 17.646 19.4101 17.646C15.0361 17.646 12.3361 22.776 12.3361 36.33C12.3361 50.64 15.2521 55.446 19.5181 55.446Z" fill="white" fill-opacity="0.25"/>
</g>
<mask id="mask2_1863_23044" style="mask-type:alpha" maskUnits="userSpaceOnUse" x="46" y="0" width="40" height="35">
<rect x="46" width="40" height="35" fill="#D9D9D9"/>
</mask>
<g mask="url(#mask2_1863_23044)">
<mask id="path-10-inside-3_1863_23044" fill="white">
<path d="M46 10C46 4.47715 50.4772 0 56 0H76C81.5228 0 86 4.47715 86 10V35H46V10Z"/>
</mask>
<path d="M46 10C46 4.47715 50.4772 0 56 0H76C81.5228 0 86 4.47715 86 10V35H46V10Z" fill="#CDA870" fill-opacity="0.1"/>
<path d="M45 10C45 3.92487 49.9249 -1 56 -1H76C82.0751 -1 87 3.92487 87 10H85C85 5.02944 80.9706 1 76 1H56C51.0294 1 47 5.02944 47 10H45ZM86 35H46H86ZM45 35V10C45 3.92487 49.9249 -1 56 -1V1C51.0294 1 47 5.02944 47 10V35H45ZM76 -1C82.0751 -1 87 3.92487 87 10V35H85V10C85 5.02944 80.9706 1 76 1V-1Z" fill="#CDA870" fill-opacity="0.1" mask="url(#path-10-inside-3_1863_23044)"/>
<path d="M81.2071 34.25L81.3151 34.304C78.2371 42.188 78.4531 45.158 79.8031 46.616L79.7491 46.724C78.6151 46.4 76.6711 46.346 74.6191 46.346H72.0811V47.804C72.0811 53.258 73.8631 53.906 79.2091 54.392V54.5C71.2711 54.338 65.0071 54.284 57.7171 54.5V54.392C65.3851 53.906 69.1111 53.312 69.1111 47.858V46.346H51.8851L51.8311 46.13L57.6631 35.222C62.4691 25.826 61.9291 19.184 51.3451 19.13L51.2911 19.022C62.0911 18.644 64.6291 17.888 63.9811 14.108L64.0891 14.054C66.5191 20.21 64.4131 25.772 58.8511 35.384L55.2871 41.486L69.1111 41.432V30.578C71.0011 30.2 71.6491 29.282 71.9731 25.61H72.0811V41.432H72.3511C76.7791 41.432 78.3991 40.406 81.2071 34.25Z" fill="white"/>
</g>
<mask id="mask3_1863_23044" style="mask-type:alpha" maskUnits="userSpaceOnUse" x="46" y="37" width="40" height="35">
<path d="M46 37H86V72H46V37Z" fill="#D9D9D9"/>
</mask>
<g mask="url(#mask3_1863_23044)">
<mask id="path-14-inside-4_1863_23044" fill="white">
<path d="M46 37H86V62C86 67.5228 81.5228 72 76 72H56C50.4772 72 46 67.5228 46 62V37Z"/>
</mask>
<path d="M46 37H86V62C86 67.5228 81.5228 72 76 72H56C50.4772 72 46 67.5228 46 62V37Z" fill="#CDA870" fill-opacity="0.1"/>
<path d="M46 37H86H46ZM87 62C87 68.0751 82.0751 73 76 73H56C49.9249 73 45 68.0751 45 62H47C47 66.9706 51.0294 71 56 71H76C80.9706 71 85 66.9706 85 62H87ZM56 73C49.9249 73 45 68.0751 45 62V37H47V62C47 66.9706 51.0294 71 56 71V73ZM87 37V62C87 68.0751 82.0751 73 76 73V71C80.9706 71 85 66.9706 85 62V37H87Z" fill="#CDA870" fill-opacity="0.1" mask="url(#path-14-inside-4_1863_23044)"/>
<path d="M81.2071 35.25L81.3151 35.304C78.2371 43.188 78.4531 46.158 79.8031 47.616L79.7491 47.724C78.6151 47.4 76.6711 47.346 74.6191 47.346H72.0811V48.804C72.0811 54.258 73.8631 54.906 79.2091 55.392V55.5C71.2711 55.338 65.0071 55.284 57.7171 55.5V55.392C65.3851 54.906 69.1111 54.312 69.1111 48.858V47.346H51.8851L51.8311 47.13L57.6631 36.222C62.4691 26.826 61.9291 20.184 51.3451 20.13L51.2911 20.022C62.0911 19.644 64.6291 18.888 63.9811 15.108L64.0891 15.054C66.5191 21.21 64.4131 26.772 58.8511 36.384L55.2871 42.486L69.1111 42.432V31.578C71.0011 31.2 71.6491 30.282 71.9731 26.61H72.0811V42.432H72.3511C76.7791 42.432 78.3991 41.406 81.2071 35.25Z" fill="white"/>
</g>
</svg>
