<svg width="86" height="72" viewBox="0 0 86 72" fill="none" xmlns="http://www.w3.org/2000/svg">
<mask id="mask0_1863_23040" style="mask-type:alpha" maskUnits="userSpaceOnUse" x="0" y="0" width="40" height="35">
<rect width="40" height="35" fill="#D9D9D9"/>
</mask>
<g mask="url(#mask0_1863_23040)">
<mask id="path-2-inside-1_1863_23040" fill="white">
<path d="M0 10C0 4.47715 4.47715 0 10 0H30C35.5228 0 40 4.47715 40 10V35H0V10Z"/>
</mask>
<path d="M0 10C0 4.47715 4.47715 0 10 0H30C35.5228 0 40 4.47715 40 10V35H0V10Z" fill="#CDA870" fill-opacity="0.1"/>
<path d="M-1 10C-1 3.92487 3.92487 -1 10 -1H30C36.0751 -1 41 3.92487 41 10H39C39 5.02944 34.9706 1 30 1H10C5.02944 1 1 5.02944 1 10H-1ZM40 35H0H40ZM-1 35V10C-1 3.92487 3.92487 -1 10 -1V1C5.02944 1 1 5.02944 1 10V35H-1ZM30 -1C36.0751 -1 41 3.92487 41 10V35H39V10C39 5.02944 34.9706 1 30 1V-1Z" fill="#CDA870" fill-opacity="0.1" mask="url(#path-2-inside-1_1863_23040)"/>
<path d="M19.2481 55.148C12.2821 55.148 6.07214 50.774 6.07214 36.086C6.07214 21.992 12.3361 15.89 19.6801 15.89C26.6461 15.89 32.9101 20.426 32.9101 35.06C32.9101 49.154 26.5921 55.148 19.2481 55.148ZM19.5181 54.446C23.9461 54.446 26.6461 49.37 26.6461 35.816C26.6461 21.452 23.6761 16.646 19.4101 16.646C15.0361 16.646 12.3361 21.776 12.3361 35.33C12.3361 49.64 15.2521 54.446 19.5181 54.446Z" fill="white" fill-opacity="0.25"/>
</g>
<mask id="mask1_1863_23040" style="mask-type:alpha" maskUnits="userSpaceOnUse" x="0" y="37" width="40" height="35">
<path d="M0 37H40V72H0V37Z" fill="#D9D9D9"/>
</mask>
<g mask="url(#mask1_1863_23040)">
<mask id="path-6-inside-2_1863_23040" fill="white">
<path d="M0 37H40V62C40 67.5228 35.5228 72 30 72H10C4.47715 72 0 67.5228 0 62V37Z"/>
</mask>
<path d="M0 37H40V62C40 67.5228 35.5228 72 30 72H10C4.47715 72 0 67.5228 0 62V37Z" fill="#CDA870" fill-opacity="0.1"/>
<path d="M0 37H40H0ZM41 62C41 68.0751 36.0751 73 30 73H10C3.92487 73 -1 68.0751 -1 62H1C1 66.9706 5.02944 71 10 71H30C34.9706 71 39 66.9706 39 62H41ZM10 73C3.92487 73 -1 68.0751 -1 62V37H1V62C1 66.9706 5.02944 71 10 71V73ZM41 37V62C41 68.0751 36.0751 73 30 73V71C34.9706 71 39 66.9706 39 62V37H41Z" fill="#CDA870" fill-opacity="0.1" mask="url(#path-6-inside-2_1863_23040)"/>
<path d="M19.2481 56.148C12.2821 56.148 6.07214 51.774 6.07214 37.086C6.07214 22.992 12.3361 16.89 19.6801 16.89C26.6461 16.89 32.9101 21.426 32.9101 36.06C32.9101 50.154 26.5921 56.148 19.2481 56.148ZM19.5181 55.446C23.9461 55.446 26.6461 50.37 26.6461 36.816C26.6461 22.452 23.6761 17.646 19.4101 17.646C15.0361 17.646 12.3361 22.776 12.3361 36.33C12.3361 50.64 15.2521 55.446 19.5181 55.446Z" fill="white" fill-opacity="0.25"/>
</g>
<mask id="mask2_1863_23040" style="mask-type:alpha" maskUnits="userSpaceOnUse" x="46" y="0" width="40" height="35">
<rect x="46" width="40" height="35" fill="#D9D9D9"/>
</mask>
<g mask="url(#mask2_1863_23040)">
<mask id="path-10-inside-3_1863_23040" fill="white">
<path d="M46 10C46 4.47715 50.4772 0 56 0H76C81.5228 0 86 4.47715 86 10V35H46V10Z"/>
</mask>
<path d="M46 10C46 4.47715 50.4772 0 56 0H76C81.5228 0 86 4.47715 86 10V35H46V10Z" fill="#CDA870" fill-opacity="0.1"/>
<path d="M45 10C45 3.92487 49.9249 -1 56 -1H76C82.0751 -1 87 3.92487 87 10H85C85 5.02944 80.9706 1 76 1H56C51.0294 1 47 5.02944 47 10H45ZM86 35H46H86ZM45 35V10C45 3.92487 49.9249 -1 56 -1V1C51.0294 1 47 5.02944 47 10V35H45ZM76 -1C82.0751 -1 87 3.92487 87 10V35H85V10C85 5.02944 80.9706 1 76 1V-1Z" fill="#CDA870" fill-opacity="0.1" mask="url(#path-10-inside-3_1863_23040)"/>
<path d="M58.9817 54.5V54.338C62.3837 53.906 63.3017 52.988 63.3017 47.912V25.34C63.3017 20.426 62.6537 18.968 58.3877 19.022V18.86C64.9757 18.266 68.1617 17.024 68.9177 14.972H69.0257V47.912C69.0257 53.042 69.9437 53.906 73.3997 54.338V54.5C67.8917 54.122 64.4357 54.122 58.9817 54.5Z" fill="white"/>
</g>
<mask id="mask3_1863_23040" style="mask-type:alpha" maskUnits="userSpaceOnUse" x="46" y="37" width="40" height="35">
<path d="M46 37H86V72H46V37Z" fill="#D9D9D9"/>
</mask>
<g mask="url(#mask3_1863_23040)">
<mask id="path-14-inside-4_1863_23040" fill="white">
<path d="M46 37H86V62C86 67.5228 81.5228 72 76 72H56C50.4772 72 46 67.5228 46 62V37Z"/>
</mask>
<path d="M46 37H86V62C86 67.5228 81.5228 72 76 72H56C50.4772 72 46 67.5228 46 62V37Z" fill="#CDA870" fill-opacity="0.1"/>
<path d="M46 37H86H46ZM87 62C87 68.0751 82.0751 73 76 73H56C49.9249 73 45 68.0751 45 62H47C47 66.9706 51.0294 71 56 71H76C80.9706 71 85 66.9706 85 62H87ZM56 73C49.9249 73 45 68.0751 45 62V37H47V62C47 66.9706 51.0294 71 56 71V73ZM87 37V62C87 68.0751 82.0751 73 76 73V71C80.9706 71 85 66.9706 85 62V37H87Z" fill="#CDA870" fill-opacity="0.1" mask="url(#path-14-inside-4_1863_23040)"/>
<path d="M58.9817 55.5V55.338C62.3837 54.906 63.3017 53.988 63.3017 48.912V26.34C63.3017 21.426 62.6537 19.968 58.3877 20.022V19.86C64.9757 19.266 68.1617 18.024 68.9177 15.972H69.0257V48.912C69.0257 54.042 69.9437 54.906 73.3997 55.338V55.5C67.8917 55.122 64.4357 55.122 58.9817 55.5Z" fill="white"/>
</g>
</svg>
