<svg width="86" height="72" viewBox="0 0 86 72" fill="none" xmlns="http://www.w3.org/2000/svg">
<mask id="mask0_1863_23094" style="mask-type:alpha" maskUnits="userSpaceOnUse" x="0" y="0" width="40" height="35">
<rect width="40" height="35" fill="#D9D9D9"/>
</mask>
<g mask="url(#mask0_1863_23094)">
<mask id="path-2-inside-1_1863_23094" fill="white">
<path d="M0 10C0 4.47715 4.47715 0 10 0H30C35.5228 0 40 4.47715 40 10V35H0V10Z"/>
</mask>
<path d="M0 10C0 4.47715 4.47715 0 10 0H30C35.5228 0 40 4.47715 40 10V35H0V10Z" fill="#CDA870" fill-opacity="0.1"/>
<path d="M-1 10C-1 3.92487 3.92487 -1 10 -1H30C36.0751 -1 41 3.92487 41 10H39C39 5.02944 34.9706 1 30 1H10C5.02944 1 1 5.02944 1 10H-1ZM40 35H0H40ZM-1 35V10C-1 3.92487 3.92487 -1 10 -1V1C5.02944 1 1 5.02944 1 10V35H-1ZM30 -1C36.0751 -1 41 3.92487 41 10V35H39V10C39 5.02944 34.9706 1 30 1V-1Z" fill="#CDA870" fill-opacity="0.1" mask="url(#path-2-inside-1_1863_23094)"/>
<path d="M31.8445 17.51L21.2605 40.46C17.3185 48.938 18.8845 52.502 25.2025 54.662L25.1485 54.77C18.7225 53.312 14.9965 53.528 13.9705 57.848H13.8625C14.2405 52.88 15.6445 49.802 20.0185 40.46L28.2805 22.208H20.2345C13.7545 22.208 10.6225 22.802 7.05848 31.226L6.89648 31.172C10.5145 21.938 10.1905 18.158 8.30048 16.16L8.40848 16.052C10.1905 17.186 15.0505 17.186 18.0205 17.186H31.7365L31.8445 17.51Z" fill="white"/>
</g>
<mask id="mask1_1863_23094" style="mask-type:alpha" maskUnits="userSpaceOnUse" x="0" y="37" width="40" height="35">
<path d="M0 37H40V72H0V37Z" fill="#D9D9D9"/>
</mask>
<g mask="url(#mask1_1863_23094)">
<mask id="path-6-inside-2_1863_23094" fill="white">
<path d="M0 37H40V62C40 67.5228 35.5228 72 30 72H10C4.47715 72 0 67.5228 0 62V37Z"/>
</mask>
<path d="M0 37H40V62C40 67.5228 35.5228 72 30 72H10C4.47715 72 0 67.5228 0 62V37Z" fill="#CDA870" fill-opacity="0.1"/>
<path d="M0 37H40H0ZM41 62C41 68.0751 36.0751 73 30 73H10C3.92487 73 -1 68.0751 -1 62H1C1 66.9706 5.02944 71 10 71H30C34.9706 71 39 66.9706 39 62H41ZM10 73C3.92487 73 -1 68.0751 -1 62V37H1V62C1 66.9706 5.02944 71 10 71V73ZM41 37V62C41 68.0751 36.0751 73 30 73V71C34.9706 71 39 66.9706 39 62V37H41Z" fill="#CDA870" fill-opacity="0.1" mask="url(#path-6-inside-2_1863_23094)"/>
<path d="M31.8445 18.51L21.2605 41.46C17.3185 49.938 18.8845 53.502 25.2025 55.662L25.1485 55.77C18.7225 54.312 14.9965 54.528 13.9705 58.848H13.8625C14.2405 53.88 15.6445 50.802 20.0185 41.46L28.2805 23.208H20.2345C13.7545 23.208 10.6225 23.802 7.05848 32.226L6.89648 32.172C10.5145 22.938 10.1905 19.158 8.30048 17.16L8.40848 17.052C10.1905 18.186 15.0505 18.186 18.0205 18.186H31.7365L31.8445 18.51Z" fill="white"/>
</g>
<mask id="mask2_1863_23094" style="mask-type:alpha" maskUnits="userSpaceOnUse" x="46" y="0" width="40" height="35">
<rect x="46" width="40" height="35" fill="#D9D9D9"/>
</mask>
<g mask="url(#mask2_1863_23094)">
<mask id="path-10-inside-3_1863_23094" fill="white">
<path d="M46 10C46 4.47715 50.4772 0 56 0H76C81.5228 0 86 4.47715 86 10V35H46V10Z"/>
</mask>
<path d="M46 10C46 4.47715 50.4772 0 56 0H76C81.5228 0 86 4.47715 86 10V35H46V10Z" fill="#CDA870" fill-opacity="0.1"/>
<path d="M45 10C45 3.92487 49.9249 -1 56 -1H76C82.0751 -1 87 3.92487 87 10H85C85 5.02944 80.9706 1 76 1H56C51.0294 1 47 5.02944 47 10H45ZM86 35H46H86ZM45 35V10C45 3.92487 49.9249 -1 56 -1V1C51.0294 1 47 5.02944 47 10V35H45ZM76 -1C82.0751 -1 87 3.92487 87 10V35H85V10C85 5.02944 80.9706 1 76 1V-1Z" fill="#CDA870" fill-opacity="0.1" mask="url(#path-10-inside-3_1863_23094)"/>
<path d="M78.6247 39.488L78.7867 39.542C74.5747 51.098 75.4387 53.798 77.4907 54.986L77.3827 55.094C74.5207 54.608 68.2567 54.5 65.3407 54.5H52.4347L52.3807 54.23L60.4267 45.914C66.6907 39.434 70.5787 33.224 70.5787 26.312C70.5787 21.668 68.9587 16.862 64.7467 16.862C60.5887 16.862 57.5647 20.858 54.8647 37.436H54.7567C56.4307 22.316 54.7567 19.508 50.9227 20.912L50.8687 20.804C56.0527 17.672 61.2367 15.89 66.0427 15.89C72.6307 15.89 76.6807 19.13 76.6807 24.53C76.6807 32.252 69.1207 39.65 61.6147 46.238L57.6727 49.748H64.3147C71.3887 49.748 74.3587 48.29 78.6247 39.488Z" fill="white"/>
</g>
<mask id="mask3_1863_23094" style="mask-type:alpha" maskUnits="userSpaceOnUse" x="46" y="37" width="40" height="35">
<path d="M46 37H86V72H46V37Z" fill="#D9D9D9"/>
</mask>
<g mask="url(#mask3_1863_23094)">
<mask id="path-14-inside-4_1863_23094" fill="white">
<path d="M46 37H86V62C86 67.5228 81.5228 72 76 72H56C50.4772 72 46 67.5228 46 62V37Z"/>
</mask>
<path d="M46 37H86V62C86 67.5228 81.5228 72 76 72H56C50.4772 72 46 67.5228 46 62V37Z" fill="#CDA870" fill-opacity="0.1"/>
<path d="M46 37H86H46ZM87 62C87 68.0751 82.0751 73 76 73H56C49.9249 73 45 68.0751 45 62H47C47 66.9706 51.0294 71 56 71H76C80.9706 71 85 66.9706 85 62H87ZM56 73C49.9249 73 45 68.0751 45 62V37H47V62C47 66.9706 51.0294 71 56 71V73ZM87 37V62C87 68.0751 82.0751 73 76 73V71C80.9706 71 85 66.9706 85 62V37H87Z" fill="#CDA870" fill-opacity="0.1" mask="url(#path-14-inside-4_1863_23094)"/>
<path d="M78.6247 40.488L78.7867 40.542C74.5747 52.098 75.4387 54.798 77.4907 55.986L77.3827 56.094C74.5207 55.608 68.2567 55.5 65.3407 55.5H52.4347L52.3807 55.23L60.4267 46.914C66.6907 40.434 70.5787 34.224 70.5787 27.312C70.5787 22.668 68.9587 17.862 64.7467 17.862C60.5887 17.862 57.5647 21.858 54.8647 38.436H54.7567C56.4307 23.316 54.7567 20.508 50.9227 21.912L50.8687 21.804C56.0527 18.672 61.2367 16.89 66.0427 16.89C72.6307 16.89 76.6807 20.13 76.6807 25.53C76.6807 33.252 69.1207 40.65 61.6147 47.238L57.6727 50.748H64.3147C71.3887 50.748 74.3587 49.29 78.6247 40.488Z" fill="white"/>
</g>
</svg>
