<svg width="270" height="31" viewBox="0 0 270 31" fill="none" xmlns="http://www.w3.org/2000/svg">
<path d="M70.2203 16.347L70.2623 16.368C68.3513 20.652 68.4773 22.101 69.7373 22.437V22.5H64.8023C61.7153 22.5 59.5313 22.353 56.9483 22.5V22.437C58.6703 22.206 59.2793 21.786 59.2793 19.644V10.572C59.2793 8.409 58.7333 7.905 56.9273 7.8V7.716H63.7313C65.8523 7.716 67.8893 7.653 68.8553 7.317L68.8973 7.38C68.1413 7.989 68.2043 9.837 68.9393 13.533L68.8763 13.554C67.8263 9.585 66.5663 8.01 63.0593 8.01H61.7993V14.73H62.8913C64.8023 14.73 65.6213 14.037 65.8943 11.874H65.9363C65.8103 14.415 65.9993 15.654 66.9863 18.636L66.9443 18.657C65.7473 15.654 64.8233 14.982 62.9123 14.982H61.7993V19.644C61.7993 21.765 62.2823 22.206 63.5633 22.206C65.3063 22.206 67.7633 21.303 70.2203 16.347ZM71.0518 22.5V22.437C72.3748 22.269 72.7528 21.912 72.7528 19.938V9.837C72.7528 8.199 72.3328 7.842 71.0518 7.758V7.695C73.1938 7.59 74.6638 7.191 74.9158 6.603L74.9788 6.624V19.938C74.9788 21.933 75.3148 22.269 76.6588 22.437V22.5C74.5168 22.353 73.1728 22.353 71.0518 22.5ZM80.1881 11.412H80.1251C80.1251 9.48 79.4111 8.808 77.3741 8.829V8.766C79.4111 8.766 80.1251 8.094 80.1251 6.162H80.1881C80.1881 8.094 80.8811 8.766 82.9181 8.766V8.829C80.8811 8.808 80.1881 9.48 80.1881 11.412ZM77.2691 22.5V22.437C78.5921 22.269 78.9491 21.912 78.9491 19.938V14.667C78.9491 13.029 78.5501 12.672 77.2691 12.588V12.525C79.4111 12.42 80.8811 12.021 81.1331 11.433L81.1751 11.454V19.938C81.1751 21.933 81.5321 22.269 82.8761 22.437V22.5C80.7341 22.353 79.3901 22.353 77.2691 22.5ZM93.479 16.641H93.542C92.681 20.421 92.723 21.954 93.458 22.437V22.5H84.113L84.071 22.311L90.959 12.357L89.027 12.378C86.318 12.399 85.562 13.47 84.596 18.216H84.533C85.1 14.352 85.079 12.21 84.26 11.811L84.281 11.769C85.289 12.042 86.465 12.126 88.04 12.126H93.521L93.563 12.315L86.717 22.248H88.46C90.539 22.248 92.093 22.227 93.479 16.641ZM103.998 15.024L104.019 19.518C104.019 21.282 104.208 21.828 105.741 21.849V21.912C103.893 22.038 102.192 22.416 101.982 22.941H101.94L101.814 19.014C101.331 21.576 99.7353 22.752 98.0343 22.752C96.7743 22.752 95.7243 22.08 95.7243 20.778C95.7243 18.489 98.7903 17.019 101.772 16.515V15.381C101.772 13.197 101.058 12.126 99.8193 12.126C98.4333 12.126 97.2993 13.512 97.1103 17.334H97.0473C97.0683 13.701 96.6063 12.945 95.2833 13.407L95.2623 13.365C96.7323 12.525 98.5803 11.874 100.533 11.874C102.99 11.874 103.998 12.819 103.998 15.024ZM99.3993 21.66C100.869 21.66 101.772 19.476 101.772 17.25V16.641C99.3783 17.145 97.9923 18.489 97.9923 19.98C97.9923 21.009 98.5593 21.66 99.3993 21.66ZM113.763 11.874C116.22 11.874 117.627 14.184 117.627 17.103C117.627 21.282 114.666 22.752 112.398 22.752C110.844 22.752 109.479 22.059 108.471 20.82C108.156 21.576 107.904 22.458 107.82 23.382L107.757 23.361V9.837C107.757 8.199 107.337 7.842 106.056 7.758V7.695C108.198 7.59 109.668 7.191 109.92 6.603L109.983 6.624V15.99C110.487 12.924 112.188 11.874 113.763 11.874ZM112.461 22.521C113.91 22.521 115.191 20.904 115.191 17.565C115.191 14.247 114.162 12.798 112.818 12.798C111.432 12.798 109.983 14.436 109.983 17.922V18.51C109.983 21.345 111.264 22.521 112.461 22.521ZM128.993 17.88L129.035 17.901C128.615 21.135 126.578 22.752 124.268 22.752C122.252 22.752 119.627 21.471 119.627 17.586C119.627 13.869 122.021 11.874 124.583 11.874C126.746 11.874 128.363 13.344 128.657 15.969H121.391V16.116C121.391 18.993 123.05 21.009 125.402 21.009C127.124 21.009 128.615 19.938 128.993 17.88ZM124.121 12.168C122.588 12.168 121.517 13.617 121.391 15.738H125.444C126.263 15.738 126.536 15.549 126.536 14.898C126.536 13.722 125.738 12.168 124.121 12.168ZM136.719 19.056H136.761C136.299 21.933 134.934 22.752 133.716 22.752C132.456 22.752 131.322 21.912 131.322 19.413V12.357H129.81V12.294C131.595 12.105 133.422 10.278 133.485 7.506H133.548V12.126H136.236V12.378H133.548V19.056C133.548 20.925 134.136 21.408 134.829 21.408C135.48 21.408 136.257 20.967 136.719 19.056ZM147.42 15.045V19.938C147.42 21.933 147.777 22.269 149.1 22.437V22.5C146.958 22.353 145.614 22.353 143.493 22.5V22.437C144.816 22.269 145.194 21.912 145.194 19.938V15.339C145.194 13.47 144.585 12.798 143.787 12.798C142.548 12.798 140.952 14.415 140.952 17.817V19.938C140.952 21.933 141.288 22.269 142.632 22.437V22.5C140.49 22.353 139.146 22.353 137.025 22.5V22.437C138.348 22.269 138.726 21.912 138.726 19.938V9.837C138.726 8.199 138.306 7.842 137.025 7.758V7.695C139.167 7.59 140.637 7.191 140.889 6.603L140.952 6.624V15.969C141.498 13.302 143.136 11.874 144.921 11.874C146.412 11.874 147.42 12.819 147.42 15.045ZM162.036 22.752C159.579 22.752 157.185 21.723 155.862 20.904L155.883 20.841C157.437 21.471 157.626 20.274 156.639 15.024H156.702C157.878 19.959 160.272 22.374 162.939 22.374C164.703 22.374 165.879 21.324 165.879 19.854C165.879 18.048 164.157 16.83 161.301 15.654C158.592 14.541 157.08 13.407 157.08 11.349C157.08 8.871 159.453 7.464 162.246 7.464C163.779 7.464 165.711 7.842 167.79 9.249L167.748 9.312C166.152 8.619 165.984 10.341 167.349 14.898H167.286C165.795 10.362 163.926 7.821 161.364 7.821C159.915 7.821 158.739 8.703 158.739 10.047C158.739 11.643 160.188 12.525 162.666 13.533C165.9 14.877 167.517 16.2 167.517 18.51C167.517 21.051 165.396 22.752 162.036 22.752ZM185.67 15.045V19.938C185.67 21.933 186.027 22.269 187.35 22.437V22.5C185.208 22.353 183.864 22.353 181.743 22.5V22.437C183.066 22.269 183.444 21.912 183.444 19.938V15.339C183.444 13.47 182.898 12.798 182.121 12.798C180.924 12.798 179.37 14.436 179.37 17.817V19.938C179.37 21.933 179.727 22.269 181.071 22.437V22.5C178.908 22.353 177.564 22.353 175.464 22.5V22.437C176.787 22.269 177.144 21.912 177.144 19.938V15.339C177.144 13.47 176.598 12.798 175.821 12.798C174.645 12.798 173.091 14.415 173.091 17.817V19.938C173.091 21.933 173.448 22.269 174.771 22.437V22.5C172.629 22.353 171.285 22.353 169.164 22.5V22.437C170.487 22.269 170.865 21.912 170.865 19.938V14.499C170.865 13.239 170.466 13.008 169.143 12.924V12.861C171.222 12.735 172.692 12.336 172.944 11.706L172.986 11.727L173.091 15.276V15.969C173.637 13.302 175.233 11.874 176.997 11.874C178.404 11.874 179.37 12.819 179.37 15.045V15.969C179.916 13.302 181.533 11.874 183.276 11.874C184.704 11.874 185.67 12.819 185.67 15.045ZM190.807 11.412H190.744C190.744 9.48 190.03 8.808 187.993 8.829V8.766C190.03 8.766 190.744 8.094 190.744 6.162H190.807C190.807 8.094 191.5 8.766 193.537 8.766V8.829C191.5 8.808 190.807 9.48 190.807 11.412ZM187.888 22.5V22.437C189.211 22.269 189.568 21.912 189.568 19.938V14.667C189.568 13.029 189.169 12.672 187.888 12.588V12.525C190.03 12.42 191.5 12.021 191.752 11.433L191.794 11.454V19.938C191.794 21.933 192.151 22.269 193.495 22.437V22.5C191.353 22.353 190.009 22.353 187.888 22.5ZM200.99 19.056H201.032C200.57 21.933 199.205 22.752 197.987 22.752C196.727 22.752 195.593 21.912 195.593 19.413V12.357H194.081V12.294C195.866 12.105 197.693 10.278 197.756 7.506H197.819V12.126H200.507V12.378H197.819V19.056C197.819 20.925 198.407 21.408 199.1 21.408C199.751 21.408 200.528 20.967 200.99 19.056ZM211.692 15.045V19.938C211.692 21.933 212.049 22.269 213.372 22.437V22.5C211.23 22.353 209.886 22.353 207.765 22.5V22.437C209.088 22.269 209.466 21.912 209.466 19.938V15.339C209.466 13.47 208.857 12.798 208.059 12.798C206.82 12.798 205.224 14.415 205.224 17.817V19.938C205.224 21.933 205.56 22.269 206.904 22.437V22.5C204.762 22.353 203.418 22.353 201.297 22.5V22.437C202.62 22.269 202.998 21.912 202.998 19.938V9.837C202.998 8.199 202.578 7.842 201.297 7.758V7.695C203.439 7.59 204.909 7.191 205.161 6.603L205.224 6.624V15.969C205.77 13.302 207.408 11.874 209.193 11.874C210.684 11.874 211.692 12.819 211.692 15.045Z" fill="#164D59"/>
</svg>
