<svg width="35" height="20" viewBox="0 0 35 20" fill="none" xmlns="http://www.w3.org/2000/svg">
<path d="M26.9028 12.2607L23.6977 15.5478C23.4547 15.7452 23.2543 15.9899 23.1086 16.267C22.9629 16.5441 22.875 16.8479 22.8501 17.16C22.8252 17.472 22.8639 17.7859 22.9638 18.0826C23.0637 18.3793 23.2228 18.6526 23.4315 18.8861C23.733 19.239 24.1623 19.4577 24.6251 19.4942C25.0879 19.5307 25.5462 19.3819 25.8993 19.0806C26.1583 18.8568 26.3185 18.5399 26.3454 18.1987C26.3722 17.8575 26.2634 17.5195 26.0427 17.2579C25.8778 17.0645 25.6432 16.9442 25.39 16.9231C25.1368 16.902 24.8855 16.9818 24.691 17.1453" stroke="#9799AC" stroke-opacity="0.5" stroke-linecap="round" stroke-linejoin="round"/>
<path d="M26.9028 7.74484L23.6977 4.45777C23.4547 4.26035 23.2543 4.01569 23.1086 3.73858C22.9629 3.46148 22.875 3.1577 22.8501 2.84562C22.8252 2.53355 22.8639 2.21966 22.9638 1.92297C23.0637 1.62627 23.2228 1.35294 23.4314 1.11951C23.7316 0.765095 24.1602 0.544411 24.623 0.506003C25.0858 0.467595 25.5449 0.614605 25.8993 0.914702C26.1589 1.14032 26.3194 1.45894 26.3463 1.80184C26.3731 2.14474 26.264 2.48444 26.0427 2.74768C25.9611 2.84387 25.8613 2.9229 25.7489 2.98019C25.6366 3.03748 25.514 3.07189 25.3882 3.08141C25.2625 3.09094 25.1361 3.0754 25.0164 3.03569C24.8967 2.99598 24.7861 2.93288 24.691 2.85008" stroke="#9799AC" stroke-opacity="0.5" stroke-linecap="round" stroke-linejoin="round"/>
<path d="M27.6504 10.0184L30.8248 7.3457L33.9992 10.0184L30.8248 12.691L27.6504 10.0184Z" stroke="#9799AC" stroke-opacity="0.5" stroke-linecap="round" stroke-linejoin="round"/>
<path d="M29.0542 6.03516L24.3232 10.0185L29.0542 14.0122" stroke="#9799AC" stroke-opacity="0.5" stroke-linecap="round" stroke-linejoin="round"/>
<path d="M19.213 12L17.583 10L19.213 8L20.843 10L19.213 12Z" fill="#9799AC" fill-opacity="0.5"/>
<path d="M15.583 10L0.583008 10" stroke="#9799AC" stroke-opacity="0.5" stroke-linecap="round" stroke-linejoin="round"/>
</svg>
