<svg xmlns="http://www.w3.org/2000/svg" width="25" height="24" viewBox="0 0 25 24" fill="none">
<path d="M18.9699 16.83L19.3599 19.99C19.4599 20.82 18.5699 21.4 17.8599 20.97L13.6699 18.48C13.2099 18.48 12.7599 18.45 12.3199 18.39C13.0599 17.52 13.4999 16.42 13.4999 15.23C13.4999 12.39 11.0399 10.09 7.99984 10.09C6.83984 10.09 5.76984 10.42 4.87984 11C4.84984 10.75 4.83984 10.5 4.83984 10.24C4.83984 5.68999 8.78984 2 13.6699 2C18.5499 2 22.4999 5.68999 22.4999 10.24C22.4999 12.94 21.1099 15.33 18.9699 16.83Z" stroke="#272727" stroke-width="1.7" stroke-linecap="round" stroke-linejoin="round"/>
<path d="M13.5 15.2297C13.5 16.4197 13.06 17.5198 12.32 18.3898C11.33 19.5898 9.76 20.3597 8 20.3597L5.39 21.9097C4.95 22.1797 4.39 21.8097 4.45 21.2997L4.7 19.3298C3.36 18.3998 2.5 16.9097 2.5 15.2297C2.5 13.4697 3.44 11.9198 4.88 10.9998C5.77 10.4198 6.84 10.0898 8 10.0898C11.04 10.0898 13.5 12.3897 13.5 15.2297Z" stroke="#272727" stroke-width="1.7" stroke-linecap="round" stroke-linejoin="round"/>
</svg>