<svg width="62" height="16" viewBox="0 0 62 16" fill="none" xmlns="http://www.w3.org/2000/svg">
<path d="M11.548 1.522C11.416 1.858 11.254 2.026 11.062 2.026C11.002 2.026 10.792 1.978 10.432 1.882C10.072 1.774 9.862 1.72 9.802 1.72C9.742 1.72 9.706 1.75 9.694 1.81C9.682 1.858 9.646 1.882 9.586 1.882C9.538 1.882 9.448 1.864 9.316 1.828C9.136 1.78 8.944 1.744 8.74 1.72C7.624 4.204 6.844 6.028 6.4 7.192C5.668 9.124 5.08 11.092 4.636 13.096C4.828 13.288 5.008 13.384 5.176 13.384C5.14 13.384 5.74 13.294 6.976 13.114C8.212 12.934 8.962 12.844 9.226 12.844C9.358 12.844 9.478 12.904 9.586 13.024V13.276C9.538 13.312 9.4 13.456 9.172 13.708C9.052 13.852 8.902 13.924 8.722 13.924C8.674 13.924 8.506 13.948 8.218 13.996C7.942 14.044 7.78 14.068 7.732 14.068C7.672 14.068 7.642 14.056 7.642 14.032C7.642 14.008 7.612 13.996 7.552 13.996C7.492 13.996 7.366 14.05 7.174 14.158C6.994 14.254 6.88 14.302 6.832 14.302C6.784 14.302 6.724 14.29 6.652 14.266C6.592 14.242 6.532 14.23 6.472 14.23C6.16 14.23 5.452 14.362 4.348 14.626C3.328 14.866 2.722 15.028 2.53 15.112C2.422 15.16 2.242 15.292 1.99 15.508C1.75 15.736 1.606 15.85 1.558 15.85C0.982 15.85 0.694 15.592 0.694 15.076C0.694 14.716 1.06 14.356 1.792 13.996C2.404 13.684 2.842 13.528 3.106 13.528C3.166 13.528 3.19 13.546 3.178 13.582C3.166 13.606 3.19 13.618 3.25 13.618C3.346 13.618 3.496 13.228 3.7 12.448C3.964 11.476 4.126 10.918 4.186 10.774C4.186 10.666 4.204 10.522 4.24 10.342C4.372 10.102 4.546 9.73 4.762 9.226C4.762 9.094 4.774 8.926 4.798 8.722C6.382 4.678 7.174 2.536 7.174 2.296V1.936L7.048 1.792C6.436 1.756 5.86 1.876 5.32 2.152C4.96 2.344 4.612 2.62 4.276 2.98C3.976 3.28 3.82 3.43 3.808 3.43C3.472 3.43 3.304 3.172 3.304 2.656C3.304 1.216 4.966 0.495999 8.29 0.495999C8.35 0.495999 8.572 0.531999 8.956 0.604C9.412 0.699999 9.712 0.759999 9.856 0.784C10.072 0.772 10.354 0.784 10.702 0.819999C11.014 0.927999 11.296 1.162 11.548 1.522ZM17.5361 8.254C17.5121 8.29 17.5181 8.338 17.5541 8.398C17.5901 8.458 17.6081 8.5 17.6081 8.524C17.6081 8.608 17.5361 8.71 17.3921 8.83C16.2281 9.058 15.3581 9.292 14.7821 9.532C14.3501 9.712 13.9121 9.946 13.4681 10.234C13.4801 10.402 13.4201 10.672 13.2881 11.044C13.1561 11.404 13.0901 11.668 13.0901 11.836C13.0901 11.908 13.0961 12.028 13.1081 12.196C13.1321 12.352 13.1501 12.46 13.1621 12.52C13.1621 12.688 13.0601 13.144 12.8561 13.888C12.6161 14.752 12.3941 15.184 12.1901 15.184C11.9741 15.184 11.7581 14.974 11.5421 14.554C11.3741 14.206 11.2901 13.942 11.2901 13.762C11.2901 13.702 11.4161 13.276 11.6681 12.484C11.9321 11.68 12.0641 11.242 12.0641 11.17C12.0641 11.11 12.0221 11.014 11.9381 10.882C11.8541 10.75 11.8061 10.66 11.7941 10.612C11.6861 10.252 11.6321 9.94 11.6321 9.676C11.6321 9.592 11.7281 9.436 11.9201 9.208C12.1241 8.98 12.2561 8.866 12.3161 8.866C12.3881 8.866 12.4481 8.86 12.4961 8.848C12.5441 8.836 12.5981 8.83 12.6581 8.83C12.7781 8.83 13.0181 8.338 13.3781 7.354C13.5581 6.838 13.7381 6.328 13.9181 5.824C14.2541 5.056 14.6801 3.928 15.1961 2.44C15.3161 2.26 15.4241 2.152 15.5201 2.116C15.6281 2.08 15.7001 2.032 15.7361 1.972H16.0601C16.0601 2.032 16.1081 2.182 16.2041 2.422C16.3001 2.662 16.3481 2.872 16.3481 3.052C16.3481 3.376 16.0241 4.204 15.3761 5.536C14.6561 7.048 14.2301 8.038 14.0981 8.506L14.2061 8.632C14.6381 8.524 15.1001 8.452 15.5921 8.416C16.2401 8.368 16.8881 8.314 17.5361 8.254ZM19.7719 1.846C19.6639 2.266 19.5259 2.722 19.3579 3.214C19.1899 3.706 19.0039 4.198 18.7999 4.69C18.6079 5.17 18.4159 5.626 18.2239 6.058H17.0539C17.1379 5.722 17.2219 5.362 17.3059 4.978C17.4019 4.594 17.4859 4.21 17.5579 3.826C17.6419 3.43 17.7139 3.046 17.7739 2.674C17.8459 2.302 17.9059 1.96 17.9539 1.648H19.6459L19.7719 1.846ZM26.1404 8.362C26.1404 8.422 26.0984 8.512 26.0144 8.632C25.9424 8.74 25.9004 8.83 25.8884 8.902C25.8284 8.878 25.6904 8.794 25.4744 8.65C25.3784 8.59 25.2584 8.35 25.1144 7.93C25.0664 7.846 24.9704 7.798 24.8264 7.786C24.4784 7.75 24.2504 7.888 24.1424 8.2C24.1304 8.236 24.1004 8.482 24.0524 8.938C24.0404 9.058 24.1424 9.682 24.3584 10.81C24.5744 11.938 24.6584 12.754 24.6104 13.258C24.5504 13.834 24.3164 14.356 23.9084 14.824C23.3924 15.4 22.7504 15.688 21.9824 15.688C21.5504 15.688 21.1964 15.574 20.9204 15.346C20.6444 15.118 20.5064 14.806 20.5064 14.41C20.5064 14.254 20.5304 14.092 20.5784 13.924C20.7344 13.384 20.9624 12.994 21.2624 12.754C21.4544 12.634 21.6464 12.52 21.8384 12.412C21.9584 12.412 22.1024 12.418 22.2704 12.43C22.1504 12.67 22.0304 12.91 21.9104 13.15C21.7064 13.57 21.6044 13.888 21.6044 14.104C21.6044 14.38 21.7784 14.518 22.1264 14.518C22.4864 14.518 22.8164 14.308 23.1164 13.888C23.4284 13.468 23.5964 13.03 23.6204 12.574C23.6324 12.502 23.5244 11.914 23.2964 10.81C23.0564 9.646 22.9364 9.058 22.9364 9.046C22.9244 8.938 22.9184 8.824 22.9184 8.704C22.9184 8.104 23.0864 7.558 23.4224 7.066C23.7584 6.562 24.1724 6.316 24.6644 6.328C25.1564 6.328 25.5464 6.58 25.8344 7.084C26.0864 7.504 26.1884 7.93 26.1404 8.362ZM45.4337 1.666C45.4337 1.822 45.2117 1.93 44.7677 1.99C44.6957 2.002 44.5157 2.02 44.2277 2.044C43.9397 2.068 43.7657 2.08 43.7057 2.08H41.4737C41.2697 2.08 40.9277 2.116 40.4477 2.188C39.7877 2.296 39.3197 2.422 39.0437 2.566C38.6957 2.758 38.3237 3.28 37.9277 4.132C37.3757 5.332 37.0937 5.944 37.0817 5.968C36.8057 6.424 36.5717 6.928 36.3797 7.48C36.3437 7.516 36.3857 7.534 36.5057 7.534C36.5537 7.534 36.7457 7.456 37.0817 7.3C37.4177 7.132 37.6577 7.03 37.8017 6.994C39.1337 6.718 40.0877 6.556 40.6637 6.508C41.1077 6.484 41.5577 6.46 42.0137 6.436C42.0857 6.484 42.1577 6.538 42.2297 6.598C42.3017 6.646 42.3377 6.712 42.3377 6.796C42.3377 6.868 42.3017 6.946 42.2297 7.03C42.1697 7.102 42.1397 7.162 42.1397 7.21C40.0397 7.57 38.6417 7.876 37.9457 8.128C36.3617 8.704 35.3957 9.556 35.0477 10.684C34.8797 11.056 34.7117 11.428 34.5437 11.8C34.3037 12.34 34.1837 12.886 34.1837 13.438C34.1837 13.474 34.2377 13.57 34.3457 13.726C34.4537 13.87 34.5077 14.032 34.5077 14.212C34.5077 14.416 34.4777 14.578 34.4177 14.698C34.3577 14.698 34.2437 14.71 34.0757 14.734C33.9197 14.77 33.8057 14.788 33.7337 14.788C33.5057 14.788 33.3137 14.638 33.1577 14.338C33.0257 14.11 32.9597 13.894 32.9597 13.69C32.9597 13.618 32.9957 13.546 33.0677 13.474C33.1397 13.39 33.1757 13.324 33.1757 13.276C33.1757 13.252 33.1637 13.126 33.1397 12.898C33.1157 12.742 33.1217 12.622 33.1577 12.538C33.4337 11.89 33.7937 10.912 34.2377 9.604C34.2617 9.532 34.2437 9.4 34.1837 9.208C34.1357 9.004 34.1297 8.86 34.1657 8.776C34.2017 8.656 34.2977 8.542 34.4537 8.434C34.6097 8.326 34.7297 8.194 34.8137 8.038C36.3017 5.134 37.0457 3.592 37.0457 3.412V3.196C37.0217 3.16 36.9497 3.16 36.8297 3.196C36.6257 3.256 36.5237 3.286 36.5237 3.286C36.1037 3.358 35.6597 3.556 35.1917 3.88C34.7237 4.204 34.4897 4.444 34.4897 4.6C34.4897 4.624 34.4957 4.642 34.5077 4.654C34.7237 4.978 34.8317 5.206 34.8317 5.338C34.8317 5.47 34.7417 5.632 34.5617 5.824C34.2497 5.656 33.9377 5.482 33.6257 5.302C33.0737 4.966 32.7977 4.678 32.7977 4.438C32.7977 4.342 32.8937 4.15 33.0857 3.862C33.2777 3.574 33.4337 3.4 33.5537 3.34C34.0337 3.088 34.7717 2.758 35.7677 2.35C36.1997 2.242 36.6317 2.134 37.0637 2.026C37.5797 1.882 37.8917 1.672 37.9997 1.396C38.0837 1.42 38.4257 1.432 39.0257 1.432C39.0977 1.432 39.6977 1.384 40.8257 1.288C41.9537 1.18 42.5537 1.126 42.6257 1.126C42.9137 1.126 43.3997 1.168 44.0837 1.252C44.7797 1.324 45.1757 1.39 45.2717 1.45C45.3797 1.51 45.4337 1.582 45.4337 1.666ZM47.7866 9.55C47.7866 9.79 47.7266 10.054 47.6066 10.342C47.4626 10.666 47.2946 10.87 47.1026 10.954C46.9586 10.798 46.8806 10.654 46.8686 10.522C46.8566 10.39 46.8446 10.258 46.8326 10.126C46.8086 10.03 46.8206 9.88 46.8686 9.676C46.9166 9.46 46.9406 9.316 46.9406 9.244C46.9406 8.98 46.8266 8.848 46.5986 8.848C46.2266 8.848 45.7226 9.31 45.0866 10.234C44.4506 11.146 43.9706 12.118 43.6466 13.15C43.5866 13.486 43.5266 13.822 43.4666 14.158C43.3706 14.578 43.2206 14.872 43.0166 15.04C42.8726 14.968 42.7106 14.854 42.5306 14.698C42.2666 14.458 42.1346 14.254 42.1346 14.086C42.1346 14.014 42.2126 13.684 42.3686 13.096C42.6206 12.328 42.9206 11.38 43.2686 10.252C43.4126 9.628 43.5206 9.226 43.5926 9.046C43.7246 8.686 43.9106 8.404 44.1506 8.2C44.2946 8.2 44.4026 8.29 44.4746 8.47C44.5586 8.722 44.6186 8.866 44.6546 8.902C45.0026 8.59 45.3566 8.278 45.7166 7.966C46.1846 7.606 46.6166 7.426 47.0126 7.426C47.2766 7.426 47.4686 7.558 47.5886 7.822C47.7206 8.146 47.7866 8.722 47.7866 9.55ZM54.5053 8.884C54.5053 9.568 53.9353 10.396 52.7953 11.368C51.6553 12.34 50.6293 12.856 49.7173 12.916C49.7533 13.312 49.9513 13.648 50.3113 13.924C50.5993 14.14 50.8933 14.248 51.1933 14.248C51.5293 14.248 52.0513 14.104 52.7593 13.816C53.5633 13.48 53.9653 13.306 53.9653 13.294C54.1333 13.258 54.2833 13.306 54.4153 13.438C54.2113 13.726 53.6893 14.098 52.8493 14.554C52.0093 15.022 51.3853 15.256 50.9773 15.256C50.2693 15.256 49.6933 14.992 49.2493 14.464C48.8653 13.996 48.6673 13.45 48.6553 12.826C48.6313 11.866 49.1593 10.768 50.2393 9.532C51.3193 8.296 52.3453 7.678 53.3173 7.678C53.5813 7.678 53.8453 7.81 54.1093 8.074C54.3733 8.338 54.5053 8.608 54.5053 8.884ZM53.2993 9.154C53.2033 9.058 53.1193 9.01 53.0473 9.01C52.5313 9.01 51.9313 9.34 51.2473 10C50.6713 10.576 50.2873 11.104 50.0953 11.584C50.4553 11.584 50.7973 11.494 51.1213 11.314C51.2773 11.23 51.6013 11.008 52.0933 10.648C52.5973 10.276 52.9993 9.778 53.2993 9.154ZM61.5014 8.884C61.5014 9.568 60.9314 10.396 59.7914 11.368C58.6514 12.34 57.6254 12.856 56.7134 12.916C56.7494 13.312 56.9474 13.648 57.3074 13.924C57.5954 14.14 57.8894 14.248 58.1894 14.248C58.5254 14.248 59.0474 14.104 59.7554 13.816C60.5594 13.48 60.9614 13.306 60.9614 13.294C61.1294 13.258 61.2794 13.306 61.4114 13.438C61.2074 13.726 60.6854 14.098 59.8454 14.554C59.0054 15.022 58.3814 15.256 57.9734 15.256C57.2654 15.256 56.6894 14.992 56.2454 14.464C55.8614 13.996 55.6634 13.45 55.6514 12.826C55.6274 11.866 56.1554 10.768 57.2354 9.532C58.3154 8.296 59.3414 7.678 60.3134 7.678C60.5774 7.678 60.8414 7.81 61.1054 8.074C61.3694 8.338 61.5014 8.608 61.5014 8.884ZM60.2954 9.154C60.1994 9.058 60.1154 9.01 60.0434 9.01C59.5274 9.01 58.9274 9.34 58.2434 10C57.6674 10.576 57.2834 11.104 57.0914 11.584C57.4514 11.584 57.7934 11.494 58.1174 11.314C58.2734 11.23 58.5974 11.008 59.0894 10.648C59.5934 10.276 59.9954 9.778 60.2954 9.154Z" fill="#CDA870" fill-opacity="0.75"/>
</svg>
