<svg width="270" height="31" viewBox="0 0 270 31" fill="none" xmlns="http://www.w3.org/2000/svg">
<path d="M75.3627 22.752C74.1447 22.752 72.5487 22.437 70.7637 21.282L70.8057 21.24C72.2757 21.87 72.4437 20.337 71.5197 16.263L71.5827 16.242C72.8427 20.904 74.2707 22.458 75.6987 22.458C77.0217 22.458 77.4207 21.177 77.4207 18.72V10.656C77.4207 8.661 76.9587 8.094 75.1947 7.779V7.716C78.1347 7.884 79.2057 7.884 82.1667 7.716V7.779C80.3817 8.094 79.9407 8.682 79.9407 10.656V18.279C79.9407 21.66 77.7567 22.752 75.3627 22.752ZM91.5911 15.024L91.6121 19.518C91.6121 21.282 91.8011 21.828 93.3341 21.849V21.912C91.4861 22.038 89.7851 22.416 89.5751 22.941H89.5331L89.4071 19.014C88.9241 21.576 87.3281 22.752 85.6271 22.752C84.3671 22.752 83.3171 22.08 83.3171 20.778C83.3171 18.489 86.3831 17.019 89.3651 16.515V15.381C89.3651 13.197 88.6511 12.126 87.4121 12.126C86.0261 12.126 84.8921 13.512 84.7031 17.334H84.6401C84.6611 13.701 84.1991 12.945 82.8761 13.407L82.8551 13.365C84.3251 12.525 86.1731 11.874 88.1261 11.874C90.5831 11.874 91.5911 12.819 91.5911 15.024ZM86.9921 21.66C88.4621 21.66 89.3651 19.476 89.3651 17.25V16.641C86.9711 17.145 85.5851 18.489 85.5851 19.98C85.5851 21.009 86.1521 21.66 86.9921 21.66ZM98.8569 22.752C96.8199 22.752 94.2999 21.429 94.2999 17.565C94.2999 14.1 96.3999 11.874 99.3609 11.874C100.6 11.874 102.007 12.252 103.099 13.05L103.078 13.071C101.944 12.609 101.776 13.89 102.322 16.956L102.28 16.977C101.545 13.932 100.264 12.21 98.6469 12.21C97.0929 12.21 96.1059 13.785 96.1059 15.99C96.1059 18.846 97.6599 21.009 99.9699 21.009C101.461 21.009 102.763 20.148 103.288 18.405H103.33C102.763 21.345 100.957 22.752 98.8569 22.752ZM109.556 22.752C106.91 22.752 104.369 21.072 104.369 17.46C104.369 13.911 106.931 11.874 109.745 11.874C112.412 11.874 114.932 13.554 114.932 17.166C114.932 20.715 112.37 22.752 109.556 22.752ZM109.703 22.5C111.32 22.5 112.454 20.799 112.454 17.46C112.454 13.869 111.236 12.126 109.577 12.126C107.981 12.126 106.847 13.827 106.847 17.166C106.847 20.757 108.065 22.5 109.703 22.5ZM123.545 11.874C126.002 11.874 127.409 14.184 127.409 17.103C127.409 21.282 124.448 22.752 122.18 22.752C120.626 22.752 119.261 22.059 118.253 20.82C117.938 21.576 117.686 22.458 117.602 23.382L117.539 23.361V9.837C117.539 8.199 117.119 7.842 115.838 7.758V7.695C117.98 7.59 119.45 7.191 119.702 6.603L119.765 6.624V15.99C120.269 12.924 121.97 11.874 123.545 11.874ZM122.243 22.521C123.692 22.521 124.973 20.904 124.973 17.565C124.973 14.247 123.944 12.798 122.6 12.798C121.214 12.798 119.765 14.436 119.765 17.922V18.51C119.765 21.345 121.046 22.521 122.243 22.521ZM142.021 7.674C147.082 7.674 150.043 10.383 150.043 14.793C150.043 19.497 147.145 22.626 142.294 22.626C140.488 22.626 137.989 22.353 134.755 22.5V22.437C136.477 22.29 137.086 21.723 137.086 19.644V10.572C137.086 8.619 136.477 8.01 134.734 7.779V7.716C137.863 7.884 140.467 7.674 142.021 7.674ZM142.357 22.332C145.696 22.332 147.292 19.875 147.292 15.318C147.292 10.677 145.276 7.968 141.538 7.968C141.118 7.968 140.32 7.989 139.606 8.031V19.644C139.606 21.912 140.677 22.332 142.357 22.332ZM160.456 15.024L160.477 19.518C160.477 21.282 160.666 21.828 162.199 21.849V21.912C160.351 22.038 158.65 22.416 158.44 22.941H158.398L158.272 19.014C157.789 21.576 156.193 22.752 154.492 22.752C153.232 22.752 152.182 22.08 152.182 20.778C152.182 18.489 155.248 17.019 158.23 16.515V15.381C158.23 13.197 157.516 12.126 156.277 12.126C154.891 12.126 153.757 13.512 153.568 17.334H153.505C153.526 13.701 153.064 12.945 151.741 13.407L151.72 13.365C153.19 12.525 155.038 11.874 156.991 11.874C159.448 11.874 160.456 12.819 160.456 15.024ZM155.857 21.66C157.327 21.66 158.23 19.476 158.23 17.25V16.641C155.836 17.145 154.45 18.489 154.45 19.98C154.45 21.009 155.017 21.66 155.857 21.66ZM167.478 12.189V12.126C169.494 12.21 171.174 12.21 172.833 12.126V12.189C172.077 12.357 171.489 12.798 170.334 15.528L168.402 20.253L167.352 22.815H167.184L163.719 14.772C162.963 13.029 162.417 12.42 161.577 12.273V12.21C163.11 12.273 164.916 12.126 165.399 11.685L165.441 11.727C165.21 12.147 165.525 13.26 166.113 14.646L168.297 20.001L169.977 15.738C170.88 13.512 170.124 12.336 167.478 12.189ZM175.631 11.412H175.568C175.568 9.48 174.854 8.808 172.817 8.829V8.766C174.854 8.766 175.568 8.094 175.568 6.162H175.631C175.631 8.094 176.324 8.766 178.361 8.766V8.829C176.324 8.808 175.631 9.48 175.631 11.412ZM172.712 22.5V22.437C174.035 22.269 174.392 21.912 174.392 19.938V14.667C174.392 13.029 173.993 12.672 172.712 12.588V12.525C174.854 12.42 176.324 12.021 176.576 11.433L176.618 11.454V19.938C176.618 21.933 176.975 22.269 178.319 22.437V22.5C176.177 22.353 174.833 22.353 172.712 22.5ZM188.691 17.88L188.733 17.901C188.313 21.135 186.276 22.752 183.966 22.752C181.95 22.752 179.325 21.471 179.325 17.586C179.325 13.869 181.719 11.874 184.281 11.874C186.444 11.874 188.061 13.344 188.355 15.969H181.089V16.116C181.089 18.993 182.748 21.009 185.1 21.009C186.822 21.009 188.313 19.938 188.691 17.88ZM183.819 12.168C182.286 12.168 181.215 13.617 181.089 15.738H185.142C185.961 15.738 186.234 15.549 186.234 14.898C186.234 13.722 185.436 12.168 183.819 12.168ZM194.527 22.752C193.225 22.752 191.482 22.374 190.012 21.45L190.033 21.387C191.272 21.954 191.356 20.526 190.411 17.187L190.474 17.166C191.608 20.673 192.973 22.479 194.989 22.479C196.018 22.479 196.984 21.996 196.984 20.904C196.984 19.665 195.85 18.93 193.771 18.09C191.713 17.271 190.726 16.137 190.726 14.709C190.726 12.756 192.448 11.874 194.464 11.874C195.85 11.874 197.152 12.252 198.496 12.966L198.475 13.008C197.362 12.819 197.11 13.701 197.929 16.914L197.866 16.935C196.921 13.554 195.598 12.168 193.897 12.168C192.805 12.168 192.091 12.693 192.091 13.554C192.091 14.373 192.763 15.129 194.989 16.032C197.278 16.956 198.328 18.111 198.328 19.728C198.328 21.87 196.459 22.752 194.527 22.752Z" fill="#164D59"/>
</svg>
