<svg width="270" height="31" viewBox="0 0 270 31" fill="none" xmlns="http://www.w3.org/2000/svg">
<path d="M63.9228 22.752C60.6468 22.752 57.3288 20.4 57.3288 15.444C57.3288 10.719 60.2898 7.464 64.6788 7.464C66.8208 7.464 68.8158 8.304 70.1388 9.186L70.0968 9.228C68.3328 8.409 67.9968 9.837 68.9418 14.478L68.8788 14.499C67.5978 9.795 65.7918 8.01 63.4818 8.01C60.9408 8.01 59.5758 10.404 59.5758 13.407C59.5758 17.313 61.5918 20.946 65.4138 20.946C67.4298 20.946 69.2148 19.938 70.2648 17.46H70.3068C69.2358 21.24 66.8628 22.752 63.9228 22.752ZM81.1597 15.045V19.938C81.1597 21.933 81.5167 22.269 82.8397 22.437V22.5C80.6977 22.353 79.3537 22.353 77.2327 22.5V22.437C78.5557 22.269 78.9337 21.912 78.9337 19.938V15.339C78.9337 13.47 78.3247 12.798 77.5267 12.798C76.2877 12.798 74.6917 14.415 74.6917 17.817V19.938C74.6917 21.933 75.0277 22.269 76.3717 22.437V22.5C74.2297 22.353 72.8857 22.353 70.7647 22.5V22.437C72.0877 22.269 72.4657 21.912 72.4657 19.938V9.837C72.4657 8.199 72.0457 7.842 70.7647 7.758V7.695C72.9067 7.59 74.3767 7.191 74.6287 6.603L74.6917 6.624V15.969C75.2377 13.302 76.8757 11.874 78.6607 11.874C80.1517 11.874 81.1597 12.819 81.1597 15.045ZM83.2334 22.5V22.437C84.5564 22.269 84.9344 21.912 84.9344 19.938V9.837C84.9344 8.199 84.5144 7.842 83.2334 7.758V7.695C85.3754 7.59 86.8454 7.191 87.0974 6.603L87.1604 6.624V19.938C87.1604 21.933 87.4964 22.269 88.8404 22.437V22.5C86.6984 22.353 85.3544 22.353 83.2334 22.5ZM95.0368 22.752C92.3908 22.752 89.8498 21.072 89.8498 17.46C89.8498 13.911 92.4118 11.874 95.2258 11.874C97.8928 11.874 100.413 13.554 100.413 17.166C100.413 20.715 97.8508 22.752 95.0368 22.752ZM95.1838 22.5C96.8008 22.5 97.9348 20.799 97.9348 17.46C97.9348 13.869 96.7168 12.126 95.0578 12.126C93.4618 12.126 92.3278 13.827 92.3278 17.166C92.3278 20.757 93.5458 22.5 95.1838 22.5ZM111.623 17.88L111.665 17.901C111.245 21.135 109.208 22.752 106.898 22.752C104.882 22.752 102.257 21.471 102.257 17.586C102.257 13.869 104.651 11.874 107.213 11.874C109.376 11.874 110.993 13.344 111.287 15.969H104.021V16.116C104.021 18.993 105.68 21.009 108.032 21.009C109.754 21.009 111.245 19.938 111.623 17.88ZM106.751 12.168C105.218 12.168 104.147 13.617 104.021 15.738H108.074C108.893 15.738 109.166 15.549 109.166 14.898C109.166 13.722 108.368 12.168 106.751 12.168ZM127.963 10.383L130.84 19.203C131.659 21.681 132.331 22.185 133.801 22.437V22.5C131.512 22.374 129.16 22.374 126.409 22.5V22.437C128.656 22.206 129.118 21.765 128.278 19.182L127.312 16.137H122.524L121.537 18.573C120.529 21.093 121.012 22.143 123.721 22.437V22.5C121.39 22.395 119.29 22.374 117.736 22.5V22.437C119.143 22.164 120.088 21.198 121.18 18.573L124.96 9.228C124.351 8.262 123.406 7.968 121.411 7.863V7.779C124.372 7.779 126.556 7.674 127.312 7.338L127.354 7.401C127.249 7.863 127.333 8.472 127.963 10.383ZM125.149 9.585L122.629 15.843H127.207L125.485 10.446C125.38 10.131 125.275 9.837 125.149 9.585ZM144.307 15.045V19.938C144.307 21.933 144.664 22.269 146.008 22.437V22.5C143.845 22.353 142.501 22.353 140.401 22.5V22.437C141.724 22.269 142.081 21.912 142.081 19.938V15.108C142.081 13.428 141.556 12.714 140.695 12.714C139.477 12.714 137.818 14.394 137.818 17.817V19.938C137.818 21.933 138.175 22.269 139.498 22.437V22.5C137.356 22.353 136.012 22.353 133.891 22.5V22.437C135.214 22.269 135.592 21.912 135.592 19.938V14.499C135.592 13.239 135.193 13.008 133.87 12.924V12.861C135.949 12.735 137.419 12.336 137.671 11.706L137.713 11.727L137.818 15.276V15.906C138.343 13.365 139.96 11.874 141.808 11.874C143.299 11.874 144.307 12.819 144.307 15.045ZM156.982 6.624V19.518C156.982 21.282 157.15 21.828 158.704 21.87V21.933C156.856 22.059 155.134 22.416 154.945 22.941H154.882L154.777 18.636C154.252 21.702 152.593 22.752 150.976 22.752C148.561 22.752 147.091 20.694 147.091 17.733C147.091 13.449 149.884 11.874 152.299 11.874C153.181 11.874 154.042 12.105 154.756 12.693V9.837C154.756 8.199 154.252 7.842 152.656 7.758V7.695C155.008 7.59 156.667 7.191 156.919 6.603L156.982 6.624ZM151.984 21.849C153.391 21.849 154.756 20.211 154.756 16.704V16.116C154.756 13.281 153.475 12.126 152.257 12.126C150.85 12.126 149.527 13.722 149.527 17.061C149.527 20.379 150.64 21.849 151.984 21.849ZM169.086 17.88L169.128 17.901C168.708 21.135 166.671 22.752 164.361 22.752C162.345 22.752 159.72 21.471 159.72 17.586C159.72 13.869 162.114 11.874 164.676 11.874C166.839 11.874 168.456 13.344 168.75 15.969H161.484V16.116C161.484 18.993 163.143 21.009 165.495 21.009C167.217 21.009 168.708 19.938 169.086 17.88ZM164.214 12.168C162.681 12.168 161.61 13.617 161.484 15.738H165.537C166.356 15.738 166.629 15.549 166.629 14.898C166.629 13.722 165.831 12.168 164.214 12.168ZM176.916 11.895C177.672 11.895 178.449 12.168 179.1 12.588V12.63C178.26 12.357 177.672 13.953 176.979 18.132L176.937 18.111C177.462 14.037 176.895 13.008 175.992 13.008C174.732 13.008 173.829 14.982 173.829 17.943V19.938C173.829 21.933 174.48 22.269 176.139 22.437V22.5C173.829 22.353 172.191 22.353 169.902 22.5V22.437C171.225 22.269 171.603 21.912 171.603 19.938V14.499C171.603 13.239 171.204 13.008 169.881 12.924V12.861C171.96 12.735 173.43 12.336 173.682 11.706L173.724 11.727L173.829 15.276V16.095C174.207 13.26 175.257 11.895 176.916 11.895ZM183.986 22.752C182.684 22.752 180.941 22.374 179.471 21.45L179.492 21.387C180.731 21.954 180.815 20.526 179.87 17.187L179.933 17.166C181.067 20.673 182.432 22.479 184.448 22.479C185.477 22.479 186.443 21.996 186.443 20.904C186.443 19.665 185.309 18.93 183.23 18.09C181.172 17.271 180.185 16.137 180.185 14.709C180.185 12.756 181.907 11.874 183.923 11.874C185.309 11.874 186.611 12.252 187.955 12.966L187.934 13.008C186.821 12.819 186.569 13.701 187.388 16.914L187.325 16.935C186.38 13.554 185.057 12.168 183.356 12.168C182.264 12.168 181.55 12.693 181.55 13.554C181.55 14.373 182.222 15.129 184.448 16.032C186.737 16.956 187.787 18.111 187.787 19.728C187.787 21.87 185.918 22.752 183.986 22.752ZM194.848 22.752C192.202 22.752 189.661 21.072 189.661 17.46C189.661 13.911 192.223 11.874 195.037 11.874C197.704 11.874 200.224 13.554 200.224 17.166C200.224 20.715 197.662 22.752 194.848 22.752ZM194.995 22.5C196.612 22.5 197.746 20.799 197.746 17.46C197.746 13.869 196.528 12.126 194.869 12.126C193.273 12.126 192.139 13.827 192.139 17.166C192.139 20.757 193.357 22.5 194.995 22.5ZM211.777 15.045V19.938C211.777 21.933 212.134 22.269 213.478 22.437V22.5C211.315 22.353 209.971 22.353 207.871 22.5V22.437C209.194 22.269 209.551 21.912 209.551 19.938V15.108C209.551 13.428 209.026 12.714 208.165 12.714C206.947 12.714 205.288 14.394 205.288 17.817V19.938C205.288 21.933 205.645 22.269 206.968 22.437V22.5C204.826 22.353 203.482 22.353 201.361 22.5V22.437C202.684 22.269 203.062 21.912 203.062 19.938V14.499C203.062 13.239 202.663 13.008 201.34 12.924V12.861C203.419 12.735 204.889 12.336 205.141 11.706L205.183 11.727L205.288 15.276V15.906C205.813 13.365 207.43 11.874 209.278 11.874C210.769 11.874 211.777 12.819 211.777 15.045Z" fill="#164D59"/>
</svg>
