<svg width="168" height="17" viewBox="0 0 168 17" fill="none" xmlns="http://www.w3.org/2000/svg">
<path d="M13.6935 10.347L13.7355 10.368C11.8245 14.652 11.9505 16.101 13.2105 16.437V16.5H8.27548C5.18848 16.5 3.00448 16.353 0.421477 16.5V16.437C2.14348 16.206 2.75248 15.786 2.75248 13.644V4.572C2.75248 2.409 2.20648 1.905 0.400477 1.8V1.716H7.20448C9.32548 1.716 11.3625 1.653 12.3285 1.317L12.3705 1.38C11.6145 1.989 11.6775 3.837 12.4125 7.533L12.3495 7.554C11.2995 3.585 10.0395 2.01 6.53248 2.01H5.27248V8.73H6.36448C8.27548 8.73 9.09448 8.037 9.36748 5.874H9.40948C9.28348 8.415 9.47248 9.654 10.4595 12.636L10.4175 12.657C9.22048 9.654 8.29648 8.982 6.38548 8.982H5.27248V13.644C5.27248 15.765 5.75548 16.206 7.03648 16.206C8.77948 16.206 11.2365 15.303 13.6935 10.347ZM25.1089 0.623999V13.518C25.1089 15.282 25.2769 15.828 26.8309 15.87V15.933C24.9829 16.059 23.2609 16.416 23.0719 16.941H23.0089L22.9039 12.636C22.3789 15.702 20.7199 16.752 19.1029 16.752C16.6879 16.752 15.2179 14.694 15.2179 11.733C15.2179 7.449 18.0109 5.874 20.4259 5.874C21.3079 5.874 22.1689 6.105 22.8829 6.693V3.837C22.8829 2.199 22.3789 1.842 20.7829 1.758V1.695C23.1349 1.59 24.7939 1.191 25.0459 0.602999L25.1089 0.623999ZM20.1109 15.849C21.5179 15.849 22.8829 14.211 22.8829 10.704V10.116C22.8829 7.281 21.6019 6.126 20.3839 6.126C18.9769 6.126 17.6539 7.722 17.6539 11.061C17.6539 14.379 18.7669 15.849 20.1109 15.849ZM38.3473 6.189V6.126C40.3423 6.189 42.0433 6.189 43.7023 6.126V6.189C42.9673 6.315 42.4003 6.693 41.2873 9.465L39.5233 14.19L39.5023 14.211L38.5363 16.815H38.3893L35.2183 9.528L32.0893 16.815H31.9213L28.6453 8.709C27.9103 6.945 27.4063 6.42 26.5663 6.294V6.231C28.1203 6.294 29.9683 6.168 30.4093 5.748L30.4513 5.769C30.2203 6.231 30.5143 7.176 30.9763 8.394L33.0343 14.001L35.0923 9.234L34.8403 8.646C34.0633 6.861 33.4963 6.336 32.1103 6.189V6.126C34.0213 6.189 36.3943 6.21 37.4653 6.126V6.189C36.8143 6.357 36.6463 7.029 37.1503 8.226L39.3973 13.875L40.9303 9.675C41.6863 7.617 40.9723 6.378 38.3473 6.189ZM52.4344 9.024L52.4554 13.518C52.4554 15.282 52.6444 15.828 54.1774 15.849V15.912C52.3294 16.038 50.6284 16.416 50.4184 16.941H50.3764L50.2504 13.014C49.7674 15.576 48.1714 16.752 46.4704 16.752C45.2104 16.752 44.1604 16.08 44.1604 14.778C44.1604 12.489 47.2264 11.019 50.2084 10.515V9.381C50.2084 7.197 49.4944 6.126 48.2554 6.126C46.8694 6.126 45.7354 7.512 45.5464 11.334H45.4834C45.5044 7.701 45.0424 6.945 43.7194 7.407L43.6984 7.365C45.1684 6.525 47.0164 5.874 48.9694 5.874C51.4264 5.874 52.4344 6.819 52.4344 9.024ZM47.8354 15.66C49.3054 15.66 50.2084 13.476 50.2084 11.25V10.641C47.8144 11.145 46.4284 12.489 46.4284 13.98C46.4284 15.009 46.9954 15.66 47.8354 15.66ZM61.7372 5.895C62.4932 5.895 63.2702 6.168 63.9212 6.588V6.63C63.0812 6.357 62.4932 7.953 61.8002 12.132L61.7582 12.111C62.2832 8.037 61.7162 7.008 60.8132 7.008C59.5532 7.008 58.6502 8.982 58.6502 11.943V13.938C58.6502 15.933 59.3012 16.269 60.9602 16.437V16.5C58.6502 16.353 57.0122 16.353 54.7232 16.5V16.437C56.0462 16.269 56.4242 15.912 56.4242 13.938V8.499C56.4242 7.239 56.0252 7.008 54.7022 6.924V6.861C56.7812 6.735 58.2512 6.336 58.5032 5.706L58.5452 5.727L58.6502 9.276V10.095C59.0282 7.26 60.0782 5.895 61.7372 5.895ZM74.2046 0.623999V13.518C74.2046 15.282 74.3726 15.828 75.9266 15.87V15.933C74.0786 16.059 72.3566 16.416 72.1676 16.941H72.1046L71.9996 12.636C71.4746 15.702 69.8156 16.752 68.1986 16.752C65.7836 16.752 64.3136 14.694 64.3136 11.733C64.3136 7.449 67.1066 5.874 69.5216 5.874C70.4036 5.874 71.2646 6.105 71.9786 6.693V3.837C71.9786 2.199 71.4746 1.842 69.8786 1.758V1.695C72.2306 1.59 73.8896 1.191 74.1416 0.602999L74.2046 0.623999ZM69.2066 15.849C70.6136 15.849 71.9786 14.211 71.9786 10.704V10.116C71.9786 7.281 70.6976 6.126 69.4796 6.126C68.0726 6.126 66.7496 7.722 66.7496 11.061C66.7496 14.379 67.8626 15.849 69.2066 15.849ZM91.0178 1.8V1.716C93.6218 1.842 95.7218 1.821 97.3598 1.716V1.779C95.8058 2.01 95.1338 2.976 95.1338 5.706V16.668L94.9868 16.731L85.5578 4.362L85.2638 3.984V12.489C85.2638 15.24 85.9778 16.206 88.3088 16.437V16.5C85.8938 16.374 84.1298 16.374 82.4498 16.5V16.437C84.2768 16.248 84.8858 15.219 84.8858 12.489V3.543C84.0458 2.556 83.1848 1.905 82.0088 1.779V1.716C84.1088 1.758 85.8728 1.737 86.8598 1.485L86.9018 1.527C87.0068 2.01 87.3008 2.535 88.5398 4.173L94.7768 12.468V5.706C94.7768 2.955 93.8738 2.01 91.0178 1.8ZM103.438 16.752C100.792 16.752 98.2506 15.072 98.2506 11.46C98.2506 7.911 100.813 5.874 103.627 5.874C106.294 5.874 108.814 7.554 108.814 11.166C108.814 14.715 106.252 16.752 103.438 16.752ZM103.585 16.5C105.202 16.5 106.336 14.799 106.336 11.46C106.336 7.869 105.118 6.126 103.459 6.126C101.863 6.126 100.729 7.827 100.729 11.166C100.729 14.757 101.947 16.5 103.585 16.5ZM116.86 13.056H116.902C116.44 15.933 115.075 16.752 113.857 16.752C112.597 16.752 111.463 15.912 111.463 13.413V6.357H109.951V6.294C111.736 6.105 113.563 4.278 113.626 1.506H113.689V6.126H116.377V6.378H113.689V13.056C113.689 14.925 114.277 15.408 114.97 15.408C115.621 15.408 116.398 14.967 116.86 13.056ZM122.9 16.752C120.254 16.752 117.713 15.072 117.713 11.46C117.713 7.911 120.275 5.874 123.089 5.874C125.756 5.874 128.276 7.554 128.276 11.166C128.276 14.715 125.714 16.752 122.9 16.752ZM123.047 16.5C124.664 16.5 125.798 14.799 125.798 11.46C125.798 7.869 124.58 6.126 122.921 6.126C121.325 6.126 120.191 7.827 120.191 11.166C120.191 14.757 121.409 16.5 123.047 16.5ZM134.248 6.189V6.126C136.264 6.21 137.944 6.21 139.603 6.126V6.189C138.847 6.357 138.259 6.798 137.104 9.528L135.172 14.253L134.122 16.815H133.954L130.489 8.772C129.733 7.029 129.187 6.42 128.347 6.273V6.21C129.88 6.273 131.686 6.126 132.169 5.685L132.211 5.727C131.98 6.147 132.295 7.26 132.883 8.646L135.067 14.001L136.747 9.738C137.65 7.512 136.894 6.336 134.248 6.189ZM142.401 5.412H142.338C142.338 3.48 141.624 2.808 139.587 2.829V2.766C141.624 2.766 142.338 2.094 142.338 0.161999H142.401C142.401 2.094 143.094 2.766 145.131 2.766V2.829C143.094 2.808 142.401 3.48 142.401 5.412ZM139.482 16.5V16.437C140.805 16.269 141.162 15.912 141.162 13.938V8.667C141.162 7.029 140.763 6.672 139.482 6.588V6.525C141.624 6.42 143.094 6.021 143.346 5.433L143.388 5.454V13.938C143.388 15.933 143.745 16.269 145.089 16.437V16.5C142.947 16.353 141.603 16.353 139.482 16.5ZM150.652 16.752C148.615 16.752 146.095 15.429 146.095 11.565C146.095 8.1 148.195 5.874 151.156 5.874C152.395 5.874 153.802 6.252 154.894 7.05L154.873 7.071C153.739 6.609 153.571 7.89 154.117 10.956L154.075 10.977C153.34 7.932 152.059 6.21 150.442 6.21C148.888 6.21 147.901 7.785 147.901 9.99C147.901 12.846 149.455 15.009 151.765 15.009C153.256 15.009 154.558 14.148 155.083 12.405H155.125C154.558 15.345 152.752 16.752 150.652 16.752ZM166.219 9.045V13.938C166.219 15.933 166.576 16.269 167.899 16.437V16.5C165.757 16.353 164.413 16.353 162.292 16.5V16.437C163.615 16.269 163.993 15.912 163.993 13.938V9.339C163.993 7.47 163.384 6.798 162.586 6.798C161.347 6.798 159.751 8.415 159.751 11.817V13.938C159.751 15.933 160.087 16.269 161.431 16.437V16.5C159.289 16.353 157.945 16.353 155.824 16.5V16.437C157.147 16.269 157.525 15.912 157.525 13.938V3.837C157.525 2.199 157.105 1.842 155.824 1.758V1.695C157.966 1.59 159.436 1.191 159.688 0.602999L159.751 0.623999V9.969C160.297 7.302 161.935 5.874 163.72 5.874C165.211 5.874 166.219 6.819 166.219 9.045Z" fill="#164D59"/>
</svg>
