<svg width="453" height="34" viewBox="0 0 453 34" fill="none" xmlns="http://www.w3.org/2000/svg">
<path d="M14.7021 3.348C24.8241 3.348 30.7461 8.766 30.7461 17.586C30.7461 26.994 24.9501 33.252 15.2481 33.252C11.6361 33.252 6.6381 32.706 0.170102 33V32.874C3.6141 32.58 4.8321 31.446 4.8321 27.288V9.144C4.8321 5.238 3.6141 4.02 0.128102 3.558V3.432C6.3861 3.768 11.5941 3.348 14.7021 3.348ZM15.3741 32.664C22.0521 32.664 25.2441 27.75 25.2441 18.636C25.2441 9.354 21.2121 3.936 13.7361 3.936C12.8961 3.936 11.3001 3.978 9.8721 4.062V27.288C9.8721 31.824 12.0141 32.664 15.3741 32.664ZM53.369 23.76L53.453 23.802C52.613 30.27 48.539 33.504 43.919 33.504C39.887 33.504 34.637 30.942 34.637 23.172C34.637 15.738 39.425 11.748 44.549 11.748C48.875 11.748 52.109 14.688 52.697 19.938H38.165V20.232C38.165 25.986 41.483 30.018 46.187 30.018C49.631 30.018 52.613 27.876 53.369 23.76ZM43.625 12.336C40.559 12.336 38.417 15.234 38.165 19.476H46.271C47.909 19.476 48.455 19.098 48.455 17.796C48.455 15.444 46.859 12.336 43.625 12.336ZM75.9181 1.248V27.036C75.9181 30.564 76.2541 31.656 79.3621 31.74V31.866C75.6661 32.118 72.2221 32.832 71.8441 33.882H71.7181L71.5081 25.272C70.4581 31.404 67.1401 33.504 63.9061 33.504C59.0761 33.504 56.1361 29.388 56.1361 23.466C56.1361 14.898 61.7221 11.748 66.5521 11.748C68.3161 11.748 70.0381 12.21 71.4661 13.386V7.674C71.4661 4.398 70.4581 3.684 67.2661 3.516V3.39C71.9701 3.18 75.2881 2.382 75.7921 1.206L75.9181 1.248ZM65.9221 31.698C68.7361 31.698 71.4661 28.422 71.4661 21.408V20.232C71.4661 14.562 68.9041 12.252 66.4681 12.252C63.6541 12.252 61.0081 15.444 61.0081 22.122C61.0081 28.758 63.2341 31.698 65.9221 31.698ZM86.4348 10.824H86.3088C86.3088 6.96 84.8808 5.616 80.8068 5.658V5.532C84.8808 5.532 86.3088 4.188 86.3088 0.323998H86.4348C86.4348 4.188 87.8208 5.532 91.8948 5.532V5.658C87.8208 5.616 86.4348 6.96 86.4348 10.824ZM80.5968 33V32.874C83.2428 32.538 83.9568 31.824 83.9568 27.876V17.334C83.9568 14.058 83.1588 13.344 80.5968 13.176V13.05C84.8808 12.84 87.8208 12.042 88.3248 10.866L88.4088 10.908V27.876C88.4088 31.866 89.1228 32.538 91.8108 32.874V33C87.5268 32.706 84.8388 32.706 80.5968 33ZM102.937 33.504C98.8626 33.504 93.8226 30.858 93.8226 23.13C93.8226 16.2 98.0226 11.748 103.945 11.748C106.423 11.748 109.237 12.504 111.421 14.1L111.379 14.142C109.111 13.218 108.775 15.78 109.867 21.912L109.783 21.954C108.313 15.864 105.751 12.42 102.517 12.42C99.4086 12.42 97.4346 15.57 97.4346 19.98C97.4346 25.692 100.543 30.018 105.163 30.018C108.145 30.018 110.749 28.296 111.799 24.81H111.883C110.749 30.69 107.137 33.504 102.937 33.504ZM131.717 18.048L131.759 27.036C131.759 30.564 132.137 31.656 135.203 31.698V31.824C131.507 32.076 128.105 32.832 127.685 33.882H127.601L127.349 26.028C126.383 31.152 123.191 33.504 119.789 33.504C117.269 33.504 115.169 32.16 115.169 29.556C115.169 24.978 121.301 22.038 127.265 21.03V18.762C127.265 14.394 125.837 12.252 123.359 12.252C120.587 12.252 118.319 15.024 117.941 22.668H117.815C117.857 15.402 116.933 13.89 114.287 14.814L114.245 14.73C117.185 13.05 120.881 11.748 124.787 11.748C129.701 11.748 131.717 13.638 131.717 18.048ZM122.519 31.32C125.459 31.32 127.265 26.952 127.265 22.5V21.282C122.477 22.29 119.705 24.978 119.705 27.96C119.705 30.018 120.839 31.32 122.519 31.32ZM150.113 26.112H150.197C149.273 31.866 146.543 33.504 144.107 33.504C141.587 33.504 139.319 31.824 139.319 26.826V12.714H136.295V12.588C139.865 12.21 143.519 8.556 143.645 3.012H143.771V12.252H149.147V12.756H143.771V26.112C143.771 29.85 144.947 30.816 146.333 30.816C147.635 30.816 149.189 29.934 150.113 26.112ZM170.551 23.76L170.635 23.802C169.795 30.27 165.721 33.504 161.101 33.504C157.069 33.504 151.819 30.942 151.819 23.172C151.819 15.738 156.607 11.748 161.731 11.748C166.057 11.748 169.291 14.688 169.879 19.938H155.347V20.232C155.347 25.986 158.665 30.018 163.369 30.018C166.813 30.018 169.795 27.876 170.551 23.76ZM160.807 12.336C157.741 12.336 155.599 15.234 155.347 19.476H163.453C165.091 19.476 165.637 19.098 165.637 17.796C165.637 15.444 164.041 12.336 160.807 12.336ZM193.1 1.248V27.036C193.1 30.564 193.436 31.656 196.544 31.74V31.866C192.848 32.118 189.404 32.832 189.026 33.882H188.9L188.69 25.272C187.64 31.404 184.322 33.504 181.088 33.504C176.258 33.504 173.318 29.388 173.318 23.466C173.318 14.898 178.904 11.748 183.734 11.748C185.498 11.748 187.22 12.21 188.648 13.386V7.674C188.648 4.398 187.64 3.684 184.448 3.516V3.39C189.152 3.18 192.47 2.382 192.974 1.206L193.1 1.248ZM183.104 31.698C185.918 31.698 188.648 28.422 188.648 21.408V20.232C188.648 14.562 186.086 12.252 183.65 12.252C180.836 12.252 178.19 15.444 178.19 22.122C178.19 28.758 180.416 31.698 183.104 31.698ZM223.408 26.112H223.492C222.568 31.866 219.838 33.504 217.402 33.504C214.882 33.504 212.614 31.824 212.614 26.826V12.714H209.59V12.588C213.16 12.21 216.814 8.556 216.94 3.012H217.066V12.252H222.442V12.756H217.066V26.112C217.066 29.85 218.242 30.816 219.628 30.816C220.93 30.816 222.484 29.934 223.408 26.112ZM235.488 33.504C230.196 33.504 225.114 30.144 225.114 22.92C225.114 15.822 230.238 11.748 235.866 11.748C241.2 11.748 246.24 15.108 246.24 22.332C246.24 29.43 241.116 33.504 235.488 33.504ZM235.782 33C239.016 33 241.284 29.598 241.284 22.92C241.284 15.738 238.848 12.252 235.53 12.252C232.338 12.252 230.07 15.654 230.07 22.332C230.07 29.514 232.506 33 235.782 33Z" fill="#164D59"/>
<path d="M273.345 33.504C268.431 33.504 263.643 31.446 260.997 29.808L261.039 29.682C264.147 30.942 264.525 28.548 262.551 18.048H262.677C265.029 27.918 269.817 32.748 275.151 32.748C278.679 32.748 281.031 30.648 281.031 27.708C281.031 24.096 277.587 21.66 271.875 19.308C266.457 17.082 263.433 14.814 263.433 10.698C263.433 5.742 268.179 2.928 273.765 2.928C276.831 2.928 280.695 3.684 284.853 6.498L284.769 6.624C281.577 5.238 281.241 8.682 283.971 17.796H283.845C280.863 8.724 277.125 3.642 272.001 3.642C269.103 3.642 266.751 5.406 266.751 8.094C266.751 11.286 269.649 13.05 274.605 15.066C281.073 17.754 284.307 20.4 284.307 25.02C284.307 30.102 280.065 33.504 273.345 33.504ZM307.174 23.76L307.258 23.802C306.418 30.27 302.344 33.504 297.724 33.504C293.692 33.504 288.442 30.942 288.442 23.172C288.442 15.738 293.23 11.748 298.354 11.748C302.68 11.748 305.914 14.688 306.502 19.938H291.97V20.232C291.97 25.986 295.288 30.018 299.992 30.018C303.436 30.018 306.418 27.876 307.174 23.76ZM297.43 12.336C294.364 12.336 292.222 15.234 291.97 19.476H300.076C301.714 19.476 302.26 19.098 302.26 17.796C302.26 15.444 300.664 12.336 297.43 12.336ZM322.835 11.79C324.347 11.79 325.901 12.336 327.203 13.176V13.26C325.523 12.714 324.347 15.906 322.961 24.264L322.877 24.222C323.927 16.074 322.793 14.016 320.987 14.016C318.467 14.016 316.661 17.964 316.661 23.886V27.876C316.661 31.866 317.963 32.538 321.281 32.874V33C316.661 32.706 313.385 32.706 308.807 33V32.874C311.453 32.538 312.209 31.824 312.209 27.876V16.998C312.209 14.478 311.411 14.016 308.765 13.848V13.722C312.923 13.47 315.863 12.672 316.367 11.412L316.451 11.454L316.661 18.552V20.19C317.417 14.52 319.517 11.79 322.835 11.79ZM337.426 12.378V12.252C341.458 12.42 344.818 12.42 348.136 12.252V12.378C346.624 12.714 345.448 13.596 343.138 19.056L339.274 28.506L337.174 33.63H336.838L329.908 17.544C328.396 14.058 327.304 12.84 325.624 12.546V12.42C328.69 12.546 332.302 12.252 333.268 11.37L333.352 11.454C332.89 12.294 333.52 14.52 334.696 17.292L339.064 28.002L342.424 19.476C344.23 15.024 342.718 12.672 337.426 12.378ZM366.81 23.76L366.894 23.802C366.054 30.27 361.98 33.504 357.36 33.504C353.328 33.504 348.078 30.942 348.078 23.172C348.078 15.738 352.866 11.748 357.99 11.748C362.316 11.748 365.55 14.688 366.138 19.938H351.606V20.232C351.606 25.986 354.924 30.018 359.628 30.018C363.072 30.018 366.054 27.876 366.81 23.76ZM357.066 12.336C354 12.336 351.858 15.234 351.606 19.476H359.712C361.35 19.476 361.896 19.098 361.896 17.796C361.896 15.444 360.3 12.336 357.066 12.336ZM394.703 3.6V3.432C399.827 3.558 404.027 3.558 407.891 3.432V3.558C406.379 3.978 404.489 6.708 402.011 11.202L396.761 20.61V27.12C396.761 31.11 397.643 32.244 401.213 32.874V33C395.333 32.664 393.191 32.664 387.269 33V32.874C390.839 32.244 391.721 31.068 391.721 27.12V21.24L384.917 9.186C383.237 6.204 381.809 3.81 378.659 3.6V3.432C383.447 3.558 386.765 3.39 388.529 2.928L388.655 3.096C388.403 4.356 388.571 5.826 390.503 9.018L396.551 19.476L400.961 11.664C403.817 6.498 401.087 3.978 394.703 3.6ZM415.751 33.504C410.459 33.504 405.377 30.144 405.377 22.92C405.377 15.822 410.501 11.748 416.129 11.748C421.463 11.748 426.503 15.108 426.503 22.332C426.503 29.43 421.379 33.504 415.751 33.504ZM416.045 33C419.279 33 421.547 29.598 421.547 22.92C421.547 15.738 419.111 12.252 415.793 12.252C412.601 12.252 410.333 15.654 410.333 22.332C410.333 29.514 412.769 33 416.045 33ZM448.895 10.908V27.036C448.895 30.564 449.273 31.656 452.339 31.74V31.866C448.643 32.118 445.241 32.832 444.821 33.882H444.737L444.485 25.146C443.351 31.236 439.697 33.504 436.589 33.504C433.817 33.504 431.801 31.698 431.801 27.162V17.334C431.801 14.058 430.961 13.344 428.399 13.176V13.05C432.683 12.84 435.623 12.042 436.127 10.866L436.253 10.908V26.574C436.253 30.312 437.345 31.656 438.899 31.656C441.293 31.656 444.443 28.422 444.443 21.618V17.334C444.443 14.058 443.645 13.344 441.083 13.176V13.05C445.367 12.84 448.307 12.042 448.811 10.866L448.895 10.908Z" fill="#CDA870"/>
</svg>
