<svg width="24" height="25" viewBox="0 0 24 25" fill="none" xmlns="http://www.w3.org/2000/svg">
<g id="video-audio-image/video-octagon">
<path id="Vector" d="M21.0801 9.08003V15.92C21.0801 17.04 20.4801 18.08 19.5101 18.65L13.5701 22.08C12.6001 22.64 11.4001 22.64 10.4201 22.08L4.48017 18.65C3.51017 18.09 2.91016 17.05 2.91016 15.92V9.08003C2.91016 7.96003 3.51017 6.91999 4.48017 6.34999L10.4201 2.92C11.3901 2.36 12.5901 2.36 13.5701 2.92L19.5101 6.34999C20.4801 6.91999 21.0801 7.95003 21.0801 9.08003Z" stroke="#CDA870" stroke-width="1.7" stroke-linecap="round" stroke-linejoin="round"/>
<path id="Vector_2" d="M9.75 12.4999V11.2999C9.75 9.75989 10.84 9.12993 12.17 9.89993L13.21 10.4999L14.25 11.0999C15.58 11.8699 15.58 13.1299 14.25 13.8999L13.21 14.4999L12.17 15.0999C10.84 15.8699 9.75 15.2399 9.75 13.6999V12.4999Z" stroke="#CDA870" stroke-width="1.7" stroke-miterlimit="10" stroke-linecap="round" stroke-linejoin="round"/>
</g>
</svg>
