<svg width="61" height="17" viewBox="0 0 61 17" fill="none" xmlns="http://www.w3.org/2000/svg">
<path d="M11.048 2.022C10.916 2.358 10.754 2.526 10.562 2.526C10.502 2.526 10.292 2.478 9.932 2.382C9.572 2.274 9.362 2.22 9.302 2.22C9.242 2.22 9.206 2.25 9.194 2.31C9.182 2.358 9.146 2.382 9.086 2.382C9.038 2.382 8.948 2.364 8.816 2.328C8.636 2.28 8.444 2.244 8.24 2.22C7.124 4.704 6.344 6.528 5.9 7.692C5.168 9.624 4.58 11.592 4.136 13.596C4.328 13.788 4.508 13.884 4.676 13.884C4.64 13.884 5.24 13.794 6.476 13.614C7.712 13.434 8.462 13.344 8.726 13.344C8.858 13.344 8.978 13.404 9.086 13.524V13.776C9.038 13.812 8.9 13.956 8.672 14.208C8.552 14.352 8.402 14.424 8.222 14.424C8.174 14.424 8.006 14.448 7.718 14.496C7.442 14.544 7.28 14.568 7.232 14.568C7.172 14.568 7.142 14.556 7.142 14.532C7.142 14.508 7.112 14.496 7.052 14.496C6.992 14.496 6.866 14.55 6.674 14.658C6.494 14.754 6.38 14.802 6.332 14.802C6.284 14.802 6.224 14.79 6.152 14.766C6.092 14.742 6.032 14.73 5.972 14.73C5.66 14.73 4.952 14.862 3.848 15.126C2.828 15.366 2.222 15.528 2.03 15.612C1.922 15.66 1.742 15.792 1.49 16.008C1.25 16.236 1.106 16.35 1.058 16.35C0.482 16.35 0.194 16.092 0.194 15.576C0.194 15.216 0.56 14.856 1.292 14.496C1.904 14.184 2.342 14.028 2.606 14.028C2.666 14.028 2.69 14.046 2.678 14.082C2.666 14.106 2.69 14.118 2.75 14.118C2.846 14.118 2.996 13.728 3.2 12.948C3.464 11.976 3.626 11.418 3.686 11.274C3.686 11.166 3.704 11.022 3.74 10.842C3.872 10.602 4.046 10.23 4.262 9.726C4.262 9.594 4.274 9.426 4.298 9.222C5.882 5.178 6.674 3.036 6.674 2.796V2.436L6.548 2.292C5.936 2.256 5.36 2.376 4.82 2.652C4.46 2.844 4.112 3.12 3.776 3.48C3.476 3.78 3.32 3.93 3.308 3.93C2.972 3.93 2.804 3.672 2.804 3.156C2.804 1.716 4.466 0.995999 7.79 0.995999C7.85 0.995999 8.072 1.032 8.456 1.104C8.912 1.2 9.212 1.26 9.356 1.284C9.572 1.272 9.854 1.284 10.202 1.32C10.514 1.428 10.796 1.662 11.048 2.022ZM17.0361 8.754C17.0121 8.79 17.0181 8.838 17.0541 8.898C17.0901 8.958 17.1081 9 17.1081 9.024C17.1081 9.108 17.0361 9.21 16.8921 9.33C15.7281 9.558 14.8581 9.792 14.2821 10.032C13.8501 10.212 13.4121 10.446 12.9681 10.734C12.9801 10.902 12.9201 11.172 12.7881 11.544C12.6561 11.904 12.5901 12.168 12.5901 12.336C12.5901 12.408 12.5961 12.528 12.6081 12.696C12.6321 12.852 12.6501 12.96 12.6621 13.02C12.6621 13.188 12.5601 13.644 12.3561 14.388C12.1161 15.252 11.8941 15.684 11.6901 15.684C11.4741 15.684 11.2581 15.474 11.0421 15.054C10.8741 14.706 10.7901 14.442 10.7901 14.262C10.7901 14.202 10.9161 13.776 11.1681 12.984C11.4321 12.18 11.5641 11.742 11.5641 11.67C11.5641 11.61 11.5221 11.514 11.4381 11.382C11.3541 11.25 11.3061 11.16 11.2941 11.112C11.1861 10.752 11.1321 10.44 11.1321 10.176C11.1321 10.092 11.2281 9.936 11.4201 9.708C11.6241 9.48 11.7561 9.366 11.8161 9.366C11.8881 9.366 11.9481 9.36 11.9961 9.348C12.0441 9.336 12.0981 9.33 12.1581 9.33C12.2781 9.33 12.5181 8.838 12.8781 7.854C13.0581 7.338 13.2381 6.828 13.4181 6.324C13.7541 5.556 14.1801 4.428 14.6961 2.94C14.8161 2.76 14.9241 2.652 15.0201 2.616C15.1281 2.58 15.2001 2.532 15.2361 2.472H15.5601C15.5601 2.532 15.6081 2.682 15.7041 2.922C15.8001 3.162 15.8481 3.372 15.8481 3.552C15.8481 3.876 15.5241 4.704 14.8761 6.036C14.1561 7.548 13.7301 8.538 13.5981 9.006L13.7061 9.132C14.1381 9.024 14.6001 8.952 15.0921 8.916C15.7401 8.868 16.3881 8.814 17.0361 8.754ZM19.2719 2.346C19.1639 2.766 19.0259 3.222 18.8579 3.714C18.6899 4.206 18.5039 4.698 18.2999 5.19C18.1079 5.67 17.9159 6.126 17.7239 6.558H16.5539C16.6379 6.222 16.7219 5.862 16.8059 5.478C16.9019 5.094 16.9859 4.71 17.0579 4.326C17.1419 3.93 17.2139 3.546 17.2739 3.174C17.3459 2.802 17.4059 2.46 17.4539 2.148H19.1459L19.2719 2.346ZM25.6404 8.862C25.6404 8.922 25.5984 9.012 25.5144 9.132C25.4424 9.24 25.4004 9.33 25.3884 9.402C25.3284 9.378 25.1904 9.294 24.9744 9.15C24.8784 9.09 24.7584 8.85 24.6144 8.43C24.5664 8.346 24.4704 8.298 24.3264 8.286C23.9784 8.25 23.7504 8.388 23.6424 8.7C23.6304 8.736 23.6004 8.982 23.5524 9.438C23.5404 9.558 23.6424 10.182 23.8584 11.31C24.0744 12.438 24.1584 13.254 24.1104 13.758C24.0504 14.334 23.8164 14.856 23.4084 15.324C22.8924 15.9 22.2504 16.188 21.4824 16.188C21.0504 16.188 20.6964 16.074 20.4204 15.846C20.1444 15.618 20.0064 15.306 20.0064 14.91C20.0064 14.754 20.0304 14.592 20.0784 14.424C20.2344 13.884 20.4624 13.494 20.7624 13.254C20.9544 13.134 21.1464 13.02 21.3384 12.912C21.4584 12.912 21.6024 12.918 21.7704 12.93C21.6504 13.17 21.5304 13.41 21.4104 13.65C21.2064 14.07 21.1044 14.388 21.1044 14.604C21.1044 14.88 21.2784 15.018 21.6264 15.018C21.9864 15.018 22.3164 14.808 22.6164 14.388C22.9284 13.968 23.0964 13.53 23.1204 13.074C23.1324 13.002 23.0244 12.414 22.7964 11.31C22.5564 10.146 22.4364 9.558 22.4364 9.546C22.4244 9.438 22.4184 9.324 22.4184 9.204C22.4184 8.604 22.5864 8.058 22.9224 7.566C23.2584 7.062 23.6724 6.816 24.1644 6.828C24.6564 6.828 25.0464 7.08 25.3344 7.584C25.5864 8.004 25.6884 8.43 25.6404 8.862ZM44.9337 2.166C44.9337 2.322 44.7117 2.43 44.2677 2.49C44.1957 2.502 44.0157 2.52 43.7277 2.544C43.4397 2.568 43.2657 2.58 43.2057 2.58H40.9737C40.7697 2.58 40.4277 2.616 39.9477 2.688C39.2877 2.796 38.8197 2.922 38.5437 3.066C38.1957 3.258 37.8237 3.78 37.4277 4.632C36.8757 5.832 36.5937 6.444 36.5817 6.468C36.3057 6.924 36.0717 7.428 35.8797 7.98C35.8437 8.016 35.8857 8.034 36.0057 8.034C36.0537 8.034 36.2457 7.956 36.5817 7.8C36.9177 7.632 37.1577 7.53 37.3017 7.494C38.6337 7.218 39.5877 7.056 40.1637 7.008C40.6077 6.984 41.0577 6.96 41.5137 6.936C41.5857 6.984 41.6577 7.038 41.7297 7.098C41.8017 7.146 41.8377 7.212 41.8377 7.296C41.8377 7.368 41.8017 7.446 41.7297 7.53C41.6697 7.602 41.6397 7.662 41.6397 7.71C39.5397 8.07 38.1417 8.376 37.4457 8.628C35.8617 9.204 34.8957 10.056 34.5477 11.184C34.3797 11.556 34.2117 11.928 34.0437 12.3C33.8037 12.84 33.6837 13.386 33.6837 13.938C33.6837 13.974 33.7377 14.07 33.8457 14.226C33.9537 14.37 34.0077 14.532 34.0077 14.712C34.0077 14.916 33.9777 15.078 33.9177 15.198C33.8577 15.198 33.7437 15.21 33.5757 15.234C33.4197 15.27 33.3057 15.288 33.2337 15.288C33.0057 15.288 32.8137 15.138 32.6577 14.838C32.5257 14.61 32.4597 14.394 32.4597 14.19C32.4597 14.118 32.4957 14.046 32.5677 13.974C32.6397 13.89 32.6757 13.824 32.6757 13.776C32.6757 13.752 32.6637 13.626 32.6397 13.398C32.6157 13.242 32.6217 13.122 32.6577 13.038C32.9337 12.39 33.2937 11.412 33.7377 10.104C33.7617 10.032 33.7437 9.9 33.6837 9.708C33.6357 9.504 33.6297 9.36 33.6657 9.276C33.7017 9.156 33.7977 9.042 33.9537 8.934C34.1097 8.826 34.2297 8.694 34.3137 8.538C35.8017 5.634 36.5457 4.092 36.5457 3.912V3.696C36.5217 3.66 36.4497 3.66 36.3297 3.696C36.1257 3.756 36.0237 3.786 36.0237 3.786C35.6037 3.858 35.1597 4.056 34.6917 4.38C34.2237 4.704 33.9897 4.944 33.9897 5.1C33.9897 5.124 33.9957 5.142 34.0077 5.154C34.2237 5.478 34.3317 5.706 34.3317 5.838C34.3317 5.97 34.2417 6.132 34.0617 6.324C33.7497 6.156 33.4377 5.982 33.1257 5.802C32.5737 5.466 32.2977 5.178 32.2977 4.938C32.2977 4.842 32.3937 4.65 32.5857 4.362C32.7777 4.074 32.9337 3.9 33.0537 3.84C33.5337 3.588 34.2717 3.258 35.2677 2.85C35.6997 2.742 36.1317 2.634 36.5637 2.526C37.0797 2.382 37.3917 2.172 37.4997 1.896C37.5837 1.92 37.9257 1.932 38.5257 1.932C38.5977 1.932 39.1977 1.884 40.3257 1.788C41.4537 1.68 42.0537 1.626 42.1257 1.626C42.4137 1.626 42.8997 1.668 43.5837 1.752C44.2797 1.824 44.6757 1.89 44.7717 1.95C44.8797 2.01 44.9337 2.082 44.9337 2.166ZM47.2866 10.05C47.2866 10.29 47.2266 10.554 47.1066 10.842C46.9626 11.166 46.7946 11.37 46.6026 11.454C46.4586 11.298 46.3806 11.154 46.3686 11.022C46.3566 10.89 46.3446 10.758 46.3326 10.626C46.3086 10.53 46.3206 10.38 46.3686 10.176C46.4166 9.96 46.4406 9.816 46.4406 9.744C46.4406 9.48 46.3266 9.348 46.0986 9.348C45.7266 9.348 45.2226 9.81 44.5866 10.734C43.9506 11.646 43.4706 12.618 43.1466 13.65C43.0866 13.986 43.0266 14.322 42.9666 14.658C42.8706 15.078 42.7206 15.372 42.5166 15.54C42.3726 15.468 42.2106 15.354 42.0306 15.198C41.7666 14.958 41.6346 14.754 41.6346 14.586C41.6346 14.514 41.7126 14.184 41.8686 13.596C42.1206 12.828 42.4206 11.88 42.7686 10.752C42.9126 10.128 43.0206 9.726 43.0926 9.546C43.2246 9.186 43.4106 8.904 43.6506 8.7C43.7946 8.7 43.9026 8.79 43.9746 8.97C44.0586 9.222 44.1186 9.366 44.1546 9.402C44.5026 9.09 44.8566 8.778 45.2166 8.466C45.6846 8.106 46.1166 7.926 46.5126 7.926C46.7766 7.926 46.9686 8.058 47.0886 8.322C47.2206 8.646 47.2866 9.222 47.2866 10.05ZM54.0053 9.384C54.0053 10.068 53.4353 10.896 52.2953 11.868C51.1553 12.84 50.1293 13.356 49.2173 13.416C49.2533 13.812 49.4513 14.148 49.8113 14.424C50.0993 14.64 50.3933 14.748 50.6933 14.748C51.0293 14.748 51.5513 14.604 52.2593 14.316C53.0633 13.98 53.4653 13.806 53.4653 13.794C53.6333 13.758 53.7833 13.806 53.9153 13.938C53.7113 14.226 53.1893 14.598 52.3493 15.054C51.5093 15.522 50.8853 15.756 50.4773 15.756C49.7693 15.756 49.1933 15.492 48.7493 14.964C48.3653 14.496 48.1673 13.95 48.1553 13.326C48.1313 12.366 48.6593 11.268 49.7393 10.032C50.8193 8.796 51.8453 8.178 52.8173 8.178C53.0813 8.178 53.3453 8.31 53.6093 8.574C53.8733 8.838 54.0053 9.108 54.0053 9.384ZM52.7993 9.654C52.7033 9.558 52.6193 9.51 52.5473 9.51C52.0313 9.51 51.4313 9.84 50.7473 10.5C50.1713 11.076 49.7873 11.604 49.5953 12.084C49.9553 12.084 50.2973 11.994 50.6213 11.814C50.7773 11.73 51.1013 11.508 51.5933 11.148C52.0973 10.776 52.4993 10.278 52.7993 9.654ZM61.0014 9.384C61.0014 10.068 60.4314 10.896 59.2914 11.868C58.1514 12.84 57.1254 13.356 56.2134 13.416C56.2494 13.812 56.4474 14.148 56.8074 14.424C57.0954 14.64 57.3894 14.748 57.6894 14.748C58.0254 14.748 58.5474 14.604 59.2554 14.316C60.0594 13.98 60.4614 13.806 60.4614 13.794C60.6294 13.758 60.7794 13.806 60.9114 13.938C60.7074 14.226 60.1854 14.598 59.3454 15.054C58.5054 15.522 57.8814 15.756 57.4734 15.756C56.7654 15.756 56.1894 15.492 55.7454 14.964C55.3614 14.496 55.1634 13.95 55.1514 13.326C55.1274 12.366 55.6554 11.268 56.7354 10.032C57.8154 8.796 58.8414 8.178 59.8134 8.178C60.0774 8.178 60.3414 8.31 60.6054 8.574C60.8694 8.838 61.0014 9.108 61.0014 9.384ZM59.7954 9.654C59.6994 9.558 59.6154 9.51 59.5434 9.51C59.0274 9.51 58.4274 9.84 57.7434 10.5C57.1674 11.076 56.7834 11.604 56.5914 12.084C56.9514 12.084 57.2934 11.994 57.6174 11.814C57.7734 11.73 58.0974 11.508 58.5894 11.148C59.0934 10.776 59.4954 10.278 59.7954 9.654Z" fill="#CDA870" fill-opacity="0.75"/>
</svg>
