<svg xmlns="http://www.w3.org/2000/svg" width="130" height="43" viewBox="0 0 130 43" fill="none">
  <g clip-path="url(#clip0_2393_4606)">
    <g filter="url(#filter0_b_2393_4606)">
      <path d="M132.575 38.6745C132.576 39.2437 132.472 39.8075 132.27 40.3334C132.068 40.8594 131.771 41.337 131.397 41.739C131.023 42.141 130.578 42.4593 130.09 42.6757C129.601 42.8921 129.077 43.0023 128.548 43H-2.47301C-3.00153 43.0023 -3.52526 42.8921 -4.0141 42.6757C-4.50294 42.4593 -4.94725 42.141 -5.32148 41.739C-5.69571 41.337 -5.99248 40.8594 -6.19473 40.3334C-6.39698 39.8075 -6.50073 39.2437 -6.5 38.6745V4.33735C-6.49781 3.18774 -6.07284 2.08588 -5.31811 1.27298C-4.56338 0.460075 -3.54036 0.00235016 -2.47301 0H128.548C129.616 0.00235016 130.639 0.460075 131.394 1.27298C132.148 2.08588 132.573 3.18774 132.575 4.33735V38.6745Z" fill="white" fill-opacity="0.1"/>
    </g>
    <path d="M28.0407 21.7054C28.0045 18.5726 30.6276 17.0254 30.7622 16.9536C30.2515 16.2145 29.5703 15.607 28.7753 15.1817C27.9802 14.7564 27.0942 14.5256 26.191 14.5084C24.2663 14.2929 22.3804 15.6604 21.3999 15.6604C20.4195 15.6604 18.8957 14.5443 17.2608 14.5802C16.2064 14.613 15.1783 14.9149 14.276 15.457C13.3737 15.9991 12.6277 16.7629 12.1101 17.6746C9.89826 21.4873 11.5306 27.1038 13.6623 30.1981C14.7152 31.7094 15.9906 33.4028 17.6178 33.3309C19.245 33.2591 19.796 32.3226 21.7207 32.3226C23.6454 32.3226 24.1861 33.3309 25.8599 33.2925C27.5336 33.254 28.6538 31.7812 29.6705 30.2341C30.4437 29.1618 31.0321 27.9696 31.4115 26.7061C30.4077 26.3056 29.549 25.6141 28.9476 24.722C28.3462 23.8298 28.0301 22.7785 28.0407 21.7054Z" fill="white" fill-opacity="0.75"/>
    <path d="M24.8852 12.492C25.757 11.4118 26.3365 9.97239 26.1554 8.49707C24.9214 8.56891 23.3615 9.35917 22.4535 10.4034C21.6567 11.304 20.966 12.8153 21.16 14.2521C22.5621 14.3265 24.0134 13.5337 24.8852 12.492Z" fill="white" fill-opacity="0.75"/>
    <path d="M51.1584 33.1131H48.9439L47.7099 29.2978H43.4647L42.3032 33.1131H40.1172L44.3365 20.1533H46.9494L51.1584 33.1131ZM47.3115 27.7249L46.2224 24.333C46.1138 23.9712 45.8965 23.1809 45.5705 21.8852H45.5343C45.3868 22.424 45.2058 23.2528 44.916 24.333L43.8269 27.7147L47.3115 27.7249Z" fill="white" fill-opacity="0.75"/>
    <path d="M61.9348 28.3274C61.9348 29.9114 61.4993 31.1712 60.6284 32.1068C60.2624 32.5065 59.8134 32.8226 59.3122 33.0334C58.8111 33.2443 58.2699 33.3448 57.7258 33.3281C56.4918 33.3281 55.5838 32.8971 55.0405 31.9965V36.892H52.9347V26.8239C52.9347 25.8155 52.8985 24.8072 52.8623 23.7629H54.712L54.8232 25.2382H54.862C55.5502 24.1221 56.6031 23.5474 58.0544 23.5474C58.5875 23.5383 59.1157 23.649 59.5996 23.8712C60.0834 24.0934 60.5103 24.4212 60.8483 24.8303C61.5726 25.7719 61.9348 26.924 61.9348 28.3274ZM59.7928 28.3993C59.8147 27.5999 59.6007 26.8116 59.1771 26.1311C58.9784 25.8372 58.7085 25.5974 58.3921 25.4338C58.0757 25.2702 57.723 25.1879 57.3662 25.1946C56.8502 25.2054 56.3525 25.3859 55.9511 25.7078C55.5302 26.0422 55.2372 26.5094 55.1207 27.0317C55.055 27.2413 55.0185 27.4589 55.0121 27.6783V29.2178C54.9991 29.8492 55.2179 30.4638 55.6278 30.9471C55.832 31.176 56.0834 31.3586 56.3651 31.4826C56.6467 31.6066 56.952 31.669 57.2602 31.6655C57.6204 31.6844 57.9796 31.6118 58.3037 31.4547C58.6278 31.2976 58.9061 31.061 59.1124 30.7675C59.5755 30.1979 59.7928 29.4076 59.7928 28.3993Z" fill="white" fill-opacity="0.75"/>
    <path d="M72.786 28.3274C72.786 29.9114 72.3549 31.1712 71.4925 32.1068C71.1227 32.5058 70.6707 32.8213 70.1673 33.032C69.6638 33.2427 69.1206 33.3437 68.5744 33.3281C67.3405 33.3281 66.4324 32.8971 65.8892 31.9965V36.892H63.7834V26.8239C63.7834 25.8155 63.7472 24.8072 63.7109 23.7629H65.5632L65.6719 25.2382H65.7081C66.3962 24.1221 67.4491 23.5474 68.9004 23.5474C69.4335 23.5383 69.9618 23.649 70.4456 23.8712C70.9295 24.0934 71.3564 24.4212 71.6943 24.8303C72.4239 25.7719 72.786 26.924 72.786 28.3274ZM70.644 28.3993C70.6659 27.5999 70.4519 26.8116 70.0283 26.1311C69.8296 25.8372 69.5597 25.5974 69.2433 25.4338C68.9269 25.2702 68.5742 25.1879 68.2174 25.1946C67.7014 25.2054 67.2037 25.3859 66.8024 25.7078C66.3775 26.043 66.0824 26.5133 65.9668 27.0394C65.9011 27.249 65.8645 27.4666 65.8581 27.686V29.2255C65.8451 29.8569 66.064 30.4715 66.4738 30.9548C66.6785 31.1838 66.9304 31.3664 67.2125 31.4904C67.4946 31.6143 67.8003 31.6767 68.1088 31.6732C68.4687 31.6919 68.8274 31.6192 69.151 31.4621C69.4747 31.305 69.7526 31.0685 69.9585 30.7752C70.4267 30.1979 70.644 29.4076 70.644 28.3993Z" fill="white" fill-opacity="0.75"/>
    <path d="M84.9053 29.4793C84.9214 29.9859 84.8259 30.49 84.6253 30.9562C84.4246 31.4224 84.1238 31.8395 83.7437 32.1785C82.9107 32.9328 81.713 33.3305 80.1892 33.3305C78.7742 33.3305 77.6488 33.0739 76.8262 32.5377L77.2996 30.8109C78.2111 31.3437 79.2529 31.6171 80.3108 31.6012C81.1076 31.6012 81.7259 31.4216 82.1605 31.0623C82.3715 30.8944 82.5403 30.6803 82.6539 30.4368C82.7675 30.1933 82.8226 29.927 82.815 29.6589C82.8223 29.4115 82.7776 29.1653 82.6836 28.936C82.5896 28.7067 82.4485 28.4994 82.2692 28.3272C81.907 27.9654 81.3275 27.6422 80.4583 27.3189C78.1714 26.4542 77.0098 25.2303 77.0098 23.6113C76.9964 23.1121 77.0971 22.6163 77.3046 22.1612C77.512 21.7062 77.8208 21.3037 78.2076 20.984C79.007 20.3015 80.0961 19.9756 81.4025 19.9756C82.421 19.9508 83.4314 20.1607 84.3543 20.5888L83.8369 22.2797C83.0691 21.868 82.208 21.6578 81.3353 21.669C80.708 21.6375 80.0899 21.8285 79.5916 22.2078C79.4218 22.3553 79.2872 22.5384 79.1977 22.7439C79.1082 22.9494 79.0661 23.1721 79.0742 23.3958C79.073 23.6385 79.1279 23.8782 79.2346 24.0966C79.3413 24.315 79.4971 24.5062 79.6899 24.6556C80.0547 24.9789 80.6704 25.3022 81.5784 25.6639C82.7038 26.095 83.5368 26.6338 84.0464 27.247C84.6045 27.8582 84.911 28.6548 84.9053 29.4793Z" fill="white" fill-opacity="0.75"/>
    <path d="M91.8352 25.3381H89.5069V29.8744C89.5069 31.0264 89.9053 31.6012 90.7409 31.6012C91.0583 31.6073 91.375 31.571 91.6826 31.4934L91.755 33.0765C91.227 33.2389 90.6751 33.3117 90.1226 33.292C89.2896 33.292 88.6351 33.0355 88.2005 32.5377C87.7659 32.0399 87.5098 31.2061 87.5098 30.0181V25.3022H86.0947V23.7448H87.4736V22.0283L89.5432 21.415V23.7448H91.8714V25.3279L91.8352 25.3381Z" fill="white" fill-opacity="0.75"/>
    <path d="M102.204 28.3632C102.204 29.8026 101.805 30.9906 100.97 31.8886C100.535 32.3562 100.005 32.7264 99.4152 32.9746C98.825 33.2229 98.1882 33.3433 97.5473 33.328C96.9272 33.3519 96.3092 33.2415 95.7364 33.0044C95.1637 32.7674 94.6499 32.4094 94.2308 31.9553C93.3978 31.0573 92.9969 29.9027 92.9969 28.5018C92.9546 27.1979 93.408 25.9258 94.2671 24.9379C95.1026 24.0014 96.2642 23.5703 97.6793 23.5703C98.3019 23.5474 98.9222 23.6577 99.498 23.8937C100.074 24.1296 100.592 24.4858 101.016 24.9379C101.829 25.8926 102.253 27.1145 102.204 28.3632ZM100.028 28.4351C100.052 27.6673 99.8628 26.9078 99.4824 26.2388C99.3085 25.8934 99.0384 25.6047 98.7042 25.4069C98.3699 25.2091 97.9855 25.1104 97.5965 25.1226C97.2022 25.1099 96.8123 25.2079 96.4718 25.4053C96.1313 25.6028 95.8539 25.8917 95.6718 26.2388C95.2929 26.9214 95.1053 27.6921 95.1285 28.471C95.1055 29.2376 95.2933 29.9959 95.6718 30.6647C95.8491 31.0079 96.1202 31.2946 96.4542 31.492C96.7882 31.6894 97.1716 31.7895 97.5603 31.7808C98.357 31.7808 98.9753 31.3857 99.4462 30.6647C99.8543 29.9929 100.06 29.2192 100.039 28.4351H100.028Z" fill="white" fill-opacity="0.75"/>
    <path d="M109.036 25.5928C108.821 25.5511 108.603 25.5271 108.384 25.5209C108.054 25.5092 107.725 25.5785 107.428 25.7226C107.13 25.8667 106.873 26.0812 106.679 26.3471C106.313 26.8889 106.132 27.5327 106.162 28.1842V33.0772H104.067V26.6627C104.067 25.5851 104.03 24.6101 103.994 23.7121H105.805L105.877 25.5081H105.95C106.149 24.9247 106.515 24.4113 107.003 24.0302C107.445 23.7066 107.977 23.5273 108.527 23.5171C108.7 23.509 108.873 23.5211 109.044 23.553L109.036 25.5928Z" fill="white" fill-opacity="0.75"/>
    <path d="M118.4 28.0023C118.399 28.3159 118.374 28.629 118.325 28.9388H112.049C112.086 29.8754 112.375 30.5579 112.955 31.0633C113.546 31.5153 114.279 31.7444 115.024 31.7099C115.891 31.7221 116.752 31.576 117.565 31.2788L117.891 32.7182C116.89 33.1249 115.816 33.3206 114.735 33.293C113.283 33.293 112.122 32.8619 111.286 32.0357C110.453 31.1711 110.052 30.055 110.052 28.6156C110.014 27.3414 110.425 26.0937 111.214 25.0876C111.605 24.5948 112.108 24.2009 112.682 23.9382C113.257 23.6755 113.886 23.5515 114.517 23.5764C115.86 23.5764 116.91 24.0895 117.601 25.0876C118.144 25.9629 118.422 26.9748 118.4 28.0023ZM116.403 27.4635C116.431 26.9083 116.293 26.3574 116.005 25.8804C115.832 25.6004 115.584 25.3729 115.289 25.2227C114.995 25.0725 114.664 25.0054 114.334 25.0286C114.005 25.0247 113.681 25.1016 113.39 25.2525C113.098 25.4034 112.849 25.6235 112.665 25.8933C112.302 26.3599 112.087 26.9237 112.049 27.5123L116.403 27.4635Z" fill="white" fill-opacity="0.75"/>
    <path d="M46.3257 15.5495H45.2366L44.6209 13.6791H42.5513L41.9718 15.5495H40.9189L42.9885 9.17871H44.2561L46.3257 15.5495ZM44.4398 12.8863L43.894 11.2313C43.8215 11.0517 43.7491 10.654 43.568 10.0434H43.5318C43.4593 10.3307 43.3869 10.7259 43.242 11.2313L42.704 12.8863H44.4398Z" fill="white" fill-opacity="0.75"/>
    <path d="M51.484 10.9414L49.743 15.5598H48.7263L47.0215 10.9414H48.108L48.9126 13.3532C49.048 13.7298 49.1552 14.1157 49.2333 14.5078H49.2696C49.3587 14.1184 49.4684 13.7339 49.5981 13.3558L50.3949 10.944L51.484 10.9414Z" fill="white" fill-opacity="0.75"/>
    <path d="M55.2224 15.5505L55.15 15.0117H55.1215C54.9692 15.2213 54.7668 15.3901 54.5325 15.503C54.2981 15.6158 54.0392 15.6692 53.7789 15.6582C53.5935 15.6683 53.408 15.64 53.2342 15.5753C53.0603 15.5106 52.9019 15.4108 52.7689 15.2823C52.6359 15.1538 52.5313 14.9993 52.4615 14.8286C52.3918 14.6579 52.3585 14.4748 52.3638 14.2907C52.3638 13.1746 53.3417 12.5639 55.0853 12.5639V12.4921C55.0853 11.8789 54.7568 11.5915 54.1049 11.5915C53.682 11.5781 53.2648 11.6907 52.9071 11.9148L52.6898 11.2323C53.1766 10.961 53.7277 10.8237 54.2859 10.8346C55.4837 10.8346 56.0968 11.4837 56.0968 12.7435V14.4344C56.0952 14.7957 56.1194 15.1567 56.1693 15.5146L55.2224 15.5505ZM55.0776 13.2413C53.916 13.2413 53.3702 13.5287 53.3702 14.1778C53.3607 14.2716 53.3718 14.3663 53.4027 14.4555C53.4336 14.5446 53.4836 14.6261 53.5492 14.6943C53.6148 14.7626 53.6944 14.8159 53.7828 14.8508C53.8711 14.8856 53.966 14.9011 54.0609 14.8962C54.3191 14.9006 54.569 14.8059 54.7585 14.6319C54.9479 14.4579 55.0622 14.2179 55.0776 13.9623V13.2413Z" fill="white" fill-opacity="0.75"/>
    <path d="M58.3781 10.1873C58.2214 10.1772 58.0744 10.1084 57.967 9.99474C57.8596 9.88109 57.7998 9.73115 57.7998 9.57538C57.7998 9.4196 57.8596 9.26967 57.967 9.15601C58.0744 9.04236 58.2214 8.97351 58.3781 8.96344C58.4613 8.95567 58.5451 8.96606 58.6238 8.99389C58.7025 9.02172 58.774 9.06631 58.8335 9.12452C58.8929 9.18273 58.9388 9.25314 58.9678 9.33081C58.9968 9.40849 59.0084 9.49153 59.0016 9.57409C59.0088 9.65687 58.9975 9.74019 58.9687 9.81818C58.9398 9.89617 58.894 9.96692 58.8345 10.0254C58.7751 10.0839 58.7034 10.1287 58.6245 10.1567C58.5456 10.1847 58.4615 10.1951 58.3781 10.1873ZM58.924 15.5498H57.9073V10.9314H58.924V15.5498Z" fill="white" fill-opacity="0.75"/>
    <path d="M61.754 8.82031H60.7373V15.5144H61.754V8.82031Z" fill="white" fill-opacity="0.75"/>
    <path d="M66.1452 15.5497L66.0728 15.0109H66.0366C65.8843 15.2205 65.6819 15.3893 65.4475 15.5022C65.2132 15.615 64.9542 15.6684 64.6939 15.6574C64.5085 15.6674 64.323 15.6392 64.1492 15.5745C63.9754 15.5098 63.8169 15.41 63.684 15.2815C63.551 15.153 63.4463 14.9985 63.3766 14.8278C63.3069 14.6571 63.2736 14.474 63.2789 14.2899C63.2789 13.1738 64.2593 12.5631 66.0004 12.5631V12.4913C66.0004 11.878 65.6744 11.5907 65.0199 11.5907C64.5971 11.5776 64.18 11.6902 63.8221 11.914L63.6048 11.2315C64.0948 10.9588 64.6496 10.8214 65.2113 10.8338C66.4091 10.8338 67.0222 11.4829 67.0222 12.7427V14.4336C67.0205 14.7949 67.0447 15.1558 67.0946 15.5138H66.1504L66.1452 15.5497ZM66.0004 13.2405C64.8388 13.2405 64.2955 13.5278 64.2955 14.177C64.2857 14.2707 64.2964 14.3653 64.327 14.4545C64.3576 14.5437 64.4073 14.6252 64.4727 14.6935C64.5381 14.7617 64.6176 14.8152 64.7059 14.85C64.7941 14.8849 64.8889 14.9004 64.9837 14.8954C65.2421 14.9005 65.4924 14.806 65.6819 14.6318C65.8715 14.4576 65.9857 14.2174 66.0004 13.9615V13.2405Z" fill="white" fill-opacity="0.75"/>
    <path d="M71.1612 15.6222C70.8655 15.6321 70.5728 15.5598 70.3163 15.4133C70.0598 15.2669 69.8498 15.0521 69.71 14.7934H69.6737L69.6013 15.5144H68.7295C68.7657 15.1552 68.7657 14.7216 68.7657 14.2906V8.82031H69.7824V11.5914H69.8186C70.1083 11.0782 70.6154 10.8216 71.3061 10.8216C72.4314 10.8216 73.192 11.7581 73.192 13.1616C73.192 14.5651 72.3512 15.6222 71.1612 15.6222ZM70.9439 11.6632C70.789 11.6701 70.6369 11.7073 70.4964 11.7726C70.356 11.8378 70.2298 11.93 70.1253 12.0436C70.0208 12.1573 69.9399 12.2903 69.8873 12.4351C69.8346 12.5798 69.8113 12.7334 69.8186 12.8871V13.6799C69.8126 13.8296 69.8374 13.979 69.8914 14.1189C69.9454 14.2588 70.0275 14.3864 70.1328 14.4939C70.238 14.6014 70.3642 14.6866 70.5036 14.7443C70.6431 14.8019 70.7929 14.8309 70.9439 14.8294C71.7045 14.8294 72.1779 14.2187 72.1779 13.2104C72.1702 12.2739 71.6967 11.6632 70.9362 11.6632H70.9439Z" fill="white" fill-opacity="0.75"/>
    <path d="M75.7628 8.82031H74.7461V15.5144H75.7628V8.82031Z" fill="white" fill-opacity="0.75"/>
    <path d="M81.3514 13.4967H78.2652C78.261 13.6836 78.2964 13.8693 78.3688 14.0419C78.4413 14.2144 78.5493 14.3701 78.6859 14.4988C78.8225 14.6276 78.9848 14.7266 79.1622 14.7895C79.3397 14.8525 79.5285 14.8779 79.7164 14.8643C80.138 14.8724 80.5571 14.7992 80.9504 14.6488L81.0953 15.3698C80.6024 15.5672 80.0747 15.6649 79.5431 15.6571C78.0918 15.6571 77.2148 14.7565 77.2148 13.3479C77.2148 11.9393 78.0867 10.8643 79.3931 10.8643C80.5908 10.8643 81.3178 11.7289 81.3178 13.0606C81.3839 13.1966 81.3959 13.3523 81.3514 13.4967ZM80.4072 12.7424C80.4072 12.0214 80.045 11.5185 79.3905 11.5185C78.811 11.5185 78.3376 12.0317 78.2652 12.7424H80.4072Z" fill="white" fill-opacity="0.75"/>
    <path d="M87.5898 15.6217C86.2472 15.6217 85.3779 14.6134 85.3779 13.2458C85.3779 11.8783 86.2834 10.834 87.7062 10.834C89.0488 10.834 89.9206 11.8064 89.9206 13.174C89.9129 14.6493 88.9686 15.6217 87.5898 15.6217ZM87.626 11.5909C86.9017 11.5909 86.392 12.2734 86.392 13.2458C86.392 14.2182 86.8654 14.8648 87.5898 14.8648C88.3141 14.8648 88.7876 14.1464 88.7876 13.2099C88.7876 12.2734 88.3529 11.5909 87.626 11.5909Z" fill="white" fill-opacity="0.75"/>
    <path d="M95.4283 15.5506H94.4116V12.9233C94.4116 12.0945 94.0857 11.6994 93.47 11.6994C92.8543 11.6994 92.4533 12.2125 92.4533 12.8155V15.5506H91.4366V12.2741C91.4366 11.879 91.4366 11.4479 91.4004 10.9912H92.3084L92.3446 11.7122H92.3731C92.5222 11.4622 92.7362 11.2564 92.9929 11.1165C93.2496 10.9766 93.5394 10.9076 93.8321 10.9168C94.8126 10.9168 95.4283 11.6378 95.4283 12.8617V15.5506Z" fill="white" fill-opacity="0.75"/>
    <path d="M102.179 11.6981H101.053V13.9303C101.053 14.505 101.237 14.7924 101.672 14.7924C101.853 14.7924 101.998 14.7565 102.142 14.7565L102.179 15.5493C101.921 15.6278 101.652 15.6642 101.382 15.6571C100.583 15.6571 100.075 15.226 100.075 14.0381V11.7289H99.3848V10.9771H100.075V10.1458L101.09 9.8584V11.0104H102.205V11.6929L102.179 11.6981Z" fill="white" fill-opacity="0.75"/>
    <path d="M107.621 15.5497H106.602V12.9223C106.602 12.0936 106.273 11.6985 105.657 11.6985C105.517 11.6945 105.376 11.7204 105.246 11.7743C105.116 11.8281 104.999 11.9089 104.903 12.011C104.807 12.1132 104.734 12.2345 104.689 12.3668C104.643 12.4992 104.627 12.6396 104.641 12.7787V15.5497H103.624V8.86328H104.641V11.6343H104.677C104.817 11.3963 105.019 11.1995 105.261 11.0643C105.504 10.929 105.778 10.8601 106.056 10.8646C107.036 10.8646 107.652 11.6343 107.652 12.8095V15.5497H107.621Z" fill="white" fill-opacity="0.75"/>
    <path d="M112.883 13.4967H109.799C109.795 13.6843 109.831 13.8707 109.904 14.0438C109.977 14.2169 110.085 14.373 110.223 14.5019C110.36 14.6307 110.523 14.7296 110.702 14.792C110.88 14.8544 111.07 14.8791 111.258 14.8643C111.68 14.8724 112.099 14.7992 112.492 14.6488L112.637 15.3698C112.144 15.567 111.617 15.6647 111.085 15.6571C109.634 15.6571 108.757 14.7565 108.757 13.3479C108.757 11.9393 109.629 10.8643 110.935 10.8643C112.133 10.8643 112.857 11.7289 112.857 13.0606C112.902 13.2015 112.911 13.3515 112.883 13.4967ZM111.941 12.7424C111.941 12.0214 111.577 11.5185 110.925 11.5185C110.343 11.5185 109.872 12.0317 109.799 12.7424H111.941Z" fill="white" fill-opacity="0.75"/>
  </g>
  <rect x="0.5" y="0.5" width="129" height="42" rx="11.5" stroke="white" stroke-opacity="0.1"/>
  <defs>
    <filter id="filter0_b_2393_4606" x="-31.5" y="-25" width="189.075" height="93" filterUnits="userSpaceOnUse" color-interpolation-filters="sRGB">
      <feFlood flood-opacity="0" result="BackgroundImageFix"/>
      <feGaussianBlur in="BackgroundImageFix" stdDeviation="12.5"/>
      <feComposite in2="SourceAlpha" operator="in" result="effect1_backgroundBlur_2393_4606"/>
      <feBlend mode="normal" in="SourceGraphic" in2="effect1_backgroundBlur_2393_4606" result="shape"/>
    </filter>
    <clipPath id="clip0_2393_4606">
      <rect width="130" height="43" rx="12" fill="white"/>
    </clipPath>
  </defs>
</svg>