<svg xmlns="http://www.w3.org/2000/svg" width="130" height="43" viewBox="0 0 130 43" fill="none">
  <g clip-path="url(#clip0_2393_4571)">
    <g filter="url(#filter0_b_2393_4571)">
      <path d="M138.416 38.6745C138.417 39.2437 138.307 39.8075 138.093 40.3334C137.879 40.8594 137.564 41.337 137.168 41.739C136.771 42.141 136.3 42.4593 135.782 42.6757C135.264 42.8921 134.71 43.0023 134.15 43H-4.67081C-5.23078 43.0023 -5.78569 42.8921 -6.30363 42.6757C-6.82157 42.4593 -7.29232 42.141 -7.68883 41.739C-8.08533 41.337 -8.39977 40.8594 -8.61406 40.3334C-8.82835 39.8075 -8.93827 39.2437 -8.9375 38.6745V4.33735C-8.93518 3.18774 -8.48492 2.08588 -7.68526 1.27298C-6.8856 0.460075 -5.8017 0.00235016 -4.67081 0H134.15C135.28 0.00235016 136.364 0.460075 137.164 1.27298C137.964 2.08588 138.414 3.18774 138.416 4.33735V38.6745Z" fill="white" fill-opacity="0.1"/>
    </g>
    <path d="M44.7121 13.8351C44.7121 14.6627 44.4586 15.3083 43.9852 15.7746C43.4419 16.3485 42.715 16.638 41.807 16.638C40.9714 16.638 40.247 16.3511 39.6287 15.7746C39.0492 15.2007 38.7207 14.4808 38.7207 13.6174C38.7207 12.7539 39.0104 12.0366 39.6287 11.4601C40.2082 10.8862 40.9352 10.5967 41.807 10.5967C42.2416 10.5967 42.6425 10.6684 43.0047 10.8478C43.4031 11.0271 43.6954 11.2423 43.9128 11.4934L43.4057 11.9956C43.0073 11.5293 42.4615 11.3115 41.8095 11.3115C41.1938 11.3115 40.648 11.5267 40.2134 11.9571C39.7788 12.3876 39.5227 12.964 39.5227 13.6455C39.5227 14.327 39.74 14.9035 40.2134 15.3339C40.648 15.7644 41.1938 15.9796 41.8095 15.9796C42.4615 15.9796 43.0073 15.7644 43.4419 15.3339C43.7317 15.047 43.8765 14.6499 43.949 14.1477H41.807V13.4636H44.6733C44.7121 13.5482 44.7121 13.6917 44.7121 13.8351Z" fill="white" fill-opacity="0.75"/>
    <path d="M44.7134 13.8352C44.6771 14.6269 44.4236 15.2725 43.9502 15.7388C43.4069 16.3127 42.68 16.6022 41.8082 16.6022C40.9726 16.6022 40.2482 16.3153 39.6662 15.7388C39.0867 15.1649 38.7944 14.445 38.7944 13.5816C38.7944 12.7181 39.0841 12.0008 39.6662 11.4243C40.2457 10.8504 40.9726 10.5609 41.8082 10.5609C42.2066 10.5609 42.6076 10.6326 43.006 10.812C43.3681 10.9554 43.6967 11.1707 43.914 11.4576L43.9502 11.4217L43.914 11.3859L43.4069 11.888L43.4432 11.9239L43.4794 11.888C43.081 11.4217 42.5351 11.1681 41.847 11.1681C41.2313 11.1681 40.6854 11.3833 40.2146 11.8137C39.7438 12.2442 39.5239 12.8206 39.5239 13.538C39.5239 14.2221 39.7412 14.796 40.2146 15.2623C40.6854 15.6927 41.2313 15.9079 41.847 15.9079C42.4989 15.9079 43.081 15.6927 43.5156 15.2623C43.8053 14.9753 43.9864 14.5782 44.0226 14.076V14.0402H41.8806V13.4304H44.7108V13.3945H44.6746C44.6771 13.5482 44.6771 13.6917 44.7134 13.8352H44.7496C44.7496 13.6917 44.7496 13.5482 44.7134 13.4048V13.3689H41.8108V14.1247H43.989V14.0888H43.9528C43.9166 14.591 43.7355 14.9881 43.482 15.2392C43.0473 15.6696 42.5015 15.8849 41.8496 15.8849C41.2339 15.8849 40.7242 15.6696 40.2534 15.2392C39.8188 14.8088 39.6015 14.2682 39.6015 13.5867C39.6015 12.9026 39.8188 12.3646 40.2534 11.9341C40.688 11.5037 41.2339 11.2885 41.8496 11.2885C42.5403 11.2885 43.0473 11.5037 43.4457 11.9726L43.482 12.0084L44.0614 11.4345L44.0252 11.3987C43.8079 11.1117 43.482 10.8965 43.081 10.753C42.6826 10.5737 42.2816 10.502 41.847 10.502C40.9752 10.502 40.2508 10.7889 39.6688 11.4012C39.0531 11.9751 38.7607 12.7309 38.7607 13.5944C38.7607 14.4578 39.0505 15.211 39.6688 15.7875C40.2845 16.3614 41.0114 16.6868 41.847 16.6868C42.755 16.6868 43.4794 16.3998 44.0252 15.8234C44.5323 15.3084 44.7496 14.6602 44.7134 13.8352Z" fill="white" fill-opacity="0.75"/>
    <path d="M49.2512 11.3911H46.5659V13.2589H48.9588V13.9429H46.5659V15.8107H49.2512V16.5306H45.8027V10.707H49.2512V11.3911Z" fill="white" fill-opacity="0.75"/>
    <path d="M49.2503 11.3908V11.355H46.5262V13.2945H48.9217V13.9068H46.5262V15.8463H49.2141V16.4945H45.8381V10.7426H49.2141V11.3908H49.2503V11.355V11.3908H49.2865V10.6709H45.7656V16.5662H49.2865V15.7745H46.6012V13.9785H48.9942V13.2227H46.6012V11.4267H49.2865V11.3908H49.2503Z" fill="white" fill-opacity="0.75"/>
    <path d="M52.4425 16.5306H51.6793V11.3911H50.0107V10.707H54.0749V11.3911H52.4425V16.5306Z" fill="white" fill-opacity="0.75"/>
    <path d="M52.4426 16.5303V16.4945H51.7156V11.355H50.047V10.7426H54.0387V11.355H52.4064V16.5303H52.4426V16.4945V16.5303H52.4788V11.4267H54.1112V10.6709H49.9746V11.4267H51.6432V16.5662H52.4788V16.5303H52.4426Z" fill="white" fill-opacity="0.75"/>
    <path d="M57.7759 10.707H57.0127V16.528H57.7759V10.707Z" fill="white" fill-opacity="0.75"/>
    <path d="M57.0138 16.5303H57.05V10.7426H57.7045V16.4945H57.0138V16.5303H57.05H57.0138V16.5662H57.7769V10.6709H56.9775V16.5662H57.0138V16.5303Z" fill="white" fill-opacity="0.75"/>
    <path d="M61.1162 16.5306H60.3531V11.3911H58.7207V10.707H62.7486V11.3911H61.1162V16.5306Z" fill="white" fill-opacity="0.75"/>
    <path d="M61.1153 16.5303V16.4945H60.3884V11.355H58.756V10.7426H62.7115V11.355H61.0765V16.5303H61.1153V16.4945V16.5303H61.1516V11.4267H62.7839V10.6709H58.6836V11.4267H60.316V16.5662H61.1516V16.5303H61.1153Z" fill="white" fill-opacity="0.75"/>
    <path d="M70.4058 15.7743C69.8263 16.3483 69.0994 16.6736 68.2638 16.6736C67.392 16.6736 66.6677 16.3867 66.1218 15.7743C65.5423 15.2004 65.25 14.4805 65.25 13.6171C65.25 12.7537 65.5397 12.0363 66.1218 11.4598C66.7013 10.8859 67.4282 10.5605 68.2638 10.5605C69.1356 10.5605 69.8238 10.8475 70.4058 11.4598C70.9853 12.0337 71.2776 12.7537 71.2776 13.6171C71.275 14.4446 70.9853 15.1646 70.4058 15.7743ZM66.6677 15.2722C67.1023 15.7026 67.6481 15.9178 68.2638 15.9178C68.8795 15.9178 69.4254 15.7026 69.86 15.2722C70.2946 14.8418 70.5119 14.2653 70.5119 13.5838C70.5119 12.8997 70.2946 12.3617 69.86 11.8954C69.4254 11.465 68.8795 11.2497 68.2638 11.2497C67.6481 11.2497 67.1023 11.465 66.6677 11.8954C66.2331 12.3258 66.0157 12.9023 66.0157 13.5838C66.0132 14.2653 66.2305 14.8418 66.6677 15.2722Z" fill="white" fill-opacity="0.75"/>
    <path d="M70.4059 15.7751C69.8264 16.349 69.0995 16.6385 68.2639 16.6385C67.4283 16.6385 66.704 16.3515 66.1219 15.7751C65.5424 15.2012 65.2501 14.4812 65.2501 13.6537C65.2501 12.8261 65.5398 12.1087 66.1219 11.5323C66.7014 10.9584 67.3921 10.6689 68.2639 10.6689C69.0995 10.6689 69.8238 10.9558 70.4059 11.5323C70.9854 12.1062 71.2777 12.8261 71.2777 13.6537C71.2389 14.4453 70.9492 15.1653 70.4059 15.7751C71.0216 15.2012 71.3139 14.4812 71.3139 13.6178C71.3139 12.7544 71.0242 12.037 70.4421 11.4247C69.8627 10.8149 69.1357 10.5254 68.2639 10.5254C67.3921 10.5254 66.6678 10.8123 66.0857 11.4247C65.5036 12.037 65.2139 12.7544 65.2139 13.6178C65.2139 14.4812 65.5036 15.1986 66.0857 15.8109C66.6652 16.4207 67.3921 16.7102 68.2639 16.7102C69.1357 16.6743 69.8601 16.3874 70.4059 15.7751ZM66.6678 15.2729C67.0661 15.7392 67.612 15.957 68.2639 15.957C68.9158 15.957 69.4617 15.7418 69.8963 15.2729C70.3309 14.8425 70.5482 14.266 70.5482 13.5845C70.5482 12.9004 70.3309 12.3265 69.8963 11.8961C69.4617 11.4657 68.9158 11.212 68.2639 11.212C67.612 11.212 67.0661 11.4272 66.6315 11.8961C66.1969 12.3265 65.9796 12.903 65.9796 13.5845C65.977 14.3019 66.1943 14.8783 66.6678 15.2729C66.2694 14.8066 66.0521 14.266 66.0521 13.5845C66.0521 12.9004 66.2694 12.3624 66.704 11.932C67.1386 11.5015 67.6482 11.2863 68.2639 11.2863C68.8796 11.2863 69.4255 11.5015 69.8238 11.932C70.2585 12.3624 70.4758 12.903 70.4758 13.5845C70.4758 14.2686 70.2585 14.8066 69.8238 15.237C69.3892 15.6675 68.8796 15.8827 68.2639 15.8827C67.6456 15.8827 67.1024 15.6675 66.6678 15.2729Z" fill="white" fill-opacity="0.75"/>
    <path d="M72.3281 16.5306V10.707H73.2724L76.1387 15.2368V14.0864V10.707H76.8631V16.5306H76.1025L73.0913 11.7498H73.0551L73.0913 12.9002V16.5306H72.3281Z" fill="white" fill-opacity="0.75"/>
    <path d="M72.3282 16.5303H72.3644V10.7426H73.2362L76.1026 15.2724H76.1388H76.175V14.0861V10.7426H76.8269V16.4945H76.1026L73.1276 11.7137H73.0552H73.0163L73.0552 12.8999V16.4945H72.3282V16.5303H72.3644H72.3282V16.5662H73.1276V12.8999L73.0914 11.7495H73.0552V11.7854H73.0914L76.0664 16.5662H76.8994V10.6709H76.1026V14.0861V15.2365H76.1388V15.2006L73.2725 10.6709H72.292V16.5662H72.3282V16.5303Z" fill="white" fill-opacity="0.75"/>
    <path d="M65.0322 25.0112C62.7092 25.0112 60.8595 26.7354 60.8595 29.1438C60.8595 31.5163 62.7454 33.2764 65.0322 33.2764C67.3553 33.2764 69.2049 31.5163 69.2049 29.1438C69.2437 26.7739 67.3553 25.0112 65.0322 25.0112ZM65.0322 31.6597C63.762 31.6597 62.6729 30.617 62.6729 29.1438C62.6729 27.6706 63.762 26.6278 65.0322 26.6278C66.3024 26.6278 67.3915 27.6347 67.3915 29.1438C67.3915 30.6195 66.3024 31.6597 65.0322 31.6597ZM55.89 25.0112C53.567 25.0112 51.7173 26.7354 51.7173 29.1438C51.7173 31.5163 53.6032 33.2764 55.89 33.2764C58.2131 33.2764 60.0627 31.5163 60.0627 29.1438C60.099 26.7739 58.2105 25.0112 55.89 25.0112ZM55.89 31.6597C54.6199 31.6597 53.5308 30.617 53.5308 29.1438C53.5308 27.6706 54.6199 26.6278 55.89 26.6278C57.1602 26.6278 58.2493 27.6347 58.2493 29.1438C58.2467 30.6195 57.1602 31.6597 55.89 31.6597ZM45.0379 26.305V28.0652H49.283C49.1744 29.0362 48.8122 29.7536 48.3026 30.2583C47.6869 30.8681 46.7065 31.5521 45.0379 31.5521C42.4251 31.5521 40.3918 29.4666 40.3918 26.8789C40.3918 24.2912 42.4251 22.2057 45.0379 22.2057C46.453 22.2057 47.4696 22.7437 48.2302 23.4637L49.4641 22.2416C48.4113 21.2347 46.9962 20.4814 45.0379 20.4814C41.4809 20.4814 38.4697 23.3561 38.4697 26.9148C38.4697 30.4376 41.4809 33.3481 45.0379 33.3481C46.96 33.3481 48.4138 32.7384 49.5728 31.5521C50.7343 30.4018 51.0965 28.7492 51.0965 27.4554C51.0965 27.0608 51.0603 26.6637 50.9878 26.3768H45.0379V26.305ZM89.4915 27.6706C89.1294 26.7354 88.0765 25.047 85.9345 25.047C83.7925 25.047 82.0153 26.7354 82.0153 29.1797C82.0153 31.4804 83.7925 33.3123 86.1518 33.3123C88.0739 33.3123 89.163 32.1619 89.6364 31.4804L88.2213 30.5452C87.7505 31.2293 87.096 31.6956 86.1518 31.6956C85.2076 31.6956 84.5557 31.2652 84.1185 30.4376L89.7062 28.1369L89.4915 27.6706ZM83.7951 29.0362C83.7589 27.4554 85.0291 26.6278 85.9733 26.6278C86.7002 26.6278 87.3159 26.9865 87.5332 27.4913L83.7951 29.0362ZM79.2577 33.0253H81.1073V20.8786H79.2577V33.0253ZM76.2465 25.9463H76.1741C75.7757 25.4442 74.9763 25.0112 73.9597 25.0112C71.8901 25.0112 69.968 26.8431 69.968 29.1438C69.968 31.4445 71.8901 33.2764 73.9597 33.2764C74.9401 33.2764 75.7369 32.846 76.1741 32.3412H76.2465V32.951C76.2465 34.5318 75.3747 35.3952 74.0321 35.3952C72.9068 35.3952 72.2187 34.6035 71.9263 33.922L70.3302 34.5677C70.801 35.6463 71.9988 37.0119 74.0321 37.0119C76.1741 37.0119 77.9875 35.7539 77.9875 32.6999V25.2956H76.2465V25.9463ZM74.1408 31.6597C72.8706 31.6597 71.8177 30.617 71.8177 29.1797C71.8177 27.7065 72.8706 26.6637 74.1408 26.6637C75.3747 26.6637 76.3552 27.7423 76.3552 29.1797C76.3914 30.6195 75.4109 31.6597 74.1408 31.6597ZM98.0904 20.8786H93.7004V33.0253H95.5139V28.4238H98.0542C100.088 28.4238 102.082 26.9865 102.082 24.6499C102.082 22.3518 100.088 20.8786 98.0904 20.8786ZM98.1267 26.738H95.5139V22.5695H98.1267C99.5055 22.5695 100.269 23.684 100.269 24.6551C100.269 25.6235 99.5055 26.738 98.1267 26.738ZM109.45 25.0112C108.107 25.0112 106.764 25.5851 106.185 26.8789L107.817 27.563C108.179 26.8789 108.798 26.6637 109.486 26.6637C110.43 26.6637 111.408 27.2376 111.408 28.2086V28.3162C111.082 28.1369 110.355 27.8499 109.486 27.8499C107.745 27.8499 105.965 28.821 105.965 30.5811C105.965 32.1978 107.416 33.2405 109.012 33.2405C110.246 33.2405 110.934 32.7025 111.335 32.0543H111.408V32.9894H113.185V28.3188C113.151 26.1974 111.519 25.0112 109.45 25.0112ZM109.232 31.6597C108.617 31.6597 107.781 31.3728 107.781 30.617C107.781 29.6818 108.834 29.3231 109.703 29.3231C110.502 29.3231 110.901 29.5025 111.372 29.7177C111.263 30.8706 110.285 31.6597 109.232 31.6597ZM119.611 25.2623L117.505 30.5452H117.433L115.255 25.2623H113.296L116.561 32.6308L114.711 36.7275H116.633L121.678 25.2623H119.611ZM103.099 33.0253H104.912V20.8786H103.099V33.0253Z" fill="white" fill-opacity="0.75"/>
    <path d="M9.31076 9.69141C8.9848 9.97836 8.80371 10.4831 8.80371 11.1287V10.9853V32.4759V32.3324C8.80371 32.9422 8.9848 33.411 9.27454 33.698L9.34697 33.7697L21.5031 21.7306L9.31076 9.69141Z" fill="white" fill-opacity="0.75"/>
    <path d="M31.3328 22.119C31.1879 22.4419 30.8507 22.8572 30.4497 23.075C30.8507 22.8239 31.1879 22.4085 31.3328 22.119ZM25.6394 17.792L21.3203 21.7584L25.6394 25.842L30.5391 23.075C31.1548 22.7163 31.362 22.2247 31.3982 21.7584C31.3258 21.2922 31.1574 20.9177 30.5391 20.559L25.6394 17.792Z" fill="white" fill-opacity="0.95"/>
    <path d="M9.31071 33.9121C9.52802 34.1273 9.85397 34.2349 10.1825 34.2349C9.85397 34.2375 9.56423 34.1273 9.31071 33.9121ZM21.4666 21.7295L9.31071 33.7686C9.52802 33.9838 9.85397 34.0915 10.1825 34.0915C10.5085 34.0915 10.8732 33.9838 11.2716 33.7686L25.6388 25.7241L21.4666 21.7295Z" fill="white" fill-opacity="0.85"/>
    <path d="M10.1794 9.36772C9.85346 9.36772 9.52751 9.47532 9.30762 9.69054L21.4661 21.7297L25.6386 17.7913L11.3047 9.69054C10.8701 9.47532 10.5079 9.36772 10.1794 9.36772ZM10.1794 9.22168C10.5054 9.22168 10.8701 9.32929 11.2685 9.5445C10.8701 9.33185 10.5079 9.22168 10.1794 9.22168Z" fill="white" fill-opacity="0.85"/>
    <path d="M11.2694 33.9121C10.9435 34.0915 10.6175 34.1991 10.3252 34.2349C10.6537 34.2016 10.9435 34.0915 11.2694 33.9121Z" fill="#272727"/>
    <path d="M25.6396 25.7246L11.3058 33.769C10.9074 33.9842 10.5426 34.0919 10.2167 34.0919C9.89074 34.0919 9.56478 33.9842 9.3449 33.769L9.27246 33.8408L9.3449 33.9125C9.5622 34.1277 9.88815 34.2353 10.2167 34.2353C10.2891 34.2353 10.3253 34.2353 10.3978 34.2353C10.6875 34.1995 11.0135 34.0919 11.342 33.9125L25.7845 25.8322L25.6396 25.7246Z" fill="white" fill-opacity="0.75"/>
    <path d="M8.80078 32.4756C8.80078 33.0854 8.98187 33.5542 9.27161 33.8412C8.94824 33.5542 8.80078 33.0879 8.80078 32.4756Z" fill="#272727"/>
    <path d="M8.80078 32.332V32.4755C8.80078 33.0853 8.98187 33.5541 9.27161 33.8411L9.34405 33.7693L9.27161 33.6976C8.94824 33.4107 8.80078 32.9444 8.80078 32.332Z" fill="white" fill-opacity="0.75"/>
    <path d="M9.31112 33.7695L9.23828 33.8413L9.31112 33.7695Z" fill="white" fill-opacity="0.75"/>
    <path d="M31.3975 21.7578C31.3251 22.2241 31.046 22.6289 30.4277 22.9876L25.6387 25.7243L25.7473 25.8319L30.4277 23.167C30.8623 22.9159 31.1546 22.6289 31.2995 22.3394C31.4081 22.1242 31.3975 21.9372 31.3975 21.7578Z" fill="white" fill-opacity="0.75"/>
    <path d="M10.1796 9.22168C9.41647 9.22168 8.87321 9.79559 8.80078 10.8025C8.837 10.3003 8.98187 9.90319 9.23538 9.61624L9.30782 9.5445C9.52771 9.33185 9.85366 9.22168 10.1796 9.22168Z" fill="white" fill-opacity="0.75"/>
    <path d="M9.23832 9.61914C8.9848 9.87022 8.83993 10.3032 8.80371 10.8054C8.80371 10.8771 8.80371 10.913 8.80371 10.9847V11.1282C8.80371 10.4826 8.9848 9.97783 9.31076 9.69088L9.23832 9.61914Z" fill="white" fill-opacity="0.75"/>
    <path d="M25.7473 17.6846L25.6387 17.7922L30.3939 20.5082C31.0096 20.8669 31.3613 21.2925 31.3975 21.7588C31.3975 21.2566 31.0846 20.7593 30.3939 20.3647L25.7473 17.6846Z" fill="white" fill-opacity="0.75"/>
    <path d="M10.1806 9.22168C9.8546 9.22168 9.52865 9.32929 9.30876 9.5445L9.23633 9.61624L9.30876 9.68798C9.52606 9.47276 9.85202 9.36516 10.1806 9.36516C10.5065 9.36516 10.8713 9.47276 11.2696 9.68798L25.6397 17.7913L25.7483 17.6836L11.2696 9.5445C10.8713 9.33185 10.5091 9.22168 10.1806 9.22168Z" fill="white" fill-opacity="0.75"/>
  </g>
  <rect x="0.5" y="0.5" width="129" height="42" rx="11.5" stroke="white" stroke-opacity="0.1"/>
  <defs>
    <filter id="filter0_b_2393_4571" x="-33.9375" y="-25" width="197.354" height="93" filterUnits="userSpaceOnUse" color-interpolation-filters="sRGB">
      <feFlood flood-opacity="0" result="BackgroundImageFix"/>
      <feGaussianBlur in="BackgroundImageFix" stdDeviation="12.5"/>
      <feComposite in2="SourceAlpha" operator="in" result="effect1_backgroundBlur_2393_4571"/>
      <feBlend mode="normal" in="SourceGraphic" in2="effect1_backgroundBlur_2393_4571" result="shape"/>
    </filter>
    <clipPath id="clip0_2393_4571">
      <rect width="130" height="43" rx="12" fill="white"/>
    </clipPath>
  </defs>
</svg>