<svg xmlns="http://www.w3.org/2000/svg" width="28" height="42" viewBox="0 0 28 42" fill="none">
  <path d="M14 0C10.4196 0 6.9858 1.42182 4.45406 3.95266C1.92232 6.48351 0.5 9.91608 0.5 13.4952C0.5 13.9501 0.52325 14.4082 0.56975 14.8695C0.56975 14.892 0.5765 14.9145 0.5795 14.937C0.881058 18.1248 2.24377 21.1193 4.4495 23.4412C8.69494 27.6852 11.4042 33.2227 12.149 39.1782L12.314 40.497C12.3619 40.9108 12.5603 41.2926 12.8714 41.5697C13.1826 41.8469 13.5848 42 14.0015 42C14.4182 42 14.8204 41.8469 15.1316 41.5697C15.4427 41.2926 15.6411 40.9108 15.689 40.497L15.854 39.1782C16.5988 33.2227 19.3081 27.6852 23.5535 23.4412C25.7592 21.1193 27.1219 18.1248 27.4235 14.937C27.4235 14.9145 27.431 14.892 27.4333 14.8695C27.4777 14.4092 27.5 13.9511 27.5 13.4952C27.5 9.91608 26.0777 6.48351 23.5459 3.95266C21.0142 1.42182 17.5804 0 14 0ZM14 19.4931C12.8133 19.4931 11.6533 19.1414 10.6666 18.4823C9.67988 17.8232 8.91085 16.8865 8.45672 15.7905C8.0026 14.6946 7.88378 13.4886 8.11529 12.3251C8.3468 11.1616 8.91824 10.0929 9.75736 9.25409C10.5965 8.41527 11.6656 7.84403 12.8295 7.6126C13.9933 7.38117 15.1997 7.49995 16.2961 7.95392C17.3925 8.40788 18.3295 9.17665 18.9888 10.163C19.6481 11.1493 20 12.309 20 13.4952C20 15.086 19.3679 16.6116 18.2426 17.7364C17.1174 18.8612 15.5913 19.4931 14 19.4931Z" fill="#F44F70"/>
</svg>