<svg width="18" height="18" viewBox="0 0 18 18" fill="none" xmlns="http://www.w3.org/2000/svg">
<path d="M15.8101 6.43502V11.565C15.8101 12.405 15.3601 13.185 14.6326 13.6125L10.1776 16.185C9.45009 16.605 8.55009 16.605 7.81509 16.185L3.36012 13.6125C2.63262 13.1925 2.18262 12.4125 2.18262 11.565V6.43502C2.18262 5.59502 2.63262 4.81499 3.36012 4.38749L7.81509 1.815C8.54259 1.395 9.44259 1.395 10.1776 1.815L14.6326 4.38749C15.3601 4.81499 15.8101 5.58752 15.8101 6.43502Z" stroke="#CDA870" stroke-width="1.5" stroke-linecap="round" stroke-linejoin="round"/>
<path d="M8.99942 8.25087C9.9646 8.25087 10.7469 7.46844 10.7469 6.50332C10.7469 5.53821 9.9646 4.75586 8.99942 4.75586C8.03432 4.75586 7.25195 5.53821 7.25195 6.50332C7.25195 7.46844 8.03432 8.25087 8.99942 8.25087Z" stroke="#CDA870" stroke-width="1.5" stroke-linecap="round" stroke-linejoin="round"/>
<path d="M12 12.4958C12 11.1458 10.6575 10.0508 9 10.0508C7.3425 10.0508 6 11.1458 6 12.4958" stroke="#CDA870" stroke-width="1.5" stroke-linecap="round" stroke-linejoin="round"/>
</svg>
