<svg width="292" height="88" viewBox="0 0 292 88" fill="none" xmlns="http://www.w3.org/2000/svg">
<path d="M140.428 41.1838C162.748 38.3038 172.828 47.4238 172.828 61.9438C172.828 76.7038 160.468 87.8638 139.708 87.8638C131.908 87.8638 124.468 86.3038 116.068 82.9438V82.7038C124.468 84.5038 123.028 76.4638 116.188 54.2638H116.428C124.108 74.4238 134.428 85.9438 144.988 85.9438C155.668 85.9438 159.268 76.9438 159.268 66.7438C159.268 51.8638 151.948 41.6638 132.748 43.1038L132.628 42.7438C150.628 38.1838 155.308 29.9038 155.308 19.8238C155.308 12.7438 152.548 2.42382 142.828 2.42382C132.268 2.42382 127.468 14.5438 125.668 34.5838H125.428C125.668 15.3838 122.548 8.30383 116.068 11.4238L115.948 11.1838C123.028 6.50383 133.948 0.623824 147.028 0.623824C160.108 0.623824 168.868 6.26382 168.868 17.6638C168.868 25.2238 165.628 35.5438 140.428 41.1838Z" fill="#CDA870" fill-opacity="0.05"/>
<path d="M143.492 40.642C153.536 39.346 158.072 43.45 158.072 49.984C158.072 56.626 152.51 61.648 143.168 61.648C139.658 61.648 136.31 60.946 132.53 59.434V59.326C136.31 60.136 135.662 56.518 132.584 46.528H132.692C136.148 55.6 140.792 60.784 145.544 60.784C150.35 60.784 151.97 56.734 151.97 52.144C151.97 45.448 148.676 40.858 140.036 41.506L139.982 41.344C148.082 39.292 150.188 35.566 150.188 31.03C150.188 27.844 148.946 23.2 144.572 23.2C139.82 23.2 137.66 28.654 136.85 37.672H136.742C136.85 29.032 135.446 25.846 132.53 27.25L132.476 27.142C135.662 25.036 140.576 22.39 146.462 22.39C152.348 22.39 156.29 24.928 156.29 30.058C156.29 33.46 154.832 38.104 143.492 40.642Z" fill="#CDA870"/>
</svg>
