<svg width="292" height="91" viewBox="0 0 292 91" fill="none" xmlns="http://www.w3.org/2000/svg">
<path d="M179.794 45.4238L180.034 45.5438C173.194 63.0638 173.674 69.6638 176.674 72.9038L176.554 73.1438C174.034 72.4238 169.714 72.3038 165.154 72.3038H159.514V75.5438C159.514 87.6638 163.474 89.1038 175.354 90.1838V90.4238C157.714 90.0638 143.794 89.9438 127.594 90.4238V90.1838C144.634 89.1038 152.914 87.7838 152.914 75.6638V72.3038H114.634L114.514 71.8238L127.474 47.5838C138.154 26.7038 136.954 11.9438 113.434 11.8238L113.314 11.5838C137.314 10.7438 142.954 9.06382 141.514 0.663825L141.754 0.543827C147.154 14.2238 142.474 26.5838 130.114 47.9438L122.194 61.5038L152.914 61.3838V37.2638C157.114 36.4238 158.554 34.3838 159.274 26.2238H159.514V61.3838H160.114C169.954 61.3838 173.554 59.1038 179.794 45.4238Z" fill="#CDA870" fill-opacity="0.05"/>
<path d="M161.207 44.75L161.315 44.804C158.237 52.688 158.453 55.658 159.803 57.116L159.749 57.224C158.615 56.9 156.671 56.846 154.619 56.846H152.081V58.304C152.081 63.758 153.863 64.406 159.209 64.892V65C151.271 64.838 145.007 64.784 137.717 65V64.892C145.385 64.406 149.111 63.812 149.111 58.358V56.846H131.885L131.831 56.63L137.663 45.722C142.469 36.326 141.929 29.684 131.345 29.63L131.291 29.522C142.091 29.144 144.629 28.388 143.981 24.608L144.089 24.554C146.519 30.71 144.413 36.272 138.851 45.884L135.287 51.986L149.111 51.932V41.078C151.001 40.7 151.649 39.782 151.973 36.11H152.081V51.932H152.351C156.779 51.932 158.399 50.906 161.207 44.75Z" fill="#CDA870"/>
</svg>
