<svg width="292" height="89" viewBox="0 0 292 89" fill="none" xmlns="http://www.w3.org/2000/svg">
<path d="M130.904 88.4238V88.0638C138.464 87.1038 140.504 85.0638 140.504 73.7838V23.6238C140.504 12.7038 139.064 9.46382 129.584 9.58383V9.22382C144.224 7.90383 151.304 5.14383 152.984 0.583822H153.224V73.7838C153.224 85.1838 155.264 87.1038 162.944 88.0638V88.4238C150.704 87.5838 143.024 87.5838 130.904 88.4238Z" fill="#CDA870" fill-opacity="0.05"/>
<path d="M138.982 63V62.838C142.384 62.406 143.302 61.488 143.302 56.412V33.84C143.302 28.926 142.654 27.468 138.388 27.522V27.36C144.976 26.766 148.162 25.524 148.918 23.472H149.026V56.412C149.026 61.542 149.944 62.406 153.4 62.838V63C147.892 62.622 144.436 62.622 138.982 63Z" fill="#CDA870"/>
</svg>
