<svg width="292" height="88" viewBox="0 0 292 88" fill="none" xmlns="http://www.w3.org/2000/svg">
<path d="M175.166 53.0638L175.526 53.1838C166.166 78.8638 168.086 84.8638 172.646 87.5038L172.406 87.7438C166.046 86.6638 152.126 86.4238 145.646 86.4238H116.966L116.846 85.8238L134.726 67.3438C148.646 52.9438 157.286 39.1438 157.286 23.7838C157.286 13.4638 153.686 2.78382 144.326 2.78382C135.086 2.78382 128.366 11.6638 122.366 48.5038H122.126C125.846 14.9038 122.126 8.66383 113.606 11.7838L113.486 11.5438C125.006 4.58382 136.526 0.623824 147.206 0.623824C161.846 0.623824 170.846 7.82382 170.846 19.8238C170.846 36.9838 154.046 53.4238 137.366 68.0638L128.606 75.8638H143.366C159.086 75.8638 165.686 72.6238 175.166 53.0638Z" fill="#CDA870" fill-opacity="0.05"/>
<path d="M159.125 45.988L159.287 46.042C155.075 57.598 155.939 60.298 157.991 61.486L157.883 61.594C155.021 61.108 148.757 61 145.841 61H132.935L132.881 60.73L140.927 52.414C147.191 45.934 151.079 39.724 151.079 32.812C151.079 28.168 149.459 23.362 145.247 23.362C141.089 23.362 138.065 27.358 135.365 43.936H135.257C136.931 28.816 135.257 26.008 131.423 27.412L131.369 27.304C136.553 24.172 141.737 22.39 146.543 22.39C153.131 22.39 157.181 25.63 157.181 31.03C157.181 38.752 149.621 46.15 142.115 52.738L138.173 56.248H144.815C151.889 56.248 154.859 54.79 159.125 45.988Z" fill="#CDA870"/>
</svg>
