<svg xmlns="http://www.w3.org/2000/svg" width="24" height="24" viewBox="0 0 18 19" fill="none">
<path d="M15.8101 6.93502V12.065C15.8101 12.905 15.3601 13.685 14.6326 14.1125L10.1776 16.685C9.45009 17.105 8.55009 17.105 7.81509 16.685L3.36012 14.1125C2.63262 13.6925 2.18262 12.9125 2.18262 12.065V6.93502C2.18262 6.09502 2.63262 5.31499 3.36012 4.88749L7.81509 2.315C8.54259 1.895 9.44259 1.895 10.1776 2.315L14.6326 4.88749C15.3601 5.31499 15.8101 6.08752 15.8101 6.93502Z" stroke="#164D59" stroke-width="1.5" stroke-linecap="round" stroke-linejoin="round"/>
<path d="M8.99942 8.75087C9.9646 8.75087 10.7469 7.96844 10.7469 7.00332C10.7469 6.03821 9.9646 5.25586 8.99942 5.25586C8.03432 5.25586 7.25195 6.03821 7.25195 7.00332C7.25195 7.96844 8.03432 8.75087 8.99942 8.75087Z" stroke="#164D59" stroke-width="1.5" stroke-linecap="round" stroke-linejoin="round"/>
<path d="M12 12.9958C12 11.6458 10.6575 10.5508 9 10.5508C7.3425 10.5508 6 11.6458 6 12.9958" stroke="#164D59" stroke-width="1.5" stroke-linecap="round" stroke-linejoin="round"/>
</svg>