<svg width="21" height="20" viewBox="0 0 21 20" fill="none" xmlns="http://www.w3.org/2000/svg">
<g id="users/user-octagon">
<path id="Vector" d="M18.0664 7.15035V12.8503C18.0664 13.7837 17.5664 14.6503 16.7581 15.1253L11.8081 17.9837C10.9998 18.4503 9.99978 18.4503 9.18311 17.9837L4.23314 15.1253C3.4248 14.6587 2.9248 13.792 2.9248 12.8503V7.15035C2.9248 6.21702 3.4248 5.35032 4.23314 4.87532L9.18311 2.01699C9.99145 1.55033 10.9914 1.55033 11.8081 2.01699L16.7581 4.87532C17.5664 5.35032 18.0664 6.20868 18.0664 7.15035Z" stroke="#272727" stroke-width="1.5" stroke-linecap="round" stroke-linejoin="round"/>
<path id="Vector_2" d="M10.5002 9.16654C11.5726 9.16654 12.4419 8.29719 12.4419 7.22483C12.4419 6.15248 11.5726 5.2832 10.5002 5.2832C9.42789 5.2832 8.55859 6.15248 8.55859 7.22483C8.55859 8.29719 9.42789 9.16654 10.5002 9.16654Z" stroke="#272727" stroke-width="1.5" stroke-linecap="round" stroke-linejoin="round"/>
<path id="Vector_3" d="M13.8337 13.8837C13.8337 12.3837 12.342 11.167 10.5003 11.167C8.65866 11.167 7.16699 12.3837 7.16699 13.8837" stroke="#272727" stroke-width="1.5" stroke-linecap="round" stroke-linejoin="round"/>
</g>
</svg>
